/* XPM */
static const char *DateTime16_xpm[] = {
/* columns rows colors chars-per-pixel */
"16 16 146 2",
"2  c #96A5B5",
"C  c #F2F3F3",
"3  c #BECBD4",
"c. c #D9D9DC",
"5  c #EDECEB",
",  c #F7F7F7",
"b  c #F7F7F8",
"7  c #E3E1E0",
":. c #DCE6E9",
"*. c #FCFBFB",
"#. c #EDECEE",
"L  c #B4BDC5",
":  c #F0F0EE",
"$  c #E6E5E5",
"   c #FFFFFF",
"J  c #FAF8F8",
".. c #E9F2F5",
"|  c #BFCCD0",
"j  c #A6B2B9",
"E  c #FDFFFF",
"'  c #F8F8F7",
"!  c #F8F8FA",
"M  c #FDFCFC",
"w  c #E2E8E8",
"x. c #D3D3D3",
"]  c #FBFCFC",
"~  c #A9B3BB",
"d. c #E0EBEF",
"u  c #F6F5F4",
"W  c #F6F5F5",
"r  c #DBE4E7",
"N  c #B8BFC7",
";. c #C5D1D4",
"7. c #F4F5F5",
"Q  c #F9F9F7",
"2. c #F9F9F8",
"l. c #F9F9F9",
"4. c #EAEAEC",
"%. c #EFEEEF",
"B  c #DEE5E5",
"=. c #C0C4C8",
"%  c #B6B9BD",
"4  c #828E99",
"-. c #BECACE",
"A  c #CDD9DC",
"<  c #E3E3E3",
"K  c #FCFDFE",
"r. c #D7E1E4",
"n  c #F7F6F6",
"{  c #B4BCC1",
"1. c #F2EFF0",
"_  c #C3C5C9",
"8. c #C8C9CC",
">. c #FAFDFF",
";  c #E6E7E7",
"D  c #FAFAF9",
".  c #FAFAFA",
"k. c #71767C",
"X  c #FAFAFC",
"e. c #FFFEFE",
"x  c #F5F3F5",
"p. c #E9F1F3",
"h  c #E4EAEC",
"/  c #97A2A3",
"^  c #C9D6D8",
"a  c #F3F3F2",
"6  c #F3F3F3",
"f. c #F3F3F4",
")  c #E2EDF1",
"$. c #F8F7F7",
"a. c #92959A",
"S  c #BABBBE",
"1  c #D8D9DA",
"9  c #E7E8E8",
"i. c #D6E2E5",
"v  c #ECECEC",
"(  c #AEB6B8",
"+  c #FBFBFB",
"#  c #FBFBFC",
"&  c #F6F4F4",
"c  c #F6F4F5",
"v. c #F1EDED",
"q. c #EAF2F5",
"9. c #C0CFD3",
"o. c #B8BBBE",
"X. c #F9FEFF",
"g  c #E0E4E6",
"Y  c #CAD7DB",
"y. c #FEFFFE",
"*  c #E5E5E5",
"&. c #F4F4F3",
">  c #E5E5E6",
"0  c #F4F4F4",
"[  c #F4F4F5",
"@. c #F9F8F8",
"y  c #F9F8F9",
"t  c #93999F",
"j. c #C0C6CD",
"t. c #E8EFF4",
"f  c #E8ECEE",
"<. c #BBBCBF",
"u. c #879199",
"8  c #E8E9E9",
"5. c #EDEDED",
"@  c #FCFCFC",
"H  c #F2F1F2",
"R  c #B9BCBF",
"n. c #EBEDED",
",. c #F5F8F9",
"q  c #99A7B5",
" . c #D5E0E3",
"F  c #F5F5F4",
"-  c #F5F5F5",
"p  c #F5F5F6",
"m. c #FAF9FA",
"Z  c #DFE5E6",
"w. c #B2B5B9",
"P  c #E9EDEF",
"s  c #D0D3D6",
"U  c #BAC6C9",
"0. c #C9D5D9",
"T  c #D8E4E8",
"3. c #EEEEEE",
"+. c #F8F9FA",
"z. c #FDFDFC",
"i  c #F8F9FB",
"g. c #FDFDFD",
"e  c #DDE2E3",
"s. c #CCDCE4",
"z  c #F6F6F5",
"6. c #ECEBEA",
"=  c #F6F6F6",
"G  c #F6F6F7",
"m  c #FBFAF9",
"O. c #F1EFEE",
"`  c #FBFAFB",
"V  c #EAEEF0",
"h. c #7A848B",
"I  c #F4F6F7",
"o  c #FEFEFD",
"k  c #F4F3F2",
"d  c #CFDAE0",
"O  c #FEFEFE",
"l  c #F4F3F3",
"b. c #D6D5DA",
"}  c #D9E2E4",
/* pixels */
"            .   X o             ",
"O + + @ # @ + . O     $ % &     ",
"* = - ; : > - , <   1 2 3 4 5   ",
"6 - = 7 8 9 = 0 6   q w e r t   ",
"y u , i p a - ,   s d f g h j k ",
"l z x c v b n m M N B V C Z A S ",
"D   F 0 G H J K & L P I U Y T R ",
"m E = W 6 b Q !   ~ f ^ / ( ) _ ",
"` O ' ] a [ l .   { } |  ...X.o.",
"O.+.@.#.$.%.&.= *.=.-.;.:.>.,.<.",
"1.2.$.3.4.5.6.7.] 8.9.0.q.  w.e.",
"r.t.` [ ,     y.O   u.i.p.  a.  ",
"s.d.m f.6 O o   g.  $ h.j.k.    ",
"    + + O l.z.. +       x.      ",
"                      c.v.b.    ",
"                      n.c m.    "
};
