/* XPM */
static const char *DateTime_xpm[] = {
/* columns rows colors chars-per-pixel */
"32 32 427 2",
"MO c #D7DBDC",
"]. c #C8D3DB",
"$  c #DDDDDD",
"P  c #CED8DD",
"uX c #CED8DE",
"No c #E3E2E0",
"T. c #DADFE0",
"8X c #E3DFE0",
"R  c #D7DEE1",
"vX c #E3E2E2",
"Co c #E0E1E3",
"oo c #E3E2E5",
"to c #E6E6E7",
"U  c #E3E8EA",
"b  c #E9EAEB",
"`  c #E6ECEC",
"OX c #E0EAEC",
"-O c #C5DEEC",
"]X c #ECEBEC",
"f. c #E9EDEF",
"4X c #F5F1EF",
"1O c #7C7F83",
"9O c #828485",
"{. c #EFF2F3",
"F  c #F5F4F3",
",O c #EFEFF3",
",  c #F5F4F4",
"KX c #F2F3F4",
"ko c #ECF4F7",
")X c #7F8389",
"<  c #F8F8F8",
"@. c #FEFDFA",
"/  c #F8F8F9",
"Ao c #F5F7FA",
"F. c #FEFDFB",
"$O c #FBFCFC",
":o c #FEFDFC",
".O c #FEFDFD",
"%. c #FBFCFD",
"do c #888F97",
"j  c #949699",
"qO c #9198A2",
"XO c #ACADAE",
">X c #A6AEB1",
"R. c #BBC7CA",
"d  c #C4CDD1",
"$o c #C1CFD2",
"A  c #C4D0D4",
"v  c #D3D2D4",
"#o c #CAD5D7",
"%o c #CAD5D8",
"}o c #D6D6D8",
"MX c #CAD5D9",
"7X c #DCDBDA",
"bO c #DCD8DA",
"'o c #D9DADB",
"[  c #D9DDDF",
"RX c #D6DFE1",
"&o c #D3DEE1",
"O. c #E8E5E3",
"Z  c #DCE4E5",
"5O c #D9DDE4",
"]  c #E5EAEB",
"AX c #DFE8EB",
"i. c #EEEDEB",
"-. c #EEEDED",
"&. c #F1EEEE",
"g. c #EBEFEF",
"^o c #E5EDF0",
"Bo c #EBECEF",
"bX c #F1F1F1",
"+. c #EBECF0",
"*O c #D9ECF4",
"'X c #F4F2F3",
"o  c #F1F1F4",
".. c #F7F6F6",
"_. c #F4F5F7",
"<O c #FAFAF9",
"+  c #FAFAFA",
"xX c #F7F9FA",
"^  c #FAFAFB",
"$X c #FDFEFD",
"dO c #FDFEFE",
"+X c #81888F",
"lo c #FAFDFE",
"zo c #FDFEFF",
"4o c #A2ABB3",
"j. c #BDC6C9",
"&X c #B4C0C8",
"s. c #C3CBCE",
"-X c #C6D2D5",
" X c #C9D6D9",
"k. c #CCD7DA",
"w. c #DBD6D9",
"B. c #D2DCDF",
"DX c #D5DDE0",
"7O c #E1E1E1",
"V. c #D5E0E3",
"4. c #DBE2E4",
"{o c #E7E6E8",
"jo c #DEE6E9",
"x  c #E7E9E9",
"zX c #EDEBEA",
"y  c #E7E9EB",
"To c #DEE9EE",
"o. c #EAEAED",
"so c #EDEEEF",
"rX c #F0EFF0",
"yo c #F3F3F2",
"nX c #F3F3F3",
"}X c #F3F3F4",
"). c #F9F8F6",
":  c #F6F7F7",
"#O c #F3F6F8",
"PX c #F6F7F8",
"nO c #FFFDFB",
"Eo c #FCFCFB",
"2  c #FCFCFC",
"eX c #F6F7FB",
"`X c #F9FEFF",
"l. c #898C91",
"S  c #808993",
"kX c #8C939B",
"_o c #A7A8A9",
"p  c #A1A9B4",
"5  c #98A6B4",
"u  c #B6B6B6",
"Do c #B9BABD",
"v. c #A4B0BC",
"YX c #C5C7CA",
"E. c #C2CFD2",
"aX c #C2CFD3",
"rO c #DADADA",
"gX c #D1DADC",
"q. c #DAD7DC",
"Io c #646971",
"oX c #D4DEE1",
">O c #E9E8E5",
"=. c #E6E4E4",
"|o c #E9E8E6",
"K  c #E6E7E6",
"xO c #E6E1E5",
"ao c #E9E8E7",
"h. c #E3E6E7",
"Y  c #E3E9EB",
"bo c #ECECEC",
"no c #ECECED",
"<X c #E3ECEE",
"IX c #F2F1F0",
"b. c #ECEFF0",
"/. c #EFF0F2",
"LX c #F5F5F4",
"`o c #E3EFF5",
"q  c #F5F5F5",
"X  c #EFF0F4",
"uo c #F5F5F7",
"wO c #797F89",
"2o c #F8F9F9",
"kO c #F8F9FA",
"3X c #FBFAFA",
"0o c #F2F7FA",
"Lo c #F2F7FB",
"JX c #FEFEFC",
"z. c #FEFEFD",
"/o c #F8FCFE",
"n  c #FEFEFE",
"@X c #FEFEFF",
":X c #A0AAAC",
"oO c #94A0AB",
"xo c #A9ADB3",
"%  c #AFB2B7",
"|. c #A9B6B9",
":. c #A6AFB8",
"6. c #A6B2BA",
"mX c #B2B6BB",
"5o c #B2BFC4",
"a  c #A9B9C7",
"lO c #C7C6CA",
"fX c #C1CACD",
"TX c #BBC5CC",
"_X c #D9D2D1",
"QX c #C7D2D6",
"[X c #D3D0D4",
"c  c #D9D8D7",
":O c #D6D7D9",
"Q. c #CAD6DA",
"EX c #CDD7DA",
"Qo c #CDDADC",
"e. c #DCDCDB",
"N. c #D3DCDE",
"fo c #D0DBDE",
" o c #E5E2E1",
"+O c #D9E1E4",
"e  c #DFE0E3",
"C  c #DCE2E4",
"OO c #D9E4E6",
"iX c #E2E7E9",
"J. c #EEEBEA",
"3o c #EBEAEA",
"*. c #E8E9EA",
";O c #F1EFEC",
"H. c #EBEAEB",
"d. c #E5EBEC",
"m. c #EBEDED",
"po c #E8E9EC",
"1. c #E8ECEE",
"0X c #F1EFF0",
"G  c #F1F2F2",
"HX c #F4F3F3",
"qo c #F1F2F3",
"9X c #F1F2F4",
"@  c #F7F7F7",
"Q  c #818389",
"H  c #F7F7F8",
"9  c #84878B",
"io c #FDFCFA",
"t. c #FAF8F9",
"%O c #F4F6FA",
"FX c #F1F8FB",
"^. c #FDFCFB",
"jO c #FDFCFC",
"9. c #F7F7FC",
"5X c #F7FAFD",
"=  c #B4B5B6",
"yX c #AEB3B9",
"+o c #B4BEC5",
"1X c #B1C0C8",
"P. c #C3C6CA",
"eO c #5C6063",
"6O c #595F66",
"zO c #D5D2D5",
"r  c #DBDAD7",
"T  c #D2D7D8",
"w  c #DEDBD9",
"vo c #DEDBDA",
"E  c #D2DADC",
"Yo c #C6D6DD",
"!X c #CFD9DD",
"V  c #D5DBDE",
"*X c #D8DFE0",
"5. c #D5DEE1",
"XX c #D2DDE1",
"(o c #DBE0E3",
"~X c #D8E2E5",
"M. c #DEE4E6",
"0O c #6B717A",
"'  c #E4E9EA",
"tX c #EAEBEB",
",. c #E4E9EB",
"1o c #EDECEC",
"U. c #EAEEEF",
"-o c #EAEEF0",
"Vo c #F6F5F2",
"9o c #E7F0F2",
"Xo c #F6F5F3",
"{X c #F3F1F2",
"n. c #F0F3F3",
"~. c #777E85",
"cX c #F6F5F4",
"1  c #F6F5F5",
"<o c #F3F4F5",
"gO c #F9F9F8",
"Po c #F6F8F8",
"-  c #F9F9F9",
" . c #7D868D",
".  c #FFFEFC",
"jX c #F3FAFC",
"Ro c #FCFDFD",
"mo c #FFFEFD",
"fO c #FCFDFE",
"GX c #83888F",
"0  c #BCBCBC",
"'. c #B6BAC0",
"M  c #A4B4C2",
")o c #BFC3CA",
"_  c #B0BECA",
"sX c #C2CDD0",
"@o c #C2CDD1",
"I. c #BCC8D0",
"Zo c #D7D4D2",
"t  c #D1CFD1",
"go c #C2D0D3",
"Go c #C5D1D4",
"W  c #CBD6DB",
".X c #CEDADD",
"k  c #E0E0E0",
"=X c #D7E0E1",
"ZX c #D4DFE2",
"0. c #E6E5E2",
"$. c #E0E0E2",
"}  c #DAE1E3",
"!. c #D4DFE3",
"wX c #E9E6E3",
"ro c #E6E5E6",
"{  c #E0E6E8",
"`. c #E6E5E7",
"i  c #E9E9E9",
"*o c #E0E9EC",
"<. c #E6EBEC",
"#. c #E9E9EC",
"3O c #E3EDF0",
"[o c #F5F3F0",
"S. c #EFEEEF",
"G. c #ECEDEF",
"^X c #E6EEF0",
"]o c #D4E5F0",
"lX c #EFEEF0",
"C. c #7C8187",
",o c #F8F7F6",
"=o c #ECF3F6",
"hO c #F5F6F7",
"sO c #FBFBFA",
"!  c #FBFBFB",
"yO c #FBFBFC",
"#X c #FEFFFE",
"K. c #F8FAFD",
"4O c #F5FCFF",
"UX c #FEFFFF",
"pO c #ACACAD",
"8  c #949EAB",
"2O c #97A2AD",
",X c #A9B1B3",
"a. c #A3AFBC",
"m  c #B2B7BD",
"WX c #C1CED1",
"Ho c #C1CED2",
"&O c #5A5F65",
"@O c #C1CED4",
"6o c #C7D3D6",
"W. c #C7D3D7",
"iO c #D9D9D9",
"7o c #CDD8DB",
"I  c #D3DADC",
"l  c #DFDEDC",
"D  c #DFDEDE",
"6X c #DFDEDF",
"NO c #E5E3E2",
"f  c #D6DEE2",
"u. c #E5E0E1",
"|  c #D9E2E4",
"8o c #D9E2E5",
"}. c #DCE3E5",
"3. c #E2E8E9",
"[. c #E5E9EC",
"B  c #E5ECED",
"BO c #F1EDEF",
">o c #EEEFF0",
"Z. c #F4F4F3",
";  c #F4F4F4",
"VO c #F7F5F5",
".o c #F1F3F5",
";o c #7B7F86",
"J  c #F7F8F7",
" O c #F4F4F8",
"~  c #FAF9F9",
"/X c #EEF5F9",
"x. c #FDFDFC",
"#  c #FDFDFD",
"A. c #FDFDFE",
"Wo c #7E8690",
"*  c #8A9096",
"eo c #9C9FA0",
"7. c #B7B7B9",
"%X c #B1B5BB",
"!o c #A8B8BF",
"vO c #B4B3BD",
"aO c #C0C0C0",
"7  c #ABB9C5",
"6  c #AEBDC8",
"VX c #C3D0D3",
"z  c #D2CFD1",
"cO c #DED6D4",
"N  c #C9D2D5",
"8. c #D8D7D5",
"3  c #D5D6D6",
"Oo c #D5D6D7",
"pX c #CCD6D9",
"Mo c #D8DADB",
"c. c #DEDFE0",
"mO c #E1E0E1",
"Jo c #D5DFE2",
"p. c #DEDFE1",
"8O c #CCDCE3",
"2. c #DEE2E3",
"wo c #D8DDE2",
"r. c #E4E4E4",
"L. c #E4E4E5",
"~o c #DBE4E7",
"y. c #E4E4E6",
"NX c #DEE5E7",
"(. c #E7E5E7",
"SX c #E1E9EB",
"So c #EDEDEC",
">. c #E4EAEC",
"D. c #EDEDED",
"Ko c #E4EDEF",
"CO c #EAE9EE",
"Uo c #EAEFF0",
"qX c #EDEDEF",
";X c #7A8384",
"hX c #EAF2F3",
"|X c #F6F3F5",
">  c #F6F6F6",
"Y. c #F3F5F6",
"uO c #F6F6F7",
"(  c #F9FAFA",
";. c #FCFBFA",
"tO c #FFFCFB",
"O  c #FCFBFB",
"X. c #FFFFFE",
"(X c #F9FDFF",
"   c #FFFFFF",
"2X c #8F969C",
"&  c #8C929B",
"4  c #A1A8B3",
"h  c #9EAAB5",
"L  c #9EAAB8",
"Fo c #AAB7BE",
")  c #B9BCC2",
"dX c #BFCACD",
"co c #D4D4D5",
"=O c #C2D1D7",
"ho c #C8D3D7",
"g  c #C5D2D9",
"BX c #CED8DA",
"CX c #CBD7DB",
"s  c #C8D3DA",
/* pixels */
"                        . X       o   O                         ",
"                                                                ",
"                                                                ",
"+ @ @ @ @ @ @ @ @ @ @ @ @ @ @ @ @ #         $ % & * =           ",
"- - ; ; ; ; : > , @ < 1 ; ; ; ; - 2       3 4 5 6 7 8 9         ",
"- 0 - q q @ w e : r t y > q q + u       i p a s d f g h j       ",
"2 k @ q q @ l z x c v b > q q @ k n     m M N B V C Z A S D     ",
"- > ; ; ; ; @ F G H J q ; ; ; ; q 2   K L P I U Y T R E W Q     ",
"! ~ < ^ + < + / ! - ( + < + < - < #   ) _ ` Y ' ] [ { } |  ...  ",
"X.o.  O.+.@.#.  $.%.&.*.  =.  -.(   ;.:.s >.,.<.1.2.3.4.5.6.7.  ",
"  8.9.0.q.  w.  e.r.t.y.  u.  i.p.  i a.s.d.<.f.g.h.] Z j.k.l.  ",
"n   z.    2   x.    #   2   # n     c.v.B ,.1.b.n.m.M.N.B.V.C.  ",
"  Z.A.  S.  D.  F.G.  H.  J.K.  L.  P.I.U ] U.Y.T.R.E.W.Q.!.~.  ",
"  1 A.  H.  i   ^./.  (.  )._.  `.  '.].U [.{.}.|. X.XXXoXOX+X  ",
"  ! n   X.        @X#X    2     $X  %X&X*Xf.=X-X;X:X>X,X<X1X2X3X",
"  4X5X  6X  7X  8X9X0XqX  wXeXrXtX  yXuXiX4.pXaXsXdXfXgXhXjXkXx.",
"  H     lX  ;   zXxXcXG.  vX  bXnX  mXMXNXBX-XVXCXZXAXSXDXFXGX  ",
"  HX  H > JXKX  LXPX+ >   IXUX@ @   YXTXRXEXWXQX!X~X^X/X(X  )X  ",
"  _X`X'X]X  [X  {X}X|X$.   o.oXooo  Oo+o@o#o$o%o&o*o=o5X-o  ;o  ",
"  'X  ; @ :o>o  IXUX,o<o  1o  nX2o  3o4o5o6oA 7o8o9o0o  qowoeo  ",
"  ro  nXnX  to  youoiopo  ao  F so    dofogohofojokolo  zoxoco  ",
"  vo  bonomoMo  NoBoVoCo  ZoAoSoG     DoFoGoHoJoKoLoPo#   Io    ",
"UoYoTo  n   @X  @X  # Ro  !   Eo      F WoQo!o~o^o/o  (o)o_o    ",
"`o'o]o[o{o  }o  |o O  +   .O%.  -       XOoOOO+O@O#O$O%O&O      ",
"*O=O-O;OtoX.:O  >O,O  -   <OA.  -         1O2O3O4O  5O6O7O      ",
"-o8OTo                                      9O0OqOwOeOrO        ",
"  tO    @   >   n -   q   - yO+ uO            iOpOaO            ",
"  sOdO  ^   -   mofO  -   EodO3X+                               ",
"                                          mogOhOjOq kO          ",
"                                            lOzOxOcOvObO        ",
"                                          nOmOMONOBOVOCO        ",
"                                                                "
};
