/* XPM */
static const char *wxTimePickCtrl16_xpm[] = {
/* columns rows colors chars-per-pixel */
"16 16 130 2",
".  c Black",
"l  c #000001",
"F  c #C6BFFF",
"s  c #D3CEFF",
"w. c #23222A",
"b  c #C9C3FF",
"3  c #171718",
"8. c #BFB8FF",
"0. c #9893BF",
"e  c #BEBCD1",
"5  c #010102",
".. c #010103",
";. c #ABA2FF",
":  c #D4CFFF",
">. c #BDB5FF",
"$. c #C5C0F7",
"/  c #E6E2FF",
"`  c #B3AAFF",
"4  c #090909",
"&  c #09090A",
"H  c #1D1C24",
"T  c #B6AEFF",
"$  c #A6A3B5",
"5. c #827ABF",
"v  c #C3BDFF",
"*. c #A6A3BF",
"1. c #D5D0FF",
"w  c #E2DFFF",
"8  c #CBC5FF",
"f  c #9A98B1",
"A  c #B4ABFF",
"&. c #D8D4FF",
"O  c #0A0A0D",
"i  c #C1BAFF",
"U  c #4A466F",
"{  c #B0ABDF",
"%. c #CEC9FB",
"%  c #3C3B40",
"z  c #7E77B5",
"J  c #BDBAE1",
"x  c #B7AFFF",
";  c #66647F",
"r. c #34304E",
"3. c #141220",
",  c #E0DCFF",
"p. c #030304",
"o. c #7E77BF",
" . c #C5C2D9",
"V  c #EDEBFF",
"4. c #635D97",
"i. c #413F54",
"L  c #E3E0FF",
"+. c #B5ACFF",
"t  c #8A8A91",
"I  c #717079",
"   c None",
"N  c #AFACC7",
"E  c #C2BBFF",
"t. c #958ED9",
"Z  c #4B476F",
"y. c #5A567F",
"k  c #47474A",
"n  c #CFCAFF",
"'  c #B8B0FF",
"!  c #76748F",
"2. c #8A87A1",
"9. c #C5BFFF",
"o  c #040405",
"|  c #8A87A5",
"y  c #040407",
"g  c #131316",
"0  c #D7D2FF",
"@  c #605E6F",
"D  c #C0B8FF",
"u. c #AAA5E1",
"}  c #272630",
"a  c #CDC7FF",
"-  c #8F8BB7",
"W  c #948FBD",
">  c #DAD6FF",
"+  c #928FAD",
"q. c #8380A1",
",. c #C3BCFF",
")  c #7D75BF",
"6  c #8A84B9",
"X. c #2C2A46",
"9  c #D0CBFF",
"7. c #B9B1FF",
"K  c #DDDAFF",
"#. c #C6C0FF",
"O. c #AFA6FF",
"M  c #141418",
"*  c #0A090D",
"R  c #BCB5FF",
"(  c #73727D",
"[  c #C4BDFF",
"_  c #ADA3FF",
"S  c #BAB2FF",
"C  c #C3C1CD",
"r  c #D2D0E1",
"p  c #C7C1FF",
"Y  c #B0A7FF",
"X  c #060608",
"d  c #D9D4FF",
"c  c #BDB6FF",
"<  c #E6E3FF",
"<. c #CFC9FF",
"=. c #474650",
"6. c #B3ABFF",
"q  c #DCD8FF",
"2  c #83828B",
"7  c #C5BEFF",
"G  c #767395",
"e. c #040306",
"-. c #5F5993",
"P  c #E9E7FF",
"u  c #5D597F",
"Q  c #131218",
"@. c #BBB3FF",
"1  c #B0AFBF",
"h  c #A6A4B5",
"^  c #DFDCFF",
":. c #B1A8FF",
"~  c #DAD5FF",
"#  c #63616F",
"=  c #0C0B10",
"]  c #BEB7FF",
"j  c #B3B3BF",
"B  c #E7E4FF",
"m  c #77748F",
/* pixels */
"                                ",
"        . X . . . . o .         ",
"      O . . + @ # $ % . &       ",
"    * = - ; : > , < 1 2 3 4     ",
"  . 5 6 7 8 9 0 q w e r t . .   ",
"  y 5 u i p a s d f g h j k l   ",
"  . z x c v b n m M N B V C .   ",
"  . Z A S D F G H J K L P I . . ",
"  . U Y T R E W Q ! ~ ^ / ( . . ",
"  . ) _ ` ' ] [ { } | q w  ..   ",
"  ..X.o.O.+.@.i #.$.%.&.*.=..   ",
"  . . -.;.:.x >.,.b <.1.2.. .   ",
"    y 3.4.5.6.7.8.9.0.q.w.o     ",
"      e.. r.t.y.u u.i.. p.      ",
"        . . . . . . . .         ",
"              . .               "
};
