/* XPM */
static const char * wxImageButton16_xpm[] = {
/* width height num_colors chars_per_pixel */
"16 16 54 1",
/* colors */
"  c None",
"! c #ffffff",
"# c #eae6dc",
"$ c #e5dbce",
"% c #dfdbd2",
"& c #d4d0c8",
"' c #d0c7b0",
"( c #cfd3c6",
") c #cad6c4",
"* c #c5bba2",
"+ c #c0a080",
", c #c08880",
"- c #b09080",
". c #b09070",
"/ c #b08880",
"0 c #b08080",
"1 c #aaa8a4",
"2 c #aaa094",
"3 c #aa9884",
"4 c #a58c72",
"5 c #a0a0a0",
"6 c #a08070",
"7 c #a08060",
"8 c #a07050",
"9 c #957c72",
": c #907860",
"; c #907050",
"< c #906060",
"= c #906050",
"> c #886060",
"? c #886040",
"@ c #807080",
"A c #806870",
"B c #806850",
"C c #806050",
"D c #806040",
"E c #805040",
"F c #786060",
"G c #786050",
"H c #786040",
"I c #784840",
"J c #706060",
"K c #706050",
"L c #706040",
"M c #705040",
"N c #704020",
"O c #685040",
"P c #684020",
"Q c #606060",
"R c #604840",
"S c #604040",
"T c #584840",
"U c #584030",
"V c #404040",
/* pixels */
"                ",
"                ",
"!!!!!!!!!!!!!!!V",
"!&&&&&&&&&&&&&1V",
"!&%##########&1V",
"!&#=><???EEEI&1V",
"!&#;$!'/,0678&1V",
"!&#:()*++-@A.&1V",
"!&#G23334KJF9&1V",
"!&#SMMMPNOTUR&1V",
"!&#CBLHLHDHLL&1V",
"!&&&&&&&&&&&&&1V",
"!&&&&&&&&&&&&&1V",
"5QQQQQQQQQQQQQQV",
"                ",
"                "
};
