/* XPM */
static const char * wxsAuiManager32_xpm[] = {
"32 32 3 1",
" 	c None",
".	c #D4D0C8",
"+	c #AFAEAA",
"..........+.+...................",
"..........+.+...................",
"..........+.+...................",
"..........+.+...................",
"..........+.+...................",
"..........+.+...................",
"..........+.+...................",
"..........+.+...................",
"..........+.+...................",
"..........+.+...................",
"..........+.+...................",
"..........+.+...................",
"..........+.+...................",
"..........+++...................",
"+++++++++++.+...................",
"..........+++...................",
"+++++++++++.+...................",
"..........+++...................",
"..........+.+...................",
"..........+.+...................",
"..........+.+...................",
"..........+.+...................",
"..........+.+...................",
"..........+.++++++++++++++++++++",
"..........+.+.......+.+.+.......",
"..........+.++++++++++++++++++++",
"..........+.+...................",
"..........+.+...................",
"..........+.+...................",
"..........+.+...................",
"..........+.+...................",
"..........+.+..................."};
