/* XPM */
static const char * wxsAuiManager16_xpm[] = {
"16 16 5 1",
" 	c None",
".	c #D4D0C8",
"+	c #C1BEB8",
"@	c #B8B6B1",
"#	c #C2BFB9",
".....++.........",
".....++.........",
".....++.........",
".....++.........",
".....++.........",
".....++.........",
".....@+.........",
"#####@+.........",
"#####@+.........",
".....++.........",
".....++.........",
".....+@+++++++++",
".....+@+++@@@+++",
".....++.........",
".....++.........",
".....++........."};
