/* XPM */
static const char * wxsAuiToolBar16_xpm[] = {
"16 16 76 1",
" 	c None",
".	c #D4D0C8",
"+	c #DFDCD6",
"@	c #EAE8E4",
"#	c #A5A29D",
"$	c #D8D6D4",
"%	c #D8D7D8",
"&	c #D8D8D8",
"*	c #CECED0",
"=	c #D4D2CC",
"-	c #D0CECB",
";	c #DAD6CF",
">	c #F6F7F8",
",	c #FCFEFC",
"'	c #E4E4ED",
")	c #D7D8E0",
"!	c #D1CEC9",
"~	c #BCC3D0",
"{	c #A5B6D8",
"]	c #C4C7D6",
"^	c #D7DCEA",
"/	c #C8CFE7",
"(	c #B6B3AD",
"_	c #C8C5BF",
":	c #F5F7F8",
"<	c #ECECF2",
"[	c #CCCEDC",
"}	c #B0AEB4",
"|	c #95A2D2",
"1	c #9EBCF5",
"2	c #B2C9F5",
"3	c #86A1E4",
"4	c #4D6ED0",
"5	c #5A63BD",
"6	c #FAF9F8",
"7	c #F9FAFC",
"8	c #EEEDF6",
"9	c #E4E6F0",
"0	c #B3B2B6",
"a	c #9395C5",
"b	c #C4E4F8",
"c	c #98C4F9",
"d	c #508BF0",
"e	c #204DCC",
"f	c #4D5FC0",
"g	c #F4F5F8",
"h	c #F8F8FC",
"i	c #F2F2FA",
"j	c #EBECF6",
"k	c #B4B2B6",
"l	c #9496C5",
"m	c #D4ECFB",
"n	c #B3CFF8",
"o	c #8CA4E7",
"p	c #7280CB",
"q	c #757EC4",
"r	c #F5F5F8",
"s	c #FAF9FC",
"t	c #F4F4FC",
"u	c #EEEEF8",
"v	c #B4B3B7",
"w	c #8E90C2",
"x	c #9EA2DA",
"y	c #9CA0D9",
"z	c #8F94CF",
"A	c #8688C3",
"B	c #CAC9C8",
"C	c #C8C7C6",
"D	c #C7C6C6",
"E	c #C5C4C6",
"F	c #C2BFBD",
"G	c #D2CEC9",
"H	c #CFCCCA",
"I	c #D1CECA",
"J	c #757472",
"K	c #606060",
"                ",
"                ",
"                ",
"..+@@@@@@@@@@@@@",
"#$@.%&*=.....--.",
";@@.>,')!.~{]^/.",
"(_@.:,<[}.|12345",
"_6@.:7890.abcdef",
"..@.ghijk.lmnopq",
"#$@.rstuv.wxxyzA",
";@@.BCDEF.GHHHHI",
"JKKKKKKKKKKKKKKK",
"                ",
"                ",
"                ",
"                "};
