/* XPM */
static const char * wxsAuiToolBarSeparator32_xpm[] = {
"32 32 21 1",
" 	c None",
".	c #D4D0C8",
"+	c #FFFFFF",
"@	c #E3DFDA",
"#	c #EEEBE8",
"$	c #ACA498",
"%	c #C5C3C6",
"&	c #ACADC8",
"*	c #A4A4C3",
"=	c #9596B7",
"-	c #E0E3EE",
";	c #8F92A1",
">	c #8789AC",
",	c #E8EAF3",
"'	c #9494A6",
")	c #9395A5",
"!	c #9495A5",
"~	c #3F4272",
"{	c #2C2B5D",
"]	c #808080",
"^	c #404040",
"                                ",
"                                ",
"                                ",
"                                ",
"                                ",
"                                ",
"        ..................      ",
"       +++++++++++++++++++      ",
"       ..................       ",
"        ........@#.........     ",
"         .......$+........%%    ",
"         .......$+........&&&   ",
"         .......$+........***   ",
"        ........$+........===   ",
"      -;........$+........>     ",
"      ,'........$+........      ",
"       )........$+.......       ",
"       !........$+.......       ",
"        ........$+........      ",
"         .......$+........~~    ",
"         .......@#........{{{   ",
"        .....................   ",
"      ]]]]]]]]]]]]]]]]]]]]]]]   ",
"      ^^^^^^^^^^^^^^^^^^^^^^    ",
"                                ",
"                                ",
"                                ",
"                                ",
"                                ",
"                                ",
"                                ",
"                                "};
