/* XPM */
static const char * wxsAuiToolBarLabel16_xpm[] = {
"16 16 51 1",
" 	c None",
".	c #F0EFEC",
"+	c #EAE8E4",
"@	c #E7E5E1",
"#	c #D4D0C8",
"$	c #A5A29C",
"%	c #BEBAB3",
"&	c #6C6A66",
"*	c #B8B8C7",
"=	c #CFCBC4",
"-	c #585753",
";	c #787671",
">	c #D2CEC6",
",	c #5B5956",
"'	c #9D9A95",
")	c #BBB7B0",
"!	c #C7C3BC",
"~	c #98958F",
"{	c #B5B1AA",
"]	c #9C9DBD",
"^	c #B3B2B6",
"/	c #9D9A94",
"(	c #76736F",
"_	c #615F5B",
":	c #C0BDB5",
"<	c #504F4C",
"[	c #918E89",
"}	c #666460",
"|	c #7B7874",
"1	c #8F8D87",
"2	c #BCB9B2",
"3	c #B8B6B9",
"4	c #676561",
"5	c #8E8B86",
"6	c #72706C",
"7	c #96938D",
"8	c #53514E",
"9	c #9F9C96",
"0	c #64625E",
"a	c #75736E",
"b	c #C4C0B9",
"c	c #A6A39C",
"d	c #D3CFC7",
"e	c #CBC7C0",
"f	c #AEABA4",
"g	c #908D88",
"h	c #B4B1AA",
"i	c #898681",
"j	c #ADAAA3",
"k	c #807E92",
"l	c #606060",
"                ",
"                ",
"                ",
" .+++++++++++@  ",
" #############  ",
"  ##$%#&######* ",
"  #=-;>,')!~{#] ",
" ^#/(_:<[}|12#  ",
" 3#4567890a'b#  ",
"  #cdef'ghbij#  ",
"  ############k ",
" llllllllllllll ",
"                ",
"                ",
"                ",
"                "};
