/* XPM */
static const char * wxsAuiToolBarLabel32_xpm[] = {
"32 32 58 1",
" 	c None",
".	c #D4D0C8",
"+	c #FFFFFF",
"@	c #000000",
"#	c #C5C3C6",
"$	c #97948E",
"%	c #93918B",
"&	c #ACADC8",
"*	c #3E3D3A",
"=	c #444240",
"-	c #3B3A38",
";	c #A4A4C3",
">	c #B8B5AE",
",	c #252423",
"'	c #D0CCC4",
")	c #242322",
"!	c #B7B4AD",
"~	c #62615D",
"{	c #080807",
"]	c #1E1E1D",
"^	c #A6A39C",
"/	c #ABA8A1",
"(	c #282726",
"_	c #020202",
":	c #9596B7",
"<	c #E0E3EE",
"[	c #8F92A1",
"}	c #615F5B",
"|	c #8D8A85",
"1	c #605E5A",
"2	c #7B7974",
"3	c #CBC7C0",
"4	c #797772",
"5	c #262524",
"6	c #777570",
"7	c #CECAC2",
"8	c #8789AC",
"9	c #E8EAF3",
"0	c #9494A6",
"a	c #CDC9C1",
"b	c #0F0F0E",
"c	c #0E0E0E",
"d	c #CCC8C0",
"e	c #030303",
"f	c #9395A5",
"g	c #84817C",
"h	c #3C3B39",
"i	c #7D7B76",
"j	c #272624",
"k	c #9495A5",
"l	c #2B2A28",
"m	c #96938D",
"n	c #2C2B29",
"o	c #AAA7A0",
"p	c #3F4272",
"q	c #2C2B5D",
"r	c #808080",
"s	c #404040",
"                                ",
"                                ",
"                                ",
"                                ",
"                                ",
"                                ",
"   .........................    ",
"  ++++++++++++++++++++++++++    ",
"  .........................     ",
"   ..........................   ",
"    ..........@.............##  ",
"    ....$@%...@.............&&& ",
"    ....*=-...@.............;;; ",
"   ....>,')!..@~{]^./(_@....::: ",
" <[....}|.|1..@234,.567.....8   ",
" 90...ab@@@ca.@d.3e.e3......    ",
"  f...gh...hg.@id2,.j67....     ",
"  k...lm...mn.@~{]^.o5@@...     ",
"   .........................    ",
"    ........................pp  ",
"    ........................qqq ",
"   ............................ ",
" rrrrrrrrrrrrrrrrrrrrrrrrrrrrrr ",
" sssssssssssssssssssssssssssss  ",
"                                ",
"                                ",
"                                ",
"                                ",
"                                ",
"                                ",
"                                ",
"                                "};
