/* XPM */
static const char * wxsAuiNotebook32_xpm[] = {
"32 32 120 2",
"  	c None",
". 	c #D4D0C8",
"+ 	c #D4D1C8",
"@ 	c #D4D0C9",
"# 	c #D5D0C9",
"$ 	c #D5D0C8",
"% 	c #D5D1CA",
"& 	c #D5D1C9",
"* 	c #D5D2C9",
"= 	c #D5D2CA",
"- 	c #AFAEAA",
"; 	c #D7D3CB",
"> 	c #D7D3CC",
", 	c #D9D5CE",
"' 	c #D9D6CF",
") 	c #D8D5CD",
"! 	c #D8D4CD",
"~ 	c #DAD7D0",
"{ 	c #DCD9D3",
"] 	c #DDDAD3",
"^ 	c #DDDAD4",
"/ 	c #DCD8D1",
"( 	c #DBD8D1",
"_ 	c #FFFFFF",
": 	c #E0DDD7",
"< 	c #E0DED8",
"[ 	c #E1DDD8",
"} 	c #DFDCD6",
"| 	c #E4E1DC",
"1 	c #E3E1DB",
"2 	c #A6A6A6",
"3 	c #000000",
"4 	c #040403",
"5 	c #262524",
"6 	c #95928D",
"7 	c #E8E6E1",
"8 	c #E8E5E1",
"9 	c #E6E5DF",
"0 	c #4B4B4B",
"a 	c #040404",
"b 	c #4C4C4C",
"c 	c #CECAC2",
"d 	c #918E89",
"e 	c #0E0D0D",
"f 	c #EBEAE6",
"g 	c #EAE9E4",
"h 	c #FDFDFC",
"i 	c #FDFDFD",
"j 	c #EAEAEA",
"k 	c #484848",
"l 	c #474747",
"m 	c #EBEAEA",
"n 	c #FEFDFE",
"o 	c #FEFEFD",
"p 	c #1F1E1D",
"q 	c #EFEDEA",
"r 	c #EFEEEA",
"s 	c #EEECE9",
"t 	c #F7F6F4",
"u 	c #F7F6F5",
"v 	c #F7F7F5",
"w 	c #919090",
"x 	c #9F9F9E",
"y 	c #9F9E9D",
"z 	c #929291",
"A 	c #F7F7F6",
"B 	c #F8F6F5",
"C 	c #090808",
"D 	c #A3A09A",
"E 	c #F2F2EF",
"F 	c #F3F2EF",
"G 	c #F2F0ED",
"H 	c #F1EFED",
"I 	c #F0F0ED",
"J 	c #F1F0ED",
"K 	c #383837",
"L 	c #0B0B0B",
"M 	c #E6E6E3",
"N 	c #E7E5E3",
"O 	c #F2F0EE",
"P 	c #CCC8C0",
"Q 	c #75736E",
"R 	c #343331",
"S 	c #F6F5F4",
"T 	c #F7F5F3",
"U 	c #F5F4F2",
"V 	c #EBE8E4",
"W 	c #EAE8E5",
"X 	c #CDCBC9",
"Y 	c #CFCDCA",
"Z 	c #EAE9E5",
"` 	c #EBE9E5",
" .	c #CAC7BF",
"..	c #050505",
"+.	c #FAF9F8",
"@.	c #FAF9F9",
"#.	c #F9F8F7",
"$.	c #E4E2DD",
"%.	c #E4E1DD",
"&.	c #787775",
"*.	c #4F4E4D",
"=.	c #E4E2DC",
"-.	c #777570",
";.	c #222120",
">.	c #FCFCFB",
",.	c #DEDBD5",
"'.	c #DEDAD4",
").	c #9D9B96",
"!.	c #DEDBD4",
"~.	c #9D9B97",
"{.	c #272625",
"].	c #DFDBD5",
"^.	c #030303",
"/.	c #2B2A28",
"(.	c #A8A59F",
"_.	c #D7D4CD",
":.	c #D8D4CC",
"<.	c #D7D4CC",
"[.	c #D7D5CD",
"}.	c #808080",
". . . . . . . . . . . . . . . . . . . . . . . . . . . . . . . . ",
". . . . . . . . . . . . . . . . . . . . . . + @ # $ # % & % * = ",
"+ & & & - - - - - - - - - - ; ; ; > > - - - - - - - - , , ' , ' ",
") ! ! - - - - - - - - - - - - ~ ~ ~ - - - - - - - - - - { { ] ^ ",
"/ ( - - _ _ _ _ _ _ _ _ _ _ - - - - - . . . . . . . . - - : < [ ",
"} - - _ _ _ _ _ _ _ _ _ _ _ _ - - - . . . . . . . . . . - - | | ",
"1 - - _ _ _ _ 2 3 3 2 _ _ _ _ - - - . . 3 3 3 4 5 6 . . - - 7 8 ",
"9 - - _ _ _ _ 0 a a b _ _ _ _ - - - . . 3 . . c d e . . - - f f ",
"g - - h i i j a k l a m n o o - - - . . 3 . . c d p . . - - q r ",
"s - - t u v w 3 x y 3 z A B A - - - . . 3 3 3 3 C D . . - - E F ",
"G - - H I J K L M N L K H J O - - - . . 3 . . P Q R . . - - S T ",
"U - - V W X 3 3 3 3 3 3 Y Z ` - - - . . 3 . . .  .... . - - +.@.",
"#.- - $.%.&.3 *.=.$.*.3 &.$.$.- - - . . 3 . . P -.;.. . - - i o ",
">.- - ,.'.5 3 ).,.!.~.3 {.,.].- - - . . 3 3 3 ^./.(.. . - - _ _ ",
"_ - - _.:._.! <.! [.! ! ! ) ! - - - . . . . . . . . . . - - _ _ ",
"_ - - . . . . . . . . . . . . - - - . . . . . . . . . . - - _ _ ",
"- - - - - - - - - - - - - - - - - - - - - - - - - - - - - - - - ",
". . . . . . . . . . . . . . . . . . . . . . . . . . . . . . . . ",
". . . . . . . . . . . . . . . . . . . . . . . . . . . . . . . . ",
"- - - - - - - - - - - - - - - - - - - - - - - - - - - - - - - - ",
"- . . . . . . . . . . . . . . . . . . . . . . . . . . . . . . }.",
"- . . . . . . . . . . . . . . . . . . . . . . . . . . . . . . }.",
"- . . . . . . . . . . . . . . . . . . . . . . . . . . . . . . }.",
"- . . . . . . . . . . . . . . . . . . . . . . . . . . . . . . }.",
"- . . . . . . . . . . . . . . . . . . . . . . . . . . . . . . }.",
"- . . . . . . . . . . . . . . . . . . . . . . . . . . . . . . }.",
"- . . . . . . . . . . . . . . . . . . . . . . . . . . . . . . }.",
"- . . . . . . . . . . . . . . . . . . . . . . . . . . . . . . }.",
"- . . . . . . . . . . . . . . . . . . . . . . . . . . . . . . }.",
"- . . . . . . . . . . . . . . . . . . . . . . . . . . . . . . }.",
"- . . . . . . . . . . . . . . . . . . . . . . . . . . . . . . }.",
"- }.}.}.}.}.}.}.}.}.}.}.}.}.}.}.}.}.}.}.}.}.}.}.}.}.}.}.}.}.}.}."};
