/* XPM */
static const char * wxsAuiToolBarSpacer16_xpm[] = {
"16 16 74 1",
" 	c None",
".	c #F0EFEC",
"+	c #EAE8E4",
"@	c #E7E5E1",
"#	c #D4D0C8",
"$	c #D9BFB8",
"%	c #EE5E5B",
"&	c #DEB1AB",
"*	c #D8C3BC",
"=	c #DDB4AE",
"-	c #D7C6BF",
";	c #DEB0A9",
">	c #DABDB6",
",	c #DABBB5",
"'	c #DCB8B1",
")	c #F15553",
"!	c #B8B8C7",
"~	c #F43C3B",
"{	c #F06664",
"]	c #E1A39E",
"^	c #EF6B68",
"/	c #E1ADA9",
"(	c #EF5E5B",
"_	c #E59390",
":	c #E9807C",
"<	c #EA8582",
"[	c #FD1919",
"}	c #9C9DBD",
"|	c #B3B2B6",
"1	c #ED3F3F",
"2	c #EB5655",
"3	c #DD9896",
"4	c #EE5554",
"5	c #D3B1AF",
"6	c #F63C3A",
"7	c #DB9391",
"8	c #ED6260",
"9	c #DD8382",
"0	c #FC0A0A",
"a	c #B8B6B9",
"b	c #ED4545",
"c	c #ED6564",
"d	c #DB8F8E",
"e	c #EF5958",
"f	c #D4AAA8",
"g	c #F64242",
"h	c #DB9C9B",
"i	c #ED5454",
"j	c #DD9997",
"k	c #FC1616",
"l	c #F04B49",
"m	c #EC726F",
"n	c #E68987",
"o	c #EC6967",
"p	c #DFA29E",
"q	c #F55150",
"r	c #E19E9B",
"s	c #F05B59",
"t	c #E39C99",
"u	c #FA201F",
"v	c #EC6360",
"w	c #DFABA5",
"x	c #E0A9A4",
"y	c #E2A29D",
"z	c #E49C97",
"A	c #DCB6AF",
"B	c #E59894",
"C	c #DBBBB4",
"D	c #F15754",
"E	c #807E92",
"F	c #606060",
"G	c #755E5E",
"H	c #616060",
"I	c #626060",
"                ",
"                ",
"                ",
" .+++++++++++@  ",
" ##$########$#  ",
"  #%&*=-;>,')#! ",
"  #~{]^/(_:<[#} ",
" |#1234567890#  ",
" a#bcdefghijk#  ",
"  #lmnopqrstu#  ",
"  #vwxy=zABCD#E ",
" FFGHHHHHHIFGFF ",
"                ",
"                ",
"                ",
"                "};
