/* XPM */
static const char * wxsAuiToolBar32_xpm[] = {
"32 32 161 2",
"  	c None",
". 	c #D4D0C8",
"+ 	c #FFFFFF",
"@ 	c #5E5C5B",
"# 	c #8D8B88",
"$ 	c #EBE8E4",
"% 	c #DBDCE7",
"& 	c #DFE1EA",
"* 	c #DBDDE6",
"= 	c #D1D4DF",
"- 	c #BEC3D3",
"; 	c #D5D6DA",
"> 	c #C3C6D3",
", 	c #EFF1F3",
"' 	c #FDFEFC",
") 	c #FCFDFC",
"! 	c #F7F7FC",
"~ 	c #D8D8E6",
"{ 	c #E0E1EB",
"] 	c #D5D5D7",
"^ 	c #C9C9CF",
"/ 	c #C5CDE8",
"( 	c #EEF0F3",
"_ 	c #FCFEFC",
": 	c #F9F9FD",
"< 	c #C6C7D6",
"[ 	c #DEDFE5",
"} 	c #CACBD9",
"| 	c #C8C8CD",
"1 	c #769CE8",
"2 	c #B3BDDE",
"3 	c #C0C7E2",
"4 	c #DFE5F7",
"5 	c #F6F6F8",
"6 	c #A3B4EA",
"7 	c #FBFCFC",
"8 	c #CACAD9",
"9 	c #C3C5D6",
"0 	c #B6B7C9",
"a 	c #888B9C",
"b 	c #84ACFA",
"c 	c #F1FFFD",
"d 	c #E6E6EB",
"e 	c #000BA5",
"f 	c #8C8DBC",
"g 	c #FAFBFC",
"h 	c #EFEEF7",
"i 	c #E2E2ED",
"j 	c #D7D9E5",
"k 	c #8F8FA2",
"l 	c #273DC0",
"m 	c #729EF6",
"n 	c #729EF5",
"o 	c #70A0F5",
"p 	c #6EA2F4",
"q 	c #A9D7F9",
"r 	c #A9E2FF",
"s 	c #8CC0F5",
"t 	c #4F68D7",
"u 	c #F9FAFB",
"v 	c #F3F3FA",
"w 	c #E9E7F2",
"x 	c #E1E3EE",
"y 	c #E0E3EE",
"z 	c #8F92A1",
"A 	c #5058C1",
"B 	c #DAEEF9",
"C 	c #CBE6F6",
"D 	c #C6E7F7",
"E 	c #9DC8F7",
"F 	c #79B3F4",
"G 	c #5A99F5",
"H 	c #2E66DC",
"I 	c #1440C3",
"J 	c #1835C4",
"K 	c #F4F3FB",
"L 	c #F0EFF8",
"M 	c #EAEBF2",
"N 	c #E8E8F3",
"O 	c #E8EAF3",
"P 	c #9494A6",
"Q 	c #545CC2",
"R 	c #D9FBFA",
"S 	c #93C2F6",
"T 	c #91C0FC",
"U 	c #6DA1FA",
"V 	c #4682F1",
"W 	c #295FE5",
"X 	c #2550D2",
"Y 	c #183DBF",
"Z 	c #032DC5",
"` 	c #F9FBFC",
" .	c #F9FAFC",
"..	c #F7F6FC",
"+.	c #F4F4FC",
"@.	c #EEEEF7",
"#.	c #EAECF3",
"$.	c #E9ECF7",
"%.	c #9395A5",
"&.	c #535CC2",
"*.	c #CEECFB",
"=.	c #9AD0FB",
"-.	c #89BBFB",
";.	c #73A8F8",
">.	c #5187F0",
",.	c #3363E3",
"'.	c #2D47CA",
").	c #2641C4",
"!.	c #2544CA",
"~.	c #EEEFF3",
"{.	c #F8FAFC",
"].	c #F5F5FC",
"^.	c #F0F0FB",
"/.	c #ECECF6",
"(.	c #EDEDF7",
"_.	c #9495A5",
":.	c #F8FCFB",
"<.	c #EEF6FA",
"[.	c #EAF0F9",
"}.	c #E5E9F6",
"|.	c #DBDBE7",
"1.	c #D0CCE2",
"2.	c #C9C3D6",
"3.	c #AEB3C8",
"4.	c #969ACD",
"5.	c #FCFAFC",
"6.	c #FBFAFC",
"7.	c #F3F0FB",
"8.	c #EEEDF6",
"9.	c #EFEEF8",
"0.	c #9696A7",
"a.	c #EBEFF0",
"b.	c #DADAE2",
"c.	c #AAADD7",
"d.	c #EFF0F4",
"e.	c #FCFBFC",
"f.	c #F9F9FC",
"g.	c #F6F7FC",
"h.	c #F1F4FC",
"i.	c #EFEFFA",
"j.	c #EEEFF9",
"k.	c #9396A4",
"l.	c #3C46B6",
"m.	c #3C44B5",
"n.	c #3E46B6",
"o.	c #A2A2C2",
"p.	c #C4C6CE",
"q.	c #BBBEC4",
"r.	c #BDBDC5",
"s.	c #BDBEC5",
"t.	c #BBBCC5",
"u.	c #BABBC5",
"v.	c #B7B9C3",
"w.	c #B6B8C3",
"x.	c #8C8B9C",
"y.	c #CAC9CD",
"z.	c #CAC8CC",
"A.	c #CBC9CD",
"B.	c #D2CECA",
"C.	c #808080",
"D.	c #404040",
"                                                                ",
"                                                                ",
"                                                                ",
"                                                                ",
"                                                                ",
"                                                                ",
". . . . . . . . . . . . . . . . . . . . . . . . . . . . . . . . ",
". . . . . + + + + + + + + + + + + + + + + + + + + + + + + + + + ",
". @ # $ . + . . . . . . . . . . . . . . . . . . . . . . . . . . ",
". # $ + . + . . % & & * = - ; . . . . . . . . . . . . > > . . . ",
". $ + + . + . . , ' ' ) ! ~ { ] . . . . . . . . . ^ > / / > . . ",
". . . . . + . . ( _ _ ) : < [ } | . . . . 1 1 1 2 3 4 5 5 6 . . ",
". . . . . + . . ( _ _ ) 7 8 9 0 a . . . . b c 6 d + + e e e e f ",
". @ # $ . + . . ( _ _ ) g h i j k . . . . l m m n o p q r s t f ",
". # $ + . + . . ( _ _ u v w x y z . . . . A B C D E F G H I J f ",
". $ + + . + . . ( _ ) K L M N O P . . . . Q R S T U V W X Y Z f ",
". . . . . + . . ( `  ...+.@.#.$.%.. . . . &.*.=.-.;.>.,.'.).!.f ",
". . . . . + . . ~. .{.! ].^./.(._.. . . . Q :.<.[.}.|.1.2.3.4.f ",
". @ # $ . + . . ~.5.6.! +.7.8.9.0.. . . . Q + + + + + g a.b.c.f ",
". # $ + . + . . d.e.e.f.g.h.i.j.k.. . . . l.m.m.m.m.m.m.m.m.n.o.",
". $ + + . + . . p.q.r.s.t.u.v.w.x.. . . . y.z.z.z.z.z.z.z.z.A.B.",
". . . . . + . . . . . . . . . . . . . . . . . . . . . . . . . . ",
". C.C.C.C.C.C.C.C.C.C.C.C.C.C.C.C.C.C.C.C.C.C.C.C.C.C.C.C.C.C.C.",
"D.D.D.D.D.D.D.D.D.D.D.D.D.D.D.D.D.D.D.D.D.D.D.D.D.D.D.D.D.D.D.D.",
"                                                                ",
"                                                                ",
"                                                                ",
"                                                                ",
"                                                                ",
"                                                                ",
"                                                                ",
"                                                                "};
