/* XPM */
static const char * wxsAuiToolBarSeparator16_xpm[] = {
"16 16 13 1",
" 	c None",
".	c #EBE9E5",
"+	c #EAE8E4",
"@	c #E7E5E1",
"#	c #D4D0C8",
"$	c #DEDAD4",
"%	c #ACA498",
"&	c #B8B8C7",
"*	c #9C9DBD",
"=	c #B5B7C5",
"-	c #807E92",
";	c #5C5C5C",
">	c #606060",
"                ",
"                ",
"                ",
"    .+++++++@   ",
"    ####$####   ",
"    ###%$####&  ",
"     ##%$####*  ",
"   =###%$####   ",
"    ###%$####   ",
"    ###%$####   ",
"    ####$####-  ",
"   ;>>>>>>>>>>  ",
"                ",
"                ",
"                ",
"                "};
