/* XPM */
static const char * wxsAuiToolBarSpacer32_xpm[] = {
"32 32 245 2",
"  	c None",
". 	c #D4D0C8",
"+ 	c #FFFFFF",
"@ 	c #FFF8F8",
"# 	c #FFFCFC",
"$ 	c #E2A59F",
"% 	c #D9BEB7",
"& 	c #F3504E",
"* 	c #E29893",
"= 	c #D7C5BE",
"- 	c #D7C7C0",
"; 	c #D4CDC5",
"> 	c #D6CAC3",
", 	c #D8C4BD",
"' 	c #D6C9C2",
") 	c #D4CFC7",
"! 	c #D5CCC4",
"~ 	c #DABCB5",
"{ 	c #D4CEC6",
"] 	c #D7C6BF",
"^ 	c #D5CDC5",
"/ 	c #E4938E",
"( 	c #F44F4D",
"_ 	c #FA1D1C",
": 	c #EA7470",
"< 	c #E69893",
"[ 	c #E3A19C",
"} 	c #D8C2BB",
"| 	c #DDB3AD",
"1 	c #E79490",
"2 	c #DFADA7",
"3 	c #D6CAC2",
"4 	c #DFB5AF",
"5 	c #ED7673",
"6 	c #DBBEB8",
"7 	c #E49E99",
"8 	c #E59A95",
"9 	c #D9C0B9",
"0 	c #DBBBB4",
"a 	c #E79591",
"b 	c #F25C5A",
"c 	c #FC1716",
"d 	c #C5C3C6",
"e 	c #FB1514",
"f 	c #EF625F",
"g 	c #F26A68",
"h 	c #ED7672",
"i 	c #DCB3AD",
"j 	c #E59A96",
"k 	c #F46260",
"l 	c #E78985",
"m 	c #D7C3BC",
"n 	c #EB9A96",
"o 	c #F83635",
"p 	c #E2A29D",
"q 	c #DCB8B2",
"r 	c #EF7572",
"s 	c #F16765",
"t 	c #DEAEA8",
"u 	c #E0ABA5",
"v 	c #F36866",
"w 	c #FC3534",
"x 	c #FE0B0B",
"y 	c #ACADC8",
"z 	c #FB1615",
"A 	c #EE6260",
"B 	c #F15E5D",
"C 	c #EF5B58",
"D 	c #DFA7A2",
"E 	c #E59794",
"F 	c #F4504E",
"G 	c #EB706C",
"H 	c #DABBB6",
"I 	c #E89D9B",
"J 	c #FA1C1B",
"K 	c #E68581",
"L 	c #DDB6B1",
"M 	c #ED6D6B",
"N 	c #F34C4A",
"O 	c #E19D98",
"P 	c #E0A9A5",
"Q 	c #F25B5A",
"R 	c #FC2020",
"S 	c #FF0606",
"T 	c #A4A4C3",
"U 	c #F91717",
"V 	c #E66868",
"W 	c #E76363",
"X 	c #F24B49",
"Y 	c #E29894",
"Z 	c #DB9D9C",
"` 	c #EC5150",
" .	c #F05D5A",
"..	c #DCAEAA",
"+.	c #D3B4B3",
"@.	c #FC1211",
"#.	c #ED6C6A",
"$.	c #DAB1AE",
"%.	c #E27574",
"&.	c #F24140",
"*.	c #E78986",
"=.	c #D9ABA8",
"-.	c #E85C5C",
";.	c #FB1414",
">.	c #FF0101",
",.	c #9596B7",
"'.	c #E0E3EE",
").	c #8F92A1",
"!.	c #F91616",
"~.	c #DE6868",
"{.	c #E06666",
"].	c #F44645",
"^.	c #E28F8C",
"/.	c #D39E9C",
"(.	c #E75252",
"_.	c #F35553",
":.	c #D9A4A1",
"<.	c #C4BEBD",
"[.	c #FD0F0F",
"}.	c #F06261",
"|.	c #D6ACA9",
"1.	c #DA7978",
"2.	c #F23E3E",
"3.	c #E97F7D",
"4.	c #D3AAA8",
"5.	c #E25E5E",
"6.	c #F91212",
"7.	c #8789AC",
"8.	c #E8EAF3",
"9.	c #9494A6",
"0.	c #F81515",
"a.	c #E17473",
"b.	c #E68786",
"c.	c #F54443",
"d.	c #E27676",
"e.	c #D7ACAB",
"f.	c #ED6F6E",
"g.	c #F44444",
"h.	c #D88F8F",
"i.	c #D1C9C8",
"j.	c #FE4B4B",
"k.	c #EF3C3C",
"l.	c #D89F9E",
"m.	c #DF9D9C",
"n.	c #F44C4B",
"o.	c #E85E5E",
"p.	c #D5ACAB",
"q.	c #E68887",
"r.	c #FA2A2A",
"s.	c #FF0303",
"t.	c #9395A5",
"u.	c #E37574",
"v.	c #E68885",
"w.	c #F44141",
"x.	c #E06F6F",
"y.	c #D6AAA7",
"z.	c #EC716F",
"A.	c #F14141",
"B.	c #D68989",
"C.	c #D0C6C1",
"D.	c #FC4B4B",
"E.	c #EE3837",
"F.	c #D69998",
"G.	c #DE9D9A",
"H.	c #F34D4C",
"I.	c #E65A59",
"J.	c #D4A6A4",
"K.	c #E68785",
"L.	c #FE0303",
"M.	c #9495A5",
"N.	c #FA1817",
"O.	c #E77B79",
"P.	c #E68F8C",
"Q.	c #F54342",
"R.	c #E96767",
"S.	c #E8807C",
"T.	c #F34342",
"U.	c #E38382",
"V.	c #D5C6C0",
"W.	c #F85756",
"X.	c #F43434",
"Y.	c #E09492",
"Z.	c #DFA7A3",
"`.	c #F05755",
" +	c #EE5554",
".+	c #DEA3A0",
"++	c #E78E8B",
"@+	c #F82F2E",
"#+	c #FE0404",
"$+	c #E57F7B",
"%+	c #E1A29D",
"&+	c #F26361",
"*+	c #DFAEAA",
"=+	c #E29590",
"-+	c #ED7B79",
";+	c #D9C3BD",
">+	c #EC7C78",
",+	c #FA3B3A",
"'+	c #E88C89",
")+	c #ED6D69",
"!+	c #F45453",
"~+	c #E49F9B",
"{+	c #E2A19C",
"]+	c #F54543",
"^+	c #FE0808",
"/+	c #F91D1C",
"(+	c #E48580",
"_+	c #DBB7B0",
":+	c #EC7B78",
"<+	c #EE7A77",
"[+	c #DDB6B0",
"}+	c #DFAAA4",
"|+	c #F06F6D",
"1+	c #EA8B87",
"2+	c #D7C4BD",
"3+	c #E1A49E",
"4+	c #E69691",
"5+	c #DABEB8",
"6+	c #E78E89",
"7+	c #E1A8A2",
"8+	c #DCB9B2",
"9+	c #EF6562",
"0+	c #FC1616",
"a+	c #3F4272",
"b+	c #E19B95",
"c+	c #D6C8C1",
"d+	c #DEB1AB",
"e+	c #DFAFA9",
"f+	c #D7C7BF",
"g+	c #D8C3BC",
"h+	c #E0ACA6",
"i+	c #DCB6B0",
"j+	c #D5CBC4",
"k+	c #E1A7A2",
"l+	c #DBB9B3",
"m+	c #D6CBC3",
"n+	c #DBB9B2",
"o+	c #E0AAA5",
"p+	c #F44E4C",
"q+	c #2C2B5D",
"r+	c #D5CCC5",
"s+	c #808080",
"t+	c #857F7F",
"u+	c #817F7F",
"v+	c #404040",
"                                                                ",
"                                                                ",
"                                                                ",
"                                                                ",
"                                                                ",
"                                                                ",
"      . . . . . . . . . . . . . . . . . . . . . . . . .         ",
"    + + + + @ # + + + + + + + + + + + + + + + + # @ + +         ",
"    . . . . $ % . . . . . . . . . . . . . . . . % $ .           ",
"      . . . & * = - ; > , ' ) ! ~ { ; ] = ^ ! , / ( . . .       ",
"        . . _ : < [ } | 1 2 3 4 5 6 } 7 8 9 0 a b c . . d d     ",
"        . . e f g h i j k l m n o p q r s t u v w x . . y y y   ",
"        . . z A B C D E F G H I J K L M N O P Q R S . . T T T   ",
"      . . . U V W X Y Z `  ...+.@.#.$.%.&.*.=.-.;.>.. . ,.,.,.  ",
"  '.).. . . !.~.{.].^./.(._.:.<.[.}.|.1.2.3.4.5.6.>.. . 7.      ",
"  8.9.. . . 0.a.b.c.d.e.f.g.h.i.j.k.l.m.n.o.p.q.r.s.. .         ",
"    t.. . . !.u.v.w.x.y.z.A.B.C.D.E.F.G.H.I.J.K.r.L..           ",
"    M.. . . N.O.P.Q.R...S.T.U.V.W.X.Y.Z.`. +.+++@+#+.           ",
"      . . . N.$+%+_.&+*+=+n.-+;+>+,+'+| )+!+~+{+]+^+. .         ",
"        . . /+(+_+:+<+[+}+|+1+2+3+k 4+5+6+|+7+8+9+0+. . a+a+    ",
"        . . & b+c+d+e+f+g+h+i+j+} k+l+m+n+o+9 3 / p+. . q+q+q+  ",
"      . . . $ % ) ^ r+) { ! ^ ) { ! ^ . { ! { . % $ . . . . .   ",
"  s+s+s+s+s+t+u+s+s+s+s+s+s+s+s+s+s+s+s+s+s+s+s+u+t+s+s+s+s+s+  ",
"  v+v+v+v+v+v+v+v+v+v+v+v+v+v+v+v+v+v+v+v+v+v+v+v+v+v+v+v+v+    ",
"                                                                ",
"                                                                ",
"                                                                ",
"                                                                ",
"                                                                ",
"                                                                ",
"                                                                ",
"                                                                "};
