/* XPM */
static const char * wxsAuiNotebook16_xpm[] = {
"16 16 71 1",
" 	c None",
".	c #D4D0C8",
"+	c #D4D0C9",
"@	c #D4D1C9",
"#	c #D6D3CB",
"$	c #CCC9C2",
"%	c #AFAEAA",
"&	c #CECBC4",
"*	c #D8D5CE",
"=	c #B9B7B2",
"-	c #BAB8B3",
";	c #DAD7D1",
">	c #DBD8D1",
",	c #D1CEC8",
"'	c #C3C2BF",
")	c #FFFFFF",
"!	c #CBC8C0",
"~	c #BBBAB5",
"{	c #E2DFDA",
"]	c #CAC8C4",
"^	c #D7D6D4",
"/	c #BCBCBC",
"(	c #929292",
"_	c #F0F0F0",
":	c #9E9B95",
"<	c #696763",
"[	c #74726D",
"}	c #C4C0B9",
"|	c #EAE8E4",
"1	c #CECCC8",
"2	c #D4D4D1",
"3	c #FAFAF9",
"4	c #F6F6F5",
"5	c #3C3C3C",
"6	c #262626",
"7	c #AFAEAE",
"8	c #D5D4D2",
"9	c #AFACA5",
"0	c #75736E",
"a	c #F1F0EC",
"b	c #D1D0CD",
"c	c #CECDC9",
"d	c #EDECE9",
"e	c #AFADAB",
"f	c #4D4C4B",
"g	c #969593",
"h	c #535251",
"i	c #CFCDCA",
"j	c #52504D",
"k	c #A09D97",
"l	c #F8F7F6",
"m	c #C8C6C2",
"n	c #E1DED8",
"o	c #585754",
"p	c #3B3A38",
"q	c #605E5C",
"r	c #1E1E1D",
"s	c #AEACA8",
"t	c #B8B5AE",
"u	c #73716D",
"v	c #FEFEFE",
"w	c #C2C0BA",
"x	c #D6D2CA",
"y	c #CFCBC3",
"z	c #86837E",
"A	c #9E9C97",
"B	c #C9C5BD",
"C	c #C2BFB9",
"D	c #AAA8A4",
"E	c #ACABA7",
"F	c #959492",
".............++@",
"#$%%%%%&*=%%%-;>",
",')))))'%!...!~{",
"]^))/(_^%.:<[}%|",
"12345678%.<.90%a",
"bcdefghi%.<<jk%l",
"8mnopqrs%.<.tu%v",
"^wx0tyzA%.:<0B%)",
"CCCCCCCCCCCCCCCC",
"CCCCCCCCCCCCCCCC",
"C..............D",
"C..............D",
"C..............D",
"C..............D",
"C..............D",
"EDDDDDDDDDDDDDDF"};
