/* XPM */
static const char * wxsAuiToolBarItem16_xpm[] = {
"16 16 39 1",
" 	c None",
".	c #EBE9E5",
"+	c #EAE8E4",
"@	c #E7E5E1",
"#	c #D4D0C8",
"$	c #CCCBCE",
"%	c #A5B6D8",
"&	c #B4BED6",
"*	c #CBCFDF",
"=	c #DEE2F0",
"-	c #C4C6D3",
";	c #B8B8C7",
">	c #84A2EB",
",	c #9BB6F0",
"'	c #B7D0FA",
")	c #5474D0",
"!	c #3750C6",
"~	c #B0AEC2",
"{	c #9C9DBD",
"]	c #B5B7C5",
"^	c #96A7DE",
"/	c #ADD4F8",
"(	c #72A8F6",
"_	c #366CE2",
":	c #1238C3",
"<	c #9BA8DE",
"[	c #BFDCFA",
"}	c #A1BDF1",
"|	c #7E8ED9",
"1	c #6474C9",
"2	c #7379CB",
"3	c #9EA2DA",
"4	c #979CD6",
"5	c #8084C9",
"6	c #B6B4C4",
"7	c #CFCCCA",
"8	c #807E92",
"9	c #5C5C5C",
"0	c #606060",
"                ",
"                ",
"                ",
"    .+++++++@   ",
"    #####$###   ",
"    ##%&*=-##;  ",
"     #>,')!~#{  ",
"   ]##^/(_:~#   ",
"    ##<[}|1~#   ",
"    ##233456#   ",
"    ##77777##8  ",
"   90000000000  ",
"                ",
"                ",
"                ",
"                "};
