/* XPM */
static const char * wxsAuiToolBarItem32_xpm[] = {
"32 32 92 2",
"  	c None",
". 	c #D4D0C8",
"+ 	c #FFFFFF",
"@ 	c #C3C6D3",
"# 	c #C9C9CF",
"$ 	c #C5CDE8",
"% 	c #C5C3C6",
"& 	c #769CE8",
"* 	c #B3BDDE",
"= 	c #C0C7E2",
"- 	c #DFE5F7",
"; 	c #F6F6F8",
"> 	c #A3B4EA",
", 	c #ACADC8",
"' 	c #84ACFA",
") 	c #F1FFFD",
"! 	c #E6E6EB",
"~ 	c #000BA5",
"{ 	c #8C8DBC",
"] 	c #A4A4C3",
"^ 	c #273DC0",
"/ 	c #729EF6",
"( 	c #729EF5",
"_ 	c #70A0F5",
": 	c #6EA2F4",
"< 	c #A9D7F9",
"[ 	c #A9E2FF",
"} 	c #8CC0F5",
"| 	c #4F68D7",
"1 	c #9596B7",
"2 	c #E0E3EE",
"3 	c #8F92A1",
"4 	c #5058C1",
"5 	c #DAEEF9",
"6 	c #CBE6F6",
"7 	c #C6E7F7",
"8 	c #9DC8F7",
"9 	c #79B3F4",
"0 	c #5A99F5",
"a 	c #2E66DC",
"b 	c #1440C3",
"c 	c #1835C4",
"d 	c #8789AC",
"e 	c #E8EAF3",
"f 	c #9494A6",
"g 	c #545CC2",
"h 	c #D9FBFA",
"i 	c #93C2F6",
"j 	c #91C0FC",
"k 	c #6DA1FA",
"l 	c #4682F1",
"m 	c #295FE5",
"n 	c #2550D2",
"o 	c #183DBF",
"p 	c #032DC5",
"q 	c #9395A5",
"r 	c #535CC2",
"s 	c #CEECFB",
"t 	c #9AD0FB",
"u 	c #89BBFB",
"v 	c #73A8F8",
"w 	c #5187F0",
"x 	c #3363E3",
"y 	c #2D47CA",
"z 	c #2641C4",
"A 	c #2544CA",
"B 	c #9495A5",
"C 	c #F8FCFB",
"D 	c #EEF6FA",
"E 	c #EAF0F9",
"F 	c #E5E9F6",
"G 	c #DBDBE7",
"H 	c #D0CCE2",
"I 	c #C9C3D6",
"J 	c #AEB3C8",
"K 	c #969ACD",
"L 	c #FAFBFC",
"M 	c #EBEFF0",
"N 	c #DADAE2",
"O 	c #AAADD7",
"P 	c #3C46B6",
"Q 	c #3C44B5",
"R 	c #3E46B6",
"S 	c #A2A2C2",
"T 	c #3F4272",
"U 	c #CAC9CD",
"V 	c #CAC8CC",
"W 	c #CBC9CD",
"X 	c #D2CECA",
"Y 	c #2C2B5D",
"Z 	c #808080",
"` 	c #404040",
"                                                                ",
"                                                                ",
"                                                                ",
"                                                                ",
"                                                                ",
"                                                                ",
"                . . . . . . . . . . . . . . . . . .             ",
"              + + + + + + + + + + + + + + + + + + +             ",
"              . . . . . . . . . . . . . . . . . .               ",
"                . . . . . . . . . . @ @ . . . . . . .           ",
"                  . . . . . . . # @ $ $ @ . . . . . % %         ",
"                  . . . & & & * = - ; ; > . . . . . , , ,       ",
"                  . . . ' ) > ! + + ~ ~ ~ ~ { . . . ] ] ]       ",
"                . . . . ^ / / ( _ : < [ } | { . . . 1 1 1       ",
"            2 3 . . . . 4 5 6 7 8 9 0 a b c { . . . d           ",
"            e f . . . . g h i j k l m n o p { . . .             ",
"              q . . . . r s t u v w x y z A { . .               ",
"              B . . . . g C D E F G H I J K { . .               ",
"                . . . . g + + + + + L M N O { . . .             ",
"                  . . . P Q Q Q Q Q Q Q Q R S . . . T T         ",
"                  . . . U V V V V V V V V W X . . . Y Y Y       ",
"                . . . . . . . . . . . . . . . . . . . . .       ",
"            Z Z Z Z Z Z Z Z Z Z Z Z Z Z Z Z Z Z Z Z Z Z Z       ",
"            ` ` ` ` ` ` ` ` ` ` ` ` ` ` ` ` ` ` ` ` ` `         ",
"                                                                ",
"                                                                ",
"                                                                ",
"                                                                ",
"                                                                ",
"                                                                ",
"                                                                ",
"                                                                "};
