/* XPM */
static char * pixmap[] = {
/* width height num_colors chars_per_pixel */
"16 16 124 2",
/* colors */
"   c None",
"!  c #ffffff",
"#  c #fafafa",
"$  c #f8f8f8",
"%  c #f6f6f6",
"&  c #e6e1e1",
"'  c #e3e3e3",
"(  c #e0e0e0",
")  c #dedede",
"*  c #dcdcdc",
"+  c #d8d8d8",
",  c #cecece",
"-  c #cbacac",
".  c #c9c6c6",
"/  c #c2c2c3",
"0  c #bdbda7",
"1  c #abab43",
"2  c #a98c8c",
"3  c #a6a6a1",
"4  c #a3a9ae",
"5  c #9c9ca5",
"6  c #8f969a",
"7  c #8c8d8e",
"8  c #878e93",
"9  c #7e857e",
":  c #7b7c7d",
";  c #757569",
"<  c #738391",
"=  c #727a81",
">  c #707980",
"?  c #6d7c8a",
"@  c #6c7c8b",
"A  c #6b737b",
"B  c #6b6b6b",
"C  c #6a7b89",
"D  c #697a89",
"E  c #667786",
"F  c #637584",
"G  c #627382",
"H  c #626a71",
"I  c #616b73",
"J  c #5f7181",
"K  c #5e707f",
"L  c #5d6f7f",
"M  c #5c6e7e",
"N  c #5a6c7c",
"O  c #5a646c",
"P  c #585f66",
"Q  c #585959",
"R  c #576777",
"S  c #546068",
"T  c #536371",
"U  c #525d68",
"V  c #515559",
"W  c #515151",
"X  c #4c5b68",
"Y  c #4c5053",
"Z  c #495660",
"[  c #475661",
"]  c #47545e",
"^  c #46545f",
"_  c #46525c",
"`  c #454f56",
"a  c #454e55",
"b  c #444e56",
"c  c #435059",
"d  c #434f59",
"e  c #424e58",
"f  c #424d55",
"g  c #414b54",
"h  c #404d57",
"i  c #3f6e36",
"j  c #3d4852",
"k  c #3b4852",
"l  c #3a464f",
"m  c #3a3a3a",
"n  c #39444e",
"o  c #39444d",
"p  c #37414a",
"q  c #36414a",
"r  c #364149",
"s  c #364049",
"t  c #35355d",
"u  c #343f48",
"v  c #333e47",
"w  c #333e46",
"x  c #333d45",
"y  c #333c45",
"z  c #323d46",
"{  c #313c45",
"|  c #313a41",
"}  c #313131",
"~  c #303b43",
" ! c #2e3841",
"!! c #2e373f",
"#! c #2c353d",
"$! c #2c2e30",
"%! c #2a3b42",
"&! c #2a3136",
"'! c #292d31",
"(! c #282f34",
")! c #242c32",
"*! c #1d2226",
"+! c #1d2023",
",! c #1c2126",
"-! c #1a1f23",
".! c #1a1c1d",
"/! c #161b20",
"0! c #151a1e",
"1! c #15191d",
"2! c #14191d",
"3! c #14181c",
"4! c #13171b",
"5! c #121416",
"6! c #0e1012",
"7! c #0d1012",
"8! c #0d0f12",
"9! c #0c0e10",
":! c #0a0d0e",
";! c #08090a",
"<! c #020303",
"=! c #010102",
">! c #010101",
"?! c #000000",
/* pixels */
"            ! & . ! z z { ~  !  ",
"          ! ' - 2 7 a s z z v 1!",
"        # ( * ) ) , / V r v w ?!",
"        + 3 1 0 % 5 t Y q k -!?!",
"        $ : ; i 9 B m 5!l o ?!  ",
"        z !!'!Q W } .!` h *!?!  ",
"    z z z z z #!+!$!A e x =!    ",
"    z z z z z z f > d [ N T n   ",
"  z z z z z p b S c Z G L M X ?!",
"  z z z p H 8 I c ] ? D J R 8!?!",
"z z z b 6 4 O | )!U < C K ,!?!  ",
"z z g = P (!/!0!0!_ @ E y ?!    ",
"%!r &!6!:!3!0!0!0!j F ^ ?!?!    ",
"<!?!?!?!?!>!9!2!0!u T ;!?!      ",
"            ?!<!7!#!4!?!        ",
"                ?!?!?!          "
};
