/* XPM */
static const char * pixmap[] = {
/* width height num_colors chars_per_pixel */
"32 32 340 4",
/* colors */
"     c None",
"!    c #ffffff",
"#    c #fefefe",
"$    c #fbfbfb",
"%    c #fafafa",
"&    c #f6f6f6",
"'    c #f3f3f3",
"(    c #f39898",
")    c #f1f1f1",
"*    c #f0f0f0",
"+    c #efefef",
",    c #eeeded",
"-    c #eaeaea",
".    c #e9e9e9",
"/    c #e8e8e8",
"0    c #e6e6e6",
"1    c #e3e32e",
"2    c #e2e2e2",
"3    c #dedede",
"4    c #dddddd",
"5    c #dcdcdc",
"6    c #dbdbdb",
"7    c #d8d8d8",
"8    c #d6d6d6",
"9    c #d3d3d3",
":    c #d0d0d0",
";    c #cfcfcf",
"<    c #cecece",
"=    c #cecec7",
">    c #cdcdcd",
"?    c #cccccc",
"@    c #cacaca",
"A    c #c4c4c4",
"B    c #c4b9b9",
"C    c #bfc2c5",
"D    c #be5656",
"E    c #bbbb27",
"F    c #b9b9b9",
"G    c #b7bbbf",
"H    c #b5babe",
"I    c #b3b3b3",
"J    c #b1b1b1",
"K    c #b09d9d",
"L    c #acacac",
"M    c #a8a8a8",
"N    c #a3a9ae",
"O    c #a3a8ac",
"P    c #a3a3a3",
"Q    c #a2a2a2",
"R    c #9f9f9f",
"S    c #9aa0a4",
"T    c #979ca1",
"U    c #979797",
"V    c #939393",
"W    c #92929e",
"X    c #91989e",
"Y    c #91979b",
"Z    c #919191",
"[    c #8e959a",
"]    c #8e8e7a",
"^    c #8d9499",
"_    c #8d8585",
"`    c #8a8a34",
"a    c #889096",
"b    c #887272",
"c    c #878c90",
"d    c #868c92",
"e    c #868986",
"f    c #848581",
"g    c #81898f",
"h    c #80803e",
"i    c #7f878e",
"j    c #7e7e7d",
"k    c #7d848a",
"l    c #798187",
"m    c #797e83",
"n    c #787c81",
"o    c #787979",
"p    c #778693",
"q    c #758492",
"r    c #748391",
"s    c #747d85",
"t    c #747d84",
"u    c #74777a",
"v    c #738290",
"w    c #737c83",
"x    c #728290",
"y    c #71818f",
"z    c #70808e",
"{    c #707981",
"|    c #6f7f8d",
"}    c #6f7880",
"~    c #6f736f",
" !   c #6e767c",
"!!   c #6d7d8c",
"#!   c #6d7d8b",
"$!   c #6d757b",
"%!   c #6d6d6d",
"&!   c #6c7c8b",
"'!   c #6c7c8a",
"(!   c #6c757b",
")!   c #6c6d6e",
"*!   c #6c6262",
"+!   c #6a7b8a",
",!   c #6a7278",
"-!   c #697a88",
".!   c #687987",
"/!   c #677887",
"0!   c #677786",
"1!   c #676f75",
"2!   c #676767",
"3!   c #667786",
"4!   c #657685",
"5!   c #656565",
"6!   c #637484",
"7!   c #636d75",
"8!   c #636363",
"9!   c #636333",
":!   c #627383",
";!   c #617382",
"<!   c #617282",
"=!   c #61707f",
">!   c #616c74",
"?!   c #616a72",
"@!   c #607282",
"A!   c #5f7080",
"B!   c #5f5b5b",
"C!   c #5e6d79",
"D!   c #5e6971",
"E!   c #5d6f7f",
"F!   c #5d6f7e",
"G!   c #5d6e7e",
"H!   c #5c6e7e",
"I!   c #5c6c7a",
"J!   c #5c6b78",
"K!   c #5c666f",
"L!   c #5c656c",
"M!   c #5b6d7d",
"N!   c #5b666e",
"O!   c #5a6c7c",
"P!   c #5a6b7a",
"Q!   c #5a6a79",
"R!   c #5a6873",
"S!   c #5a646b",
"T!   c #596a7a",
"U!   c #595959",
"V!   c #586a79",
"W!   c #586979",
"X!   c #586169",
"Y!   c #576877",
"Z!   c #57576f",
"[!   c #566775",
"]!   c #56626a",
"^!   c #565f66",
"_!   c #565656",
"`!   c #555f66",
"a!   c #546573",
"b!   c #536372",
"c!   c #535353",
"d!   c #51616f",
"e!   c #515559",
"f!   c #505f6d",
"g!   c #505a61",
"h!   c #505559",
"i!   c #505255",
"j!   c #505050",
"k!   c #4e5d6a",
"l!   c #4e5a62",
"m!   c #4e575e",
"n!   c #4e4e4e",
"o!   c #4d5c69",
"p!   c #4d5357",
"q!   c #4d4d3e",
"r!   c #4b555c",
"s!   c #4b545b",
"t!   c #4b4b4b",
"u!   c #4a4a4a",
"v!   c #48545d",
"w!   c #475461",
"x!   c #475159",
"y!   c #474748",
"z!   c #46535b",
"{!   c #46525b",
"|!   c #465158",
"}!   c #464b4f",
"~!   c #464653",
" #   c #464646",
"!#   c #45661e",
"##   c #45535f",
"$#   c #45525b",
"%#   c #45515b",
"&#   c #45515a",
"'#   c #44515a",
"(#   c #44505a",
")#   c #445059",
"*#   c #43505b",
"+#   c #435059",
",#   c #434f59",
"-#   c #434d55",
".#   c #42505a",
"/#   c #424f59",
"0#   c #424e58",
"1#   c #424c55",
"2#   c #414e57",
"3#   c #414d57",
"4#   c #414c54",
"5#   c #414141",
"6#   c #404d57",
"7#   c #404c58",
"8#   c #404c56",
"9#   c #404142",
":#   c #404040",
";#   c #3f4c55",
"<#   c #3f4c54",
"=#   c #3f4b55",
">#   c #3e4b55",
"?#   c #3e4b54",
"@#   c #3e4951",
"A#   c #3e4851",
"B#   c #3d4a54",
"C#   c #3d4750",
"D#   c #3d4145",
"E#   c #3d3d3d",
"F#   c #3c4953",
"G#   c #3c4852",
"H#   c #3c4750",
"I#   c #3b4751",
"J#   c #3b4750",
"K#   c #3a454e",
"L#   c #3a4249",
"M#   c #39444d",
"N#   c #39434c",
"O#   c #38444d",
"P#   c #38434d",
"Q#   c #38434b",
"R#   c #374149",
"S#   c #373737",
"T#   c #36414b",
"U#   c #36414a",
"V#   c #364149",
"W#   c #364049",
"X#   c #363f47",
"Y#   c #35414a",
"Z#   c #354049",
"[#   c #354048",
"]#   c #353f48",
"^#   c #344049",
"_#   c #343f48",
"`#   c #333e47",
"a#   c #333d46",
"b#   c #323d46",
"c#   c #323b42",
"d#   c #313d46",
"e#   c #313c45",
"f#   c #313639",
"g#   c #303b44",
"h#   c #303b43",
"i#   c #303a43",
"j#   c #303a42",
"k#   c #303030",
"l#   c #2e3840",
"m#   c #2e363c",
"n#   c #2d373f",
"o#   c #2d373e",
"p#   c #2d353d",
"q#   c #2c343b",
"r#   c #2c343a",
"s#   c #2b3c43",
"t#   c #2b353d",
"u#   c #2aa02a",
"v#   c #2a3239",
"w#   c #29333a",
"x#   c #29299a",
"y#   c #283b42",
"z#   c #282f35",
"{#   c #274127",
"|#   c #273036",
"}#   c #272e35",
"~#   c #262e33",
" $   c #242c31",
"!$   c #242b31",
"#$   c #23383e",
"$$   c #222a2f",
"%$   c #22282d",
"&$   c #222323",
"'$   c #21282d",
"($   c #21272d",
")$   c #21272b",
"*$   c #1f3d1f",
"+$   c #1f2327",
",$   c #1e2429",
"-$   c #1e1f21",
".$   c #1e1e1e",
"/$   c #1d2328",
"0$   c #1d1e1e",
"1$   c #1d1d40",
"2$   c #1b2126",
"3$   c #1b2025",
"4$   c #1a1f22",
"5$   c #191f24",
"6$   c #191919",
"7$   c #181e22",
"8$   c #161c20",
"9$   c #161b20",
":$   c #161b1f",
";$   c #161a1e",
"<$   c #151a1e",
"=$   c #151a1d",
">$   c #15191d",
"?$   c #14191d",
"@$   c #14191c",
"A$   c #14181c",
"B$   c #14181b",
"C$   c #14171a",
"D$   c #141719",
"E$   c #13171b",
"F$   c #13171a",
"G$   c #12171a",
"H$   c #121619",
"I$   c #111518",
"J$   c #101417",
"K$   c #0f0f0f",
"L$   c #0e1214",
"M$   c #0e0f10",
"N$   c #0c0e10",
"O$   c #0c0c0c",
"P$   c #0b0d0e",
"Q$   c #090b0c",
"R$   c #080a0a",
"S$   c #07090a",
"T$   c #07080a",
"U$   c #060709",
"V$   c #060707",
"W$   c #060606",
"X$   c #050809",
"Y$   c #040506",
"Z$   c #030404",
"[$   c #030303",
"]$   c #010101",
"^$   c #000000",
/* pixels */
"                                                    !   !   !   !   !   !           b#  b#  b#  e#  h#  n#                      ",
"                                                !   !   /   K   *!  F   !   !   `#  b#  b#  b#  b#  b#  b#  e#  g#  t#          ",
"                                            !   !   4   B   (   D   B!  5!  m   1#  W#  b#  b#  b#  b#  b#  b#  b#  b#  i#  ^$  ",
"                                        !   !   9   5   ,   b   _   $   7   o   }!  ^!  A#  _#  b#  b#  b#  b#  b#  _#  $$  ^$  ",
"                                    !   '   :   0   &   L   3   6   R   >   $   8   )!  p!  s!  V#  b#  b#  b#  ^#  T#  ^$  ^$  ",
"                                !   )   <   *   -   M   +   !   !   #   ;   Q   ?   %   %!  D#  C#  b#  b#  ^#  G#  ~#  ^$  ^$  ",
"                                !   J   @   =   h   ]   0   !   !   !   .   Z!  x#  ~!  :#  e!  H#  b#  Y#  F#  O#  T$  ^$      ",
"                                !   J   I   q!  E   1   `   f   &   2   R   W   1$  y!  i!  m!  Z#  Z#  B#  >#  |#  ^$  ^$      ",
"                                !   -   V   P   j   9!  !#  u#  {#  Q   A   u!  c!  :#  .$  B$  j#  ?#  ;#  J#  ]$  ^$          ",
"                                    !   u   9#  8!  Z   ~   *$  e   M   t!  c!  E#  6$  [$  C$  J#  8#  8#  v#  ^$  ^$          ",
"                                b#  b#  g#  %$  -$  S#  2!  U   U!  n!  j!  S#  K$  Z$  f#  {!  6#  6#  H#  P$  ^$  ^$          ",
"                                b#  b#  b#  b#  l#  )$  &$  5#  _!   #  k#  O$  V$  h!  N!  2#  6#  6#  q#  ^$  ^$              ",
"                        b#  b#  b#  b#  b#  b#  b#  b#  l#  +$  0$  6$  W$  M$  n   {   0#  2#  6#  M#  Y$  ^$                  ",
"                    b#  b#  b#  b#  b#  b#  b#  b#  b#  b#  b#  w#  F$  D$  c   i   &#  0#  2#  =#  A$  ^$  ^$                  ",
"                    b#  b#  b#  b#  b#  b#  b#  b#  b#  b#  b#  b#  U#  d   g   (#  ,#  2#  *#  T!  W!  d!  *#                  ",
"                b#  b#  b#  b#  b#  b#  b#  b#  b#  b#  b#  b#  [#  (!  t   z!  ,#  0#  .#  Y!  H!  H!  H!  O!  a!  /$          ",
"                b#  b#  b#  b#  b#  b#  b#  b#  b#  b#  `#  [#  `!  >!  '#  ,#  0#  /#  I!  @!  E!  H!  H!  H!  H!  a!  ^$      ",
"            b#  b#  b#  b#  b#  b#  b#  b#  b#  ]#  4#  g!  X!  ]!  $#  +#  0#  0#  J!  /!  6!  A!  H!  H!  H!  T!  }#  ^$  ^$  ",
"        b#  b#  b#  b#  b#  b#  b#  b#  U#  r!  $!  k   l   D!  $#  +#  0#  3#  C!  |   +!  3!  <!  G!  H!  M!  a#  ^$  ^$      ",
"        b#  b#  b#  b#  b#  b#  `#  -#   !  T   O   [   7!  v!  +#  0#  6#  R!  q   y   &!  /!  :!  E!  H!  w!  ^$  ^$  ^$      ",
"    b#  b#  b#  b#  b#  b#  Q#  L!  Y   C   G   a   K!  %#  <#  Q#  o#  X#  q   p   x   #!  .!  :!  E!  f!  Q$  ^$  ^$          ",
"    b#  b#  b#  b#  b#  C#  1!  S   H   N   s   l!  R#   $  3$  :$  <$  z#  v   r   z   '!  /!  ;!  V!  ;$  ^$  ^$              ",
"b#  b#  b#  b#  b#  @#  ,!  ^   X   w   x!  r#  5$  <$  <$  <$  <$  <$  !$  #!  |   !!  -!  4!  F!  p#  ^$  ^$                  ",
"b#  b#  b#  b#  N#  S!  }   ?!  L#  ($  8$  <$  <$  <$  <$  <$  <$  <$  '$  0!  +!  -!  3!  :!  7#  ]$  ^$  ^$                  ",
"s#  d#  `#  O#  )#  |!  m#  R$  L$  @$  <$  <$  <$  <$  <$  <$  <$  <$  ,$  =!  3!  4!  :!  k!  ^$  ^$  ^$                      ",
"#$  y#  K#  c#  4$  [$  ^$  ^$  ^$  U$  J$  ?$  <$  <$  <$  <$  <$  <$  2$  Q!  ;!  @!  [!  F$  ^$  ^$                          ",
"^$  X$  ^$  ^$  ^$  ^$  ^$          ^$  ^$  Z$  I$  ?$  <$  <$  <$  <$  7$  b!  E!  P!  ,$  ^$  ^$                              ",
"    ^$  ^$  ^$  ^$                          ^$  ^$  Q$  H$  =$  <$  <$  9$  f!  M!  P#  ^$  ^$                                  ",
"                                                    ^$  ^$  S$  G$  >$  <$  o!  ##  ]$  ^$  ^$                                  ",
"                                                            ^$  ]$  N$  E$  I#  S$  ^$  ^$                                      ",
"                                                                    ^$  ^$  ^$  ^$  ^$                                          ",
"                                                                        ^$  ^$  ^$                                              "
};
