/* XPM */
static const char *wxTimePickCtrl32_xpm[] = {
/* columns rows colors chars-per-pixel */
"32 32 208 2",
".  c Black",
"3. c #C6BFFF",
"V  c #EAE8FF",
"c. c #4D4B60",
"<  c #D3CEFF",
"X. c #BCB4FF",
"p  c #E0DDFF",
"_  c #C9C3FF",
"0. c #F2F0FF",
"e. c #B2A9FF",
"1  c #D6D2FF",
":. c #262628",
"F. c #0D0C10",
"G  c #BFB8FF",
"9  c #353538",
"}. c #82808F",
"H. c #E8E5FF",
".X c #A89EFF",
"=X c #737187",
"`  c #CCC7FF",
"r. c #B5ADFF",
"[  c #DEDAFF",
"C. c #787592",
"1X c #615B8F",
"x  c #C7C0FF",
"Y. c #3F3D50",
"8  c #EBE9FF",
"O  c #A5A2BF",
"*X c #ABA2FF",
"@  c #7B7987",
"I  c #D4CFFF",
"V. c #BDB5FF",
"o  c #6C6A7F",
"%X c #A69BFF",
"N  c #E1DEFF",
"s. c #D7D3F7",
"c  c #CAC4FF",
"(. c #424150",
"h. c #B3AAFF",
"R. c #E4E2F7",
"y  c #D7D3FF",
"/  c #C0B9FF",
"9. c #E9E6FF",
"W. c #A99FFF",
"S  c #454548",
"#  c #4A4950",
"/. c #65637F",
"j. c #B6AEFF",
"$X c #332F50",
"l  c #B4AEEF",
"z. c #C8C1FF",
"J. c #7D76BF",
"i. c #C3BDFF",
"f  c #ECEAFF",
"#X c #ACA3FF",
"%  c #D5D0FF",
">. c #312F48",
"{  c #C4C1DF",
"u. c #BEB6FF",
"1. c #B9B2FF",
"5  c #E2DFFF",
"K  c #CBC5FF",
";. c #F4F2FF",
",. c #B4ABFF",
":  c #E5E3F7",
"&  c #D8D4FF",
"O. c #C1BAFF",
"oX c #B5AFDF",
";  c #EAE7FF",
"]. c #AAA0FF",
"|. c #0F0E18",
"4. c #CEC9FF",
"N. c #B7AFFF",
"x. c #C4BEF7",
"T  c #E0DCFF",
"a. c #4B4A58",
"). c #D1CDF7",
"+. c #C4BEFF",
" . c #DEDCEF",
"_. c #C5C2D7",
"C  c #EDEBFF",
"L. c #ADA4FF",
"n  c #D6D1FF",
"^. c #BAB3FF",
"8. c #D4D1EF",
"k  c #171620",
"a  c #E3E0FF",
",X c #6E6C87",
"~. c #B5ACFF",
"Z  c #F0EFFF",
"P. c #B0A8FF",
"2  c #D9D5FF",
"   c None",
"H  c #C2BBFF",
"=. c #EBE8FF",
"K. c #ABA1FF",
"A. c #E6E4FF",
"'  c #CFCAFF",
"4X c #78749F",
"t. c #B8B0FF",
"n. c #DAD9E7",
"Z. c #E1DDFF",
"b. c #DCD9FF",
"J  c #C5BFFF",
"{. c #424050",
"!  c #EEECFF",
"XX c #AEA5FF",
"U  c #D7D2FF",
"D. c #BBB4FF",
"G. c #9E9ABF",
"=  c #E4E1FF",
"v  c #CDC7FF",
"~  c #F1F0FF",
"u  c #DAD6FF",
"`. c #3D3960",
"(  c #C3BCFF",
"Q. c #ACA2FF",
"B  c #E7E5FF",
"}  c #2A2A30",
"#. c #D0CBFF",
"k. c #B9B1FF",
"W  c #484850",
"X  c #2F2E38",
"j  c #5C5B60",
"-X c #514C7F",
"h  c #EAE9F7",
"F  c #9E97D7",
")  c #C6C0FF",
"3X c #ADA6E7",
"g  c #EFEDFF",
"!. c #AFA6FF",
"D  c #050508",
"<X c #252338",
"OX c #C4C0EF",
"%. c #141418",
"]  c #D8D3FF",
"2X c #948CD7",
"&. c #232328",
"d. c #B6B5BF",
"2. c #BCB5FF",
">  c #191820",
"6  c #E5E2FF",
" X c #A59BFF",
"L  c #CEC8FF",
"<. c #B7AEFF",
"+  c #ACAABF",
"S. c #B2AAFF",
"q. c #737278",
"p. c #75728F",
"*  c #DBD7FF",
">X c #3E3A60",
",  c #A49FCF",
"z  c #C4BDFF",
"5. c #9390AF",
";X c #ADA3FF",
"7  c #E8E6FF",
"&X c #A89FFF",
"E  c #DEDBF7",
"P  c #D1CCFF",
"T. c #69677F",
"B. c #BAB2FF",
"R  c #E3DFFF",
"M  c #DEDBFF",
"f. c #817ABF",
"@. c #C7C1FF",
"0  c #302F40",
"*. c #C3C1D7",
".. c #F0EEFF",
"g. c #B0A7FF",
"6. c #060608",
":X c #8C89A7",
"m  c #D9D4FF",
"^  c #BDB6FF",
"[. c #8C89AF",
"s  c #E6E3FF",
"v. c #716F87",
"r  c #CFC9FF",
"A  c #F3F2FF",
"I. c #B3ABFF",
"3  c #DCD8FF",
"l. c #C5BEFF",
"|  c #0E0E10",
"5X c #3D3B50",
"d  c #E9E7FF",
"@X c #A9A0FF",
"$. c #B2AFCF",
"t  c #D2CDFF",
"y. c #BBB3FF",
"7. c #313038",
"4  c #DFDCFF",
"q  c #B9B3EF",
"w. c #625D8F",
"w  c #C8C2FF",
"-. c #F1EFFF",
"m. c #B1A8FF",
"$  c #070708",
"Q  c #7C7B87",
"Y  c #DAD5FF",
"o. c #BEB7FF",
"E. c #67619F",
"-  c #E7E4FF",
"'. c #A79DFF",
"b  c #D0CAFF",
"+X c #393840",
"e  c #CBC6FF",
"U. c #C1BBF7",
"M. c #B4ACFF",
"i  c #DDD9FF",
/* pixels */
"                                                                ",
"                          . . . . . .                           ",
"                    . . . . . . . . . . . .                     ",
"                . . . . . . . . . . . . . . . .                 ",
"              . . . . . X o O . . + @ # $ . . . .               ",
"            . . . . . . % & * . . = - ; : . . . . . .           ",
"          . . . > , . . < 1 2 3 4 5 6 7 8 . . 9 . . .           ",
"        . . . 0 q w e r t % y u i p a s d f g h j . . .         ",
"      . . . k l z x c v b t n m 3 M N = B V C Z A S . . .       ",
"      . . D F G H J w K L P I U Y i T R E W Q ! ~ . . . . .     ",
"    . . . . . ^ / ( ) _ ` ' t % ] * [ { } . |  .... . . . .     ",
"    . . D . . X.o.O.+.@.c v #.< 1 2 $.%.. &.*.=.! -.;.:.. .     ",
"    . . >.,.<.1.2.G ( 3.w e 4.P I 5.6.. 7.8.s 9.f g 0.q.. . .   ",
"  . . . w.e.r.t.y.u.O.i.) c v b p.. . a.s.N = B V C ..d.. . .   ",
"  . . . f.g.h.j.k.X.G H l.z.x.c.. . v.Y b.4 5 6 7 8 ! n.. . .   ",
"  . . . . . m.M.N.B.V./ ( ) _ . . C.% y * [ Z.a A.d . . . . .   ",
"  . . . . . g.S.r.t.D.o.O.z @.. . F.G.n m 3 M 5 6 H.. . . . .   ",
"  . . . J.K.L.P.I.<.1.2.G H J U.Y.. . T.y u i T R s 9.R.. . .   ",
"  . . . E.W.Q.!.e.~.N.^.u.O.i.) _ /.. . (.).* [ N = - _.. . .   ",
"  . . . `.'.].L.g.h.j.k.X.o.O.l.z.K [.F.{.1 2 3 4 5 6 }.. . .   ",
"    . . |. X.XK.XXm.M.N.B.V./ ( 3.w e oXOX% y u i p a +X. .     ",
"    . . . . . @X#X!.e.r.t.D.o.O.z x c v b t n m 3 . . . . .     ",
"      . . . . '.K.L.P.I.j.k.X.G H J w K L P I U Y . . . . .     ",
"      . . . $X%X&X*XXXe.~.N.^.^ / ( ) _ ` ' t % ] =X. . .       ",
"        . . . -X'.].;Xg.S.r.k.X.o.O.+.@.c v #.< :X. . . .       ",
"        . . . . >X. . XXm.,.<.1.2.G ( 3.w . . ,X. . . .         ",
"          . . . . . . Q.!.e.r.. . u.O.i.) . . . . . .           ",
"            . . . . . <X1X2Xh.. . X.3X4X5X. . . . .             ",
"                . . . . . . . . . . . . . . . . .               ",
"                  . . . . . . . . . . . . . .                   ",
"                        . . . . . . . .                         ",
"                                                                "
};
