/* XPM */
static const char *app[]={
"32 32 669 2",
"  	c None",
". 	c #CF453B",
"+ 	c #F25A51",
"@ 	c #F15345",
"# 	c #F06961",
"$ 	c #F29791",
"% 	c #F0A19A",
"& 	c #EEA49F",
"* 	c #EEA09B",
"= 	c #EFA69F",
"- 	c #F0A49F",
"; 	c #F4B7B1",
"> 	c #F8CDC8",
", 	c #101211",
"' 	c #AB6D67",
") 	c #FFFEF9",
"! 	c #FFFAF4",
"~ 	c #FFF6EF",
"{ 	c #FFEEE7",
"] 	c #FFE9DF",
"^ 	c #FFE0D4",
"/ 	c #FFD4C6",
"( 	c #FEC2B0",
"_ 	c #FDB29A",
": 	c #FC7E66",
"< 	c #FC563D",
"[ 	c #FA3726",
"} 	c #F11A0F",
"| 	c #1F1A0D",
"1 	c #1A5815",
"2 	c #98FD78",
"3 	c #49EE2E",
"4 	c #46EB2B",
"5 	c #49E92C",
"6 	c #45E62C",
"7 	c #49E230",
"8 	c #4EE335",
"9 	c #53E33A",
"0 	c #57E340",
"a 	c #4FE039",
"b 	c #83DF74",
"c 	c #000101",
"d 	c #A34E46",
"e 	c #FFD6C6",
"f 	c #FFCDBB",
"g 	c #FFC6B3",
"h 	c #FFBAA7",
"i 	c #FFAF99",
"j 	c #FF9E8A",
"k 	c #FF8C78",
"l 	c #FF7B6C",
"m 	c #FF7163",
"n 	c #FA3D30",
"o 	c #F22218",
"p 	c #E81108",
"q 	c #E00903",
"r 	c #2B1916",
"s 	c #275224",
"t 	c #7CF362",
"u 	c #55DC43",
"v 	c #50DA42",
"w 	c #4FD940",
"x 	c #4EDA3F",
"y 	c #35CC25",
"z 	c #34CC26",
"A 	c #38CB28",
"B 	c #35C927",
"C 	c #37CA29",
"D 	c #060707",
"E 	c #943C37",
"F 	c #FFB7A3",
"G 	c #FFAE9A",
"H 	c #FFA792",
"I 	c #FF927D",
"J 	c #FF8472",
"K 	c #FE7865",
"L 	c #FE6C5E",
"M 	c #FE6658",
"N 	c #F53428",
"O 	c #ED1E15",
"P 	c #E40E06",
"Q 	c #DD0802",
"R 	c #2A1815",
"S 	c #275322",
"T 	c #73F05E",
"U 	c #53DB42",
"V 	c #51DA42",
"W 	c #4ED840",
"X 	c #4BD73D",
"Y 	c #33CB25",
"Z 	c #34CA25",
"` 	c #39CA2A",
" .	c #37C929",
"..	c #36C927",
"+.	c #3ABF2D",
"@.	c #121313",
"#.	c #843232",
"$.	c #FF9885",
"%.	c #FF917D",
"&.	c #FF8B7A",
"*.	c #FF8473",
"=.	c #FE7A69",
"-.	c #FF7160",
";.	c #FE665A",
">.	c #FC5F54",
",.	c #FB5D52",
"'.	c #EF2E23",
").	c #E91A12",
"!.	c #DE0B04",
"~.	c #DB0701",
"{.	c #291815",
"].	c #275423",
"^.	c #6EED57",
"/.	c #4FD941",
"(.	c #4DD83F",
"_.	c #49D63B",
":.	c #35CA26",
"<.	c #39CB29",
"[.	c #37CA27",
"}.	c #34C826",
"|.	c #50C840",
"1.	c #242424",
"2.	c #732B29",
"3.	c #FF7E6E",
"4.	c #FF7968",
"5.	c #FF7561",
"6.	c #FE6E5C",
"7.	c #FE6859",
"8.	c #FD6356",
"9.	c #FB5C50",
"0.	c #F9574D",
"a.	c #F7574E",
"b.	c #EB2923",
"c.	c #E3170F",
"d.	c #DA0803",
"e.	c #D80501",
"f.	c #2A1915",
"g.	c #2A5325",
"h.	c #68EA52",
"i.	c #4FD840",
"j.	c #49D53B",
"k.	c #33CC26",
"l.	c #36CB26",
"m.	c #38CB29",
"n.	c #37CA28",
"o.	c #31C624",
"p.	c #62D054",
"q.	c #2F302F",
"r.	c #652724",
"s.	c #FF6C5D",
"t.	c #FD665C",
"u.	c #FD6559",
"v.	c #FC6254",
"w.	c #FB5C51",
"x.	c #F95A4E",
"y.	c #F7564B",
"z.	c #F45249",
"A.	c #F3534A",
"B.	c #E62820",
"C.	c #DF140E",
"D.	c #D60602",
"E.	c #D60500",
"F.	c #2A5425",
"G.	c #62E650",
"H.	c #51D942",
"I.	c #4ED73F",
"J.	c #47D53A",
"K.	c #34CB25",
"L.	c #34CA26",
"M.	c #37C928",
"N.	c #2EC621",
"O.	c #76D866",
"P.	c #572120",
"Q.	c #FC6154",
"R.	c #FA5C52",
"S.	c #F85950",
"T.	c #F7594D",
"U.	c #F6554A",
"V.	c #F5544D",
"W.	c #F25248",
"X.	c #F14F47",
"Y.	c #F14F4A",
"Z.	c #E12520",
"`.	c #DA130D",
" +	c #D30501",
".+	c #D30400",
"++	c #2B1816",
"@+	c #2A5525",
"#+	c #5FE44D",
"$+	c #50D842",
"%+	c #4DD63E",
"&+	c #48D33A",
"*+	c #35CB26",
"=+	c #36CB29",
"-+	c #30C524",
";+	c #50C741",
">+	c #020404",
",+	c #451C1B",
"'+	c #F75953",
")+	c #F4554D",
"!+	c #F4554B",
"~+	c #F3534B",
"{+	c #F2514A",
"]+	c #EE4D47",
"^+	c #ED4C45",
"/+	c #ED4D48",
"(+	c #DD2521",
"_+	c #D6120E",
":+	c #CE0400",
"<+	c #D10400",
"[+	c #295625",
"}+	c #5AE14A",
"|+	c #4DD73F",
"1+	c #45D337",
"2+	c #34CB26",
"3+	c #35CA29",
"4+	c #38C928",
"5+	c #2FC421",
"6+	c #74D166",
"7+	c #060606",
"8+	c #321715",
"9+	c #F45550",
"0+	c #F05048",
"a+	c #EF504B",
"b+	c #EF4F4A",
"c+	c #ED4F48",
"d+	c #ED4C47",
"e+	c #EA4A46",
"f+	c #E94945",
"g+	c #E94B47",
"h+	c #DB2520",
"i+	c #D5120D",
"j+	c #CC0400",
"k+	c #CF0300",
"l+	c #2A5427",
"m+	c #58DF48",
"n+	c #51D843",
"o+	c #4DD73E",
"p+	c #4CD63E",
"q+	c #46D337",
"r+	c #33CA25",
"s+	c #35CA28",
"t+	c #2DC41F",
"u+	c #ADDDA2",
"v+	c #0F0F0F",
"w+	c #1F0F0F",
"x+	c #EE5650",
"y+	c #EB4D48",
"z+	c #EB4D46",
"A+	c #EA4D48",
"B+	c #E94B46",
"C+	c #E94B48",
"D+	c #E84842",
"E+	c #E74742",
"F+	c #E74946",
"G+	c #D82621",
"H+	c #D1120D",
"I+	c #CB0301",
"J+	c #2A5527",
"K+	c #57DD48",
"L+	c #4ED740",
"M+	c #44D236",
"N+	c #32CB24",
"O+	c #33C926",
"P+	c #29C31B",
"Q+	c #CEE7CA",
"R+	c #161616",
"S+	c #110909",
"T+	c #EC5350",
"U+	c #E84D46",
"V+	c #E74843",
"W+	c #E74943",
"X+	c #E64A45",
"Y+	c #E74944",
"Z+	c #E64945",
"`+	c #E74C48",
" @	c #D92823",
".@	c #CF110C",
"+@	c #C80300",
"@@	c #295425",
"#@	c #4DDB3F",
"$@	c #44D334",
"%@	c #3FD12F",
"&@	c #3ACC2B",
"*@	c #35C925",
"=@	c #35CB25",
"-@	c #36C727",
";@	c #28C218",
">@	c #EFF7ED",
",@	c #282929",
"'@	c #060303",
")@	c #E64D4A",
"!@	c #E54340",
"~@	c #E33E3A",
"{@	c #E03A35",
"]@	c #DD3430",
"^@	c #DA302C",
"/@	c #D92A27",
"(@	c #D62420",
"_@	c #D21F1C",
":@	c #D11815",
"<@	c #D61A18",
"[@	c #CA0D0A",
"}@	c #CC0300",
"|@	c #070200",
"1@	c #0B3307",
"2@	c #22C512",
"3@	c #1EBF10",
"4@	c #1FBE10",
"5@	c #20C110",
"6@	c #1FC210",
"7@	c #21C211",
"8@	c #23C414",
"9@	c #24BF17",
"0@	c #28BD1A",
"a@	c #25B218",
"b@	c #030908",
"c@	c #BF120F",
"d@	c #CC110D",
"e@	c #CE120D",
"f@	c #CE110C",
"g@	c #CE100C",
"h@	c #CF0F0A",
"i@	c #CF0C09",
"j@	c #CE0C09",
"k@	c #CF0B07",
"l@	c #D10D09",
"m@	c #D5130F",
"n@	c #DC1510",
"o@	c #DA110C",
"p@	c #341D1B",
"q@	c #062403",
"r@	c #1AAA0B",
"s@	c #148D09",
"t@	c #127A07",
"u@	c #106C07",
"v@	c #0D5906",
"w@	c #0B4405",
"x@	c #0E3D09",
"y@	c #93BB8C",
"z@	c #CFE8CB",
"A@	c #2D2F2F",
"B@	c #A30502",
"C@	c #C50300",
"D@	c #BB0200",
"E@	c #AC0200",
"F@	c #990200",
"G@	c #8B0200",
"H@	c #7C0301",
"I@	c #6D0301",
"J@	c #610402",
"K@	c #480201",
"L@	c #240202",
"M@	c #190000",
"N@	c #23101A",
"O@	c #100F1C",
"P@	c #0D0D0E",
"Q@	c #0A070B",
"R@	c #0B080D",
"S@	c #0B0911",
"T@	c #0E0A16",
"U@	c #100C1D",
"V@	c #0B081E",
"W@	c #0B0627",
"X@	c #000021",
"Y@	c #2B2262",
"Z@	c #B28FEF",
"`@	c #474848",
" #	c #080808",
".#	c #1A0A09",
"+#	c #180A0C",
"@#	c #110A0B",
"##	c #0E090C",
"$#	c #08070A",
"%#	c #060509",
"&#	c #050508",
"*#	c #080B07",
"=#	c #131506",
"-#	c #232402",
";#	c #444504",
">#	c #646404",
",#	c #6F6F15",
"'#	c #171526",
")#	c #211A4A",
"!#	c #1B0F72",
"~#	c #210F92",
"{#	c #2D15A6",
"]#	c #381BBA",
"^#	c #4323CD",
"/#	c #3A19D6",
"(#	c #3E19E5",
"_#	c #411CEB",
":#	c #4621EA",
"<#	c #4521E8",
"[#	c #2F12CA",
"}#	c #CBCBCB",
"|#	c #000000",
"1#	c #45440F",
"2#	c #676612",
"3#	c #828323",
"4#	c #9C9C41",
"5#	c #B7B73D",
"6#	c #D7D64B",
"7#	c #F2F251",
"8#	c #FFFF52",
"9#	c #FFFF57",
"0#	c #FCFC39",
"a#	c #F2F125",
"b#	c #E2E20A",
"c#	c #E7E50C",
"d#	c #161513",
"e#	c #181717",
"f#	c #5D45A0",
"g#	c #6E40EE",
"h#	c #5C38E6",
"i#	c #5334E0",
"j#	c #5136DD",
"k#	c #391FD0",
"l#	c #391FCB",
"m#	c #3A20CA",
"n#	c #3920C8",
"o#	c #3A20C9",
"p#	c #3D26C0",
"q#	c #E9EA69",
"r#	c #F4F47B",
"s#	c #F0EF5A",
"t#	c #ECEC64",
"u#	c #E8E94C",
"v#	c #E3E340",
"w#	c #E1E03E",
"x#	c #DEDE40",
"y#	c #E0E046",
"z#	c #D6D527",
"A#	c #D2D21C",
"B#	c #C9C909",
"C#	c #D2D10A",
"D#	c #181819",
"E#	c #392E7A",
"F#	c #5138D8",
"G#	c #4E35D4",
"H#	c #4D33D4",
"I#	c #5035D6",
"J#	c #3A1FC9",
"K#	c #3920C9",
"L#	c #3A1FCA",
"M#	c #3A20C8",
"N#	c #3D26C2",
"O#	c #000004",
"P#	c #B9B847",
"Q#	c #E1E048",
"R#	c #E2E248",
"S#	c #E1E147",
"T#	c #E1E144",
"U#	c #E2E244",
"V#	c #E2E246",
"W#	c #D7D728",
"X#	c #D3D31C",
"Y#	c #CACA0A",
"Z#	c #D1D00A",
"`#	c #181917",
" $	c #3B2D7F",
".$	c #4F35D7",
"+$	c #4F35D5",
"@$	c #4C32D3",
"#$	c #4F35D6",
"$$	c #391FC9",
"%$	c #3920C7",
"&$	c #3B22C8",
"*$	c #4932C2",
"=$	c #040407",
"-$	c #A5A540",
";$	c #DFDF48",
">$	c #DFDF45",
",$	c #E1E045",
"'$	c #E0E045",
")$	c #E1E146",
"!$	c #E0E042",
"~$	c #D2D11B",
"{$	c #D2CF0A",
"]$	c #141412",
"^$	c #181817",
"/$	c #3C2E80",
"($	c #4C32D2",
"_$	c #4A32D2",
":$	c #4E33D5",
"<$	c #371EC7",
"[$	c #381FC8",
"}$	c #381FC6",
"|$	c #6350C8",
"1$	c #222223",
"2$	c #91903A",
"3$	c #DEDE43",
"4$	c #DFDF47",
"5$	c #DFDF44",
"6$	c #DFDF43",
"7$	c #DFDF41",
"8$	c #DFDF42",
"9$	c #D6D528",
"0$	c #D1D21B",
"a$	c #C8C809",
"b$	c #D0CE0A",
"c$	c #141311",
"d$	c #181818",
"e$	c #3B2E7F",
"f$	c #4D34D3",
"g$	c #4D32D2",
"h$	c #4B31D2",
"i$	c #4E33D4",
"j$	c #351DC5",
"k$	c #381FC5",
"l$	c #3820C4",
"m$	c #7969CE",
"n$	c #2D2D30",
"o$	c #838335",
"p$	c #DEDD43",
"q$	c #DDDD44",
"r$	c #DEDE42",
"s$	c #DEDF40",
"t$	c #D7D629",
"u$	c #D0D01A",
"v$	c #C6C809",
"w$	c #D0CC0A",
"x$	c #171618",
"y$	c #3A2D81",
"z$	c #4E31D1",
"A$	c #4B32D0",
"B$	c #5135D5",
"C$	c #351CC4",
"D$	c #361DC4",
"E$	c #3720C4",
"F$	c #3820C3",
"G$	c #3A21C6",
"H$	c #6050C5",
"I$	c #161617",
"J$	c #73752F",
"K$	c #DEDD42",
"L$	c #DDDD43",
"M$	c #DEDE41",
"N$	c #DDDD41",
"O$	c #D7D72C",
"P$	c #CFCF18",
"Q$	c #C6C70A",
"R$	c #CBCC0A",
"S$	c #151413",
"T$	c #171716",
"U$	c #392C84",
"V$	c #462DD0",
"W$	c #3D25C9",
"X$	c #371EC4",
"Y$	c #3119C2",
"Z$	c #361DC5",
"`$	c #3820C2",
" %	c #3A21C7",
".%	c #200EA1",
"+%	c #272727",
"@%	c #676627",
"#%	c #DFDE45",
"$%	c #DDDC43",
"%%	c #DDDE43",
"&%	c #DCDC3D",
"*%	c #DBDA38",
"=%	c #D7D732",
"-%	c #D4D52D",
";%	c #D3D324",
">%	c #CECE18",
",%	c #C7C70D",
"'%	c #CCCC09",
")%	c #090809",
"!%	c #0A0A0A",
"~%	c #20146D",
"{%	c #3016C4",
"]%	c #2F17C1",
"^%	c #2F16C1",
"/%	c #3017BF",
"(%	c #2E16BD",
"_%	c #331AC2",
":%	c #3920C4",
"<%	c #371EC1",
"[%	c #371EC0",
"}%	c #2F1FAA",
"|%	c #6D6D6D",
"1%	c #50511A",
"2%	c #DBD938",
"3%	c #D2D22C",
"4%	c #D0CF25",
"5%	c #CFCE21",
"6%	c #CFCF20",
"7%	c #D0D121",
"8%	c #D0CF20",
"9%	c #CED121",
"0%	c #D2D221",
"a%	c #CECE19",
"b%	c #CDCC0E",
"c%	c #070807",
"d%	c #231673",
"e%	c #3319C3",
"f%	c #3318C3",
"g%	c #3319C1",
"h%	c #2E17BD",
"i%	c #371FC1",
"j%	c #341BBC",
"k%	c #4731B7",
"l%	c #404142",
"m%	c #2E2D06",
"n%	c #D6D726",
"o%	c #CFCE22",
"p%	c #CECF22",
"q%	c #CFCF21",
"r%	c #CECE21",
"s%	c #CECF20",
"t%	c #CFCF1F",
"u%	c #D1D121",
"v%	c #D4D320",
"w%	c #3E3E3D",
"x%	c #0A0A09",
"y%	c #251873",
"z%	c #3219C3",
"A%	c #3117C0",
"B%	c #3217BF",
"C%	c #3218C0",
"D%	c #3018C1",
"E%	c #2B13BC",
"F%	c #210CA7",
"G%	c #2B199F",
"H%	c #634EB9",
"I%	c #1F2009",
"J%	c #D8D828",
"K%	c #CECF23",
"L%	c #CED023",
"M%	c #D0D022",
"N%	c #CFCF22",
"O%	c #D3D322",
"P%	c #D4D32C",
"Q%	c #22231F",
"R%	c #261976",
"S%	c #331BC6",
"T%	c #3118C3",
"U%	c #2610B1",
"V%	c #2A15A8",
"W%	c #4935B1",
"X%	c #6E5FB6",
"Y%	c #A694D8",
"Z%	c #3A3B30",
"`%	c #DAD92E",
" &	c #CECD22",
".&	c #CECE22",
"+&	c #D0CE22",
"@&	c #D0CE24",
"#&	c #D0CF21",
"$&	c #D2D021",
"%&	c #C8C81F",
"&&	c #B6B725",
"*&	c #CCCB56",
"=&	c #CECF73",
"-&	c #352A73",
";&	c #4230AB",
">&	c #2E1F8C",
",&	c #755EC3",
"'&	c #D6D42C",
")&	c #CECC24",
"!&	c #C2C21B",
"~&	c #C4C42D",
"{&	c #B8B938",
"]&	c #C1C15E",
"^&	c #ACAD3D",
"/&	c #B8B87C",
"(&	c #BDBC4A",
"_&	c #C5C773",
":&	c #E1E2B0",
"                                                                ",
"      . + @ # $ % & * = - ; >                                   ",
"    , ' ) ! ~ { ] ^ / ( _ : < [ } | 1 2 3 4 5 6 7 8 9 0 a b     ",
"    c d e f g h i j k l m n o p q r s t u v w x y z A B C       ",
"    D E F G H j I J K L M N O P Q R S T U V W X Y Z `  ...+.    ",
"    @.#.$.%.&.*.=.-.;.>.,.'.).!.~.{.].^.U /.(._.Y :.<.[.}.|.    ",
"    1.2.3.4.5.6.7.8.9.0.a.b.c.d.e.f.g.h.V i.i.j.k.l.m.n.o.p.    ",
"    q.r.s.t.u.v.w.x.y.z.A.B.C.D.E.R F.G.H.i.I.J.K.L.C M.N.O.    ",
"      P.Q.R.S.T.U.V.W.X.Y.Z.`. +.+++@+#+$+W %+&+*+*+=+A -+;+    ",
"    >+,+'+)+!+~+{+X.]+^+/+(+_+:+<+R [+}+$+|+I.1+2+*+3+4+5+6+    ",
"    7+8+9+0+a+b+c+d+e+f+g+h+i+j+k+++l+m+n+o+p+q+*+r+s+4+t+u+    ",
"    v+w+x+y+z+A+B+C+D+E+F+G+H+I+k+{.J+K+L+o+p+M+N+K.O+4+P+Q+    ",
"    R+S+T+U+V+W+X+Y+Z+F+`+ @.@+@k+{.@@#@$@%@&@*@Y =@2+-@;@>@    ",
"    ,@'@)@!@~@{@]@^@/@(@_@:@<@[@}@|@1@2@3@4@5@6@7@8@9@0@a@      ",
"      b@c@d@e@f@g@h@i@j@k@l@m@n@o@p@q@r@s@t@u@v@w@x@y@  z@      ",
"      A@B@C@D@E@F@G@H@I@J@K@L@M@N@O@P@Q@R@S@T@U@V@W@X@Y@  Z@    ",
"    `@ #.#+#@###$#%#&#*#=#-#;#>#,#'#)#!#~#{#]#^#/#(#_#:#<#[#    ",
"    }#|#1#2#3#4#5#6#7#8#9#0#a#b#c#d#e#f#g#h#i#j#k#l#m#n#o#p#    ",
"      |#q#r#s#t#u#v#w#x#y#z#A#B#C#d#D#E#F#G#H#I#J#K#L#M#o#N#    ",
"      O#P#y#Q#y#R#S#T#U#V#W#X#Y#Z#d#`# $.$+$@$#$$$m#$$%$&$*$    ",
"      =$-$;$>$,$'$'$)$>$!$W#~$B#{$]$^$/$#$($_$:$<$[$[$}$&$|$    ",
"      1$2$3$4$5$6$5$5$7$8$9$0$a$b$c$d$e$f$g$h$i$j$<$k$l$%$m$    ",
"      n$o$p$q$q$r$r$r$7$s$t$u$v$w$]$x$y$($z$A$B$C$D$E$F$G$H$    ",
"      I$J$K$L$q$r$M$r$N$M$O$P$Q$R$S$T$U$V$W$X$Y$<$k$Z$`$ %.%    ",
"      +%@%#%$%L$%%&%*%=%-%;%>%,%'%)%!%~%{%]%^%/%(%_%:%<%[%}%    ",
"      |%1%2%3%4%5%6%6%7%8%9%0%a%b%c%!%d%e%f%g%/%(%(%h%i%j%k%    ",
"      l%m%n%o%5%p%q%q%r%s%t%5%u%v%w%x%y%z%A%A%B%C%D%E%F%G%H%    ",
"        I%J%K%L%M%N%N%p%p%q%M%O%P%  Q%R%S%T%U%V%W%X%  Y%        ",
"        Z%`% &.&+&@&#&0%$&%&&&*&=&    -&;&>&,&                  ",
"          '&+&)&!&~&{&]&^&/&                                    ",
"          (&_&  :&                                              ",
"                                                                "};
