/* XPM */
static const char *app[]={
"32 32 11 1",
"# c None",
"f c #000083",
"e c #0000ff",
"d c #008100",
"c c #00ff00",
"b c #830000",
"i c #838100",
"g c #838183",
"a c #ff0000",
"h c #ffff00",
". c #ffffff",
"...............##...............",
".aaaaaaaaaaaaab##.cccccccccccccd",
".aaaaaaaaaaaaab##.cccccccccccccd",
".aaaaaaaaaaaaab##.cccccccccccccd",
".aaaaaaaaaaaaab##.cccccccccccccd",
".aaaaaaaaaaaaab##.cccccccccccccd",
".aaaaaaaaaaaaab##.cccccccccccccd",
".aaaaaaaaaaaaab##.cccccccccccccd",
".aaaaaaaaaaaaab##.cccccccccccccd",
".aaaaaaaaaaaaab##.cccccccccccccd",
".aaaaaaaaaaaaab##.cccccccccccccd",
".aaaaaaaaaaaaab##.cccccccccccccd",
".aaaaaaaaaaaaab##.cccccccccccccd",
".aaaaaaaaaaaaab##.cccccccccccccd",
"bbbbbbbbbbbbbb................dd",
"##############.eeeeeeeeeeeeeef##",
"##############.eeeeeeeeeeeeeef##",
"...............eeeeeeeeeeeeeefgg",
".hhhhhhhhhhhhh.eeeeeeeeeeeeeefgg",
".hhhhhhhhhhhhh.eeeeeeeeeeeeeefgg",
".hhhhhhhhhhhhh.eeeeeeeeeeeeeefgg",
".hhhhhhhhhhhhh.eeeeeeeeeeeeeefgg",
".hhhhhhhhhhhhh.eeeeeeeeeeeeeefgg",
".hhhhhhhhhhhhh.eeeeeeeeeeeeeefgg",
".hhhhhhhhhhhhh.eeeeeeeeeeeeeefgg",
".hhhhhhhhhhhhh.eeeeeeeeeeeeeefgg",
".hhhhhhhhhhhhh.eeeeeeeeeeeeeefgg",
".hhhhhhhhhhhhh.eeeeeeeeeeeeeefgg",
".hhhhhhhhhhhhh.eeeeeeeeeeeeeefgg",
".hhhhhhhhhhhhhffffffffffffffffgg",
".hhhhhhhhhhhhhi##ggggggggggggggg",
"iiiiiiiiiiiiiii##ggggggggggggggg"};
