/* XPM */
static const char *c64[] = {
/* columns rows colors chars-per-pixel */
"64 64 132 2",
"   c #363636",
".  c #3B3B3B",
"X  c #1E1E7E",
"o  c #2F2F53",
"O  c #2E2E5E",
"+  c #353541",
"@  c #34344C",
"#  c #313155",
"$  c #3C3C54",
"%  c #22226A",
"&  c #262679",
"*  c #292971",
"=  c #343464",
"-  c #31316E",
";  c #363671",
":  c #313179",
">  c #434343",
",  c #42424E",
"<  c #4B4B4B",
"1  c #444450",
"2  c #414159",
"3  c #484854",
"4  c #545454",
"5  c #5C5C5C",
"6  c #48486C",
"7  c #53536B",
"8  c #636363",
"9  c #6B6B6B",
"0  c #747474",
"q  c #7C7C7C",
"w  c #17178F",
"e  c #1D1D89",
"r  c #131396",
"t  c #10109F",
"y  c #1E1E96",
"u  c #0707AF",
"i  c #0A0AA6",
"p  c #0D0DA9",
"a  c #0000BE",
"s  c #0909B7",
"d  c #1313A3",
"f  c #1A1AB8",
"g  c #212181",
"h  c #21218D",
"j  c #242490",
"k  c #3F3F81",
"l  c #3737A4",
"z  c #0000C2",
"x  c #0000CA",
"c  c #0B0BCF",
"v  c #0000D3",
"b  c #0000DB",
"n  c #1D1DC0",
"m  c #0000E4",
"M  c #0000EB",
"N  c #0C0CEC",
"B  c #0000F3",
"V  c #0000FC",
"C  c #0A0AFF",
"Z  c #1313FF",
"A  c #1B1BFF",
"S  c #2929C5",
"D  c #3838CA",
"F  c #2121EF",
"G  c #2323FF",
"H  c #2D2DFF",
"J  c #3232FF",
"K  c #3C3CFE",
"L  c #616185",
"P  c #4343FF",
"I  c #4C4CFF",
"U  c #5353FF",
"Y  c #5A5AFF",
"T  c #6464CA",
"R  c #7171C7",
"E  c #7272D6",
"W  c #6E6EED",
"Q  c #6363FF",
"!  c #6A6AFF",
"~  c #7272FF",
"^  c #7A7AFF",
"/  c #838383",
"(  c #8B8B8B",
")  c #939393",
"_  c #9B9B9B",
"`  c #A3A3A3",
"'  c #ACACAC",
"]  c #A6A6B2",
"[  c #B4B4B4",
"{  c #BBBBBB",
"}  c #8383FF",
"|  c #8C8CFF",
" . c #9292E7",
".. c #9393FE",
"X. c #9F9FF5",
"o. c #9B9BFF",
"O. c #ADADCA",
"+. c #B8B8C5",
"@. c #BDBDD1",
"#. c #A3A3FF",
"$. c #AAAAFF",
"%. c #B0B0E5",
"&. c #B2B2FF",
"*. c #B9B9F1",
"=. c #BABAFF",
"-. c #C3C3C3",
";. c #CBCBCB",
":. c #C0C0D1",
">. c #C7C7DE",
",. c #D3D3D3",
"<. c #D7D7DC",
"1. c #DBDBDB",
"2. c #CFCFEF",
"3. c #C3C3FE",
"4. c #C8C8F5",
"5. c #CCCCFF",
"6. c #D2D2E1",
"7. c #DEDEEB",
"8. c #D6D6F7",
"9. c #D3D3FE",
"0. c #DCDCF1",
"q. c #DCDCFE",
"w. c #E3E3E3",
"e. c #EBEBEB",
"r. c #E4E4F0",
"t. c #E3E3FE",
"y. c #EAEAF3",
"u. c #EBEBFD",
"i. c #F5F5F5",
"p. c #F3F3FA",
"a. c #F9F9F9",
"s. c None",
/* pixels */
"/ _ _ _ _ _ _ _ _ _ _ _ ) _ ) ) ) ) ) ) ) ) ) ) ( ) ( ) ( ( ( ( ( ( ( ( / / ( / / / ( / / / / / / s.s.s.s.s.s.s.s.s.s.s.s.s.s.s.",
"` ;.-.;.-.-.-.-.-.{ { -.{ { { { { [ [ [ [ [ ' [ ' ' ' ' ' ` ' ` ` ` ` ` ` ` ` _ _ _ _ ) ) _ ) ) ' / s.s.s.s.s.s.s.s.s.s.s.s.s.s.",
"` ;.;.;.-.;.-.-.-.-.-.{ { { { { { { [ { [ [ [ [ ' [ ' ' ' ' ' ` ' ` ` ` ` ` ` _ ` _ _ _ _ _ ) ) { ' / s.s.s.s.s.s.s.s.s.s.s.s.s.",
"` ;.;.;.;.;.;.;.-.-.-.-.-.-.-.{ { { { { { [ [ [ [ [ ' [ [ ' ' ' ' ` ' ` ` ` ` ` _ ` _ ` _ _ _ _ -.-.[ / s.s.s.s.s.s.s.s.s.s.s.s.",
"` ;.;.;.;.;.;.;.-.-.;.-.-.-.-.{ { { { { { { { [ [ [ [ [ ' [ ' [ ' ' ' ' ` ` ` ` ` ` _ _ _ _ _ _ ;.;.-.' q s.s.s.s.s.s.s.s.s.s.s.",
"` ,.,.;.;.,.;.;.;.;.;.-.;.-.-.-.-.-.-.{ { { { { [ { { [ [ [ ' [ ' ' ' ' ' ' ` ' ' ` ` ` ` ` _ ` ;.,.;.-.[ / s.s.s.s.s.s.s.s.s.s.",
"` ,.,.,.,.,.;.;.;.;.;.;.;.-.-.-.-.-.-.-.{ { { { { { { [ [ [ [ [ [ ' ' ' ' ' ' ' ` ` ` ` ` ` ` _ -.w.1.;.-.[ q s.s.s.s.s.s.s.s.s.",
"' ,.1.,.1.;.,.,.,.;.;.;.;.;.;.;.-.-.-.-.-.-.-.{ { { { { [ { [ [ [ [ [ [ ' ' ' ' ' ' ' ' ` ` ` ` -.e.w.,.;.{ [ q s.s.s.s.s.s.s.s.",
"` 1.1.1.1.,.,.,.,.;.,.;.;.;.;.;.;.;.;.-.-.-.-.-.-.{ { { { { { { [ [ [ [ [ ' ' ' ' ' ' ' ' ` ` ` -.a.e.w.<.;.-.[ / s.s.s.s.s.s.s.",
"' 1.1.1.1.,.1.,.1.,.,.;.,.;.;.;.;.;.;.-.;.-.-.-.-.-.-.{ { { { { { { [ [ [ [ [ [ ' ' ' ' ' ' ' ` ;.a.i.e.w.,.;.{ [ / s.s.s.s.s.s.",
"' 1.1.1.1.1.1.,.,.,.,.,.,.,.,.;.;.;.;.;.;.-.-.-.-.-.-.-.-.{ { { { { { { [ { [ [ [ ' [ ' ' ' ' ' ,.i.a.a.e.w.1.;.-.' / s.s.s.s.s.",
"' w.w.1.1.1.1.1.1.1.<.,.,.,.,.,.,.;.;.;.;.;.;.;.-.-.-.-.-.-.-.{ { { { { { [ { [ [ [ [ [ ' [ ' ' 1.a.i.a.i.e.w.,.;.-.' / s.s.s.s.",
"' w.w.w.w.1.1.1.1.1.1.,.<.,.,.,.,.;.,.;.,.;.;.;.;.;.;.-.-.-.-.-.-.{ { { { { { [ [ [ [ [ [ [ ' ' w.i.i.a.a.i.e.w.,.;.{ [ / s.s.s.",
"[ w.w.w.w.w.w.w.w.1.1.1.1.<.1.,.,.,.,.,.,.;.;.;.;.;.<.7.r.t.t.t.t.t.q.8.2.6.@.{ { { [ [ [ [ [ [ w.i.i.i.a.a.a.e.w.1.;.-.[ / s.s.",
"' e.e.w.w.w.w.w.w.1.w.1.1.1.1.,.,.,.,.,.,.;.;.1.r.u.u.u.t.t.t.q.q.9.q.9.9.5.3.3.%.O.[ { [ [ [ [ e.i.i.a.a.a.a.a.e.w.1.;.-.' / s.",
"[ e.e.e.e.w.w.w.w.w.1.w.w.1.1.1.1.1.1.1.,.1.y.u.u.t.t.q.9.3.=.&.$.$.$.=.=.3.3.=.o.U F R { [ { [ w.1.1.<.;.;.-.{ { -.{ { { { [ / ",
"[ e.e.e.e.e.e.w.w.w.w.w.w.w.1.1.w.1.1.1.1.u.u.u.t.9.=...Y Z B M M B B A Y } o.o.! V b z ' ' [ { [ [ [ [ [ [ ' ' ' ' ' ' ' ' ` ( ",
"[ e.e.e.e.e.e.e.e.w.w.w.w.w.w.1.w.1.1.w.u.u.t.q.&.^ A M x z z a a z z z v M A P C b z a _ ' ' [ [ { { [ [ [ [ [ [ [ ' ' ' ' ' ( ",
"[ i.i.e.e.e.e.e.e.e.e.e.w.w.w.w.w.1.w.u.u.t.5.o.P M x z z a a z a a a a z z v m b x a a ( ) _ ' [ { { { { [ [ [ [ [ ' ' ' ' ' ( ",
"{ i.i.i.i.i.i.e.e.e.e.e.e.w.w.e.w.w.y.u.t.3...J m x z a z a a s t t t a z z z z z z a a 8 q ( ` [ { { { { [ { { [ [ [ [ [ ' ' ( ",
"{ i.i.i.i.i.i.e.e.i.e.e.e.e.e.w.w.y.u.t.5...K M x a a a a w #           % i z a z a a a 4 8 q _ ' { { { { { { { [ { { [ [ [ [ ( ",
"[ a.a.a.i.i.i.i.i.e.e.e.e.e.e.e.e.u.t.9.$.Y B x a a a u o       . . > > > > O i a a a a > 4 0 ) ' { -.-.{ -.{ { { [ { [ [ [ [ ) ",
"{ a.a.i.a.i.i.i.i.i.i.e.e.e.e.e.t.t.q.=.^ Z b z z a i + . . . > < < 4 4 4 4 4 1 e z a a . 4 9 ) ' { -.-.-.-.{ { { { { { { [ [ ) ",
"{ i.a.a.a.a.a.i.i.i.i.i.i.i.i.e.t.t.5.o.I B x z a a o . . . < 4 5 9 0 0 q 0 9 8 4 : s a > 4 9 ) ' { ;.-.-.-.-.-.{ -.{ { { { [ ) ",
"[ a.i.a.a.a.a.a.a.i.i.i.i.i.i.y.q.9.=.^ G m z a a X . . > 4 5 0 / ) _ _ ` _ ) ( 0 9 6 & < 5 9 ) ' -.-.;.;.-.-.-.-.-.{ { { { { ) ",
"{ a.a.a.a.i.i.a.a.a.a.a.a.i.i.t.q.5.#.Q V b z a a @ . > < 8 q ( ` [ { -.{ { [ ' _ ( 0 8 5 8 q _ [ -.;.;.;.-.;.-.-.-.-.-.-.-.{ ) ",
"{ a.a.i.a.a.a.a.a.a.a.a.a.i.i.q.9.3...I B x a a r . > < 8 q ) [ -.;.;.,.,.,.;.-.{ ' ) / 0 0 / _ { -.;.;.;.;.;.-.-.-.-.-.-.-.-._ ",
"[ i.a.a.a.a.i.a.a.a.i.a.a.i.a.9.5.=.} P M x a a X . < 5 0 _ [ ;.,.w.w.w.w.1.1.<.,.-.[ ` ) ) _ ' { ;.,.;.;.;.;.;.;.;.-.;.-.-.{ _ ",
"{ i.a.i.a.a.i.a.i.a.a.a.a.a.p.5.3.&.^ J M z a a O > 4 9 ( ' ;.1.w.w.w.w.w.w.w.1.1.,.;.{ [ [ ' { ;.,.,.,.;.;.,.;.;.;.;.-.-.-.-._ ",
"[ a.i.a.a.i.a.a.a.a.i.a.a.i.u.3.3.$.~ H M z z a # < 5 q ` -.1.w.e.w.e.e.w.w.w.w.w.1.1.,.;.-.-.;.;.,.,.,.,.,.;.,.;.;.;.;.;.;.-._ ",
"{ a.i.a.a.i.a.a.a.a.i.a.a.i.y.3.=.#.! H M z z a > < 9 ( [ ;.w.e.e.e.e.w.e.w.w.w.w.w.w.1.,.,.,.1.,.1.,.,.,.,.,.,.,.;.;.,.;.;.;._ ",
"{ i.a.i.i.a.a.i.i.a.a.a.a.a.y.=.&.o.! J M x z a > 4 9 _ { 1.e.i.e.e.e.e.e.e.w.e.w.w.w.w.1.w.1.1.1.1.1.1.1.<.,.,.,.,.;.,.;.,.;._ ",
"{ a.i.a.a.i.a.a.a.i.a.i.a.a.t.&.$.o.! J B x a a 1 4 0 ` -.w.e.i.i.e.e.e.e.e.e.e.e.w.w.w.w.w.w.1.w.1.1.1.<.<.,.,.,.,.,.,.,.,.;._ ",
"[ i.a.i.a.a.i.i.a.a.i.a.i.a.r.$.$...! K B x z a ; 5 q ' ;.e.i.i.i.i.i.e.i.e.e.e.e.e.e.w.e.w.w.w.w.1.w.1.1.1.1.1.1.1.,.,.,.;.,.` ",
"{ i.a.a.i.a.i.a.i.a.i.a.a.i.i.o.o...! K V m x z - 8 / ' ,.e.a.i.i.i.i.i.i.e.e.e.e.e.e.e.w.w.e.w.w.w.w.1.w.1.1.1.1.,.1.1.1.,.,.` ",
"{ i.i.i.a.i.a.a.a.i.a.i.a.a.i.....| ! P A M x z h 5 / [ ;.e.i.a.a.i.i.i.i.i.i.i.i.e.e.e.e.e.e.w.e.w.w.w.1.w.w.1.1.1.1.,.1.,.,.` ",
"[ i.a.i.i.a.i.i.a.a.a.i.a.i.i...^ ^ ~ I H B b x s 8 q ' ,.e.a.a.i.a.a.i.i.i.i.i.i.e.i.e.i.e.e.e.e.w.w.w.w.w.w.w.1.1.1.1.1.,.1.` ",
"{ i.i.a.i.a.a.i.i.i.i.a.i.a.a.X.! ~ ! Y P Z B b x k q ' ;.w.i.a.a.a.a.a.a.i.i.i.i.i.i.e.e.e.e.e.e.e.e.e.w.e.w.w.w.w.w.1.1.1.1.` ",
"{ i.i.a.i.i.i.i.a.i.a.i.i.a.a.*.I Y Y U P J C M m c 0 _ ;.w.i.a.a.a.i.a.a.i.a.i.i.i.9.P i.i.i.e.e.e.e.e.e.w.e.w.w.w.w.1.w.1.1.' ",
"[ i.a.i.a.i.a.a.i.i.a.i.a.i.a.e.K H P P P P H C B B S ) { 1.e.i.i.a.a.a.a.a.a.a.i.t.} m i.e.e.e.e.e.e.e.e.e.e.w.e.w.w.w.w.w.w.` ",
"{ i.i.i.a.a.i.i.a.i.i.i.a.i.i.e.W V Z H J P P J G A H T ' ,.e.i.a.a.a.a.a.a.a.a.u.3.V x e.e.w.e.e.i.i.e.e.e.e.e.e.w.e.w.w.w.w.' ",
"[ i.a.i.i.i.i.a.i.a.a.i.i.a.i.i.<.N B B Z J P I I U Y ~  .@.w.e.i.a.i.a.a.p.u.u.q.! x z 1.,.,.w.w.e.i.e.i.e.e.e.e.e.w.e.w.e.w.' ",
"{ a.i.i.i.i.i.a.a.i.a.i.i.a.i.i.w.E m M B B A K U Q ^ | o.&.4.0.y.u.p.p.u.u.u.t.#.M z z { { -.;.w.i.i.i.i.i.e.i.e.e.e.e.e.e.w.' ",
"[ i.i.i.a.i.i.i.i.i.i.i.a.i.i.i.e.,.D x v m B V H U ! | #.=.3.q.q.t.u.u.u.q.9.o.B z a z _ _ ' -.1.e.i.i.i.i.i.i.i.i.e.e.e.e.e.' ",
"[ i.i.i.i.i.a.i.i.i.a.a.a.i.i.i.i.w.+.f x x x b M V G U ^ o.&.3.5.9.9.5.=.| J M x z a a q q ) { 1.e.a.a.i.i.i.i.i.e.i.e.e.e.e.' ",
"{ a.i.i.i.i.i.i.i.i.i.i.i.a.i.a.i.e.;.] f z z z x x b m B V G P U I J C M v z z a a a a 8 9 ( [ ,.i.i.a.a.a.a.i.i.i.i.i.i.e.e.[ ",
"[ i.a.i.i.i.i.i.a.i.i.a.i.i.i.i.i.e.w.-.` l z z a a z z z z x x x z z z z a a a a z a y 4 9 / [ 1.e.a.a.a.i.i.a.i.i.i.i.i.e.i.[ ",
"[ i.i.i.i.i.i.a.i.i.i.i.i.i.i.i.i.i.e.,.{ _ L d a a a a z a a a a a z z z a a a s j 2 > < 8 ( [ ,.e.a.a.a.a.a.a.a.a.a.i.i.i.i.[ ",
"[ i.i.i.i.i.i.i.i.i.i.i.i.a.i.i.i.i.e.e.;.[ ) 0 7 h p a z a a z a z a a a s j ; < > > > 4 9 ( { 1.e.a.a.a.a.i.a.a.i.a.a.i.i.i.[ ",
"{ i.i.i.i.i.i.i.i.i.i.i.i.i.i.i.a.i.i.e.w.;.[ _ q 8 4 3 # * X X X X & = $ > > > > > < < 5 0 _ -.1.i.a.a.a.a.a.a.a.a.a.a.a.a.a.[ ",
"[ i.i.i.i.i.i.i.i.i.i.i.i.i.i.a.i.i.i.i.e.w.;.[ _ / 0 8 4 4 < < < > > > > > > < < 4 5 9 q ( [ ;.w.i.a.i.a.i.i.a.a.a.a.i.a.a.a.{ ",
"[ i.i.i.i.i.i.i.i.i.i.i.i.i.i.i.i.i.i.i.i.e.w.;.{ ' ) / 0 9 8 5 5 5 4 5 4 5 5 8 8 0 q ( _ [ -.1.e.i.i.a.a.a.a.a.a.i.a.a.a.a.a.[ ",
"[ i.i.i.i.i.i.i.i.i.i.i.i.i.i.i.i.i.i.i.i.i.e.e.1.;.{ ' _ ) / / 0 0 0 0 0 0 q / ( ) ` [ -.,.1.e.i.i.a.i.a.i.a.a.a.i.a.a.i.a.a.[ ",
"[ i.i.i.i.i.i.i.i.i.i.i.i.i.i.i.i.i.i.a.i.i.i.i.e.e.<.;.-.[ ' ' ` _ _ _ _ ` ' ' [ -.;.,.1.w.i.i.i.a.a.i.a.a.i.a.a.a.a.i.a.a.a.[ ",
"[ i.i.i.i.i.i.i.i.i.i.i.i.i.i.i.i.i.i.i.i.i.i.i.i.e.e.e.w.<.,.;.;.-.-.-.-.;.;.,.,.1.w.e.i.i.i.a.a.i.a.a.i.a.i.i.i.a.a.a.i.a.a.[ ",
"[ i.i.i.i.e.i.i.i.i.i.i.i.i.i.i.i.i.i.i.i.i.i.i.i.i.i.i.e.e.e.w.w.w.w.w.w.w.w.e.e.i.i.i.i.a.i.i.i.a.a.i.a.i.a.a.a.i.a.i.a.a.a.{ ",
"[ i.e.i.i.i.i.i.i.i.i.i.i.i.i.i.i.i.i.i.i.i.i.i.i.i.i.i.a.i.i.i.i.e.i.i.e.i.i.i.i.a.i.i.a.i.i.a.a.i.i.a.i.a.a.i.i.a.a.i.a.a.i.[ ",
"[ i.i.i.i.i.e.i.i.i.i.i.i.i.i.i.i.i.i.e.i.i.i.i.i.i.a.i.i.i.i.i.i.i.i.i.i.i.i.i.i.i.a.i.i.a.a.i.i.i.a.i.a.a.i.a.i.a.i.a.i.a.a.{ ",
"[ i.i.i.i.i.i.i.i.i.e.i.i.i.i.i.i.i.i.i.i.i.i.i.i.i.i.i.i.i.i.i.i.i.i.a.i.i.i.i.i.a.a.i.i.a.i.i.i.a.i.a.i.i.i.a.a.a.i.a.i.a.i.[ ",
"[ i.i.i.e.i.i.i.i.i.i.i.i.i.i.e.i.i.i.i.i.i.i.i.i.i.i.i.i.i.i.a.a.i.i.i.i.i.i.a.i.i.i.a.a.i.i.a.a.i.a.i.i.a.a.i.i.a.a.i.a.i.a.{ ",
"[ i.i.e.i.i.i.i.i.i.i.i.i.e.i.i.i.i.i.i.i.i.i.i.i.i.i.i.i.i.i.i.i.a.i.i.a.i.i.a.i.a.i.i.i.i.a.i.i.i.a.i.i.i.a.a.i.a.a.a.a.i.a.[ ",
"[ i.i.i.e.i.i.e.i.i.e.i.i.i.i.i.i.i.i.i.i.i.i.i.i.i.i.i.i.i.i.i.i.i.i.i.i.i.i.i.i.i.i.i.a.i.i.a.i.a.a.i.a.i.i.i.i.i.i.i.i.a.a.[ ",
"[ i.i.e.i.i.i.i.i.e.i.i.e.i.i.i.i.e.i.i.i.i.i.i.i.i.i.i.i.i.i.i.i.i.a.i.i.a.i.i.a.i.i.a.i.i.a.i.i.a.i.i.a.a.i.a.a.i.i.a.a.i.a.[ ",
"( [ [ [ [ [ ' [ [ [ [ [ [ [ [ [ [ [ [ [ [ [ [ [ [ [ [ [ [ [ [ [ [ [ [ [ [ [ [ [ [ [ [ [ [ [ [ [ [ [ [ [ [ [ [ [ [ [ [ [ [ [ [ ) "
};
