/* XPM */
static char *cbp64[] = {
/* columns rows colors chars-per-pixel */
"64 64 223 2",
"   c #747474",
".  c #72737E",
"X  c #7E7E7E",
"o  c #3E43CE",
"O  c #3D43D3",
"+  c #3F45DB",
"@  c #3F44E2",
"#  c #3E44EA",
"$  c #3D42F4",
"%  c #3D42FE",
"&  c #494C8B",
"*  c #444B9C",
"=  c #4A4C96",
"-  c #4B529D",
";  c #52599F",
":  c #444AA3",
">  c #434AAB",
",  c #4C4EA4",
"<  c #494EAF",
"1  c #4349B3",
"2  c #4248BB",
"3  c #4D52B0",
"4  c #4F54BE",
"5  c #5156B1",
"6  c #5659B4",
"7  c #5458BA",
"8  c #5F64BB",
"9  c #656685",
"0  c #666788",
"q  c #747480",
"w  c #7E7F84",
"e  c #7E7F89",
"r  c #6166A4",
"t  c #797DA9",
"y  c #4147C5",
"u  c #4046CB",
"i  c #4248C1",
"p  c #4A4EC0",
"a  c #4046D4",
"s  c #4C51C0",
"d  c #5359C2",
"f  c #4B51FA",
"g  c #575BF8",
"h  c #5C60F5",
"j  c #6C71CD",
"k  c #7377C3",
"l  c #7175DF",
"z  c #7A7DD5",
"x  c #696DEB",
"c  c #6367F3",
"v  c #6C7AFE",
"b  c #707EFD",
"n  c #7F808A",
"m  c #7D81C5",
"M  c #7481FC",
"N  c #7985FB",
"B  c #7D89FB",
"V  c #828282",
"C  c #878789",
"Z  c #8B8B8B",
"A  c #888893",
"S  c #949494",
"D  c #91929C",
"F  c #9C9C9C",
"G  c #8184AA",
"H  c #878AAD",
"J  c #8A8CA3",
"K  c #8A8DAA",
"L  c #8B8EB4",
"P  c #8E90AC",
"I  c #8D91BC",
"U  c #9395AD",
"Y  c #9698AE",
"T  c #9C9CA5",
"R  c #999AAF",
"E  c #9698B1",
"W  c #9698B9",
"Q  c #9A9CB3",
"!  c #9C9EB9",
"~  c #9EA0BA",
"^  c #A3A3A3",
"/  c #A3A3AE",
"(  c #ABABAB",
")  c #A0A1B4",
"_  c #A2A4BB",
"`  c #A7A8B6",
"'  c #A7A9BD",
"]  c #AEAEB4",
"[  c #AAABB9",
"{  c #B4B4B4",
"}  c #B0B1B8",
"|  c #BBBBBB",
" . c #8184CA",
".. c #8689C4",
"X. c #8689CC",
"o. c #8C91C6",
"O. c #8F92C9",
"+. c #8B91D2",
"@. c #8A92DE",
"#. c #9398CB",
"$. c #9B9EC4",
"%. c #989ACA",
"&. c #949AD8",
"*. c #838EF6",
"=. c #828DFA",
"-. c #8B93EA",
";. c #8F98EE",
":. c #8690F6",
">. c #8590F9",
",. c #8C95F6",
"<. c #8993F9",
"1. c #8E98F7",
"2. c #8D98FD",
"3. c #939BE6",
"4. c #969FEC",
"5. c #939CF5",
"6. c #929CFC",
"7. c #9DA3E5",
"8. c #99A1EC",
"9. c #97A0F5",
"0. c #96A0FD",
"q. c #9BA3F3",
"w. c #9BA4FC",
"e. c #9FA8FF",
"r. c #A2A4C2",
"t. c #A2A5CC",
"y. c #A6A8CC",
"u. c #ABACC4",
"i. c #A9ABCC",
"p. c #A3A6D0",
"a. c #A5A9DC",
"s. c #A9ADDC",
"d. c #AEB1D2",
"f. c #AFB3DC",
"g. c #B3B4CC",
"h. c #BBBCC3",
"j. c #BBBCCA",
"k. c #B0B3D5",
"l. c #B3B5DA",
"z. c #B5B8DB",
"x. c #BABBD4",
"c. c #B8BBDF",
"v. c #A5AAE3",
"b. c #A2A8E9",
"n. c #A9AEE3",
"m. c #A9AFED",
"M. c #A0A7F3",
"N. c #A3AAF2",
"B. c #A3ABFD",
"V. c #A8AEF1",
"C. c #A8AFFA",
"Z. c #ADB2E6",
"A. c #AEB4EC",
"S. c #A7B0FF",
"D. c #ACB2F0",
"F. c #ADB4FE",
"G. c #B0B6EE",
"H. c #B6B9E4",
"J. c #B4B9ED",
"K. c #BBBEE3",
"L. c #B9BDEC",
"P. c #B0B6F4",
"I. c #B5BBF3",
"U. c #B3BAFD",
"Y. c #B8BDF3",
"T. c #B8BEFF",
"R. c #BFC1D6",
"E. c #BDC0E3",
"W. c #BDC1EB",
"Q. c #BEC3F3",
"!. c #BBC1FD",
"~. c #C3C3C3",
"^. c #C4C5CB",
"/. c #CBCBCB",
"(. c #C2C3D4",
"). c #C3C4DB",
"_. c #C7C8D7",
"`. c #CDCDD6",
"'. c #CCCDD9",
"]. c #D3D3D3",
"[. c #DBDBDB",
"{. c #C2C4EB",
"}. c #C7C9E5",
"|. c #C5C8EA",
" X c #CBCCE3",
".X c #CACDEA",
"XX c #C1C6F5",
"oX c #C0C5FC",
"OX c #C5CAF5",
"+X c #C4C9FC",
"@X c #CACDF4",
"#X c #C9CDFC",
"$X c #CED0E6",
"%X c #CFD0E8",
"&X c #CFD2F4",
"*X c #CDD1FD",
"=X c #D3D4E5",
"-X c #D1D3E8",
";X c #D7D8E5",
":X c #D6D8EA",
">X c #DAD9E5",
",X c #DADBEC",
"<X c #D0D3F7",
"1X c #D1D5FD",
"2X c #D5D8F7",
"3X c #D5D9FE",
"4X c #D9DDFC",
"5X c #DDE0FC",
"6X c #E3E3E3",
"7X c #E4E4EB",
"8X c #EBEBEC",
"9X c #E2E4F5",
"0X c #E1E4FB",
"qX c #E7E8F2",
"wX c #E6E8FC",
"eX c #EDEDF2",
"rX c #ECEDFC",
"tX c #EEF0FD",
"yX c #F5F5F5",
"uX c #F3F4FD",
"iX c #F7F8FE",
"pX c #FAFAFA",
"aX c None",
/* pixels */
"C F F F F F F F F F F F S F S S S S S S S S S S Z S Z S Z Z Z Z Z Z Z Z Z Z C C C C V C V V C V V aXaXaXaXaXaXaXaXaXaXaXaXaXaXaX",
"F /././.~.~.~.~.~.| | | | | | { | { { { { ( ( { ( ( ( ( ( ( ( ^ ^ ^ ^ ^ ^ F F F F F F S S S S S { X aXaXaXaXaXaXaXaXaXaXaXaXaXaX",
"^ /./.~./.~.^.~.~.~.~.~.~.| ~.{ | | | { { { { { ( { ( ( ( ( ( ( ( ^ ^ ^ ^ F ^ ^ F F F F F F S S ~.( V aXaXaXaXaXaXaXaXaXaXaXaXaX",
"^ /./././././.^.~.~.~.~.~.| ~.~.| | | { | { { { { ( { { ( ( ( ( ( ^ ( ^ ^ ^ ^ ^ ^ ^ F F F F F S ~.~.] V aXaXaXaXaXaXaXaXaXaXaXaX",
"^ ]././././././.~./.~.~.~.~.~.~.| | ~.| | | { { { { { { ( { ( ( ( ( ( ( ^ ^ ^ ^ ^ ^ ^ F ^ F F F ~./.~.( X aXaXaXaXaXaXaXaXaXaXaX",
"^ ].].]./.]./././././.~.~.~.~.~.~.~.| ~.| | | | | | | { { { { ( ( ( ( ( ( ( ( ( ^ ^ ^ ^ ^ F ^ F ~.[./.~.( V aXaXaXaXaXaXaXaXaXaX",
"^ ].].].].]./././././././.~.~.~.~.~.~.~.~.| | | | | { { { { { ] P P / ( ( ( ( ^ ( ^ ^ ^ ^ ^ ^ F ^.6X[./.~.( V aXaXaXaXaXaXaXaXaX",
"^ [.].].].].].].]./././././././.~.~.~.~.~.~.~.| | | | | { | Q 3 : : = G { ( ( ( ( ( ( ^ ^ ^ ^ ^ ~.8X6X]./.~.{ V aXaXaXaXaXaXaXaX",
"^ [.[.[.].].].].]././.]././././././.~.~.~.~.~.~.| ~.| | | o.2 1 > > : * n [ } ( ( ( ( ( ^ ^ ( ^ ~.pX8X6X]./.~.( V aXaXaXaXaXaXaX",
"( [.[.[.[.[.[.].].].].]./.]./././././.^./.~.~.~.~.| ~.R.m o i 2 1 > : * & m } { ( ( ( ( ( ( ( ^ /.yXpX8X6X[./.~.] V aXaXaXaXaXaX",
"( 6X[.[.[.[.[.].].].].].].].]./././././.^././.~.~.~.~.m + u u i 2 1 > > * * H { { ( { ( ( ( ( ( ].yXyXpX8X6X]./.~.( V aXaXaXaXaX",
"( 6X6X[.6X[.[.[.[.[.[.].].].].]./.]././././.~././.~.l @ + + u u o 2 > > : * * P { { { { { ( ( ( [.pXpXpXpX8X6X]./.~.( V aXaXaXaX",
"( 6X6X6X6X[.[.[.[.[.[.].].].].].].]././.]./././.^.x # # @ + O u o 2 2 < > > * - E { { { { { { ( [.yXpXyXyXpX8X6X[./.~.( C aXaXaX",
"( 8X6X6X6X6X6X6X[.6X[.[.[.[.[.].].].].].]././.(.c % % : + @ + O o i i 1 > > : * * ~ { { { { { { 6XpXpXyXpXpXpX8X6X[./.~.] V aXaX",
"( 6X8X6X8X6X6X6X6X6X6X[.[.[.[.[.[.].(.(./.].(.h % % , X 0 O @ + u u i 2 2 > > : * - ~ | { { { { 8XyXyXyXpXyXpXpX8X6X]./.~.] C aX",
"{ 8X8X8X6X6X6X6X6X6X[.6X6X[.[.[.n.6.B.!.q.z.g % % , X X X 9 O @ + + o o o 1 1 > * * - ` | | { { [.6X[.]./.^.~.| ~.| ~.| | | ( V ",
"{ 8X8X8X8X8X8X6X6X6X6X6X6X[.[.4.v B 6.U.*XT.f % , X X X X X 9 o @ + + u o i 2 > > * * ; } | | | | { { { { { ( ( ( ( ( ( ( ( ( V ",
"{ yX8X8X8X8X8X8X8X6X6X6X6X6X7.v v v v N F.*XoX6 X X X X X X X 9 O + + O y i 2 2 1 > * * r | | | | { | | { { { { { ( ( ( ( ( ( Z ",
"{ yXyX8X8X8X8X8X8X8X8X8X8XZ.v v v v v v M U.1XW.n X X X X X X V 9 o @ = 1 u y i 2 > > : * [ | | | | | { { { { { { { ( ( { ( ( Z ",
"{ yXyXyXyXyX8X8X8X8X8X8X}.b b v v v v v v M U.1XL.n X X X n X X V 9 & X q 1 u i 2 2 1 : : ' ~.~.~.~.| | | | | { | { { { { ( ( Z ",
"| yXyXyXyXyXyX8XeX8X8X>X*.N M b v v v v v v N T.3XJ.w X X X X X X X     X . > u o 2 > > : h.~.~.| ~.| ~.| | | | { | { { { { ( S ",
"| pXyXpXyXyXyXyXeXeX8X4.*.B N M v v v v v v v B !.3XZ.C Z C C Z Z Z Z     X q 1 o 2 2 2 6 ~.^.~.~.~.~.~.~.| | | | { | | { { ( S ",
"| yXpXyXpXyXyXyXyXeXm.,.*.*.B N M b v v v v v v B !.3Xn.S S S S S S F S V X X . < o o 2 8 /.^./.~.~.~.~.~.| ~.| | | | | | { | S ",
"| yXpXpXyXpXpXyXyXL.1.1.,.*.=.B N M v v v v v v v >.!.3Xs.F F F F F ^ ^ ^ Z   n . < o 2 2 j././././.~.~.~.~.~.~.| ~.| | | | { S ",
"| yXpXpXpXpXyXpX.Xq.q.;.-.:.>.=.B N b v v v v v v v <.oX4Xs.( ( ( ( ( ( ( ( F   V . < y y k /././././././.~.~.~.~.~.| ~.| | | S ",
"{ pXpXyXyXpXpX,Xm.q.3.@.4.5.,.>.=.B N M v v v v v v v 2.oX3Xs.{ { { { { { | | ^ V Z w < o i m /././././././.~.~.~.~.~.~.~.| ~.S ",
"| pXpXyXpXpXqXG.D.7.O.3.5.5.1.<.*.=.B M M v v v v v v v 6.oX3Xf.~.| ~.~.~.~.~.~.( S F A < y i ../.]./././.~./././.~.~.~.~.~.| F ",
"| yXpXpXpXeXL.P.v.o.&.q.q.5.5.1.<.*.6.Y.T.6.b v v v v v v 0.#X3Xz././././././././.{ F ^ D < o 2 o.].]./././././.~././.~.~.~.~.S ",
"{ yXyXpXyX$XW.J.I #.V.N.M.q.9.6.1.+XpXpXuXpX*Xv v v v v v v w.#X3XE.].].[.].].[.[.[.~.^ ( T 3 y 2 %.].]././.]./././././.~.~.~.F ",
"| yXpXyX7X}.{.p.L A.A.V.N.M.q.9.3XpX3X,.=.w.uXU.v v v v v v v B.#X3X}.6X6X6X6X6X6X6X6X~.( | / 3 i 2 t.].].]./.]././././././.~.F ",
"| yXyXpX;X.X|.K $.L.P.A.D.N.M.Y.pX3X1.<.=.=.T.rXM v v b F.v v v B.*X3X%X8X8X8X8X8X8XeX8X/.| ~.} 5 o i i.].].].].]././././././.F ",
"| yXpXyX>X.X}.J y.L.J.J.A.V.N.0XuX5.1.1.<.>.oXuXM b M 3XpX6.v v v S.*X*X9XyXpXpXpXpXpXpXpX/././.h.6 y p g.[.].].].]./.]./.]./.F ",
"| yXpXyX7X-X.XR U W.W.J.G.A.m.rX4Xq.5.5.,.,.!.*XN B 4XpXw.v v v v M S.*X*X9XpXpXpXyXpXpXyXpX~.[.[.^.6 o 4 j.].].].].].]./.]./.F ",
"{ pXyXpXyX>X-X).J r.W.L.J.P.A.4XuXM.q.5.1.1.*.>.>.wXpXw.v v v v v v M F.*X#XqXpXpXyXyXpXpXyXyX/.6X6X`.6 o 4 R.[.[.[.[.].].].].^ ",
"| yXyXpXyXyX;X$Xg.J u.W.L.J.P.J.iX5X!.@XOX1.2.6.rXpXrXoX=.v v v v v v M U.*X#XeXyXpXyXpXyXyXyXyX/.yXyX`.4 o d '.[.[.].].[.].].^ ",
"| yXyXyXpXyXyX=X.Xg.J i.W.L.J.G.L.wXpXpX0X5.q.rXpX+XF.1XiX<.v v v v v v M !.3X!.eXpXyXyXyXpXpXyX8X[.pXyX_.4 o X.[.[.[.[.].].].^ ",
"{ pXyXyXpXyXyXyX;X-Xu.J k.W.L.J.G.A.A.N.q.V.uXrXw.*.=.B 4X3Xv v v v v v v N !.3X!.yXyXyXyXyXyXyXyX].pXpXyXx.i j [.[.[.[.[.[.[.^ ",
"| yXyXpXyXyXpXyX8X;X-X_ J k.{.L.J.G.A.N.I.pXpXN.6.,.<.*.#XrXM b v v v v v v B !.4X!.yXyXyXyXyXyX].yXyXpXpXyXi.d.6X6X6X[.[.[.[.^ ",
"{ pXyXyXpXyXyXyXyXeX=X-X) P l.{.J.I.P.A.uXpX4Xq.5.1.,.*.rX4XN M v v v v v v v B !.5X!.yXyXyXyX/.yXyXyXyXyXyXyX/.6X6X6X6X6X[.[.( ",
"| yXyXpXyXyXpXpXyXyX8X=X X! U c.W.L.I.A.{.<X4Xq.q.5.1.#XpXC.N =.3XB v v v v v v >.!.5XQ.yXyX/.yXyXyXyXpXyXpXpXyX/.6X6X6X6X6X[.( ",
"{ yXyXpXyXpXyXyXpXyXyX8X=X XQ U c.W.L.J.G.Q.pXY.q.N.3XpX1X>.2.rXiX0.M v v v v v v <.oX4XXX/.yXyXpXyXyXyXyXyXpXyXyX/.6X6X6X6X6X( ",
"{ pXyXyXyXyXyXpXyXyXpXyX7X=X}.E Q K.W.J.J.A.3XpXpXpXpX*X1.0.uXpXtXiXtX>.v v v v v v 2.+X4XOXyXyXyXyXyXyXyXyXyXyXyX/.8X6X8X6X6X( ",
"| yXyXyXyXyXyXpXyXpXyXyXpX7X=X'.Y Q K.L.L.G.P.L.OXOXV.5.N.uXrXe.=.B !.tXb v v v v v v 6.oX3X@XyXyXyXyXyXyXyXyX8X/.8X8X8X8X6X6X( ",
"{ yXyXpXyXyXyXyXyXyXpXpXyXyX7X=X}.U ! {.L.L.P.A.A.V.q.F.pXrX9.<.>.B 2.pX6.b v v v v v v 0.#X3X&XyXyX8XyXyXyXyX/.8XeXyX8X8X8X8X{ ",
"| yXyXyXyXyXyXyXyXyXyXyXyXyXyX6X-X).U _ W.W.L.P.P.m.Y.pXpXI.5.1.<.>.9.pXe.M v v v v v v v w.#X!.$XyXyXyXyXyX/.yXyXyX8X8X8X8X8X{ ",
"{ yXyXyXyXpXyXyXyXyXpXyXyXpXyXpX>X-X(.Y r.{.L.L.J.XXpXuXpXq.5.6.1.<.3XpX>.M M v v v v v v v F.*Xq.yX8XyX8X/.yXyXyXyXyXyXyX8X8X{ ",
"{ yXyXpXyXyXyXpXyXyXyXyXyXyXyXyXpX>X-Xx.U i.W.W.@XpXuXD.pX!.q.9.5.*XpXT.B N M b v v v v v v =.U.F.8XyXyX/.yXpXpXyXyXyXyXyXyX8X{ ",
"{ yXyXyXyXyXyXyXpXyXyXyXyXpXyXyXpXyX>X-Xg.R i.W.uXrXI.A.2XpX&X#XrXpX1X<.>.=.B M M v v v v v M w.9.8XyX~.yXyXpXyXpXpXyXyXyXyXyX{ ",
"| yXyXyXyXyXyXyXyXyXyXpXyXyXyXyXyXyXyX>X=Xg.Y d.|.W.L.P.A.&XuXpXwXI.1.,.:.>.B B M M v v v v v >.P.eX/.yXpXpXyXyXpXpXpXpXyXyXyX{ ",
"{ yXyXyXyXyXyXyXyXyXyXyXyXyXyXpXyXyXyXyX;X$Xu.E z.W.L.J.P.A.N.N.q.q.q.1.1.:.:.B N M M v v v v B 7X/.yXyXyXpXpXpXpXyXpXyXpXpXpX{ ",
"{ yXyXyXeXyXyXyXyXyXyXyXpXyXyXyXpXyXyXyXyX>X=Xu.E z.{.L.J.G.A.N.q.q.q.9.1.1.<.=.B N M M v v :.7X/.yXpXpXyXpXpXpXpXpXpXpXpXpXpX{ ",
"{ yXyXyXyXyXyXyXyXyXyXyXyXyXyXyXyXyXyXyXyX8X;X$X' ~ c.W.L.J.P.A.D.V.q.q.q.1.,.:.B B N M M V.8X/.yXpXyXyXpXpXyXyXpXyXyXpXyXyXpX| ",
"{ yXyXyXyXyXyXyX8XyXyXyXyXyXyXyXyXyXyXpXyXyXeX;X$X' ! c.W.L.J.G.D.V.q.q.q.8.9.,.-.=.B 1.;X8X/.yXyXyXpXyXpXyXpXpXpXpXpXpXpXyXpX{ ",
"{ yXyXyXyXyXyXyXyXyXyXyXyXyXyXyXyXyXyXyXpXyXyX8X=X$X_ ~ E.W.L.J.G.D.m.V.q.q.9.1.,.:.J.8X8X/.yXpXyXpXyXpXyXpXyXpXyXyXpXyXpXpXpX{ ",
"{ yXyXyXeXyXyXyXyXyXyXyXyXyXyXyXyXyXyXyXyXyXyXyX8X=X X_ _ z.W.L.J.G.m.7.q.q.q.9.q.:X8X8X/.yXyXpXpXyXpXyXpXyXpXyXyXpXpXpXpXyXpX{ ",
"{ yXyXyXeXyXyXyXyXyXyXyXyXyXyXyXyXyXyXyXyXyXyXyXyX8X=X Xu.~ i.L.L.Z.v.v.m.q.q.W.8X8X8X/.yXpXyXyXyXpXyXpXyXpXyXpXpXyXyXpXyXpXpX| ",
"{ yXyXyXyXyXyX8XyXyXyXyXyXyXyXyXyXyXyXyXyXyXyXyXyXyX8X=X%XR.~ r.t.p.s.A.D.A.R.8X8X8X/.yXyXyXpXyXyXyXyXpXpXyXpXyXyXpXpXyXpXyXpX{ ",
"{ yXyXyXyXyXyXyXyXyX8XyXyXyXyXyXyXyX8XyXyXyXyXyXyXyXyX7X$X%X}.z.d.H.J.J.%XeX[.].8X/.8XpXyXpXyXyXpXpXyXyXyXpXyXpXyXpXyXpXyXpXpX{ ",
"{ yXyX8X8XyXyXyXyXyXyXyX8XyXyXyXyXyXyXyXyXyXyXyXyXyXyXyX7X=X.X%X|.W.|.7XyXyXyX[.~.8XpXyXyXyXpXpXyXyXyXpXpXyXpXyXpXyXpXyXpXyXpX{ ",
"{ 8XyXyXyXyXyXyX8XyXyXyXyXyXyXyXyXyXyXyXyXyXyXyXyXyXyXyXyX6X=X%X%X:XyXyXyXyXyXyXyXyXyXyXpXyXyXyXyXpXyXpXyXyXyXpXyXpXyXpXyXpXpX{ ",
"{ yXyXyXyXyXyXyXyXyXyXyXyXyXyXyXyXyXyXyXyXyXyXyXyXyXyXyXyXyX8X8XyXpXyXyXpXyXyXyXyXyXyXpXyXpXyXpXyXyXpXyXpXyXyXyXpXyXyXpXpXyXpX{ ",
"{ yX8XyXyX8X8XyXyXyX8XyXyXyXyX8X8XyXyXyXyXyXyXyXyXyXyXyXyXyXyXyXyXyXyXyXyXyXyXyXyXyXyXyXyXyXyXyXpXyXpXyXyXyXpXyXyXyXpXyXyXpXpX{ ",
"{ 8XyXyXyXyX8XyXyX8XyXyXyXyXyXyXyXyXyXyXeXyXyXyXyXyXyXyXyXyXyXyXyXyXyXyXpXyXpXyXyXpXyXpXyXyXpXyXyXpXyXyXpXyXpXyXyXpXpXyXpXpXpX{ ",
"S { { { { { { { { { { ( { { { { { { { { { { { { { { { { { { { { { { { { { { { { { { { { { { { { { { { { { { { { { { { { { { { Z "
};
