/* XPM */
static char *cbp64[] = {
/* columns rows colors chars-per-pixel */
"64 64 251 2",
"   c #585978",
".  c #6E6E74",
"X  c #717174",
"o  c #777777",
"O  c #77777A",
"+  c #797979",
"@  c #7C7C7C",
"#  c #7C7D7F",
"$  c #7E7E7E",
"%  c gray50",
"&  c #3E44BC",
"*  c #3D41C7",
"=  c #3B40D0",
"-  c #3D42F8",
";  c #444B9C",
":  c #444B9E",
">  c #454C9B",
",  c #474E9C",
"<  c #484E9C",
"1  c #444BA2",
"2  c #444AA5",
"3  c #434AA8",
"4  c #434AAA",
"5  c #434AAD",
"6  c #4349B1",
"7  c #4249B5",
"8  c #4249B6",
"9  c #454BB5",
"0  c #454CB7",
"q  c #4248B9",
"w  c #4248BA",
"e  c #4248BD",
"r  c #4248BF",
"t  c #494FB4",
"y  c #4C53AA",
"u  c #4D53B6",
"i  c #5259A2",
"p  c #555BBF",
"a  c #616181",
"s  c #4147C4",
"d  c #4147CA",
"f  c #4148C1",
"g  c #4045D6",
"h  c #4A50C1",
"j  c #4B50FE",
"k  c #6C7AFE",
"l  c #6C7AFF",
"z  c #6D7BFE",
"x  c #6E7CFE",
"c  c #707DFA",
"v  c #707DFD",
"b  c #707DFE",
"n  c #717EFD",
"m  c #717EFF",
"M  c #727FFD",
"N  c #7380FD",
"B  c #7682FC",
"V  c #7683FF",
"C  c #7784FC",
"Z  c #7B87FB",
"A  c #7985FC",
"S  c #7C87FB",
"D  c #7B88FF",
"F  c #7D88FB",
"G  c #7E89FA",
"H  c #7F8BFA",
"J  c #838384",
"K  c #878788",
"L  c #8B8B8B",
"P  c gray56",
"I  c #939394",
"U  c #979798",
"Y  c gray61",
"T  c #898BA6",
"R  c #8C8FB6",
"E  c #888CBE",
"W  c #8D90AE",
"Q  c #9395AF",
"!  c #9295B3",
"~  c #9799B2",
"^  c #9698B8",
"/  c #989AB6",
"(  c #9B9DBB",
")  c #A2A2A2",
"_  c #A7A7A8",
"`  c #ADADAE",
"'  c #AAABB8",
"]  c #B3B3B4",
"[  c gray72",
"{  c #BCBCBD",
"}  c #8890DE",
"|  c #9095CE",
" . c #838EF2",
".. c #808BFA",
"X. c #818CFA",
"o. c #828DF9",
"O. c #828DFA",
"+. c #838EF9",
"@. c #828EFA",
"#. c #808CFF",
"$. c #828EFE",
"%. c #848FF9",
"&. c #848FFF",
"*. c #8690EB",
"=. c #8792F4",
"-. c #8590F9",
";. c #8792F8",
":. c #8691FF",
">. c #8B95F7",
",. c #8C96F7",
"<. c #8D97F7",
"1. c #8993F8",
"2. c #8A94F8",
"3. c #8A95FE",
"4. c #8F98F7",
"5. c #8F9AFE",
"6. c #959CEF",
"7. c #919AF2",
"8. c #919AF6",
"9. c #939CF6",
"0. c #959DF5",
"q. c #949DF6",
"w. c #959EF5",
"e. c #949EF7",
"r. c #969FF5",
"t. c #939DFF",
"y. c #9FA1C2",
"u. c #9EA2CA",
"i. c #9BA2EF",
"p. c #97A1FE",
"a. c #98A0F5",
"s. c #9AA2F4",
"d. c #9BA3F4",
"f. c #9FA6F3",
"g. c #9DA4F4",
"h. c #98A0FA",
"j. c #9AA4FD",
"k. c #A7AAC9",
"l. c #A4A8D3",
"z. c #AEB0CD",
"x. c #ADB0D8",
"c. c #B4B5C5",
"v. c #B2B5DF",
"b. c #B7B9D6",
"n. c #A0A6E8",
"m. c #A5AAE6",
"M. c #A0A8F3",
"N. c #A2A9F2",
"B. c #A4ABF2",
"V. c #A7ADF1",
"C. c #A5ACF7",
"Z. c #A1A9FA",
"A. c #A0A8FF",
"S. c #A7AFFA",
"D. c #A4ADFF",
"F. c #A9AFF1",
"G. c #ACB2EA",
"H. c #ABB1F0",
"J. c #ACB2F0",
"K. c #ACB2F4",
"L. c #AEB4F0",
"P. c #ABB3FF",
"I. c #AFB6F8",
"U. c #B1B5E8",
"Y. c #B0B5EF",
"T. c #B0B7ED",
"R. c #B1B6EF",
"E. c #B2B7EF",
"W. c #B6B9E4",
"Q. c #B3B8EF",
"!. c #B6BAEA",
"~. c #B4B9EE",
"^. c #B5BAEE",
"/. c #B6BBEE",
"(. c #B9BCE9",
"). c #B9BDED",
"_. c #B8BCEE",
"`. c #B9BEED",
"'. c #BABEED",
"]. c #BABFEF",
"[. c #B7BDF4",
"{. c #B5BCFD",
"}. c #BDC0DD",
"|. c #BEC1E8",
" X c #BCC0ED",
".X c #BFC4F6",
"XX c #BBC1FB",
"oX c #C3C3C3",
"OX c #CACACA",
"+X c #D0D0D0",
"@X c gray83",
"#X c #D7D7D7",
"$X c gray85",
"%X c gray87",
"&X c #C1C3E1",
"*X c #C1C5EC",
"=X c #C6C8E5",
"-X c #C6C8EA",
";X c #CBCCE0",
":X c #CCCDE2",
">X c #CECFE5",
",X c #C9CBEA",
"<X c #CBCDE9",
"1X c #C9CCED",
"2X c #CCCDE9",
"3X c #CDCEE9",
"4X c #CECFE9",
"5X c #C0C6FF",
"6X c #C4CAFB",
"7X c #C6CAF8",
"8X c #CBCFF5",
"9X c #C9CEFC",
"0X c #CFD0E9",
"qX c #CDD2FE",
"wX c #D2D5EF",
"eX c #D8D9EB",
"rX c #D1D4FA",
"tX c #D1D6FF",
"yX c #D4D7F8",
"uX c #D6DAFF",
"iX c #DBDEF9",
"pX c #DADEFE",
"aX c #DEE1FE",
"sX c gray89",
"dX c #E0E1EF",
"fX c gray91",
"gX c #EAEAEB",
"hX c gray93",
"jX c #E1E4FE",
"kX c #E5E8FE",
"lX c #ECEDF0",
"zX c #E9EBFF",
"xX c #EBECFF",
"cX c #EDEFFF",
"vX c #EFF1FD",
"bX c gray95",
"nX c #F4F4F4",
"mX c gray96",
"MX c #F6F6F6",
"NX c #F1F2FF",
"BX c #F3F4FE",
"VX c #F5F6FE",
"CX c #F8F8F8",
"ZX c gray98",
"AX c #F8F8FE",
"SX c #FAFBFE",
"DX c #FBFBFE",
"FX c #FDFDFE",
"GX c #FEFEFE",
"HX c gray100",
"JX c None",
/* pixels */
"JXJXJXJXJXJXJXJXJXJXJXJXJXJXJXJXJXJXJXJXJXJXJXJXJXJXJXJXJXJXJXJXJXJXJXJXJXJXJXJXJXJXJXJXJXJXJXJXJXJXJXJXJXJXJXJXJXJXJXJXJXJXJXJX",
"JXJXJXJXJXJXJXJXJXJXJXJXJXJXJXJXJXJXJXJXJXJXJXJXJXJXJXJXJXJXJXJXJXJXJXJXJXJXJXJXJXJXJXJXJXJXJXJXJXJXJXJXJXJXJXJXJXJXJXJXJXJXJXJX",
"JXJXJXJXJXJXJXJXJXJXJXJXJXJXJXJXJXJXJXJXJXJXJXJXJXJXJXJXJXJXJXJXJXJXJXJXJXJXJXJXJXJXJXJXJXJXJXJXJXJXJXJXJXJXJXJXJXJXJXJXJXJXJXJX",
"JXJXJXJXJXJXJXJXJXJXJXJXJXJXJXJXJXJXJXJXJXJXJXJXJXJXJXJXJXJXJXJXJXJXJXJXJXJXJXJXJXJXJXJXJXJXJXJXJXJXJXJXJXJXJXJXJXJXJXJXJXJXJXJX",
"JXJXJXJXJXJXJXJXJXJXJXJXJXJXJXJXJXJXJXJXJXJXJXJXJXJXJXJXJXJXJXJXJXJXJXJXJXJXJXJXJXJXJXJXJXJXJXJXJXJXJXJXJXJXJXJXJXJXJXJXJXJXJXJX",
"JXJXJXJXJXJXJXJX> > > : > > > > > > > ; > ; ; > > > > > JXJXJXJXJXJXJXJXJXJXJXJXJXJXJXJXJXJXJXJXJXJXJXJXJXJXJXJXJXJXJXJXJXJXJXJX",
"JXJXJXJXJXJXJX< > > > > > > > > > > > > > > > > > > > > > > JXJXJXJXJXJXJXJXJXJXJXJXJXJXJXJXJXJXJXJXJXJXJXJXJXJXJXJXJXJXJXJXJXJX",
"JXJXJXJXJXJXi 1 1 1 1 1 1 : : : : : : : : : > > : ; ; ; ; ; ; > JXJXJXJXJXJXJXJXJXJXJXJXJXJXJXJXJXJXJXJXJXJXJXJXJXJXJXJXJXJXJXJX",
"JXJXJXJXJXJXy 4 2 4 1 1 1 1 2 2 2 2 2 2 2 2 3 3 2 1 1 1 1 1 1 1 y JXJXJXJXJXJXJXJXJXJXJXJXJXJXJXJXJXJXJXJXJXJXJXJXJXJXJXJXJXJXJX",
"JXJXJXJXJXJXt 6 5 6 5 5 6 5 5 6 3 3 5 5 5 5 4 4 4 4 4 4 4 4 4 4 4 y JXJXJXJXJXJXJXJXJXJXJXJXJXJXJXJXJXJXJXJXJXJXJXJXJXJXJXJXJXJX",
"JXJXJXJXJXJX0 8 8 8 8 8 8 8 8 8 0 & 5 5 5 5 0 5 6 6 5 6 6 6 6 6 6 5 t JXJXJXJXJXJXJXJXJXJXJXJXJXJXJXJXJXJXJXJXJXJXJXJXJXJXJXJXJX",
"JXJXJXJXJXJXe e e e e e e e e w w e e & e w w w q q w w w w 8 8 8 8 8 8 7 7 7 7 7 7 7 7 8 9 t 0 u u u u u u u u JXJXJXJXJXJXJXJX",
"JXJXJXJXJXJXs s s s s s s s s r r r * h r r r e r r r r e e e r r r r r q r r q r r q q q q q q w w w w w w w w 0 h JXJXJXJXJXJX",
"JXJXJXJXJXJXd d d d d d d d d d d d d d d d * * s s s s s s r & & & & & & & & & & & & & & & & & & r r r e e e e s u JXJXJXJXJXJX",
"JXJXJXJXJXJXg g g g g g g g d g d g d g d   . . . . . . . X X X X X O % J K P I U Y ) _ ` ] [ { oX{ c.c.z.k.| ' | | $X$X$X$X$X$X",
"JXJXJXJXJXJXg g g g g g g g g g g g g g g a % % % % % % % % % % % K L I U Y ) _ ` ] { oXoXOX@X#XeXsXgXbXCXZXZXCXmXmXCXCXCXMXMX#X",
"JXJXJXJXJXJXg g g = = = = = = = = = = = =   o o o o o o o o o o @ J K L I ) _ ` ] { oXoXOX#X#X%XsXfXhXmXZXZXZXCXCXCXCXCXMXMXMX#X",
"JXJXJXJXJXJX- - & o o o o o o o o o o o o + % J K P I Y ) _ ` ` ] { oXoXOXoXoXoXOXOXOXOXOXOXOXOX+X+X@XsXZXZXCXCXCXCXCXMXMXMXMX#X",
"JXJXJXJXJXJXg - * % % % % % % % % % % % % K L I U Y ) _ ` ] [ oXOXOX@X$X%XsXgXnXMXZXZXZXMXCXCXCXCXMXMX$XZXCXCXCXCXCXMXMXMXmXmX$X",
"JXJXJXJXJXJX- - * % % % % % % % % % % % J L P U Y ) _ ` [ [ oXoXOX@X$X%XsXfXhXMXZXZXZXCXCXCXCXCXMXMXMX#XCXCXCXCXCXMXMXMXmXmXmX$X",
"JXJXJXJXJXJX- - = % % % % % % % % % % J L P U Y ) _ ` ] [ oXoXOX+X#X%XsXfXhXMXZXZXZXCXCXCXCXCXMXMXMXmX#XMXCXCXCXMXMXMXmXmXmXnX$X",
"JXJXJXJXJXJX- - = % % % % % % % % % J L P U Y ) _ ` ] [ { oXOX+X#X%XsXfXhXMXCXZXZXCXCXCXCXCXMXMXMXmXmX#XCXCXCXCXMXMXmXmXmXmXnX$X",
"JXJXJXJXJXJX- - = % % % % % % % % J L P I Y ) _ ` ] [ { oXOX+X#X%XsXfXhXMXCXZXZXCXCXCXCXMXMXMXMXmXmXmX#XCXCXCXMXMXmXmXmXnXnXnX$X",
"JXJXJXJXJXJX- - = % % % % % % % J K P I Y ) _ ` ] [ { oXOX+X@X$X%XfXhXnXZXZXZXCXCXCXCXCXMXMXMXMXmXmXmX#XCXCXMXMXmXmXmXnXnXnXnX$X",
"JXJXJXJXJXj - - = % % % % % % J K P I Y ) ) ` ] ] { oXOX+X@X$XsXfXhXnXMXZXZXCXCXCXCXCXCXMXMXMXbXMXbXMX#XMXMXMXMXmXmXnXnXnXnXnX$X",
"JXJXJXJXZ.Z.A.h.6.l.u.| ^ E R R W W W Q ~ _ ' ] { oXOX+X@X$X%XfXgXbXCXCXZXCXCXCXCXCXCXMXMXMXMXMXbXMXbX#XMXMXMXMXmXnXnXmXnXnXnX$X",
"JXJXZ.aXzXxXxXcXxXcXcXNXNXBXBXBXBXVXVXBXcXkXkXjXpXpXyXrXqX9X9X7X7X6X6X7X6X7X7X7X7X7X8X8X8XwXwXeXdXdXgX+XbXMXMXbXnXmXmXMXnXbXbX#X",
"JX-.qXqXtXtXtXtXtXuXuXuXuXuXpXpXpXpXaXaXaXjXjXjXjXkXkXkXkXzXzXcXxXcXcXcXcXNXBXBXBXBXVXVXVXVXVXBXcXxXjXaXpXuXtXrX8X{.I.|.hXbXnX$X",
"JXP.{.P.p.&.#.&.:.3.5.5.t.p.j.A.D.D.P.P.{.{.XXXXXXqX9XqXqXqXtXtXtXtXtXuXuXuXuXuXpXpXpXpXaXaXaXjXjXjXjXkXkXkXkXzXxXxXxXtXC.bXbX$X",
"JXj.5.b l l l l l l l l l l l l k k k k k k k k l l l x b N V A D #.$.#.3.3.5.t.p.j.A.A.D.P.P.{.{.{.6XXX6X9XqXqXtXtXtXtXqXG.bX$X",
"JXD l l l l l l l l l l l l l l k k k k k k k k l l l l x l l l x k k k k k k k l l l l l l l l l l l l k k k x D t.P.XXXXp.lX$X",
"JXl l l l l l l l l l l l l l l k k k k k k k k l l l l l l l l k k k k k k k k l l l l l l l l l l l l k k k k k k x t.j.3.1X$X",
"JXl l l l l l l l l l l l l l l l l l l l l l l x A.qXt.l l l l k k k k k k k k l l l l l l l l l l l l l l l l l l l l #.D !.$X",
"JXl l l l l l l l l l l l l l l l l l l l l l l x XXHXP.l l l l k k k k k k k k l l l l l l l l l l l l l l l l l l l l l z ].#X",
"JXl l l l l l l l l l l l l l l l l l l l l l l l XXHXD.l l l l k k k k k k k k l l l l l l l l l l l l l l l l l l l l l l  X#X",
"JXz l l l l l l l l l l l l l x l l l l l l l l l 9XHXA.l l l l k k k k k k k k l l l x l l l l l l l l l l l l l l l l l l wX#X",
"JXc b c c b b c b b b b b b b N I.aXcXjX7X#.x x x 9XHXA.b j.A.t.x l l l k l x l l l D N l l l l l l l l l l l l l l l l l c gX#X",
"JXB C C B B C C B B B M N b &.xXHXSXaXkXHXDXp.N N tXHX{.cXHXHXHXcXp.c x x :.HXqXA.cXHXHXcXD.x x x x x l x l x l x l l l l =.hX#X",
"JXZ Z Z Z Z Z Z Z Z C C A A pXHXtXH N A P.HXNXB V uXHXHXxXS.j.9XHXSXt.B N t.HXNXHXaX{.XXSXHX{.b N N N N M M M M M c b N c N.hX#X",
"JXH H H H H H H H H H H S 7.HXNXH Z Z H Z pXDXj.H pXHXcXX.S A S XXHXpXZ A e.HXHX9XA A C t.VXHX3.A V C C C C C B B B B C N  XhX#X",
"JX%.%.%.o.%.o.%.o.%.o.&.o.{.HXqX%.o.H O.H %.O.O.H jXHXI.X.X.X.X.o.SXHX=.H j.HXVXo.D H Z Z XXHXXXS S S S S S S S H C C H C eXhX$X",
"JX=.3.=. . .=.-.3.=.=.=.-.9XHXXX-.%.:.=.=.&.%.%.%.kXHXe.%.%.%.%.%.jXHXj.o.Z.HXtXo.o.o.o.o.S.HXpXX.X.X.%.X.X.X.X.H o.H H  .gXhX@X",
"JX2.<.2.*.*.2.9.2.2.2.2.2.tXHXXX2.2.2.2.2.2.2.2.,.zXHX2.=.3.=.2.1.aXHXS.-.S.HX6X3.=.=.=.%.Z.HXkX%.%.%.%.%.%.%.%.%.%.%.%.i.hXhX@X",
"JX7.7.9.} } 4.9.9.7.0.7.0.9XHX7X7.9.9.2.4.g.e.7.<.cXHXw.2.4.4.2.<.kXHXC.,.I.HX7X2.2.2.2.1.S.HXjX2.2.2.2.3.=.3.=.1.1.1.1.U.hXhX@X",
"JX6.w.w.} } w.w.w.w.w.w.w.XXHXjX0.w.0.w.e.pXHX{.w.NXHXC.9.9.7.7.w.HXHXw.7.{.HXyX7.9.7.9.4.{.HXrX4.4.4.4.9.2.9.2.4.2.4.2.-XhXhX#X",
"JXi.f.d.} } d.g.g.d.d.r.g.g.VXHX.Xw.d.d.I.HXVXg.r.BXHXrXr.r.e.w.6XHXjXw.w..XHXVXr.e.w.0.w.zXHXI.e.w.9.9.7.e.9.9.9.9.7.7.eXgXgX+X",
"JXn.f.f.| | i.f.f.f.f.f.g.f.XXHXHXjX8XiXDXHX7Xd.g.VXHXDX7XM.f.7XSXSXI.d.d..XHXHXiXg.d.d.rXHXxXd.r.r.r.r.d.e.w.d.e.a.w.i.fXhXgX#X",
"JXn.B.V.} E n.B.B.B.B.N.N.N.n.[.kXHXHXHXcX.XN.f.f.SXVXyXHXHXHXHXSX.Xf.f.f.7XHXcXHXSXkXBXHXBXK.g.M.g.g.M.g.g.g.g.g.g.d.G.hXgXgX@X",
"JXm.F.F.| E n.F.F.F.F.V.V.V.V.V.C.G.[.G.F.F.V.V.V..X.XB..XiXjXyXG.B.B.B.B.8XHXyX[.kXVXcXyXF.N.N.N.N.N.M.N.f.f.i.f.f.f.| $X$X$X$X",
"JXJXG.K.| E m.K.K.G.K.K.G.K.G.K.G.K.K.K.K.F.H.H.H.F.F.F.F.F.H.F.K.F.F.F.V.rXHXyXV.V.V.F.V.V.V.F.V.V.V.V.V.V.B.n.n.B.B.JXJXJXJXJX",
"JXJX[.E.l.R u.R.E.E.E.R.G.E.R.R.G.R.R.G.Y.E.G.Y.Y.E.G.Y.K.E.K.E.G.I.G.K.G.yXHXyXG.K.K.K.G.K.F.F.F.F.F.F.F.F.m.n.m.F.F.JXJXJXJXJX",
"JXJX_._.G.T R U.!.[.!.!./.~.[.!.[.!.[.!.E.!.[.E.E.E.E.[.E.!.E.E.!.E.E.[.R.iXHXyXE.E.R.G.E.E.E.E.E.R.R.R.Y.Y.m.l.m.Y.G.JXJXJXJXJX",
"JXJX X X X| T R x.'._._._. X_. X'.'.'.'.'.'.'._.'.(.'.(.(._._._.[._._.!._.iXHXyX!./.!.[.!.!.[.!.^.^.^.E.^.^.l.l.G.E.U.JXJXJXJXJX",
"JXJX|.|.-X&X/ T T T T W W ! ^ ^ ( y.y.u.k.l.l.x.x.x.v.v.W.W.(._.'.'. X X_._.'.'._._.'._.'._._._.).).).).!.l.u.l._._.v.JXJXJXJXJX",
"JXJXJX-X,X-X-Xk.( T T T T T T T T T T T T W W W W W W Q W Q ! ! ! ^ ( ( y.y.y.k.k.l.z.x.x.x.v.v.v.v.x.l.y.u.u.W. X XJXJXJXJXJXJX",
"JXJXJX=X<X<X,X,X,X<X<X=X=X&X}.}.b.b.b.z.z.k.k.k.| ' | ' ( / ~ ~ Q Q Q ! Q Q ~ ~ ~ ~ / / / / ( ( ( ( ( ( y.z.|.*X|. XJXJXJXJXJXJX",
"JXJXJXJX;X0XwX<X<XwX>X<XwX>X<X<X<X<X<X<X<X<X>X<X<X>X<X<X<X<X<X<X<X,X=X=X&Xb.b.b.b.b.b.z.z.z.z.k.k.z.z.b.-X-X-X-X,X&XJXJXJXJXJXJX",
"JXJXJXJXJXJXJXJXJXJXJXJXJXJX;X;X;X;X:X;X:X:X:X:X:X:X:X:X>X<X0X0X>XwX0X<X0X<XwXwX<X<X<X0X0X<X<X<X<X<X<X<X<X<X<X<X<XJXJXJXJXJXJXJX",
"JXJXJXJXJXJXJXJXJXJXJXJXJXJXJXJXJXJXJXJXJXJXJXJXJXJXJXJXJXJXJXJXJXJXJXJXJXJXJXJXJXJX;X;X;X;X;X;X:X:X:X:X:X:X:X:XJXJXJXJXJXJXJXJX",
"JXJXJXJXJXJXJXJXJXJXJXJXJXJXJXJXJXJXJXJXJXJXJXJXJXJXJXJXJXJXJXJXJXJXJXJXJXJXJXJXJXJXJXJXJXJXJXJXJXJXJXJXJXJXJXJXJXJXJXJXJXJXJXJX",
"JXJXJXJXJXJXJXJXJXJXJXJXJXJXJXJXJXJXJXJXJXJXJXJXJXJXJXJXJXJXJXJXJXJXJXJXJXJXJXJXJXJXJXJXJXJXJXJXJXJXJXJXJXJXJXJXJXJXJXJXJXJXJXJX",
"JXJXJXJXJXJXJXJXJXJXJXJXJXJXJXJXJXJXJXJXJXJXJXJXJXJXJXJXJXJXJXJXJXJXJXJXJXJXJXJXJXJXJXJXJXJXJXJXJXJXJXJXJXJXJXJXJXJXJXJXJXJXJXJX",
"JXJXJXJXJXJXJXJXJXJXJXJXJXJXJXJXJXJXJXJXJXJXJXJXJXJXJXJXJXJXJXJXJXJXJXJXJXJXJXJXJXJXJXJXJXJXJXJXJXJXJXJXJXJXJXJXJXJXJXJXJXJXJXJX",
"JXJXJXJXJXJXJXJXJXJXJXJXJXJXJXJXJXJXJXJXJXJXJXJXJXJXJXJXJXJXJXJXJXJXJXJXJXJXJXJXJXJXJXJXJXJXJXJXJXJXJXJXJXJXJXJXJXJXJXJXJXJXJXJX"
};
