/* XPM */
static const char *workspace64[] = {
/* columns rows colors chars-per-pixel */
"64 64 257 2",
"   c #020106",
".  c #0D0C08",
"X  c #070607",
"o  c #0D0C11",
"O  c #0A1B09",
"+  c #081509",
"@  c #1D0407",
"#  c #150306",
"$  c #191908",
"%  c #19181C",
"&  c #141318",
"*  c #190F2D",
"=  c #0D220B",
"-  c #1C3718",
";  c #162E13",
":  c #1F242E",
">  c #230507",
",  c #280A0B",
"<  c #3C0E17",
"1  c #201F23",
"2  c #271B3F",
"3  c #2F3C10",
"4  c #2E2D19",
"5  c #25232A",
"6  c #29282C",
"7  c #353438",
"8  c #1C014F",
"9  c #2C1F5C",
"0  c #280469",
"q  c #2C007C",
"w  c #2A0076",
"e  c #35166F",
"r  c #303454",
"t  c #21401B",
"y  c #36534D",
"u  c #3C7046",
"i  c #511F1D",
"p  c #5F2708",
"a  c #403F37",
"s  c #65120F",
"d  c #702E29",
"f  c #493174",
"g  c #464626",
"h  c #5E5D37",
"j  c #70703A",
"k  c #4F4F52",
"l  c #4B4B4E",
"z  c #5D5D60",
"x  c #68686A",
"c  c #7E7E7E",
"v  c #727274",
"b  c #72734B",
"n  c #2F0083",
"m  c #300086",
"M  c #310188",
"N  c #36088A",
"B  c #431892",
"V  c #4104BD",
"C  c #470BBD",
"Z  c #4B13BA",
"A  c #521DB9",
"S  c #482986",
"D  c #4A2A8A",
"F  c #472984",
"G  c #502F8B",
"H  c #512D95",
"J  c #562BA9",
"K  c #582CAD",
"L  c #6D3B87",
"P  c #4101C2",
"I  c #4608C3",
"U  c #5218C7",
"Y  c #4E13C6",
"T  c #5C26C7",
"R  c #6534C8",
"E  c #6F3FD1",
"W  c #632FCD",
"Q  c #6744AA",
"!  c #7348C9",
"~  c #7142D1",
"^  c #7E53D5",
"/  c #7A52CC",
"(  c #3E8240",
")  c #508F0C",
"_  c #41943B",
"`  c #49B534",
"'  c #5EB649",
"]  c #64B053",
"[  c #76A76B",
"{  c #44CC24",
"}  c #4BC92E",
"|  c #52C837",
" . c #57D13B",
".. c #5EC745",
"X. c #6AD651",
"o. c #74D95C",
"O. c #67CC50",
"+. c #7BC869",
"@. c #881709",
"#. c #903730",
"$. c #B2220C",
"%. c #A53011",
"&. c #B8382D",
"*. c #965F10",
"=. c #9C500E",
"-. c #8D7913",
";. c #937212",
":. c #A1410D",
">. c #B0453A",
",. c #A84E47",
"<. c #B96058",
"1. c #CC1B0A",
"2. c #C61B0A",
"3. c #CD2111",
"4. c #CD2819",
"5. c #D02D1D",
"6. c #C33426",
"7. c #D13122",
"8. c #D33A2C",
"9. c #D23728",
"0. c #D44233",
"q. c #D6493C",
"w. c #D64638",
"e. c #D85145",
"r. c #D95649",
"t. c #DA594D",
"y. c #DB5D51",
"u. c #D74E41",
"i. c #DC655A",
"p. c #DC6559",
"a. c #DE6C61",
"s. c #D46B61",
"d. c #DD7066",
"f. c #DA776D",
"g. c #D0746B",
"h. c #E0756A",
"j. c #E1796F",
"k. c #E17C73",
"l. c #917CB5",
"z. c #835AD5",
"x. c #825DCA",
"c. c #9271D3",
"v. c #8E8814",
"b. c #9B9B17",
"n. c #A09D18",
"m. c #A0A018",
"M. c #ABAB33",
"N. c #B7B738",
"B. c #A3A321",
"V. c #888831",
"C. c #868641",
"Z. c #9B9C4D",
"A. c #8D9C6F",
"S. c #86BB7A",
"D. c #BABA4A",
"F. c #B5B445",
"G. c #AAAA48",
"H. c #88C67A",
"J. c #88DC74",
"K. c #E3857C",
"L. c #E38279",
"P. c #CFCF2C",
"I. c #CDCD3A",
"U. c #D1D126",
"Y. c #D1D129",
"T. c #D3D33A",
"R. c #D2D230",
"E. c #C2C24C",
"W. c #CACA47",
"Q. c #C9C954",
"!. c #D8D84C",
"~. c #DEDE5E",
"^. c #D0D070",
"/. c #E0E06B",
"(. c #E4E47D",
"). c #828283",
"_. c #8B8B8B",
"`. c #8F8E90",
"'. c #939394",
"]. c #9B9B9B",
"[. c #8CB582",
"{. c #90B288",
"}. c #A3A3A3",
"|. c #ABABAB",
" X c #B4B4B4",
".X c #BABABA",
"XX c #B7B6B8",
"oX c #B3B2A1",
"OX c #B3B398",
"+X c #9E86CC",
"@X c #A993D5",
"#X c #AB90E1",
"$X c #BCADDB",
"%X c #B9A2E6",
"&X c #93CA86",
"*X c #99D68B",
"=X c #98E385",
"-X c #A4E595",
";X c #B3E9A7",
":X c #BCEAB2",
">X c #AEE4A2",
",X c #AFD0A7",
"<X c #D98D86",
"1X c #CEB1AE",
"2X c #CAB7B6",
"3X c #D0ACA8",
"4X c #E48B83",
"5X c #E6938B",
"6X c #E89B93",
"7X c #E89790",
"8X c #EAA29B",
"9X c #ECABA5",
"0X c #EDAFA9",
"qX c #E8A7A1",
"wX c #EEB4AE",
"eX c #EFB7B1",
"rX c #EFB9B4",
"tX c #F0BEB9",
"yX c #C5B3EA",
"uX c #C8C896",
"iX c #D7D78D",
"pX c #C5C1B8",
"aX c #DCDCB6",
"sX c #C0E9B7",
"dX c #EEC1BD",
"fX c #F1C1BD",
"gX c #E7E78A",
"hX c #EAEA9B",
"jX c #EBEBA5",
"kX c #EFEFB0",
"lX c #C3C3C3",
"zX c #CBCBCB",
"xX c #CBC9C4",
"cX c #CBC5D6",
"vX c #D4D4D4",
"bX c #DBDADB",
"nX c #D7D7D8",
"mX c #CCCFD1",
"MX c #D3C8E9",
"NX c #D6E9CE",
"BX c #F1C5C1",
"VX c #F3CCC8",
"CX c #F5D1CE",
"ZX c #F5D5D2",
"AX c #F6DBD8",
"SX c #EAEAD9",
"DX c #E3E3E3",
"FX c #EBEBEB",
"GX c #E7E4ED",
"HX c #F9E6E4",
"JX c #FAECEB",
"KX c #F4F4E9",
"LX c #F5F5F5",
"PX c #FAFAFA",
"IX c #FCF3F3",
"UX c #EBE6F4",
"YX c None",
/* pixels */
").].].].].].].].].].].].'.'.].'.'.'.'.'.'.'._.'._.'.`.`.`._._._._._._._.)._._.).).).).).).).).l.v YXYXYXYXYXYXYXYXYXYXYXYXYXYXYX",
"}.xXzXzXlXlXlXlXpX$XlX.X.X.X.X.XXXXXXX X X X X X|.|.|.|.}.|.|.}.}.}.}.}.}.].].].].].].].].].'.'.OX[ YXYXYXYXYXYXYXYXYXYXYXYXYXYX",
"}.zXzXlXlXzXlXlXpXlXlX.X.X.X.X.X.X.X.XXX X X X X X|.|.|.|.|.}.|.}.}.}.}.}.}.}.].].].].].].'.'.'.lX|.l.YXYXYXYXYXYXYXYXYXYXYXYXYX",
"}.zXmXzXzXzXzXlXxXlXlXlXlXlXlX.X.X.X.XXXXX X X X X X X X X|.|.|.|.|.|.}.}.}.}.}.}.}.].].].].].].lX2X|.[ YXYXYXYXYXYXYXYXYXYXYXYX",
"}.zXzXzXzXzXxXzXzXlXzXlXlXlXlXlX.XlX.XXX.XXXXXXX X X X X X|.|.oX|.|.|.|.}.}.}.}.}.}.}.].}.].].].lXcXlX|.<.YXYXYXYXYXYXYXYXYXYXYX",
"}.vXvXvXzXvXvXzXzXzXzXlXlXlXlXlXlXlX.XlX.X.X.XXX.X XXX X X X X X X|.|.|.|.|.}.|.}.}.}.}.}.].}.].lXnXzXlX|.).YXYXYXYXYXYXYXYXYXYX",
"}.vXvXvXvXvXzXzXzXzXzXxXzXlXlXlXlXlXlXlXlX.X.X.X.X.XXX X X X X X X|.|.|.|.|.|.|.|.}.|.}.}.}.}.].xXDXnXzXlX|.).YXYXYXYXYXYXYXYXYX",
"|.vXnXvXvXvXvXzXmXmXmXzXzXzXzXzXlXlXlXlXlXlXlX.X.X.X.X.X.X XXX X X X X|. X|.|.|.|.|.}.}.}.}.}.}.lXUXDXnXmXlX|.).YXYXYXYXYXYXYXYX",
"oXbXbXnXnXnXvXvXmXvXmXmXzXzXzXzXxXxXlXxXlXlXlXlXlX.X.X.X.X.X.XXX X X X X X|.|.|.|.|.|.|.}.|.}.}.lXPXFXDXvXzX$X X).YXYXYXYXYXYXYX",
"|.bXbXbXnXnXnXnXvXvXlX3X3X3X1X1X2X2XlX2XlXlXlXlXlXlXlX.X.X.X.X.XXX.X.X X X X X X X|.|.|.|.|.|.}.zXLXPXFXDXvXaXlXOXl.YXYXYXYXYXYX",
"|.bXDXbXbXbXnXnXmXx K.VXCXZXAXAXCXVXfXeX0X8X6X5X<XL.L.f.f.d.i.s.s.|.].).[ &XS.H.S.S.S.[.[.[.{.{.zXLXPXPXFXDXnXzX.X|.[ YXYXYXYXYX",
"|.DXbXDXbXbXbXvX6 X dXKXJXIXIXJXHXAXCXVXBXrX0X9X8X5X4XL.k.d.a.y.t.#   X { =XX.{ { { { { { { { { ;XLXLXPXLXFXDXnXxXlX|.l.YXYXYXYX",
"|.DXDXDXDXbXbXnX    dXHXJXJXHXAXZXCXfXtXwX9X8X6X5XK.L.h.a.p.y.e.w.#   + { -Xo.{ { { { { { { { { :XLXLXLXPXPXFXDXnXzX.X X).YXYXYX",
"|.FXDXDXDXDXDXDXo   qXCXCXCXVXfXtXeX0X9X8X7X5XK.k.h.a.i.y.r.q.0.9.@   O { ;Xo.{ { { { { { { { { NXLXLXLXLXPXLXFXDXnXzXlX Xl.YXYX",
" XDXFXDXDXDXDXDX%   <XwXwX0X9X8X8X6X5X4XK.L.j.h.i.p.t.e.q.8.9.5.3.@   O { :Xo.{ { { { { { { { { NXLXLXPXPXLXPXPXFXDXnXzXlX XA.YX",
" XFXFXFXFXFXDXDX5   g.6X5X5X5XK.L.L.j.h.a.i.t.r.e.q.0.8.7.4.3.1.1.@   O { :Xo.{ { { { { { { { { :X:X>X-X=XJ.lX.XlX.XlX.X.XpX,XL ",
" XFXFXFXFXFXFXDX7   <.j.h.h.a.a.i.p.y.t.e.q.0.8.9.7.4.3.1.1.1.1.2.>   O { :Xo.{ { { { { { { { { { { { { { } |.|.|.|.|.|.|.}.}._.",
" XFXFXFXFXFXFXFXy   ,.r.t.r.r.q.q.0.8.8.7.7.4.3.1.1.1.1.1.1.1.1.1.@   O { -XX.{ { { { { { { { { { { { { { |  X X X X|.|.|.|.|._.",
" XLXLXFXFXFXFXFXk   #.0.8.8.7.7.5.4.3.1.1.1.1.1.1.1.1.1.1.1.1.1.1.>   = { -XX.{ { { { { { { { { { { { { {  . X X X X X X|.|.|._.",
"XXLXLXLXLXLXLXFXz   #.3.1.1.1.1.1.1.1.1.1.1.1.1.1.1.1.1.1.1.1.1.1.@ X ; { J. .{ { { { { { { { { { { { { { ...X.X X X X|. X X|._.",
"XXLXLXLXLXLXFXLXx   d 1.1.1.1.1.1.1.1.1.1.1.1.1.1.1.1.1.1.1.1.1.1.>   = { J.} { { { { { { { { { { { { { { O.XXXX.X XXX X X X|.`.",
"XXPXPXLXLXLXLXLXc   d 1.1.1.1.1.1.1.1.1.1.1.1.1.1.1.1.1.1.1.1.1.1.>   = { o.{ { { { { { { { { { { { { { { O.lX.X.X.X.X X X XXX`.",
".XLXPXPXPXLXLXLX`.  i 1.1.1.1.1.1.1.1.1.1.1.1.1.1.1.1.1.1.1.1.1.1.@   ; { X.{ { { { { { { { { { { { { { { O.$X.X.X.X.X.X.X XXX'.",
".XPXLXPXPXPXLXLX}.  < 1.1.1.1.1.1.1.1.1.1.1.1.1.1.1.1.1.1.1.1.1.1.>   - {  .{ { { { { { { { { { { { { { { +.pXlXlX.X.X.X.X.XXX'.",
".XPXPXPXPXLXPXPX X  , 2.1.1.1.1.1.1.1.1.1.1.1.1.1.1.1.1.1.1.1.1.1.>   - { { { { { { { { { { { { { { { { { +.lXlXlXlX.XlX.X.X.X'.",
" XLXPXLXPXPXPXLXlX  # 2.1.1.1.1.1.1.1.1.1.1.1.1.1.1.1.1.1.1.1.1.1.>   - { { { { { { { { { { { { { { { { { H.zXlXlXlXlXlXlX.XlX'.",
".XPXPXLXPXLXPXPXvX  X 1.1.1.1.1.1.1.1.1.1.1.1.1.1.1.1.1.1.1.1.1.1.>   - { { { { { { { { { { { { { { { { { &XzXxXlXlXlXlXlXlXlX'.",
".XLXPXPXPXLXPXLXFX    3.1.1.1.1.1.1.1.1.1.1.1.1.1.1.1.1.1.1.1.1.1.>   - { { { { { { { { { { { { { { { { { &XzXzXxXxXzXlXlXlXlX'.",
" XLXPXLXPXPXPXPXLX    4.1.1.1.1.1.1.1.1.1.1.1.1.1.1.1.1.1.1.1.1.1.>   t { { { { { { { { { { { { { { { { { *XmXzXzXzXzXxXlXlXlX].",
".XPXLXPXPXLXLXPXPX&   6.1.1.1.1.1.1.1.1.1.1.1.1.1.1.1.1.1.1.1.1.1.>   t { { { { { { { { { { { { { { { { { ,XmXzXzXzXzXzXzXzXzX].",
" XLXPXLXLXPXLXPXPXc   6.1.1.1.1.1.1.1.1.1.1.1.1.1.1.1.1.1.1.1.1.1.,   - { { { { { { { { { { { } | ` ' ] [ vXvXvXvXzXzXzXzXzXzX].",
".XLXLXPXPXLXPXLXLXFX% &.1.1.1.1.1.1.1.1.1.1.1.1.1.1.1.1.1.1.1.1.1.L f 1 ` ` ` _ ( u y y r 9 0 G l.cXbXnXnXvXvXvXvXvXvXmXmXzXzX].",
"XXLXPXLXLXPXLXPXIXNXb @.1.1.1.2.1.1.1.1.1.1.1.1.2.2.$.%.%.>.#.s i 8 0 m q q m m M M m m m m M M m m H +XcXbXnXnXnXvXvXvXmXzXvX].",
"XXPXLXPXPXLXPXLXIXt m.p 1.1.2.$.%.%.%.=.=.*.;.-.-.v.b.m.m.M.h   & * 8 0 n m m m M M m m m m M M m m n N B Q +XbXnXnXvXnXvXvXmX}.",
"XXPXPXLXLXPXLXPXPXg ) m.-.v.v.b.m.m.m.m.m.m.m.m.m.m.m.m.m.m.m.V..   5 8 0 n m m M M N H J J K K A C V P P P P cXbXbXnXnXnXvXvX}.",
"XXLXLXLXPXLXPXLXPXk $ m.m.m.m.m.m.m.m.m.m.m.B.M.F.D.D.Q.W.W.I.U.N.    o 2 e J A I P P U W ~ ! ~ W Y P P P P P cXbXbXbXnXnXnXvX}.",
"XXLXPXLXLXLXPXPXPXx $ ) m.M.N.D.E.E.W.W.I.P.U.U.P.U.U.U.U.U.U.U.P.        G T E ^ z.^ E T I P P P P P P P P P bXDXbXDXbXbXbXnX}.",
".XLXPXLXPXLXLXLXLXv   g P.U.T.~.(.gXkXkXjXgX/.!.Y.U.U.U.U.U.U.U.P.        S P P P P P P P P P P P P P P P P C DXDXbXDXbXbXbXbX}.",
".XLXLXLXLXLXPXLXLX).  Z.gXjXjXhXgX/.!.U.U.U.U.U.U.U.U.U.U.U.U.U.P.        D P P P P P P P P P P P P P P P P U DXDXDXDXbXDXbXSX}.",
"XXLXPXLXPXLXLXLXPX'.  C.U.U.U.U.U.U.U.U.U.U.U.U.U.U.U.U.U.U.U.U.P.        D P P P P P P P P P P P P P P P P T FXFXDXDXDXDXDXbX|.",
"XXLXLXPXLXPXLXLXLX}.  j U.U.U.U.U.U.U.U.U.U.U.U.U.U.U.U.U.U.U.U.U.        D P P P P P P P P P P P P P P P P E FXFXDXDXFXDXDXDX|.",
".XLXLXLXLXLXLXPXPXXX  h U.U.U.U.U.U.U.U.U.U.U.U.U.U.U.U.U.U.U.U.U.        S P P P P P P P P P P P P P P P P ~ FXFXFXGXFXDXFXDX|.",
"XXLXLXLXLXPXLXLXLXlX  g U.U.U.U.U.U.U.U.U.U.U.U.U.U.U.U.U.U.U.U.U.        S P P P P P P P P P P P P P P P P ^ FXFXFXFXFXDXFXDX|.",
"XXLXPXLXLXLXLXLXLXnX  4 U.U.U.U.U.U.U.U.U.U.U.U.U.U.U.U.U.U.U.U.U.        S P P P P P P P P P P P P P P P P c.LXLXFXKXFXFXFXFX|.",
".XLXLXLXLXLXLXPXLXDX  $ U.U.U.U.U.U.U.U.U.U.U.U.U.U.U.U.U.U.U.U.U.        F P P P P P P P P P P P P P P P P c.LXLXFXLXFXFXFXFX X",
"XXLXLXLXLXLXLXLXPXLXX   U.U.U.U.U.U.U.U.U.U.U.U.U.U.U.U.U.U.U.U.U.X       S P P P P P P P P P P P P P P P P #XPXLXLXLXKXLXKXFX|.",
" XLXLXLXPXLXLXLXLXLX&   U.U.U.U.U.U.U.U.U.U.U.U.U.U.U.U.U.U.U.U.U.X       F P P P P P P P P P P P P P P P P %XPXLXPXLXLXLXUXLX X",
" XLXLXLXLXLXLXLXLXLX5   R.U.U.U.U.U.U.U.U.U.U.U.U.U.U.U.U.U.U.U.U.X       S P P P P P P P P P P P P P P P P yXPXLXPXPXLXLXLXLX X",
"XXLXLXLXLXLXLXLXLXLX7   W.U.U.U.U.U.U.U.U.U.U.U.U.U.U.U.U.U.U.U.Y..       D P P P P P P P P P P P P P P P P MXPXPXPXPXPXLXLXLXXX",
"XXLXLXLXLXLXLXLXLXLXk   W.U.U.U.U.U.U.U.U.U.U.U.U.U.U.U.U.U.U.U.U..       D P P P P P P P P P P P P P P P P MXPXPXPXPXPXPXPXLXXX",
" XLXLXLXLXFXLXLXLXLX`.  E.U.U.U.U.U.U.U.U.U.U.U.U.U.U.U.U.U.U.U.U.7       D P P P P P P P P P P P P P P P P UXLXLXPXLXLXPXLXPXXX",
" XLXLXLXLXLXLXLXLXLXnX  F.U.U.U.U.U.U.U.U.U.U.U.U.U.U.U.U.U.U.U.U.SX6     D P P P P P P P P P P P P P P C / PXPXPXPXPXPXPXPXPXXX",
" XLXLXLXLXLXLXLXLXLXLX6 G.U.U.U.U.U.U.U.U.U.U.U.U.U.U.U.U.U.U.U.U.KXbX1   D P P P P P P P P P V T x.@XcXLXLXPXPXPXLXLXPXLXLXPXXX",
" XLXLXLXLXKXLXLXLXLXLXv Z.U.U.U.U.U.U.U.U.U.U.U.U.U.U.U.U.U.P.P.U.KXLXvX% D P P P P P Z ! +X$XDXPXPXPXLXLXPXLXPXLXPXPXPXPXPXPXXX",
" XLXLXLXLXLXLXLXLXLXLXXXV.U.U.U.U.U.U.U.U.U.Y.U.U.U.U.U.U.!./.jXSXPXLXPXmXQ I K x.@XcXPXLXLXPXLXLXPXLXPXPXLXPXLXPXLXLXPXLXPXLX.X",
" XLXKXLXLXFXLXLXLXLXLXLXC.U.U.U.U.U.U.U.U.U.Y.Y.T.^.iXaXSXLXLXLXPXLXLXLXLXUXFXPXPXLXLXPXPXLXLXPXPXLXPXLXLXPXLXPXLXPXPXLXPXPXLXXX",
" XLXLXLXLXLXLXLXFXLXLXLXZ.Y.U.U.P.P.Y.T.Q.^.uXzXKXLXLXLXLXLXLXLXLXLXLXLXLXPXLXLXLXLXPXLXPXLXLXLXLXPXPXLXPXPXLXPXPXLXLXPXLXPXLX.X",
" XLXLXFXLXLXFXLXLXLXLXLXoXP.P.W.Q.uXpXbXLXLXLXLXLXLXLXLXLXLXLXLXPXLXLXPXLXLXLXPXPXLXLXLXPXLXLXPXLXLXLXPXLXLXPXLXLXPXPXLXPXLXLXXX",
" XLXLXLXLXLXLXLXLXFXLXLXDXoXvXLXLXLXLXLXLXLXLXLXLXLXLXLXLXPXLXLXLXLXLXLXLXLXLXLXLXPXLXLXLXLXLXLXPXLXLXLXLXLXLXPXPXLXPXPXPXLXLX.X",
" XLXLXLXLXFXLXFXLXLXLXLXLXLXLXLXLXLXLXLXLXLXLXLXLXLXLXLXLXLXLXLXLXLXLXLXPXLXLXLXLXLXLXPXLXPXPXLXLXLXPXLXLXPXPXLXLXPXPXLXLXLXLX.X",
" XFXLXLXFXLXLXLXFXLXLXLXLXKXLXLXFXLXLXLXLXLXKXLXLXLXLXLXLXLXLXLXLXLXLXLXLXLXLXLXLXLXLXLXLXPXLXLXPXPXLXLXPXLXLXLXPXLXPXPXPXLXPX.X",
" XLXFXLXLXLXLXLXLXLXLXLXLXLXLXLXLXLXLXLXLXLXLXLXLXLXLXLXLXLXLXLXLXLXLXLXLXLXLXLXLXLXLXLXLXLXLXLXLXLXLXPXLXLXLXPXLXLXLXLXLXPXLX X",
" XFXLXLXFXLXLXFXLXLXLXFXLXLXLXUXLXLXUXLXLXLXLXLXLXLXLXLXLXLXLXLXLXLXLXLXLXLXPXLXLXLXLXLXLXLXLXLXLXLXLXPXLXPXLXLXLXPXLXLXLXLXLX.X",
"'. X X X X X X X X X X X X X X X X X X X X X X X X X X X X XXX X XXX X XXX X XXX.X X X X X.X X.X XXX X X X X X.X X XXX X X X X'."
};
