/* XPM */
static char *cbp64[] = {
/* columns rows colors chars-per-pixel */
"64 56 236 2",
"   c #020202",
".  c #101010",
"X  c #1D1D1D",
"o  c #252525",
"O  c #343434",
"+  c gray26",
"@  c gray33",
"#  c gray46",
"$  c #7C7C7C",
"%  c #5960B5",
"&  c #5A61BB",
"*  c #67699F",
"=  c #6466A0",
"-  c #666AA3",
";  c #6067B8",
":  c #636AB9",
">  c #686EBD",
",  c #6E70A6",
"<  c #6B71BD",
"1  c #7476A7",
"2  c #797AAA",
"3  c #7A7DB3",
"4  c #5C62C3",
"5  c #5E64CA",
"6  c #6066C5",
"7  c #6065CD",
"8  c #646BC4",
"9  c #656BC9",
"0  c #686EC9",
"q  c #6166D2",
"w  c #6164DD",
"e  c #646AD3",
"r  c #6368DB",
"t  c #6A70C9",
"y  c #6A70D2",
"u  c #7076C3",
"i  c #747AC2",
"p  c #767BCC",
"a  c #7A7FC3",
"s  c #7A7FCF",
"d  c #7279D4",
"f  c #656AE3",
"g  c #676BE8",
"h  c #686CEB",
"j  c #6A6DF1",
"k  c #6F7AE9",
"l  c #6D70FC",
"z  c #6D7AF5",
"x  c #6C7AFE",
"c  c #727DF3",
"v  c #707EFD",
"b  c #7B7DFE",
"n  c #7F81AA",
"m  c #7C81CD",
"M  c #7480EE",
"N  c #7B85EC",
"B  c #7682F0",
"V  c #7582FC",
"C  c #7985FB",
"Z  c #7D89FA",
"A  c #807D74",
"S  c #848484",
"D  c #8C8C8C",
"F  c gray58",
"G  c #9B9B9B",
"H  c #8587A4",
"J  c #8586AA",
"K  c #8688A4",
"L  c #8588AA",
"P  c #888BA5",
"I  c #8B8DAA",
"U  c #868AB3",
"Y  c #878BBB",
"T  c #8E90AD",
"R  c #8F91B0",
"E  c #9192AE",
"W  c #9798AE",
"Q  c #9898A7",
"!  c #9B9BAD",
"~  c #9294B2",
"^  c #9496B8",
"/  c #9698B5",
"(  c #9699BB",
")  c #9C9DB2",
"_  c #999BBB",
"`  c #9FA0B4",
"'  c #9FA1BE",
"]  c #A5A5A5",
"[  c gray68",
"{  c #A1A3B5",
"}  c #A6A6BB",
"|  c #ADACB4",
" . c #ABACBB",
".. c #B3B3B3",
"X. c #B1B2BD",
"o. c #BBBBBB",
"O. c #878CC1",
"+. c #878CCA",
"@. c #898FCA",
"#. c #8387D1",
"$. c #868DD5",
"%. c #868DDB",
"&. c #8790DD",
"*. c #8C92D5",
"=. c #8A91DA",
"-. c #9396C0",
";. c #9195CE",
":. c #9498C8",
">. c #9C9EC3",
",. c #9A9ECF",
"<. c #9096D4",
"1. c #949AD1",
"2. c #9C9FDA",
"3. c #848CE2",
"4. c #828BEA",
"5. c #8487F5",
"6. c #8183FB",
"7. c #828BF2",
"8. c #828DFA",
"9. c #8D90ED",
"0. c #8792F7",
"q. c #8590F9",
"w. c #8C96F6",
"e. c #8994F9",
"r. c #8E98F7",
"t. c #8E99FF",
"y. c #9299E7",
"u. c #949CED",
"i. c #989BEC",
"p. c #939CF5",
"a. c #939DFC",
"s. c #9DA1C4",
"d. c #9EA1CC",
"f. c #9DA2D3",
"g. c #9CA1DA",
"h. c #9CA2E3",
"j. c #9CA2EB",
"k. c #97A0F5",
"l. c #96A0FE",
"z. c #9BA3F3",
"x. c #9AA3FC",
"c. c #9FA8FC",
"v. c #A1A4C3",
"b. c #A1A4CB",
"n. c #A6A8C6",
"m. c #A6A9CF",
"M. c #AAACCA",
"N. c #A3A7D6",
"B. c #A1A6DC",
"V. c #A6A9D1",
"C. c #A9ACD3",
"Z. c #A9ADDC",
"A. c #AEB1CE",
"S. c #AEB1D4",
"D. c #AEB1DB",
"F. c #B2B2C1",
"G. c #B9B8C4",
"H. c #BBBBC8",
"J. c #B2B4D3",
"K. c #B0B3DC",
"L. c #B5B8D6",
"P. c #BEBFD2",
"I. c #BABCDB",
"U. c #A1A7E6",
"Y. c #A0A6EA",
"T. c #A5ABE7",
"R. c #A4AAEC",
"E. c #A9AEE4",
"W. c #A9AEE9",
"Q. c #A0A7F3",
"!. c #A4ABF2",
"~. c #A3ABFC",
"^. c #A8AEF1",
"/. c #ADB1E3",
"(. c #AFB4EE",
"). c #A7B0FF",
"_. c #ACB1F0",
"`. c #ABB3FC",
"'. c #B2B6E1",
"]. c #B0B6EE",
"[. c #B4B8E3",
"{. c #B4B9EE",
"}. c #BCBEE4",
"|. c #B9BDEC",
" X c #B0B6F5",
".X c #B2B8F3",
"XX c #B3BAFD",
"oX c #B8BEF4",
"OX c #B8BEFD",
"+X c #BFC1DF",
"@X c #BEC0E0",
"#X c #BEC1EA",
"$X c #BDC2F4",
"%X c #BCC2FD",
"&X c #C4C4C4",
"*X c #C0C0CE",
"=X c #CBCBCB",
"-X c #C3C3D4",
";X c #C6C6D8",
":X c #C7C8DB",
">X c #C9C9DD",
",X c #CFD0DA",
"<X c #D3D3D4",
"1X c #DCDCDC",
"2X c #C3C5E4",
"3X c #C2C5EB",
"4X c #C5C8E5",
"5X c #C6C8EA",
"6X c #C9CBE2",
"7X c #CACCE9",
"8X c #C0C5F4",
"9X c #C0C6FB",
"0X c #C5C9F6",
"qX c #C4C9FD",
"wX c #C9CCF3",
"eX c #C9CEFD",
"rX c #CDD1FD",
"tX c #D1D5FD",
"yX c #D5D9FD",
"uX c #D8D9F2",
"iX c #DADDFD",
"pX c #DFE1F4",
"aX c #DEE1FE",
"sX c #E3E3E3",
"dX c #EDEDED",
"fX c #E4E5F3",
"gX c #E2E5FE",
"hX c #E6E8FE",
"jX c #ECECF1",
"kX c #EBECFD",
"lX c #EEF0FD",
"zX c #F4F4F4",
"xX c #F3F4FD",
"cX c #F7F8FD",
"vX c #FDFDFE",
"bX c None",
/* pixels */
"bXbXbXbXbXbXbXbXm : ; ; ; ; ; ; & ; : ; : : : : : > > > > < V.bXbXbXbXbXbXbXbXbXbXbXbXbXbXbXbXbXbXbXbXbXbXbXbXbXbXbXbXbXbXbXbXbX",
"bXbXbXbXbXbXbX< % % % % % % % % % % & % % % % % % % % % % % ; a bXbXbXbXbXbXbXbXbXbXbXbXbXbXbXbXbXbXbXbXbXbXbXbXbXbXbXbXbXbXbXbX",
"bXbXbXbXbXbX@.& % % % % % % % % % % % % % % % % % % % % % % % & ;.bXbXbXbXbXbXbXbXbXbXbXbXbXbXbXbXbXbXbXbXbXbXbXbXbXbXbXbXbXbXbX",
"bXbXbXbXbXbX> & % % & & % % % % % % % % % % % % % % % % % % % % > bXbXbXbXbXbXbXbXbXbXbXbXbXbXbXbXbXbXbXbXbXbXbXbXbXbXbXbXbXbXbX",
"bXbXbXbXbXbX8 & 4 & & 4 & & & & & & & % & & & & & & & & & & & & & u bXbXbXbXbXbXbXbXbXbXbXbXbXbXbXbXbXbXbXbXbXbXbXbXbXbXbXbXbXbX",
"bXbXbXbXbXbX8 4 4 4 4 & 4 4 4 4 4 4 4 4 4 4 4 4 & 4 & 4 & 4 & 4 & & m bXbXbXbXbXbXbXbXbXbXbXbXbXbXbXbXbXbXbXbXbXbXbXbXbXbXbXbXbX",
"bXbXbXbXbXbX9 5 5 4 5 5 5 5 5 5 5 5 5 5 4 4 4 4 4 5 4 4 4 4 4 4 5 5 6 t p m #.*.2.Z.fXvXbXbXbXbXbXbXbXbXbXbXbXbXbXbXbXbXbXbXbXbX",
"bXbXbXbXbXbXe 7 5 5 q 5 5 5 5 5 5 5 5 5 5 5 5 5 5 5 5 5 5 5 5 5 5 5 5 4 5 5 5 5 5 5 7 9 9 9 9 8 9 0 9 0 0 0 0 0 t m bXbXbXbXbXbX",
"bXbXbXbXbXvXe q q q q q q q q q q q q q q q q q q q q 5 q 5 7 7 5 7 7 7 7 7 7 5 5 5 5 5 7 7 5 7 7 7 7 7 5 5 7 7 5 7 d bXbXbXbXbX",
"bXbXbXbXbX7Xr r r w q r q q r w e r q q e q e q q q q q q e e 9 q 7 q e q e q q q q q q q e 7 q 7 7 7 7 7 7 7 7 7 q y bXbXbXbXbX",
"bXbXbXbXbXR.r r r r r r r r r r r r r r - ) ) ) ) ) W ) ) ! Q ! ! ! ! ! ! ! ! ) ! ) ) W ) ! ! ) ! ! ~ I L n 2 1 , - * @ + O .   ",
"bXbXbXbXbXi.f f f f f f f r f f r f f r 2 dXdXdXdXdXdXdXdXdXdXdXdXdXdXdXdXdXdXzXdXzXdXdXdXdXdXzXdXjXdXdXzXdXzXdXdXzXdXzXdXsX<XF ",
"bXbXbXbXbX9.h h g g g f g g f g g g g f 2 dXdXdXdXdXdXdXdXdXdXdXdXdXdXdXdXdXdXdXdXdXdXdXzXdXzXdXzXzXdXzXdXzXdXzXdXzXzXzXzXzXdXo.",
"bXbXbXbXbX4.h h h h h h h h h h h h h h 3 dXdXdXdXdXdXdXdXdXdXdXdXdXdXdXzXdXdXdXzXdXzXdXdXzXdXdXdXzXzXdXzXdXzXzXzXzXdXzXzXzXzX..",
"bXbXbXbXbX5.j j j j h j j h j j j j h j 3 dXdXdXdXjXdXdXdXdXdXdXdXdXdXdXdXdXdXdXdXdXdXdXzXdXdXzXzXdXzXdXzXzXzXzXzXzXzXdXzXzXzX..",
"bXbXbXbXbX6.l l q Q }  . . . . . . . . .X.o.o.o.&Xo.o.o.&Xo.&Xo.o.o.o.o.o.o.o.o.o.o.o.o.o.o.o.o.o.o.o.=XsXdXzXdXzXzXzXzXzXzXzX..",
"bXbXbXbXbX6.l l w 1XzXzXzXzXzXzXzXzXzXvXzXzXzXzXvXzXzXzXzXzXzXzXvXzXzXzXzXzXzXcXvXzXvXzXvXzXcXcXvXcXzXdX..zXzXzXzXzXzXzXzXzXzX..",
"bXbXbXbXbXC l l w 1XzXzXzXzXzXzXzXzXzXzXzXzXzXvXzXzXzXvXzXvXvXzXzXzXvXzXvXzXvXzXzXvXzXzXzXzXcXzXzXcXzXzX..zXzXzXzXzXzXzXzXzXzX..",
"bXbXbXbXbXb l l w 1XzXzXzXzXzXcXzXzXzXzXvXzXzXzXzXzXvXzXzXzXvXzXvXzXzXvXzXvXzXvXvXzXzXvXvXzXdXzXdXdXdXdX..zXzXzXzXzXzXzXcXzXzX..",
"bXbXbXbXbXb l l w sXzXzXcXzXcXzXvXzXvXzXzXzXzXvXcXcXzXzXvXzXzXvXzXvXvXzXvXzXcXcXzXzXzXzXdXdXdXdXsXsXsXsX..zXzXzXzXzXzXzXzXzXzX..",
"bXbXbXbXbXb l l w 1XcXzXzXcXzXcXzXzXcXzXvXvXzXzXzXvXzXvXvXzXcXcXvXzXvXzXzXzXzXzXdXdXdXdXsXsXsXsX1X1X1X<X..zXzXzXzXvXzXzXzXzXcX..",
"bXbXbXi k c l l r 6XpXfXdXjXzXzXvXvXzXcXzXzXzXvXzXvXvXzXzXvXzXcXzXdXzXdXdXdXsXsXsXsX1X1X1X1X<X<X<X<X=X=X[ zXzXzXzXzXzXzXcXzXzX..",
"bXbX7.XXyXgXhXhXhXaXaXyXyXrXrXrXwXqXqX0X0X%X0X0X%X8X%X$X5X8X$X#X2X#X4X4X6X6X,X,X<X<X<X<X<X<X=X=X=X=X&X&X[ cXzXzXzXzXzXcXzXzXzX..",
"bXM OXeXrXrXrXtXrXrXyXyXyXyXyXyXiXiXiXiXiXaXaXgXaXgXhXgXhXhXhXhXhXkXkXkXgXaXiXyXyXtXrXwX0X0X%X$X#X#X{.]./.$X8X8X8XwX#XuXvXzXzX..",
"d l.XXXXXX~.c.~.).).`.XXXX%X%X%X%X9X9X9X9X9XqXqXqXeXeXrXrXrXrXrXrXrXrXyXrXyXyXyXtXyXyXaXiXaXaXaXaXaXaXgXgXgXgXhXhXkXgXrXc.uXzX..",
"B l.l.Z x x x x x x x x x x x x x V V C C C Z q.q.q.q.t.t.t.a.l.x.~.~.).`.`.XXXX%X%X%X%X%X%XqX%XqXqXeXqXeXeXrXrXrXrXrXrXrX).fX..",
"V Z x x x x x x x x x x x x x x x x x x x x x x x x x x x x x x x x x x x x x x x x x x V V V V Z Z Z q.q.q.q.t.a.~.XXOXOXOX^...",
"z x x x x x x x x x x x x x x x x x x x x x x x x x x x x x x x x x x x x x x x x x x x V x x x x x x x x x x x x x x q.x.c.t...",
"z x x x x x x x x x x x x x x x x x x x x x x x x x Z t.V x x x x x x x x x x x x x x x x x x x x x x x x x x x x x x x C q.C s.",
"z x x x x x x x x x x x x x x x x x x x x x x x x x rXvXx.x x x x x x x x x x x x x x x x x x x x x x x x x x x x x x x x x x s.",
"z x x x x x x x x x x x x x x x x x x x x x x x x x iXvXt.x x x x x x x x x x x x x x x x x x x x x x x x x x x x x x x x x x ' ",
"z x x x x x x x x x x x x x x x x x x x x x x x x x lXvXC x x x x x x x x x x x x x x x x x x x x x x x x x x x x x x x x x x ` ",
"z x x x x x x z x x x x x x x x x x V C x x x x x x vXvXx x x x x x x x x x x x x x x x x x x x x x x x x x x x x x x x x x V ] ",
"c V V z x V x v x z v x x x x V OXkXvXvXcX%XC z x Z vXkXC %XgXhX9XZ x x x x t.XXZ C `.qXOXt.x x x x x x x x x x x x x x x x 9.] ",
"M C V C C V V V C V V V C V C gXvXxXrX%XlXvXaXV V l.vXlXxXvXkXzXvXvXa.x V x %XvXOXxXvXvXvXvXqXx x x x x x x x z x x x z x x j.G ",
"N C C Z C C C C C C C C C C rXvXyXZ C C Z kXvX~.C ).vXvXaXq.V C qXvXlXC V V tXvXvXyXt.V x.xXvX`.V V V V V V x V x V V v V V [.G ",
"N Z Z Z Z Z Z Z Z Z Z Z Z t.vXxX8.Z Z C Z %XkX`.C %XvXkXZ C Z C Z kXvXx.C C hXvXyXC C C C ~.vXkXC C C C V V V V V C V C V C -XG ",
"%.0.7.0.7.8.q.8.0.8.8.7.8.oXvXeX8.8.8.8.Z 8.Z Z Z rXvXoX8.Z Z Z Z rXvXOXZ Z xXvXp.Z C Z C 8.cXvX8.C Z C C C Z C C C C C C N =XF ",
"$.0.e.q.4.7.0.e.0.0.0.q.q.yXvX.Xq.q.q.q.q.8.q.8.q.iXvXp.8.q.0.8.8.eXvX%X8.0.vXkX8.8.8.8.8.8.xXvXw.Z 8.Z 8.Z 8.Z Z Z C Z Z u.=XD ",
"U w.w.w.3.3.w.e.e.r.e.r.w.hXvX`.w.w.q.w.w.q.w.w.e.kXvXw.0.e.0.0.0.yXvXoX0.x.vXyXq.0.q.q.q.q.cXvXw.q.q.q.0.8.0.8.0.0.q.q.q.g.o.D ",
"$ u.p.p.3.3.p.r.p.r.r.p.p.hXvX`.r.r.r.p.r.~.z.r.w.cXvXr.w.w.e.r.r.kXvX~.e.`.vXrXw.w.w.0.e.z.vXxX0.e.e.e.0.q.e.e.0.0.0.0.0.M.o.S ",
"bXu.k.p.%.%.p.p.p.p.p.p.p.iXvX0Xp.p.p.p.p.xXvX!.z.vXvXz.p.p.p.p.!.vXxXp.p.%XvXiXp.w.w.p.r.%XvXyXp.r.r.w.r.r.r.w.r.w.r.r.r.X...S ",
"bXj.z.z.=.%.u.z.x.z.z.z.z.$XvXxX!.z.k.k.rXvXiXk.`.vXvXwXp.z.p.x.hXvX$Xp.p.wXvXcXz.p.p.p.z.xXvX`.p.p.p.p.p.p.p.p.r.r.r.r.u.....$ ",
"bXj.z.!.*.+.i.R.R.z.z.z.j.z.hXvXxXyXrXlXvXlX!.z.oXvXcXvXrX.X0XlXvXgXz.z.z.iXvXvXhX^.z..XlXvXrXz.p.p.z.p.z.p.p.z.k.k.z.k.g.[ [ $ ",
"bXj.!.!.<.+.h.z.R.!.z.!.!.z.!.yXcXvXvXcXiX!.!.z.wXvXrXgXvXvXvXvXyXR.z.z.z.hXvXiXvXvXvXvXvXuXz.z.z.z.z.z.z.z.z.z.z.z.x.z.( G Q # ",
"bXT._._.1.O.h._.^.^.^.^.^.^.W.!.^..X.X!.!.W.!.!.!.^.!.!.oXwX0X_.R.!.!.!.!.xXvX_..XyXiXtX`.R.z.!.!.!.!.z.!.z.z.z.j.z.R.z.@.  X o ",
"bXE._._.1.Y g.(._._.W.(._._.W._._._.^.(.^._._._.W.^.^.^._.^.^.^.!._.^.^.W.vXvX_.W.^.^.!.!.R.!.!.^.!.!.!.!.!.!.Y.j.j.!.R.,.bXbXbX",
"bX/.].].B.U :.(.]._..X]..X]. X(.].].(.(..X_..X_..X_._..X_._._.(._._._._.{.vXxX_._.^.^._.(.(._.^.^.^._._._._._.h.h.W.^.W.A bXbXbX",
"bXK.|..X[.U U Z.{.{..X{.{.{.{.{.{.{.{.].{.].{.{..X].].].{..X].].].].]. X$XvXkX].].].]..X].].(.]. X.X(.(. X].W.U.B.W. XE.bXbXbXbX",
"bXS.|.|.|.b.L L b./.[.|.|.|.|.|.|.|.|.|.|.|.|.|..X|.|.|..X|.|.{.|.|.].|.5XxXfXoX{.{.].{.{.{.].{.].].].].{.].].,.,.]..XE.bXbXbXbX",
"bX} 2X3X3X|.s.H H H K K I I ~ ~ ^ ( _ >.s.s.b.V.C.Z.D.D./.K.[.[.|.|.|.|.|.|.|.|.|.|.|.|.|.|.|.|.|.|.|.|.|./.d.,.Z.|.|.D.bXbXbXbX",
"bXbX@X#X5X3X3XJ.v.E P P H K H K P P P P I I I I I T I I T ~ R ~ ~ E ^ ( _ _ >.>.v.b.b.m.V.C.D.D.D.D.Z.C.d.>.>.V.|.|.|.n.bXbXbXbX",
"bXbXX.4X7X7X7X7X5X7X7X7X7X4X@X@XI.I.L.J.A.M.M.M.n.n.v.>.' _ / / ~ ~ ~ E E ~ ~ ~ ~ ~ ~ / / / / / / / _ _ _ b.K.3X#X#X}.bXbXbXbXbX",
"bXbXbX+X6X6X7X7X7X7X7X7X7X7X7X7X7X7X7X7X7X7X7X7X7X7X7X7X7X6X7X7X7X7X7X4X4X:X;XI.I.I.L.J.J.A.A.M.M.M.A.J.@X5X5X3X5X5XI.bXbXbXbXbX",
"bXbXbXbXbXG.-X-X-X;X:X:X>X>X>X>X>X6X6X6X6X6X6X6X6X6X6X6X6X7X7X7X7X7X7X7X7X7X7X7X7X7X7X7X7X7X7X7X7X7X7X7X7X7X7X7X7X5X .bXbXbXbXbX",
"bXbXbXbXbXbXbXbXbXbXbXbXbXbXbXbXbXbXbXbXbXbXbXbXbXbXbXA A G | G.H.H.-X-X;X;X;X>X>X>X>X>X6X>X6X6X6X6X6X6X6X6X6X7X6XP.bXbXbXbXbXbX"
};
