/* XPM */
static const char *cg64[] = {
/* columns rows colors chars-per-pixel */
"64 64 191 2",
"   c #1E1E7E",
".  c #2E2E5E",
"X  c #393951",
"o  c #28287C",
"O  c #333363",
"+  c #39396A",
"@  c #353576",
"#  c #383874",
"$  c #3E3E7A",
"%  c #454545",
"&  c #43434F",
"*  c #4B4B4B",
"=  c #434350",
"-  c #44445D",
";  c #4A4A56",
":  c #4C4C58",
">  c #535353",
",  c #5B5B5B",
"<  c #4A4A62",
"1  c #464674",
"2  c #4C4C7C",
"3  c #505074",
"4  c #636363",
"5  c #6A6A6A",
"6  c #676773",
"7  c #65657D",
"8  c #737373",
"9  c #7C7C7C",
"0  c #18189C",
"q  c #0D0DA9",
"w  c #0000BE",
"e  c #0A0AB2",
"r  c #0B0BBC",
"t  c #1212A2",
"y  c #1A1AAA",
"u  c #1818B5",
"i  c #242484",
"p  c #282880",
"a  c #2B2B8B",
"s  c #252591",
"d  c #24249C",
"f  c #2A2A90",
"g  c #2F2F9D",
"h  c #3C3C84",
"j  c #323292",
"k  c #31319D",
"l  c #3A3A9A",
"z  c #2121A5",
"x  c #2C2CA2",
"c  c #2121B0",
"v  c #3030A8",
"b  c #0000C1",
"n  c #0000CA",
"m  c #0B0BC0",
"M  c #0000D3",
"N  c #0000DB",
"B  c #0A0AD6",
"V  c #1717C2",
"C  c #0000E2",
"Z  c #0000EB",
"A  c #0000F4",
"S  c #0101FC",
"D  c #0B0BFD",
"F  c #1515FD",
"G  c #1B1BFF",
"H  c #2222CC",
"J  c #2A2AC7",
"K  c #3737D0",
"L  c #3535D8",
"P  c #2E2EEE",
"I  c #2323FF",
"U  c #2B2BF4",
"Y  c #2C2CFF",
"T  c #3232FF",
"R  c #3A3AFF",
"E  c #464682",
"W  c #414189",
"Q  c #4C4C88",
"!  c #51518D",
"~  c #5B5B8B",
"^  c #505098",
"/  c #4444A4",
"(  c #4B4BAB",
")  c #4545B1",
"_  c #5050A4",
"`  c #5A5AB0",
"'  c #5858BA",
"]  c #646486",
"[  c #6D6D88",
"{  c #7E7E95",
"}  c #6767A6",
"|  c #6D6DA4",
" . c #7171A1",
".. c #7676A8",
"X. c #7474BF",
"o. c #7D7DB3",
"O. c #4D4DCA",
"+. c #5454C0",
"@. c #5F5FC1",
"#. c #5858CC",
"$. c #4040F5",
"%. c #4545FF",
"&. c #4B4BFF",
"*. c #5252FE",
"=. c #5B5BFF",
"-. c #6F6FCE",
";. c #6D6DD9",
":. c #7272DB",
">. c #6060E2",
",. c #6464FE",
"<. c #6B6BFF",
"1. c #7272FF",
"2. c #7B7BFF",
"3. c #838383",
"4. c #8B8B8B",
"5. c #878792",
"6. c #8B8B97",
"7. c #939393",
"8. c #93939F",
"9. c #9B9B9B",
"0. c #8888AD",
"q. c #8181B1",
"w. c #8383BF",
"e. c #8B8BBC",
"r. c #A3A3A3",
"t. c #ABABAB",
"y. c #A2A2BF",
"u. c #A8A8B5",
"i. c #AEAEBD",
"p. c #B4B4B4",
"a. c #B2B2BF",
"s. c #BBBBBB",
"d. c #8989CD",
"f. c #9797C3",
"g. c #9999C6",
"h. c #9D9DDB",
"j. c #8383FE",
"k. c #8C8CFE",
"l. c #9393EF",
"z. c #9B9BE8",
"x. c #9090F4",
"c. c #9494FF",
"v. c #9B9BFF",
"b. c #A8A8CF",
"n. c #B7B7C5",
"m. c #B4B4CA",
"M. c #BABAC6",
"N. c #BABACB",
"B. c #B9B9DD",
"V. c #A7A7F2",
"C. c #A3A3FE",
"Z. c #ADADFE",
"A. c #B0B0E7",
"S. c #BEBEED",
"D. c #B5B5F3",
"F. c #B2B2FE",
"G. c #BABAF5",
"H. c #BBBBFE",
"J. c #C3C3C3",
"K. c #C4C4CA",
"L. c #CBCBCB",
"P. c #C6C6D4",
"I. c #C1C1DC",
"U. c #CDCDD4",
"Y. c #CDCDDD",
"T. c #D4D4D4",
"R. c #DBDBDB",
"E. c #C6C6E7",
"W. c #C6C6EA",
"Q. c #CBCBEC",
"!. c #C4C4FD",
"~. c #CCCCFC",
"^. c #D3D3E5",
"/. c #D5D5EE",
"(. c #DBDBE3",
"). c #DCDCED",
"_. c #D3D3F4",
"`. c #D2D2FD",
"'. c #DDDDF3",
"]. c #DBDBFE",
"[. c #E3E3E3",
"{. c #E4E4EB",
"}. c #EBEBEC",
"|. c #E2E2F3",
" X c #E2E2FE",
".X c #EAEAF3",
"XX c #EBEBFD",
"oX c #F5F5F5",
"OX c #F1F1FC",
"+X c #FBFBFB",
"@X c None",
/* pixels */
"3.9.9.9.9.9.9.9.9.9.9.9.7.9.7.7.7.7.7.9.7.7.4.7.7.7.4.4.4.4.4.4.4.4.4.3.4.4.3.4.3.3.4.3.3.3.3.3.3.@X@X@X@X@X@X@X@X@X@X@X@X@X@X@X",
"r.K.L.L.J.J.J.J.J.s.s.s.s.s.s.s.s.p.p.p.p.p.p.p.t.t.t.t.t.t.t.r.r.r.r.r.9.r.9.9.9.9.9.7.7.9.7.7.t.3.@X@X@X@X@X@X@X@X@X@X@X@X@X@X",
"9.L.K.L.J.L.J.J.J.J.J.J.J.s.s.s.s.p.p.p.p.p.p.p.p.t.p.t.t.t.t.t.r.r.r.r.r.r.r.9.9.9.9.9.9.9.7.7.s.t.{ @X@X@X@X@X@X@X@X@X@X@X@X@X",
"r.T.L.L.L.L.L.L.J.J.J.J.J.J.s.J.J.s.s.s.p.p.p.p.p.p.p.t.t.t.t.t.t.t.t.r.r.r.r.r.r.r.9.9.9.9.9.9.J.J.p.9 @X@X@X@X@X@X@X@X@X@X@X@X",
"r.T.L.T.L.L.L.L.J.J.L.J.J.J.J.s.J.s.s.s.s.p.p.p.p.p.p.p.p.t.t.t.t.t.t.t.r.r.r.r.r.r.r.9.9.9.9.9.J.L.J.t.3.@X@X@X@X@X@X@X@X@X@X@X",
"9.T.T.L.T.L.L.L.L.L.L.J.J.J.J.J.s.J.J.s.s.J.s.s.s.p.s.p.p.p.p.p.p.t.t.t.t.t.r.t.r.r.r.r.r.r.9.9.L.R.L.J.p.9 @X@X@X@X@X@X@X@X@X@X",
"r.T.T.T.T.L.T.L.L.L.L.L.L.L.L.J.J.J.J.J.J.s.s.s.s.s.p.p.p.p.p.p.p.t.t.t.t.t.t.t.r.r.r.r.r.r.9.r.J.[.R.L.J.p.9 @X@X@X@X@X@X@X@X@X",
"t.T.R.T.T.T.T.L.T.T.L.L.L.L.J.L.K.J.J.J.J.J.J.s.s.s.s.s.p.s.p.p.p.p.p.t.p.t.t.t.t.t.t.t.r.r.r.r.J.}.[.T.L.s.p.9 @X@X@X@X@X@X@X@X",
"t.R.T.R.R.T.T.T.T.L.L.T.L.L.L.L.K.J.L.J.J.J.J.J.J.s.s.s.s.s.s.s.p.p.p.p.p.p.t.t.t.t.t.t.t.r.r.r.J.oX}.[.T.L.J.t.{ @X@X@X@X@X@X@X",
"t.R.R.R.R.T.R.T.T.T.T.T.T.L.L.L.L.L.L.J.L.J.J.J.J.J.J.s.s.s.s.s.s.p.p.p.p.p.p.p.t.t.t.t.t.t.t.t.L.+X+X}.R.R.L.J.p.9 @X@X@X@X@X@X",
"t.R.R.R.R.R.R.T.T.T.T.T.T.T.T.L.L.T.L.L.L.L.J.J.J.J.J.J.J.s.s.s.s.s.s.s.p.p.p.p.p.t.p.t.t.t.t.t.T.oX+XoX}.[.R.L.J.t.9 @X@X@X@X@X",
"t.[.[.R.R.R.R.R.R.R.T.T.T.R.(.[.).'.|.'.).'.'./.^.Y.P.J.J.J.J.s.s.s.s.s.s.s.p.p.p.p.p.p.t.t.t.t.R.+XoX+X+X}.R.R.L.J.p.9 @X@X@X@X",
"t.[.[.[.[.R.R.R.R.R.[.XXXXXX X X X].].].].].].].~.~.!.Z.z.m.J.J.J.s.s.s.s.s.s.p.p.p.p.p.p.p.t.p.R.oXoX+X+XoX}.[.R.L.J.t.3.@X@X@X",
"p.[.[.[.[.[.[.[.{.XXXXXX].~.H.C.j.1.<.,.<.2.c.F.!.!.H.v.,.F g.s.J.J.s.J.s.J.s.s.s.s.p.p.p.p.p.p.}.oXoXoXoX+X+X}.R.T.L.J.p.{ @X@X",
"p.[.}.[.[.[.[.{.XXXX].H.,.S C M n n n b n M M A T j.C.j.T Z B u.p.J.s.J.J.s.s.s.s.s.s.s.p.p.p.p.}.oXoXoXoXoX+XoX}.[.R.L.s.p.3.@X",
"p.}.}.}.}.{.{.XXXX].k.Z n b b b w w b w w w b b M A &.=.S N n ` t.p.s.J.J.J.J.J.s.s.s.s.s.s.s.p.R.R.R.R.T.L.J.s.J.J.J.s.s.s.t.3.",
"p.}.}.}.}.[..XXX].k.C b b w w w e y y y y y e b n N S R S M b u 7.r.p.J.J.J.J.J.J.s.J.s.s.s.s.p.s.p.p.p.p.p.p.t.t.t.t.t.t.r.r.4.",
"p.}.oX}.}.}. X].H.S b b w x 2 , > * * * % % % = p N S T A n b b 9 7.r.p.J.J.J.J.J.J.J.s.J.J.s.s.s.p.s.s.p.p.p.p.p.p.t.t.t.t.t.4.",
"p.oXoX}..X.X].~.k.N w w g > : % % % % % * * * % % d S S C b b w 3 9 9.t.J.L.K.L.J.J.J.J.J.s.s.s.s.s.s.p.p.p.p.p.p.p.p.p.t.t.t.4.",
"p.oXoXoXoX.X`.~.=.n w w # % % % * > , , , , , , , 1 Z N n b b w + 5 4.t.s.J.K.K.L.L.K.J.J.J.J.J.J.s.J.s.s.s.s.p.p.p.p.t.p.p.t.4.",
"s.oXoXoXoX|.~.H.T n w w & % % > , 5 8 9 { 3.9 9 9 8 M b w w w w O , 9 9.s.L.L.L.L.K.L.K.L.J.J.J.J.s.s.s.s.s.s.s.s.p.p.p.p.p.p.4.",
"s.+X+XoXoX|.~.F.D b w w % % > 4 9 7.9.r.r.t.t.t.r.9.n w w w w w . , 8 9.p.K.T.R.{.XX X].].`.~.E.K.J.L.|.'.Q.x.U f.s.s.p.p.p.p.4.",
"p.oXoX+XoX].!.Z.S b b q % % , 3.9.p.J.L.L.L.L.J.J.J.' ( l a o o X > 8 7.p.T.XXXX X].H.C.k.k.v.F.`.U.L. X XZ.D M e.p.p.p.p.p.p.7.",
"s.+X+X+XoX~.!.C.S b w 0 % > 8 7.p.L.R.R.[.R.[.R.R.T.K.p.7.5 > % % > 8 9.s.XXXX].C.G Z M M M Z G v.~.^. X~.=.M b q.t.p.p.s.s.p.7.",
"s.+X+XoX+X~.!.v.S b w t % , 9 r.L.R.}.}.}.}.}.[.}.[.T.J.r.9 4 > > 4 9 9.(.XX].<.N b w w w w b b Z <.Z.!.k.Z b w { 8.9.t.p.p.s.7.",
"p.oX+X+XoX~.F.v.A b w t * 4 3.t.T.[.}.}.oX}.}.}.}.[.R.L.p.7.3.5 5 9 4.t. X].c.N w w r v l l l k r Z %.2.T M b w ~ 9 4.9.t.s.s.7.",
"s.+XoX+XoX!.F.c.S b w 0 * 4 4.p.T.}.oXoX}.}.}.}.}.}.[.R.J.p.9.7.7.9.t.J.].!.I b w u 6 4 , > > > , x F *.F M w w 1 4 9 7.t.p.J.7.",
"s.oX+XoXoX!.F.c.S b w t * 5 4.s.T.}.oXoXoXoXoX}.}.}.}.[.R.L.J.s.p.s.J.^.`.Z.Z b w W > * * * * > > > $.,.Y M b w + > 5 4.r.p.J.9.",
"p.oXoX+X+X`.F.v.S b w 0 * 5 4.s.R.}.oXoXoXoXoX}.}.}.}.}.[.[.R.T.T.R.T./.~.k.N b w < % % * * > , 4 4 -.x.&.M b b . * 4 3.r.s.J.9.",
"s.+XoX+XoX_.F.v.S b w t * 5 7.s.R.oX+X+X+XoXoXoXoXoXoX}.}.}.[.}.[.[.[.`.!.j.M b w * % * > 5 9 3.3.{ e.v.<.N b b . % 5 4.t.s.J.9.",
"p.oX+XoXoX~.F.C.G n b t : 5 7.s.R.oX+XoX+X+XoXoX+XoXoX}.}.oX}.}.}.{.{._.!.1.M b w % % > 8 4.9.r.t.t.b.Z.j.C w w . * 4 4.t.s.K.9.",
"s.oXoX+X+X`.F.C.Y n w e * 5 7.s.R.}.+X+XoX+X+XoXoXoXoXoXoX}.oX}.oX}.}.`.H.1.M b b % * 4 3.r.p.J.J.K.B.G.k.C b b . * 5 4.t.J.K.9.",
"s.oX+XoXoX_.Z.C.R n b w * 5 7.s.R.oX+XoX+X+X+XoX+X+XOXXXXX].H.C.~.}.}._.H.<.M w w % > 8 7.p.L.T.R.R.Y.H.k.C b b . * 5 4.t.J.L.9.",
"s.+XoX+XoX'.C.C.&.M b b > 5 4.s.R.}.+X+XoXoX+X+X+X+XXXXXXX!.%.S *.}.}.!.F.<.M b w % , 8 9.J.T.[.[.R.Q.!.c.Z b w . > 5 4.p.J.L.r.",
"s.oXOXoX+X|.v.C.,.C b b = 5 4.p.R.}.oX+X+XoXoX+XoX+XXXXX].1.N n -.T.R.H.Z.1.N b w * , 9 r.J.R.[.[.[./.~.v.Z w w O * 5 7.p.J.T.r.",
"s.oXoXoX+X.Xc.v.1.A M b # 4 4.s.R.}.+XoX+X+X+XoXoX+XXX XF.A b b -.s.K.V.C.2.Z n w * , 9 t.L.R.}.[.[.).`.v.C b w O > 8 7.p.L.T.r.",
"p.oXoXoX+XoXk.k.2.Y Z N z 4 3.p.R.{.oX+XoX+X+X+X+X+XXX`.<.M b w / 9.t.h.k.j.D M b # , 9 t.L.[.}.}.{. X].c.N b w O * 5 7.p.L.T.r.",
"s.oX+XoXoXoXj.<.1.*.G D Y } { t.T.}.oXoX+XoXoX+XoXXX X!.D n w w Q 9 7.d.2.2.%.Z N a , { t.L.[.}.}.}. X`.2.M w w O > 8 7.p.L.T.t.",
"s.+XoXoXoXoXx.Y T T T &.<.v.D.W.^.|..XXXXXOXOXXXXX X~.<.M b w w < 4 9 0.&.*.&.G S P 7 { t.L.[..X}..X X!.*.M w w O > 5 9.p.T.R.r.",
"s.oXoX+XoXoXS.Z Z Z Z S *.k.F.~.`.]. X X X X X X`.Z.%.N b w w e % , 8 7.D S S S I =.c.A.I.^.{.XX X`.H.c.G M b w O > 8 9.s.T.R.t.",
"p.oXoXoX+XoXoXL n n n n N S I =.2.k.k.v.c.k.2.*.S N n b w w w o % , 9 9.#.M M N C S %.2.C.C.c.2.,.&.*.&.S M w w O > 8 9.s.T.R.t.",
"p.oXoX+XoXoX}.I.V b b b w b b n n M M M M M n b w w b w w w q % % , 9 9.i.H n b b n M M N N M n n M :.G S M b w O , 9 9.J.T.R.t.",
"s.oXoXoXoXoXoX[.M.) e w w b w w b w w w w w b w w w w w e s = % * 4 4.t.K.n.J b b b b b w w w w r X.w.R T N b w O > 9 9.s.R.}.t.",
"p.oXoXoXoXoXoX[.L.t.4.1 i t q w b w w w w w w w y y j $ : * % % > 5 7.s.T.L.s.| g t e w b e u _ 6.7...j.<.C b w O , 8 9.J.R.}.t.",
"s.oXoXoXoXoXoX}.R.s.9.9 4 > * * * * * > > > > > > > * * % * * > 5 3.t.K.R.R.K.r.{ 4 > * > > 4 5 5 8 { F.k.Z b w O , 9 r.J.R.}.p.",
"s.oXoX+XoXoXoXoX[.T.p.9.9 5 , > > * > * * > * > * * > > > > 4 5 3.9.s.R.}.{.R.N.o.8 5 , , > , , 4 5 5.~.v.C w w + > 8 r.L.R.}.t.",
"p.oXoXoXoXoXoXoX}.[.L.p.r.4.9 8 5 5 4 4 4 , 4 4 4 4 4 5 5 9 9 4.r.s.T.[.XXXX XH.&.O.3.8 5 4 5 5 5 8 a.].j.M w w + , 9 9.L.R.}.p.",
"p.oXoXoXoXoXoXoXoX}.[.T.J.p.t.9.7.4.4.3.3.3.3.{ 3.3.4.4.7.9.t.p.L.T.[.oX]. X XF.=.>.r.7.4.4.3.4.7.r.'.`.T b w w : , 9 t.L.}.}.p.",
"p.oXoXoXoXoXoXoXoXoX}.{.R.T.L.J.s.p.p.p.p.t.p.p.p.p.p.p.s.J.T.T.R.{.oXoX!.H.H.v.,.,.y.t.r.t.p.p.K.{. Xk.N b b e * , 9 t.L.[.}.s.",
"s.oXoXoXoXoXoXoXoXoXoXoXoX}.[.[.R.R.R.T.T.T.T.T.T.T.R.R.R.[.[.}.oXoXoX+Xj.Y Y Y I *.k.G.Q.).|.XX X`.k.Z b w w s * 4 9 t.T.}.oXp.",
"p.oXoXoXoXoXoXoXoXoXoXoXoXoXoX}.oX}.}.}.}.}.}.}.}.}.}.}.}.oXoXoXoXoXoXoXA.N M M M Z G 1.v.F.F.C.<.S M b b w e < * , { t.T.}.+Xp.",
"p.oXoXoXoXoXoXoXoXoXoXoXoXoXoXoXoXoXoXoXoXoXoXoX+XoXoXoX+XoXoXoXoXoXoXoXoXK b w w b n M N C N M n b w w b b h * > 4 3.p.T.}.oXs.",
"p.oXoXoXoXoXoXoXoXoXoXoXoXoXoXoXoXoXoXoXoXoXoXoXoXoXoXoXoX+XoX+XoXoX+XoXoXU.+.w w w w w w w w w w w b w c 2 > * > 5 7.s.R.}.+Xp.",
"p.oXoXoXoXoXoXoXoXoXoXoXoXoXoXoXoXoXoX+XoX+XoXoXoXoXoX+XoXoXoX+X+XoX+XoX}.R.K.8.! a 0 t y 0 z c c / ^ 7 5 > * * , 9 9.L.[.oX+Xp.",
"p.oXoXoXoXoXoXoXoXoXoXoXoXoXoXoXoXoXoXoXoXoXoXoXoXoXoXoXoX+XoXoX+XoXoXoXoX}.T.t.4.5 > > > , 4 5 5 5 4 , > > > , 8 7.p.T.}.oX+Xp.",
"p.oXoXoXoXoXoX}.oXoXoXoXoXoXoXoXoXoXoXoXoX+XoXoXoX+XoXoXoXoXoXoXoXoXoX+XoX}.R.J.9.3.8 , , , , 4 , , , , , , 5 8 4.t.J.[.}.oX+Xs.",
"p.oXoXoXoXoXoXoXoXoXoXoXoXoXoXoXoXoXoXoXoXoXoXoXoXoXoXoXoXoXoXoXoXoXoXoXoXoX{.R.s.r.7.9 8 8 5 5 5 5 5 8 8 9 3.9.t.L.R.}.oX+XoXp.",
"p.}.oXoXoXoX}.oXoXoXoX}.oXoXoXoXoXoXoXoXoXoXoXoXoXoX+XoX+XoXoX+XoXoXoXoXoXoX}.[.T.J.p.t.9.7.7.7.4.7.7.7.9.r.p.J.T.R.}.oXoXoX+Xs.",
"p.oXoXoXoXoXoXoXoXoXoXoXoXoXoXoXoXoXoXoXoXoXoXoXoXoXoXoXoXoXoXoXoXoXoX+XoXoXoX}.[.[.T.L.J.J.s.s.s.s.s.J.J.L.T.R.[.}.oXoX+XoXoXp.",
"p.oXoX}.oXoXoXoXoXoXoXoXoXoXoXoXoXoXoXoXoXoXoXoXoXoXoXoXoXoXoXoX+XoXoXoXoXoX+XoXoX}.}.}.[.R.R.R.R.R.R.R.[.[.}.}.oXoXoX+XoX+XoXs.",
"p.oXoXoXoXoXoXoXoXoX}.oXoXoXoXoX}.oXoXoXoXoXoXoXoXoXoXoXoXoXoXoXoXoXoXoXoXoXoXoXoXoXoX}.oX}.}.}.}.}.}.oX}.oXoXoXoXoXoX+X+XoX+Xp.",
"p.oXoX}.oX}.oX}.oXoXoXoX}.oXoXoXoXoXoXoXoXoXoXoXoXoXoXoXoXoXoXoXoXoX+XoX+XoX+XoXoXoXoX+XoXoX+X+X+XoXoX+XoX+X+XoX+X+XoXoXoX+X+Xp.",
"p.oXoXoXoXoXoXoXoX}.oXoXoX}.oXoXoXoXoXoXoXoXoXoXoXoXoXoX+XoXoXoXoXoXoXoX+XoXoXoX+XoXoX+XoXoX+XoXoXoXoX+X+XoXoX+XoXoX+XoX+XoXoXp.",
"7.t.p.p.t.p.p.p.p.p.p.p.p.p.p.p.p.p.p.p.p.p.p.p.p.p.p.p.p.p.p.p.p.p.p.p.p.p.p.p.p.p.p.p.p.p.p.p.p.p.p.p.p.p.p.p.p.p.p.p.p.p.p.7."
};
