/* XPM */
static const char *cpp64[] = {
/* columns rows colors chars-per-pixel */
"64 64 145 2",
"   c #3C3C3C",
".  c #1F1F7F",
"X  c #2E2E5E",
"o  c #323256",
"O  c #38385C",
"+  c #272763",
"@  c #2E2E6A",
"#  c #232377",
"$  c #323262",
"%  c #3D3D61",
"&  c #303078",
"*  c #434343",
"=  c #4B4B4B",
"-  c #454551",
";  c #535353",
":  c #5B5B5B",
">  c #444468",
",  c #535360",
"<  c #55556D",
"1  c #636363",
"2  c #6C6C6C",
"3  c #6A6A78",
"4  c #747474",
"5  c #7C7C7C",
"6  c #0E0E9E",
"7  c #17178F",
"8  c #16169C",
"9  c #1C1C93",
"0  c #1A1A9E",
"q  c #0A0AAC",
"w  c #0000BE",
"e  c #1111A1",
"r  c #212181",
"t  c #2E2E82",
"y  c #29298A",
"u  c #24249C",
"i  c #2C2C93",
"p  c #3F3F9F",
"a  c #3636B0",
"s  c #3D3DBA",
"d  c #0000C1",
"f  c #0000CA",
"g  c #0000D2",
"h  c #0000DA",
"j  c #0000E2",
"k  c #0000EB",
"l  c #0000F2",
"z  c #0000FB",
"x  c #0B0BFF",
"c  c #1818E9",
"v  c #1717F3",
"b  c #1313FF",
"n  c #1C1CFF",
"m  c #2121CA",
"M  c #2B2BD3",
"N  c #2828D8",
"B  c #3333C9",
"V  c #3131D5",
"C  c #2424FF",
"Z  c #2B2BFF",
"A  c #3535FF",
"S  c #3C3CFF",
"D  c #49499E",
"F  c #4343A3",
"G  c #4B4BAB",
"H  c #4B4BBF",
"J  c #5252B3",
"K  c #6C6C85",
"L  c #4C4CC5",
"P  c #5252C4",
"I  c #5757C9",
"U  c #5D5DC8",
"Y  c #5B5BD0",
"T  c #4343FE",
"R  c #4C4CFF",
"E  c #5353FF",
"W  c #5959FF",
"Q  c #6161C2",
"!  c #6262CA",
"~  c #6A6ACF",
"^  c #6464D0",
"/  c #6464DC",
"(  c #6E6EDF",
")  c #7979CE",
"_  c #7070DD",
"`  c #6363E0",
"'  c #6C6CE2",
"]  c #6262FF",
"[  c #6C6CFF",
"{  c #7C7CE4",
"}  c #7D7DEE",
"|  c #7272FF",
" . c #7979FF",
".. c #838383",
"X. c #8B8B8B",
"o. c #939393",
"O. c #9B9B9B",
"+. c #A3A3A3",
"@. c #ABABAB",
"#. c #B4B4B4",
"$. c #BBBBBB",
"%. c #8181DA",
"&. c #9B9BD4",
"*. c #8D8DEB",
"=. c #8383FF",
"-. c #8B8BFE",
";. c #9393FF",
":. c #9B9BFF",
">. c #B8B8CD",
",. c #B3B3D8",
"<. c #A2A2FE",
"1. c #ACACFE",
"2. c #B3B3ED",
"3. c #BCBCEE",
"4. c #B2B2F4",
"5. c #B2B2FF",
"6. c #BCBCFF",
"7. c #C3C3C3",
"8. c #CBCBCB",
"9. c #CACADB",
"0. c #D3D3D3",
"q. c #DADADB",
"w. c #CBCBE7",
"e. c #CBCBE8",
"r. c #C3C3FE",
"t. c #CBCBFF",
"y. c #D3D3E5",
"u. c #D2D2EA",
"i. c #DEDEE2",
"p. c #D9D9EF",
"a. c #D3D3F2",
"s. c #D3D3FE",
"d. c #D9D9F2",
"f. c #DBDBFE",
"g. c #E3E3E3",
"h. c #E2E2ED",
"j. c #EBEBEB",
"k. c #E4E4F5",
"l. c #E3E3FE",
"z. c #E8E8F2",
"x. c #EBEBFE",
"c. c #F5F5F5",
"v. c #F3F3F9",
"b. c #F9F9F9",
"n. c None",
/* pixels */
"..O.O.O.O.O.O.O.O.O.O.O.o.o.O.o.o.o.o.o.o.o.o.X.o.o.X.X.X.X.X.X.X.X.X.X.X.X...X.X...X.............n.n.n.n.n.n.n.n.n.n.n.n.n.n.n.",
"+.8.7.8.7.7.7.7.7.$.$.7.$.$.$.$.$.#.#.#.#.#.#.@.@.@.@.@.@.@.@.+.+.+.+.+.O.+.O.O.O.O.O.o.O.o.o.o.#.5 n.n.n.n.n.n.n.n.n.n.n.n.n.n.",
"+.8.8.8.7.8.7.8.7.7.7.$.7.$.$.$.$.$.#.#.#.#.#.#.#.@.#.@.@.@.@.@.@.+.+.+.+.+.+.O.O.O.O.O.O.O.o.o.$.@...n.n.n.n.n.n.n.n.n.n.n.n.n.",
"+.8.8.8.8.8.8.8.7.7.7.7.7.$.7.$.$.$.$.$.#.$.#.#.#.#.@.#.@.@.@.@.@.+.@.+.+.+.+.+.O.+.+.O.O.O.O.o.7.7.#...n.n.n.n.n.n.n.n.n.n.n.n.",
"+.8.8.0.8.8.8.8.7.7.8.7.7.7.7.7.$.7.$.$.$.$.#.$.#.#.#.#.#.@.@.@.@.@.@.@.+.+.+.+.+.+.O.O.O.+.O.O.8.8.7.@...n.n.n.n.n.n.n.n.n.n.n.",
"+.0.0.8.0.8.8.8.8.8.8.7.7.7.7.7.7.$.$.7.$.$.$.$.#.$.#.#.#.#.#.@.#.@.@.@.@.@.+.@.@.+.+.+.+.O.+.O.8.0.8.7.#...n.n.n.n.n.n.n.n.n.n.",
"+.0.8.0.0.8.0.8.8.8.8.8.8.7.7.7.7.7.7.7.$.$.$.$.$.$.$.#.#.#.#.#.#.@.@.@.@.@.@.@.+.+.@.+.+.+.+.O.7.g.q.8.$.#.5 n.n.n.n.n.n.n.n.n.",
"@.q.q.0.0.0.0.8.0.8.8.8.8.8.8.8.8.7.7.7.7.7.7.$.$.$.$.$.$.#.$.#.#.#.#.@.#.@.@.@.@.@.@.+.+.+.+.+.7.j.g.0.8.7.#.5 n.n.n.n.n.n.n.n.",
"@.q.q.q.0.q.0.0.0.8.0.8.8.8.8.8.8.8.8.7.7.7.7.$.$.$.$.$.$.$.$.$.#.#.#.#.#.@.#.@.@.@.@.@.+.@.+.+.7.b.j.g.q.8.7.@...n.n.n.n.n.n.n.",
"@.q.q.q.q.0.q.0.q.0.0.8.0.8.8.8.8.8.8.8.7.7.7.7.7.7.7.7.$.$.$.$.$.#.$.#.#.#.#.@.#.@.@.@.@.@.@.+.8.b.b.j.g.0.8.7.#...n.n.n.n.n.n.",
"@.q.q.q.q.q.q.q.q.0.0.0.0.8.0.8.8.8.8.8.8.8.7.8.8.7.7.$.7.$.$.$.$.$.$.#.#.#.#.#.#.#.@.#.@.@.@.@.8.b.b.c.j.g.q.8.7.@...n.n.n.n.n.",
"@.g.g.g.q.q.q.q.q.0.q.0.q.0.q.0.8.0.8.8.8.8.8.7.8.7.7.7.7.7.7.$.$.$.$.$.$.$.#.#.#.#.@.#.#.@.@.@.q.b.b.b.c.j.g.0.8.7.@...n.n.n.n.",
"@.g.g.g.q.g.q.q.q.q.q.0.0.0.q.0.8.0.8.8.8.8.8.8.8.8.7.7.7.7.7.7.7.$.$.$.$.$.$.$.#.#.#.#.#.#.#.@.g.c.b.b.b.c.j.g.0.8.$.#...n.n.n.",
"@.j.g.g.g.g.g.q.i.i.q.q.q.q.i.h.k.x.x.l.l.l.f.s.u.e.9.8.7.8.7.7.7.7.7.7.$.$.$.$.$.$.$.#.#.#.#.#.g.c.c.c.b.b.b.j.g.q.8.7.#...n.n.",
"@.j.g.j.g.g.g.g.g.g.i.i.k.x.x.x.l.l.l.f.f.f.f.s.s.t.t.r.2.,.8.7.7.7.7.7.7.7.$.$.$.$.$.#.#.#.#.#.j.c.c.b.b.b.b.b.j.g.q.8.7.@...n.",
"#.j.j.g.j.g.g.g.g.g.z.x.x.x.l.f.s.t.6.5.1.1.1.6.r.r.r.5.;.R v ) 7.7.7.7.7.7.7.$.$.$.$.$.$.$.#.#.i.i.q.0.8.8.7.$.$.7.$.$.$.$.#...",
"#.j.j.j.j.j.j.g.j.x.x.x.l.s.r.:.W n l k k k l b R =.:.:.[ z h d $.$.7.7.7.7.7.$.7.$.7.$.$.$.$.$.$.#.#.#.#.#.@.@.@.@.@.@.@.+.+...",
"#.c.j.j.j.j.j.j.x.x.x.f.6.=.Z k g d d d d d d f g k x T z h d d +.#.$.7.7.7.8.7.7.7.7.$.7.$.$.$.$.#.$.$.#.#.#.#.#.#.#.@.@.@.@.X.",
"#.c.c.j.c.j.j.v.x.l.t.<.E l g d d w w w w d w w w d g j h d d w X.O.@.$.7.8.8.8.7.7.7.7.7.$.$.$.$.$.$.#.$.#.$.#.#.#.@.@.@.@.@.X.",
"#.c.c.c.c.j.x.x.l.t.:.T k f d w d w w w e e 8 w w d d d d d d d 2 5 o.@.$.8.8.8.8.8.7.8.7.7.7.$.$.$.$.$.$.$.#.$.#.#.#.#.#.#.#.X.",
"$.c.c.c.c.z.x.l.s.:.R l f w w d w 7 O           + 8 w w w w w w : 2 ..+.$.7.8.8.8.8.7.8.7.7.7.7.7.7.$.$.$.$.$.$.$.#.#.#.#.#.#.X.",
"#.b.b.b.c.x.l.s.1.] z f d w d q X         * *   * * $ 6 w w w w = : 5 O.$.8.8.8.8.8.8.8.8.8.8.7.7.7.7.$.$.7.$.$.$.$.$.#.#.#.#.X.",
"$.b.b.c.x.l.f.r.=.C j d w w w o     * * = ; : : 1 : ; = y w w w * ; 4 O.$.8.0.8.0.8.8.8.8.8.8.8.8.7.7.7.8.$.$.$.$.$.$.$.$.#.#.o.",
"#.b.b.b.x.f.s.<.W z g d w w $     * = ; 1 2 5 5 5 5 4 2 1 > w w * : 4 O.$.8.0.0.0.8.8.8.8.8.8.8.8.7.8.7.7.7.7.7.$.$.$.$.$.$.$.o.",
"$.b.b.v.f.f.r.-.A k d d w 6     * ; 1 4 ..O.+.@.@.@.O.o.5 4 < y ; : 4 w.1.{ 0.0.0.0.0.8.0.8.8.8.8.8.8.y.5.{ 7.7.7.7.$.7.$.$.$.o.",
"#.b.c.x.f.s.1.[ b h d w d $ * * ; 1 5 o.@.$.7.8.8.7.7.#.+.o.5 2 1 2 ..w.=./ q.0.0.0.0.0.0.0.8.0.8.8.8.y.;./ 7.7.7.$.7.7.7.$.$.o.",
"$.b.b.f.s.r.:.W z g d w q   * = 1 ..+.$.8.q.q.g.g.g.q.8.8.$.+.X.5 ..X.e. ./ 8.8.8.0.0.0.0.0.0.8.8.8.8.u.;./ $.$.$.$.7.$.7.7.7.O.",
"$.c.b.s.s.6.-.T l f w w 7 * = : 5 O.$.8.g.j.c.j.j.j.j.g.q.0.7.#.+.O.@.e.-.` 7.7.7.8.0.0.q.0.0.0.0.0.8.y.<.( $.@.$.$.$.8.7.7.7.o.",
"#.c.c.t.r.5.=.S l f w w # * ; 2 X.#.8.j.c.c.c.c.c.j.j.j.g.g.q.8.7.$.$.a.;._ #.@.#.7.8.q.q.q.0.0.q.0.0.p.1.%.@.+.@.#.$.7.8.7.7.o.",
"$.b.b.r.r.1. .A l f d w X = : 5 +.7.g.c.c.c.c.c.c.c.c.j.c.j.g.i.q.0.0.a.-._ +.+.@.$.8.q.q.q.q.q.0.0.0.y.1.) +.O.O.#.$.8.8.8.8.O.",
"$.b.c.6.6.1.| A l f w w X = 1 ..#.0.j.c.c.b.c.c.c.c.c.c.j.a.5.1.5.5.5.-.b j h k k l z } i.3.<.<.1.5.5.;.Z k j j k k h ! 8.8.8.O.",
"#.c.b.6.6.<.[ A l f w w $ ; 2 o.$.q.c.c.b.b.b.b.c.b.c.c.c.-.l k k z x l f d w w d d d ~ 0.( j j k l z k g d d d w w w Q 8.7.8.O.",
"$.b.c.5.5.<.[ S l g d w $ ; 4 O.7.g.c.c.b.b.b.b.b.b.b.c.c.c.c.j.g.0.0.V d G X...X.+.#.$.8.8.0.8.8.7.7.Q d G X.....o.+.#.$.$.7.o.",
"$.b.c.5.1.:.| S z g d w @ ; 4 +.8.g.c.b.b.b.c.b.b.b.b.b.c.c.j.g.q.8.$.M d G 5 5 ..o.+.#.#.$.7.7.7.$.#.J f F 5 4 5 X.o.+.@.@.$.o.",
"#.c.c.<.:.:.| T x j f d y : 5 +.8.g.c.b.c.b.b.b.c.b.c.b.b.c.j.g.8.$.@.N d F 4 4 4 ..o.O.@.@.#.$.#.@.+.L d p 4 2 4 5 ..X.o.+.#.o.",
"$.c.c.<.;.-.| R C l g d 8 : 5 +.8.g.c.b.b.b.c.b.b.b.b.b.b.b.j.g.8.7.#.N d F 4 2 4 ..o.+.@.@.$.$.$.@.+.L d p 4 2 4 5 ..o.O.+.#.o.",
"$.c.c.1.=.=.| E A z j f d , 5 +.8.g.c.c.b.b.b.b.b.b.b.b.b.c.c.j.i.8.8.V d G ..5 ..O.@.#.$.7.7.8.7.7.#.I d G ..5 ..X.O.+.@.#.7.O.",
"#.c.c.4.[ | [ E T n l h f i 4 +.8.g.c.b.b.c.c.b.b.c.c.b.b.b.c.j.j.i.q.B d J o.X.o.@.$.8.0.0.q.q.q.8.8.! d J X.X.o.O.#.7.7.7.8.O.",
"$.c.c.p.R W ] R T A x l j g 3 O.7.q.c.c.c.b.b.c.c.b.b.b.b.c.f.] c.j.j.g.0.$.+.O.+.$.0.g.j.j.g.j.g.g.g.q.8.#.+.o.O.#.8.8.0.q.q.+.",
"$.c.c.c.T Z T R T T Z x l l m X.#.q.j.c.b.b.c.b.b.b.c.b.c.x.;.k b.c.c.j.q.7.@.+.#.8.g.j.c.c.c.c.c.j.j.j.0.7.@.O.@.$.8.q.g.g.q.@.",
"#.c.c.j.*.z x C A S S S C b C Y @.8.g.c.b.b.c.b.b.c.b.v.x.t.b f j.j.j.j.q.8.#.#.$.8.j.c.b.c.c.c.c.c.j.j.q.8.#.#.#.7.0.g.g.g.g.@.",
"$.c.c.c.g.c k l x Z S T R R W | *.>.q.j.c.b.b.c.b.v.v.x.f. .h w q.q.q.q.q.0.7.7.8.q.j.c.b.c.c.c.c.c.c.j.g.0.7.$.7.8.q.g.j.g.g.@.",
"$.c.c.c.j.&.h j k z b S R ]  .-.<.5.t.p.z.v.v.x.x.x.x.l.1.l d w $.$.$.0.q.q.q.0.q.g.j.c.b.b.b.b.c.c.c.c.j.g.q.8.0.q.g.j.j.g.g.@.",
"#.c.c.c.j.0.P g g h k z Z R [ -.<.5.r.s.f.l.l.x.x.l.s.1.z f w d +.O.@.7.q.g.j.j.j.c.c.b.c.b.b.c.b.c.c.c.c.j.g.g.g.j.j.j.j.j.j.#.",
"$.c.c.c.c.g.7.s d d f h k z C R  .;.1.6.t.s.s.s.6.:.T k d d w w 5 ..o.$.q.j.c.c.c.c.c.b.b.b.b.b.b.b.b.b.c.c.c.c.j.j.c.j.j.j.j.#.",
"#.c.c.c.c.g.0.#.a w d d d g g j k z n S R R T b l g f d d w w d 1 2 X.#.0.j.c.b.b.b.b.b.b.b.b.b.c.b.b.c.b.c.c.c.c.c.c.c.c.j.j.@.",
"$.c.c.c.c.j.g.8.@.D w d d w d d d d d f f f d d w w w w w w w e ; 1 ..#.0.c.c.b.c.c.b.b.b.b.b.b.b.b.b.b.b.b.c.b.b.c.c.c.c.j.c.#.",
"#.c.c.v.c.c.j.q.$.+.K u w w w d d d w w w w d d w w w w w u % * = 1 ..#.0.j.b.c.b.b.b.c.c.b.b.c.b.c.b.b.b.b.b.b.b.b.b.c.c.c.c.#.",
"#.c.c.c.c.c.c.g.0.$.o.5 < t q w d w w w w w d w w w 0 & = * * * ; 2 X.#.q.j.c.b.c.b.b.c.b.b.c.b.b.b.b.b.c.b.b.b.c.b.b.b.c.c.c.#.",
"#.c.c.c.c.c.c.j.g.8.$.O.5 2 : = $ $ # 9 # # # O O * * * * * = = : 4 o.7.q.j.b.c.b.c.b.b.c.c.b.b.c.b.c.b.b.b.b.b.b.b.b.b.b.b.c.$.",
"$.c.c.c.c.c.c.j.j.g.0.$.O.X.4 1 : = = * * * * o * * = = = ; : 1 4 X.@.8.g.c.b.b.b.c.b.c.b.c.c.b.b.c.b.b.b.b.b.b.b.b.b.c.b.b.b.$.",
"#.c.c.c.c.c.c.c.c.j.g.0.7.@.O...5 2 1 : : : ; : ; : : : 1 2 5 ..O.#.7.q.j.c.c.b.b.b.b.c.b.b.b.c.c.b.b.c.c.b.b.b.c.b.b.b.c.b.b.#.",
"#.c.c.c.c.c.c.c.c.c.c.g.q.8.7.#.+.X.X.5 4 4 4 4 4 4 5 ....o.+.#.$.8.g.j.c.c.c.c.c.c.b.c.c.b.b.b.b.b.b.c.b.b.c.b.b.b.b.b.b.b.b.#.",
"#.c.j.c.c.c.c.c.c.c.c.c.j.g.q.8.7.$.#.@.@.O.O.O.O.+.@.@.#.$.7.0.q.g.j.c.c.b.c.b.c.b.c.b.b.b.c.b.b.c.b.c.b.c.b.c.c.c.b.b.b.b.c.$.",
"#.c.c.c.c.c.c.c.c.c.c.c.c.j.j.g.i.0.0.8.8.7.7.7.7.7.8.8.0.q.g.g.j.c.c.c.c.c.c.c.b.c.c.b.c.c.b.b.b.c.b.b.c.c.b.b.b.b.c.b.b.b.b.#.",
"#.c.c.c.c.c.c.c.c.c.c.c.c.c.c.c.c.j.g.g.g.g.i.i.g.g.g.j.j.c.c.c.c.c.c.c.b.c.b.b.c.c.b.c.b.c.c.c.c.b.b.c.b.b.c.b.b.c.b.b.c.c.b.$.",
"#.j.c.c.c.c.c.c.c.j.c.c.c.c.c.c.c.c.c.c.j.c.j.c.j.c.c.c.c.c.c.c.b.c.c.b.c.b.c.b.c.b.c.c.b.c.c.b.b.c.c.b.b.c.c.b.c.b.b.b.c.b.b.#.",
"#.c.c.c.c.c.j.c.c.c.c.c.c.c.c.c.c.c.c.c.c.c.c.c.c.c.c.c.c.c.b.c.c.c.c.c.c.c.c.c.b.c.c.b.b.c.c.b.c.c.b.c.c.b.b.c.c.b.c.b.b.c.c.$.",
"#.c.c.c.c.c.c.c.c.c.c.c.c.c.c.c.c.c.c.c.c.c.c.c.c.c.c.c.c.b.b.c.c.c.c.c.c.c.c.c.c.b.b.c.c.b.c.c.b.c.c.b.b.c.b.b.b.b.c.c.b.c.b.#.",
"#.c.j.c.c.c.c.c.c.c.c.j.j.c.c.c.c.c.c.c.c.c.c.c.c.c.c.c.c.c.c.c.b.c.c.b.b.c.c.b.c.c.c.b.b.c.c.b.b.c.b.c.c.b.c.b.c.b.b.b.c.b.c.$.",
"#.c.c.c.c.c.c.c.c.c.c.j.c.c.c.c.c.c.c.c.c.c.c.c.c.c.c.c.c.c.c.c.c.c.c.b.c.c.b.c.c.b.c.c.c.b.b.c.c.c.b.c.c.b.c.c.b.c.b.c.b.b.c.$.",
"#.c.j.c.c.j.c.j.c.c.c.c.c.c.c.c.c.c.j.c.c.c.c.c.c.c.c.c.c.c.c.c.c.c.c.c.c.c.c.c.c.c.c.c.c.c.c.c.b.c.c.b.c.b.b.c.c.b.c.b.c.b.b.#.",
"#.j.c.c.c.c.j.c.j.c.c.c.c.c.j.c.c.c.c.j.c.c.c.c.c.c.c.c.c.c.c.c.c.c.c.c.b.c.c.b.b.c.c.c.c.c.c.c.c.b.c.b.c.c.c.b.c.b.b.c.b.c.c.$.",
"o.#.#.#.#.#.#.#.#.#.#.#.#.#.#.#.#.#.#.#.#.#.#.#.#.$.#.#.#.#.#.#.#.$.#.#.#.#.#.#.#.#.#.#.$.#.$.#.#.#.#.#.$.#.#.#.#.#.#.#.#.#.#.X."
};
