/* XPM */
static const char *_csd64[] = {
/* columns rows colors chars-per-pixel */
"64 66 256 2",
"   c #000F00",
".  c #070705",
"X  c #0A0A1E",
"o  c #001401",
"O  c #141400",
"+  c #1E1414",
"@  c #0E0E2C",
"#  c #0D0D27",
"$  c #10102D",
"%  c #101030",
"&  c #002E00",
"*  c #003200",
"=  c #003B02",
"-  c #1A311A",
";  c #371A19",
":  c #34201E",
">  c #343400",
",  c #3B3B02",
"<  c #3E3E1E",
"1  c #29293D",
"2  c #2F3D2F",
"3  c #353526",
"4  c #1F1F5A",
"5  c #191948",
"6  c #2C2C4E",
"7  c #20205C",
"8  c #323248",
"9  c #26266D",
"0  c #262670",
"q  c #282874",
"w  c #2A2A7B",
"e  c #343473",
"r  c #004802",
"t  c #0B430B",
"y  c #005903",
"u  c #144A14",
"i  c #194E19",
"p  c #1B501B",
"a  c #016204",
"s  c #136E13",
"d  c #197C19",
"f  c #284728",
"g  c #2A4A2A",
"h  c #235523",
"j  c #275927",
"k  c #2A5C2A",
"l  c #384D38",
"z  c #305F30",
"x  c #356335",
"c  c #396839",
"v  c #501E1E",
"b  c #5C1919",
"n  c #4C2D2D",
"m  c #432F2F",
"M  c #4F3030",
"N  c #522020",
"B  c #5B2C2C",
"V  c #553A3A",
"C  c #660400",
"Z  c #781715",
"A  c #643636",
"S  c #693C3C",
"D  c #42420C",
"F  c #4C4C00",
"G  c #464611",
"H  c #474719",
"J  c #494915",
"K  c #4D4D1A",
"L  c #5F5F00",
"P  c #50501E",
"I  c #5C5C19",
"U  c #484826",
"Y  c #464625",
"T  c #525220",
"R  c #646400",
"E  c #7E7E11",
"W  c #6B4040",
"Q  c #704747",
"!  c #754C4C",
"~  c #795252",
"^  c #7E5A5A",
"/  c #2D2D82",
"(  c #30308C",
")  c #333393",
"_  c #35359A",
"`  c #38389F",
"'  c #3838A2",
"]  c #3B3BA9",
"[  c #4141BC",
"{  c #4545C5",
"}  c #4646C9",
"|  c #4848CF",
" . c #4949D1",
".. c #4F4FE1",
"X. c #008C00",
"o. c #009400",
"O. c #009C00",
"+. c #00A300",
"@. c #00AA00",
"#. c #00B300",
"$. c #00BB00",
"%. c #3C903C",
"&. c #2B862B",
"*. c #00C400",
"=. c #00CC00",
"-. c #0BC50B",
";. c #00D200",
":. c #00DB00",
">. c #0DD40D",
",. c #1CCD1C",
"<. c #14C814",
"1. c #1ADA1A",
"2. c #00E100",
"3. c #0BE20B",
"4. c #13E313",
"5. c #1BE41B",
"6. c #21DE21",
"7. c #35D335",
"8. c #23E523",
"9. c #2BE62B",
"0. c #34E734",
"q. c #3AE83A",
"w. c #3CE43C",
"e. c #4D9A4D",
"r. c #5DA35D",
"t. c #45D745",
"y. c #43E943",
"u. c #4BE94B",
"i. c #4BE74B",
"p. c #53EA53",
"a. c #5BEB5B",
"s. c #54E754",
"d. c #63EC63",
"f. c #6AED6A",
"g. c #73EE73",
"h. c #7AEE7A",
"j. c #7EF07E",
"k. c #9E1919",
"l. c #893E3B",
"z. c #AD3D3D",
"x. c #A52B2B",
"c. c #866161",
"v. c #B44E4E",
"b. c #BB5E5E",
"n. c #A8716F",
"m. c #E10000",
"M. c #E31515",
"N. c #E41A1A",
"B. c #E52525",
"V. c #E62B2B",
"C. c #E73434",
"Z. c #E83C3C",
"A. c #E94343",
"S. c #E94C4C",
"D. c #EA5252",
"F. c #EB5C5C",
"G. c #EC6262",
"H. c #ED6A6A",
"J. c #EE7373",
"K. c #EF7A7A",
"L. c #F07E7E",
"P. c #8E8E00",
"I. c #939300",
"U. c #9A9A00",
"Y. c #A3A300",
"T. c #ABAB00",
"R. c #A2A214",
"E. c #B2B200",
"W. c #BABA00",
"Q. c #B1B13B",
"!. c #C2C200",
"~. c #CACA00",
"^. c #CECE13",
"/. c #D3D300",
"(. c #DBDB00",
"). c #DCDC3A",
"_. c #D5D525",
"`. c #E1E100",
"'. c #E2E20B",
"]. c #E2E212",
"[. c #E4E41B",
"{. c #E5E524",
"}. c #E6E62C",
"|. c #E7E733",
" X c #E8E83A",
".X c #DEDE4E",
"XX c #DEDE53",
"oX c #C5C56D",
"OX c #E8E843",
"+X c #E9E94A",
"@X c #EAEA53",
"#X c #EBEB5B",
"$X c #ECEC63",
"%X c #EDED6B",
"&X c #EEEE74",
"*X c #EFEF7A",
"=X c #F0F07C",
"-X c #84B984",
";X c #83F083",
":X c #8BF18B",
">X c #93F293",
",X c #9BF39B",
"<X c #B5D4B5",
"1X c #A4F4A4",
"2X c #ABF4AB",
"3X c #B2F5B2",
"4X c #BBF6BB",
"5X c #C19A99",
"6X c #CC8787",
"7X c #C8A5A4",
"8X c #F08585",
"9X c #F18B8B",
"0X c #F29292",
"qX c #F29C9C",
"wX c #E0B7B7",
"eX c #F3A2A2",
"rX c #F5ABAB",
"tX c #F5B3B3",
"yX c #F6BCBC",
"uX c #D6D698",
"iX c #DADAA2",
"pX c #EFEF80",
"aX c #F0F083",
"sX c #F1F18B",
"dX c #F1F193",
"fX c #F3F39B",
"gX c #F3F3A2",
"hX c #F4F4AB",
"jX c #F5F5B3",
"kX c #F6F6BB",
"lX c #DDC8C7",
"zX c gray87",
"xX c #C1F7C1",
"cX c #C5F8C5",
"vX c #CBF8CB",
"bX c #D6E7D6",
"nX c #D3F9D3",
"mX c #DAFADA",
"MX c #EAD6D6",
"NX c #F7C1C1",
"BX c #F8C4C4",
"VX c #F8CCCC",
"CX c #F9D4D4",
"ZX c #FADBDB",
"AX c #EFEFD7",
"SX c #F7F7C1",
"DX c #F8F8C3",
"FX c #F8F8CA",
"GX c #F9F9D2",
"HX c #E8E8C4",
"JX c gray93",
"KX c #FBE4E4",
"LX c #FCEAEA",
"PX c #F2E0E0",
"IX c gray96",
"UX c #FDF2F2",
/* pixels */
"+ ! c.c.^ Q W A A A A A A A A S W S S S S S S S S S S W S S S V l c c x x x x x x z z z z k k k j j h h p p p p i u u t u t =   ",
"~ VXKXZXCXVXNXyXtXyXNXBXVXVXVXVXVXVXZXCXZXZXZXZXZXZXZXZXCXCXCXMXbXvXvXvXcXxX4X4X3X3X2X2X1X1X1X>X>X:X:X;Xj.j.h.f.f.d.a.a.p.i.t.* ",
"~ VXKXKXZXVXVXBXBXVXVXVXCXCXZXZXKXKXKXKXLXLXLXLXLXLXLXKXKXKXKXPXbXmXmXnXvXvXvXcXxX4X4X3X2X2X1X1X1X>X>X:X:X;Xj.h.g.f.f.d.a.s.t.* ",
"! NXZXZXVXyXrXeXeXeXeXrXrXrXtXtXtXyXyXyXyXyXyXNXNXyXNXyXyXyXyXwX<X3X3X2X2X2X1X1X1X,X>X>X>X:X:X;Xj.j.h.g.f.f.d.a.a.p.u.u.y.w.7.= ",
"A rXVXVXyXqX8XJ.H.J.J.L.L.L.L.8X8X9X9X9X9X0X0X0X0X0X0X9X9X9X9X6X-X;Xj.j.j.h.g.g.g.d.d.d.a.a.a.p.u.u.u.y.q.0.0.9.9.9.9.8.8.6.,.* ",
"B eXVXBXrX9XH.F.S.D.D.D.F.F.F.F.G.F.F.G.G.F.H.G.G.G.G.G.G.G.F.b.r.a.a.p.p.p.p.u.u.u.u.u.y.y.y.q.q.q.0.0.0.0.0.9.9.8.8.8.8.1.,.* ",
"B eXVXBXrX8XH.S.A.A.S.S.S.S.S.S.S.D.D.S.D.D.D.D.D.D.D.D.D.D.S.v.e.u.u.u.u.u.y.y.y.q.q.q.q.q.0.0.0.0.0.9.9.8.8.8.8.8.5.5.4.1.<.* ",
"B eXVXBXrX8XF.Z.C.C.C.C.C.Z.C.C.Z.Z.Z.A.Z.Z.A.A.A.Z.Z.A.Z.Z.A.z.%.q.q.q.0.0.0.0.0.0.0.0.9.9.9.9.8.8.8.5.5.8.5.5.4.4.4.4.4.>.-.* ",
"N qXVXBXeXJ.S.C.B.B.B.B.V.V.V.V.V.V.V.V.C.V.V.V.V.V.V.C.V.V.V.x.&.9.9.9.9.9.8.8.8.8.8.8.8.5.5.5.5.4.4.4.4.4.4.3.3.3.3.2.2.;.$.* ",
"N 0XVXNXeXJ.A.B.M.N.M.N.M.N.M.M.N.N.N.N.N.N.N.N.N.N.N.N.N.N.N.k.d 4.4.4.4.5.4.4.4.4.4.3.3.3.3.3.3.2.3.3.2.2.2.2.2.2.2.2.2.;.$.* ",
"v 0XVXNXqXH.C.M.m.m.m.k.n n m m n M M M M M M M n M M M n M n m g l g g g g g g g g f f g f g f g f g f s 2.2.2.2.2.2.2.2.=.$.* ",
"N 0XVXNXqXH.C.M.m.m.m.b zXIXIXIXIXIXIXIXIXIXIXIXIXIXIXIXIXIXIXIXIXIXIXIXIXIXIXIXIXIXIXIXIXIXIXIXIXIXIXJXi 2.2.2.2.2.2.2.2.=.$.* ",
"v 0XCXNXeXH.Z.M.m.m.m.b zXIXIXIXIXIXIXIXIXIXIXIXIXIXIXIXIXIXIXIXIXIXIXIXIXIXIXIXIXIXIXIXIXIXIXIXIXIXIXJXi 2.2.2.2.2.2.2.2.*.$.* ",
"N qXZXBXeXH.Z.M.m.m.m.b zXIXIXIXIXIXIXIXIXIXIXIXIXIXIXIXIXIXIXIXIXIXIXIXIXIXIXIXIXIXIXIXIXIXIXIXIXIXIXJXi 2.2.2.2.2.2.2.2.*.#.* ",
"v qXZXBXeXJ.Z.M.m.m.m.b zXIXIXIXIXIXIXIXIXIXIXIXIXIXIXIXIXIXIXIXIXIXIXIXIXIXIXIXIXIXIXIXIXIXIXIXIXIXIXJXi 2.2.2.2.2.2.2.2.*.#.* ",
"v qXZXVXeXH.Z.M.m.m.m.b zXIXIXIXIXIXIXIXIXIXIXIXIXIXIXIXIXIXIXIXIXIXIXIXIXIXIXIXIXIXIXIXIXIXIXIXIXIXIXJXi 2.2.2.2.2.2.2.2.*.@.* ",
"N qXKXVXeXJ.Z.M.m.m.m.b zXIXIXIXIXIXIXIXIXIXIXIXIXIXIXIXIXIXIXIXIXIXIXIXIXIXIXIXIXIXIXIXIXIXIXIXIXIXIXJXi 2.2.2.2.2.2.2.2.*.@.* ",
"N qXKXVXrXJ.Z.M.m.m.m.b zXIXIXIXIXIXIXIXIXIXIXIXIXIXIXIXIXIXIXIXIXIXIXIXIXIXIXIXIXIXIXIXIXIXIXIXIXIXIXJXi 2.2.2.2.2.2.2.2.$.@.* ",
"N qXLXVXrXJ.Z.M.m.m.m.b zXIXIXIXIXIXIXIXIXIXIXIXIXIXIXIXIXIXIXIXIXIXIXIXIXIXIXIXIXIXIXIXIXIXIXIXIXIXIXJXi 2.2.2.2.2.2.2.:.$.@.& ",
"N eXLXVXrXJ.Z.M.m.m.m.b zXIXIXIXIXIXIXIXIXIXIXIXIXIXIXIXIXIXIXIXIXIXIXIXIXIXIXIXIXIXIXIXIXIXIXIXIXIXIXJXi 2.2.2.2.2.2.2.:.$.+.* ",
"N eXUXVXrXJ.Z.M.m.m.m.b zXIXIXIXIXIXIXIXIXIXIXIXIXIXIXIXIXIXIXIXIXIXIXIXIXIXIXIXIXIXIXIXIXIXIXIXIXIXIXJXi 2.2.2.2.2.2.2.:.$.+.* ",
"N eXUXVXrXJ.Z.M.m.m.m.b zXIXIXIXIXIXIXIXIXIXIXIXIXIXIXIXIXIXIXIXIXIXIXIXIXIXIXIXIXIXIXIXIXIXIXIXIXIXIXJXi 2.2.2.2.2.2.2.:.$.+.& ",
"N eXUXVXrXL.Z.N.m.m.m.b zXIXIXIXIXIXIXIXIXIXIXIXIXIXIXIXIXIXIXIXIXIXIXIXIXIXIXIXIXIXIXIXIXIXIXIXIXIXIXJXi 2.2.2.2.2.2.2.:.#.O.& ",
"v eXUXVXrXJ.Z.M.m.m.m.b zXIXIXIXIXIXIXIXIXIXIXIXIXIXIXIXIXIXIXIXIXIXIXIXIXIXIXIXIXIXIXIXIXIXIXIXIXIXIXJXi 2.2.2.2.2.2.2.:.#.O.& ",
"N qXUXVXrXJ.A.M.m.m.m.b zXIXIXIXIXIXIXIXIXIXIXIXIXIXIXIXIXIXIXIXIXIXIXIXIXIXIXIXIXIXIXIXIXIXIXIXIXIXIXJXi 2.2.2.2.2.2.2.:.#.o.* ",
"N eXUXVXrXK.Z.M.m.m.m.b zXIXIXIXIXIXIXIXIXIXIXIXIXIXIXIXIXIXIXIXIXIXIXIXIXIXIXIXIXIXIXIXIXIXIXIXIXIXIXJXi 2.2.2.2.2.2.2.;.#.o.& ",
"v eXUXVXrXJ.Z.M.m.m.m.b zXIXIXIXIXIXIXIXIXIXIXIXIXIXIXIXIXIXIXIXIXIXIXIXIXIXIXIXIXIXIXIXIXIXIXIXIXIXIXJXi 2.2.2.2.2.2.2.:.#.o.* ",
"N eXLXVXrXJ.Z.M.m.m.m.b zXIXIXIXIXIXIXIXIXIXIXIXIXIXIXIXIXIXIXIXIXIXIXIXIXIXIXIXIXIXIXIXIXIXIXIXIXIXIXJXi 2.2.2.2.2.2.2.;.@.o.& ",
"N qXLXVXrXJ.Z.M.m.m.m.b zXIXIXIXIXIXIXIXIXIXIXIXIXIXIXIXIXIXIXIXIXIXIXIXIXIXIXIXIXIXIXIXIXIXIXIXIXIXIXJXi 2.2.2.2.2.2.2.=.@.o.& ",
"N qXKXVXeXJ.Z.M.m.m.m.b zXIXIXIXIXIXIXIXIXIXIXIXIXIXIXIXIXIXIXIXIXIXIXIXIXIXIXIXIXIXIXIXIXIXIXIXIXIXIXJXi 2.2.2.2.2.2.2.;.@.X.& ",
"N qXKXBXrXH.Z.M.m.m.m.b zXIXIXIXIXIXIXIXIXIXIXIXIXIXIXIXIXIXIXIXIXIXIXIXIXIXIXIXIXIXIXIXIXIXIXIXIXIXIXJXi 2.2.2.2.2.2.2.=.@.X.& ",
"N qXZXVXeXJ.Z.M.m.m.m.b zXIXIXIXIXIXIXIXIXIXIXIXIXIXIXIXIXIXIXIXIXIXIXIXIXIXIXIXIXIXIXIXIXIXIXIXIXIXIXJXi 2.2.2.2.2.2.:.=.@.X.& ",
": 5XMXlX7Xn.l.Z C C C ; zXIXIXIXIXIXIXIXIXIXIXIXIXIXIXIXIXIXIXIXIXIXIXIXIXIXIXIXIXIXIXIXIXIXIXIXIXIXIXJX- a a a a a a a y r = o ",
"g uXAXHXiXoXQ.R.U.U.U.H zXIXIXIXIXIXIXIXIXIXIXIXIXIXIXIXIXIXIXIXIXIXIXIXIXIXIXIXIXIXIXIXIXIXIXIXIXIXIXJX1 _ _ _ _ _ _ _ ( 0 7 X ",
"T dXGXDXfX%X X'.`.`.`.I zXIXIXIXIXIXIXIXIXIXIXIXIXIXIXIXIXIXIXIXIXIXIXIXIXIXIXIXIXIXIXIXIXIXIXIXIXIXIXJX6 ..............| ' / % ",
"T dXGXDXfX%X X].`.`.(.I zXIXIXIXIXIXIXIXIXIXIXIXIXIXIXIXIXIXIXIXIXIXIXIXIXIXIXIXIXIXIXIXIXIXIXIXIXIXIXJX6 ..............} ' / $ ",
"T dXFXkXfX$X X].`.`.`.I zXIXIXIXIXIXIXIXIXIXIXIXIXIXIXIXIXIXIXIXIXIXIXIXIXIXIXIXIXIXIXIXIXIXIXIXIXIXIXJX6 ..............} ' w % ",
"K sXFXkXfX$X X].`.`.`.I zXIXIXIXIXIXIXIXIXIXIXIXIXIXIXIXIXIXIXIXIXIXIXIXIXIXIXIXIXIXIXIXIXIXIXIXIXIXIXJX6 ..............} ' w % ",
"P sXDXkXfX$X X].`.`.`.I zXIXIXIXIXIXIXIXIXIXIXIXIXIXIXIXIXIXIXIXIXIXIXIXIXIXIXIXIXIXIXIXIXIXIXIXIXIXIXJX6 ..............} ` w % ",
"P sXkXkXdX$X|.].`.`.`.I zXIXIXIXIXIXIXIXIXIXIXIXIXIXIXIXIXIXIXIXIXIXIXIXIXIXIXIXIXIXIXIXIXIXIXIXIXIXIXJX6 ..............} ` w $ ",
"K sXkXjXdX#X|.].`.`.`.I PXIXIXIXIXIXIXIXIXIXIXIXIXIXIXIXIXIXIXIXIXIXIXIXIXIXIXIXIXIXIXIXIXIXIXIXIXIXIXJX6 ..............} _ w $ ",
"K aXkXjXdX#X|.'.`.`.`.I bXIXIXIXIXIXIXIXIXIXIXIXIXIXIXIXIXIXIXIXIXIXIXIXIXIXIXIXIXIXIXIXIXIXIXIXIXIXIXJX6 ..............{ ` q $ ",
"K aXjXhXsX#X|.'.`.`.`.I zXIXIXIXIXIXIXIXIXIXIXIXIXIXIXIXIXIXIXIXIXIXIXIXIXIXIXIXIXIXIXIXIXIXIXIXIXIXIXJX6 ..............} _ q $ ",
"K =XjXhXsX@X|.'.`.`.`.I zXIXIXIXIXIXIXIXIXIXIXIXIXIXIXIXIXIXIXIXIXIXIXIXIXIXIXIXIXIXIXIXIXIXIXIXIXIXIXJX6 ..............{ _ q $ ",
"H =XhXhXsX@X|.'.`.`.`.I AXIXIXIXIXIXIXIXIXIXIXIXIXIXIXIXIXIXIXIXIXIXIXIXIXIXIXIXIXIXIXIXIXIXIXIXIXIXIXJX6 ..............{ _ 0 $ ",
"K =XhXgXaX@X}.'.`.`.`.I zXIXIXIXIXIXIXIXIXIXIXIXIXIXIXIXIXIXIXIXIXIXIXIXIXIXIXIXIXIXIXIXIXIXIXIXIXIXIXJX6 ..............{ _ 0 $ ",
"J *XgXgXpX@X}.'.`.`.(.I zXIXIXIXIXIXIXIXIXIXIXIXIXIXIXIXIXIXIXIXIXIXIXIXIXIXIXIXIXIXIXIXIXIXIXIXIXIXIXJX6 ..............{ _ 0 $ ",
"J &XgXfXpX+X}.'.`.(.(.I zXIXIXIXIXIXIXIXIXIXIXIXIXIXIXIXIXIXIXIXIXIXIXIXIXIXIXIXIXIXIXIXIXIXIXIXIXIXIXJX6 ............ .{ _ 9 $ ",
"J &XfXfX=X+X}.'.`.`.`.I MXIXIXIXIXIXIXIXIXIXIXIXIXIXIXIXIXIXIXIXIXIXIXIXIXIXIXIXIXIXIXIXIXIXIXIXIXIXIXJX6 ..............} _ 9 $ ",
"J %XfXdX=XOX}.`.`.`.`.I zXIXIXIXIXIXIXIXIXIXIXIXIXIXIXIXIXIXIXIXIXIXIXIXIXIXIXIXIXIXIXIXIXIXIXIXIXIXIXJX6 ..............} _ 9 @ ",
"G %XdXdX*X X}.`.`.`.`.I zXIXIXIXIXIXIXIXIXIXIXIXIXIXIXIXIXIXIXIXIXIXIXIXIXIXIXIXIXIXIXIXIXIXIXIXIXIXIXJX6 ..............{ _ 9 @ ",
"G %XsXsX&X X}.'.`.`.`.I zXIXIXIXIXIXIXIXIXIXIXIXIXIXIXIXIXIXIXIXIXIXIXIXIXIXIXIXIXIXIXIXIXIXIXIXIXIXIXJX6 ..............[ _ 9 @ ",
"G $XsXsX&X X}.`.`.`.`.I zXIXIXIXIXIXIXIXIXIXIXIXIXIXIXIXIXIXIXIXIXIXIXIXIXIXIXIXIXIXIXIXIXIXIXIXIXIXIXJX6 ..............{ _ 9 # ",
"G $XaXaX%X X{.`.`.`.`.I zXIXIXIXIXIXIXIXIXIXIXIXIXIXIXIXIXIXIXIXIXIXIXIXIXIXIXIXIXIXIXIXIXIXIXIXIXIXIXJX6 ..............{ _ 9 $ ",
"G #XaXaX%X X{.`.`.`.`.I zXIXIXIXIXIXIXIXIXIXIXIXIXIXIXIXIXIXIXIXIXIXIXIXIXIXIXIXIXIXIXIXIXIXIXIXIXIXIXJX6 ..............{ ) 9 $ ",
"D #X=XaX$X|.{.`.`.`.`.E Y U Y Y U U U U U U U U U U U U U U U 3 1 8 8 8 8 8 8 8 8 8 8 8 8 8 8 8 8 8 8 8 e ..............{ _ 9 $ ",
"D @X&X=X#X X{.`.`.`.`.`.`.`.`.`.`.`.`.`.`.`.`.`.`.`.`.`.`.`.`.R ) ......................................................{ _ 9 $ ",
"D @X&X=X#X|.[.`.`.`.`.`.(.`.`.`.`.`.`.`.`.`.`.`.`.`.`.`.`.`.`.R ) ......................................................{ _ 9 $ ",
"D @X%X&X#X|.[.`.`.`.`.`.`.`.`.`.`.`.`.`.`.`.`.`.`.`.`.`.`.`.`.R ) ......................................................{ _ 9 $ ",
"D +X%X%X@X}.[.`.`.`.`.`.`.`.`.`.`.`.`.`.`.`.`.`.`.`.`.`.`.`.`.R ) ......................................................{ _ 0 $ ",
"D +X$X%X+X}.[.`.`.`.`.`.`.`.`.`.`.`.`.`.`.`.`.`.`.`.`.`.`.`.`.R ) ......................................................{ _ q $ ",
", OX$X$X+X}.[.`.`.`.`.`.`.`.`.`.`.`.`.`.`.`.`.`.`.`.`.`.`.`.`.R ) ......................................................{ ` q $ ",
", OX#X#XOX}.[.(.`.`.(.`.`.(.`.`.(.(.`.(.`.`.`.`.(.(.(.(.(.(.(.R (  .|  . . . .| |  . .| | | | | | | | | | |  . . . . . .[ ) 9 @ ",
", OX@X#XOX}.].(.(.(././././.~.~.~.~.!.!.!.!.W.W.W.E.W.E.T.T.T.F q ] ] ] ] ] ' ' ' ' ' ' _ ' ` ` ` ` ` ` ' ' ' ' ' ' ' ' ) q 4 @ ",
", |..XXX)._.^.~.!.!.!.W.W.W.E.E.T.T.T.T.Y.Y.Y.U.U.U.I.I.I.P.P., 4 / / / / w w w w q q q 0 0 0 0 0 0 0 0 q q q q w w w w q 4 5 # ",
". J P P J D , > > , , > , > > > , > > > > > > > > > > > > > > O X % % % % % % % @ % % % % % % % @ % % % % % % % % % % % % @ @ . "
};
