/* XPM */
static const char *d64[] = {
/* columns rows colors chars-per-pixel */
"64 64 135 2",
"   c gray21",
".  c #3E3E3E",
"X  c #443939",
"o  c #4B3636",
"O  c #542A2A",
"+  c #592424",
"@  c #5A2F2F",
"#  c #533333",
"$  c #5C3232",
"%  c #5A3939",
"&  c #771717",
"*  c #731E1E",
"=  c #6D2222",
"-  c #6E2E2E",
";  c #603535",
":  c #663B3B",
">  c #6E3737",
",  c #762121",
"<  c #424242",
"1  c #4D4D4D",
"2  c #535353",
"3  c #5A5A5A",
"4  c #674444",
"5  c #634E4E",
"6  c #7E4949",
"7  c #636363",
"8  c #6A6A6A",
"9  c #737373",
"0  c #7C7C7C",
"q  c #8F0F0F",
"w  c #841414",
"e  c #831919",
"r  c #8C1111",
"t  c #950B0B",
"y  c #9D0808",
"u  c #901111",
"i  c #9B1C1C",
"p  c #8C2222",
"a  c #8C3D3D",
"s  c #953C3C",
"d  c #A20303",
"f  c #A90000",
"g  c #B20000",
"h  c #B00F0F",
"j  c #BA0000",
"k  c #A52626",
"l  c #AF3030",
"z  c #B73737",
"x  c #9F6464",
"c  c #B34141",
"v  c #AF7272",
"b  c #B06868",
"n  c #C20000",
"m  c #CB0000",
"M  c #D30000",
"N  c #DB0000",
"B  c #CE2A2A",
"V  c #C53131",
"C  c #D03D3D",
"Z  c #E00000",
"A  c #E20A0A",
"S  c #E31111",
"D  c #E41C1C",
"F  c #E52323",
"G  c #E62C2C",
"H  c #E73232",
"J  c #E83B3B",
"K  c #CF7171",
"L  c #DC7878",
"P  c #E94343",
"I  c #EA4B4B",
"U  c #EA5353",
"Y  c #EB5D5D",
"T  c #EC6464",
"R  c #ED6C6C",
"E  c #EE7474",
"W  c #EF7A7A",
"Q  c #F07D7D",
"!  c #838383",
"~  c #8C8C8C",
"^  c #938787",
"/  c #939393",
"(  c #9B9B9B",
")  c #A98B8B",
"_  c #A3A3A3",
"`  c #AEA6A6",
"'  c #ABABAB",
"]  c #B0A2A2",
"[  c #BBA9A9",
"{  c #B4B4B4",
"}  c #BABABA",
"|  c #DA9696",
" . c #C3A4A4",
".. c #C3BCBC",
"X. c #CFB1B1",
"o. c #E98B8B",
"O. c #E49393",
"+. c #F08383",
"@. c #F18B8B",
"#. c #F29292",
"$. c #F39A9A",
"%. c #E7A7A7",
"&. c #E1BEBE",
"*. c #EBB3B3",
"=. c #F4A4A4",
"-. c #F5AAAA",
";. c #F6B3B3",
":. c #F6BCBC",
">. c #C3C3C3",
",. c #CBCBCB",
"<. c #D4C4C4",
"1. c #D2CCCC",
"2. c #D3D3D3",
"3. c #D9D4D4",
"4. c #DBDBDB",
"5. c #E7CACA",
"6. c #EACDCD",
"7. c #ECD1D1",
"8. c #EADDDD",
"9. c #F8C4C4",
"0. c #F9CBCB",
"q. c #F4D6D6",
"w. c #F5DBDB",
"e. c #F9D3D3",
"r. c #FADADA",
"t. c #E3E3E3",
"y. c #E9E0E0",
"u. c #EBEBEB",
"i. c #F7E9E9",
"p. c #FBE2E2",
"a. c #FCEBEB",
"s. c #F5F5F5",
"d. c #FBF3F3",
"f. c #FAFAFA",
"g. c None",
/* pixels */
"! ( ( ( _ ( ( ( ( ( ( ( / ( / / / / / / / / / ~ / / ~ ~ ~ ~ ~ ~ ~ ~ ~ ! ~ ~ ! ! ! ! ~ ! ! ! ! ! 0 g.g.g.g.g.g.g.g.g.g.g.g.g.g.g.",
"_ ,.>.,.>.>.>.>.>.} >.} } } } } { } { { { { { ' ' ' ' ' ' ' _ _ _ _ _ _ _ ( ( _ ( ( ( / / ( / / { 0 g.g.g.g.g.g.g.g.g.g.g.g.g.g.",
"_ ,.,.,.>.>.>.>.>.>.>.} } } } } } } { } { { { { { ' ' ' ' ' ' ' ' _ _ _ _ ( _ _ ( ( ( ( ( ( / / } ' ! g.g.g.g.g.g.g.g.g.g.g.g.g.",
"_ ,.,.,.,.,.,.,.>.>.>.>.>.>.>.} } } } } } { { { { { { { ' ' ' ' ' _ ' _ _ _ _ _ _ _ ( ( ( ( ( ( >.>.{ ! g.g.g.g.g.g.g.g.g.g.g.g.",
"_ ,.2.,.,.,.,.,.,.>.,.>.>.>.>.} } >.} } } { } } { { { ' { ' ' { ' ' ' ' ' _ ' _ _ _ _ _ _ ( ( ( ,.,.>.' ! g.g.g.g.g.g.g.g.g.g.g.",
"_ 2.2.,.2.,.,.,.,.,.,.>.>.,.>.>.>.} >.} } } } } { } } { { { ' { { ' ' ' ' _ ' _ _ _ _ ( _ ( _ ( ,.2.,.>.' ! g.g.g.g.g.g.g.g.g.g.",
"_ 2.2.2.2.,.2.,.,.,.,.,.,.>.>.>.>.>.>.} } >.} } } } } { } { { { { ' ' ' ' ' ' _ _ ' _ _ _ _ _ ( >.t.4.,.>.' ! g.g.g.g.g.g.g.g.g.",
"' 2.4.2.2.2.2.,.2.,.,.,.,.,.,.,.,.>.>.>.>.>...} } } } } } { { { { { { ' { ' ' ' ' ' ' _ _ _ _ _ >.u.8.2.,.>.' ! g.g.g.g.g.g.g.g.",
"' 4.4.2.2.2.2.2.2.,.,.,.,.,.,.,.>.,.>.>.>.>.>.>.} >.} } } } } } } { { { { ' ' ' ' ' ' ' _ _ ' _ >.f.u.t.2.,.>.' ! g.g.g.g.g.g.g.",
"' 4.4.4.4.4.3.2.2.2.2.2.2.2.,.,.,.,.,.,.,.>.>.>.>.>.>.} } } } } } { } { { { { { ' { ' ' ' ' ' _ ,.f.f.u.t.4.,.>.{ ! g.g.g.g.g.g.",
"' 4.4.4.4.4.4.4.3.2.2.2.2.2.,.2.2.,.,.,.>.>.,.,.>.>.>...>.} >.} } } { } } { { { ' { ' { ' ' ' ' 2.s.f.s.u.t.2.,.>.' ! g.g.g.g.g.",
"' t.t.t.4.4.4.4.4.3.4.2.2.2.2.4.3.3.3.3.3.3.1.1.1.1.1.,.1.1.>.} } } } } { } } { { { { ' { ' ' ' 4.s.f.f.f.u.t.2.,.>.' ! g.g.g.g.",
"' t.t.t.4.t.4.4.4.4.4.4.3.2.t.d.a.a.p.p.p.p.p.p.p.p.p.p.r.r.r.r.r.7.5.<...} } { } { { { { { ' { 4.s.s.f.f.f.u.t.2.,.} { ! g.g.g.",
"{ t.t.t.t.t.t.4.4.4.4.4.4.3.8.a.a.p.r.r.r.r.r.r.r.r.r.r.r.r.r.r.e.e.0.9.9.*.X.} { } { { { { { { u.s.f.s.s.f.f.u.8.4.,.>.{ ! g.g.",
"{ t.u.t.t.t.t.4.t.t.4.4.4.4.7.r.p.e.9.:.:.;.;.;.-.-.=.-.-.;.;.:.:.9.9.9.:.-.$.o. .} { } { { { { u.s.s.s.s.f.f.f.u.t.2.,.>.' ! g.",
"{ u.u.u.t.u.u.t.t.t.t.t.4.4.6.0.9.-.+.E R Y J S N N M M N Z D P R +.#.=.=.=.$.+.T K { { } { } { t.4.4.2.2.,.>.} >.} >.} } } { ! ",
"{ u.u.u.u.u.u.t.t.t.t.t.8.4.6.:.;.#.Y P G N m g f f f f f f g j M Z J T W @.@.W T H C ] { { { } { { { { { { ' ' { ' ' ' ' ' _ ! ",
"{ u.u.u.u.u.u.u.u.t.t.t.t.t.6.:.;.#.T J N m j d f f f f f f f f g j N S P Y R R Y H Z V _ { } } } } } } { { { { { ' ' ' ' ' ' ~ ",
"{ s.s.s.s.u.u.u.u.u.u.u.u.t.6.:.;.#.T J N j f d d f f d f f f f f f j M A J I Y U J A M c _ ' } } } } { { { { { { { { { ' ' ' ~ ",
"} s.s.u.s.u.s.u.u.u.u.u.u.t.6.:.;.#.Y H N j f f O         O + & d f f n M D J I U P N M n x _ { } } >.} } } } { { { { ' { { ' ~ ",
"} s.s.s.s.s.u.s.u.u.u.u.u.u.6.:.;.#.Y H M g f f O   . . . . . . X * f g m N H I I P D M n h ^ _ { } >.} } } { } } { { { { { { ~ ",
"{ f.f.s.s.s.s.s.s.u.s.u.u.u.q.:.;.#.Y H M g f f O . . 1 2 2 2 2 1 1 % g n N F I I I G N n g s / _ { } } } >.>.} } } } { { { { ~ ",
"} f.f.f.f.f.s.s.s.s.s.u.u.u.7.:.;.#.Y H M g f f O < 2 3 7 8 9 8 8 7 3 4 n N D I I I J N n g d ! ( ' } >.>.>.} } } >.} } } { { / ",
"{ f.f.f.s.f.s.s.s.s.s.s.s.s.7.:.;.#.T H M f f f @ 1 3 9 ! ( ( ( / ~ ! 9 a N G U Y I J A m g f 6 ! _ { >.>.>.>.>.>.} } } } } } / ",
"} f.f.f.f.s.f.f.f.s.f.s.s.s.q.:.;.#.T H M g f f $ 1 8 ! _ { } } } ' _ / ! B I T T U J D m g f p 9 / ' } >.>.>.>.>.>.>.>.} { } / ",
"{ f.s.f.f.f.f.f.s.f.f.f.s.s.q.:.;.#.Y H M g f f $ 2 9 / { ,.2.2.2.,.>.} _ v T R E Y I F M j f d 7 ! _ } >.,.,.>.>.>.>.>.>.>.>./ ",
"{ f.f.f.s.f.s.f.s.f.f.s.f.f.q.:.;.#.Y H M f f f $ 3 9 ( >.2.t.t.4.4.4.,...` W +.+.T I H M g f f 2 9 / ' >.>.,.>.>.,.>.>.} >.>./ ",
"} f.s.f.f.f.f.f.f.f.f.f.f.f.q.:.;.#.Y H M f f f $ 3 9 ( >.2.t.t.t.t.t.4.2.>.O.#.@.E U H N g f f : 8 ~ ' >.,.,.,.>.>.>.>.>.>.>./ ",
"{ f.f.s.f.f.f.f.f.f.s.f.f.f.q.:.;.#.Y G M f f f $ 3 9 _ >.4.u.u.u.t.t.t.4.2.%.=.$.Q U H N j f f - 7 ! _ >.>.,.,.,.,.,.,.,.>.>.( ",
"{ f.s.f.f.s.s.f.f.s.f.f.s.f.q.:.;.#.T G M g f f $ 3 9 _ >.4.t.u.u.t.u.t.t.4.&.;.-.+.U J M j f f , 3 0 ( { ,.2.,.,.,.,.,.,.,.>.( ",
"} f.s.f.f.s.f.f.f.f.f.f.f.f.8.:.;.#.T H M g f f $ 3 0 _ >.8.u.u.u.u.u.u.t.8.5.:.;.@.Y J N g f f , 2 9 / { ,.2.2.2.,.,.,.,.,.,.( ",
"} s.f.s.s.f.s.f.s.f.f.s.f.f.q.:.;.#.Y H M g f f $ 3 0 _ ,.t.u.s.u.u.u.u.u.u.7.0.:.@.Y H M g f f , 2 8 / { >.2.2.2.2.2.,.2.,.,.( ",
"{ f.s.f.s.f.f.s.f.s.s.f.f.f.q.:.;.#.Y H M g f f $ 3 0 _ ,.t.s.s.s.s.u.u.u.u.8.0.:.#.Y G M f f f = 2 8 ~ { >.2.2.2.2.2.2.2.2.,.( ",
"} s.f.f.f.f.s.f.s.f.f.s.f.f.q.:.;.#.T G M f f f $ 3 0 ' ,.t.s.s.s.s.s.u.s.u.w.e.:.@.U D m f f f @ 1 8 ~ { >.4.4.2.4.2.2.2.,.2._ ",
"} s.f.s.s.f.s.f.f.f.s.f.f.s.q.:.;.#.Y H M g f f $ 7 0 ' ,.u.s.s.s.s.s.s.s.u.r.r.:.+.I A n f f f @ 1 8 ~ { ,.4.4.4.4.4.4.2.2.2._ ",
"} s.s.s.f.s.f.s.f.s.f.f.s.f.q.:.;.#.T H M g f f $ 3 0 _ ,.u.s.f.s.s.s.s.s.s.r.e.;.Q J N j f f f . 2 8 / { ,.4.4.4.4.4.2.4.2.2._ ",
"{ s.f.s.f.s.s.f.s.f.s.f.s.f.q.:.;.#.Y H M f f f ; 3 0 ' ,.u.s.f.f.s.f.s.s.a.r.e.=.T F m f f f w < 2 8 / } 2.4.t.4.4.4.4.4.4.4._ ",
"} s.s.f.s.s.f.s.s.f.f.s.f.s.q.:.;.#.Y H M g f f $ 7 0 ` ,.t.s.f.f.f.f.f.f.a.r.0.@.I Z j f f f = 1 2 9 ( >.2.t.t.t.t.t.4.4.4.4._ ",
"} s.s.f.s.f.f.s.s.s.s.s.f.f.q.:.;.#.Y H M g f f $ 3 0 _ 2.u.s.f.f.f.f.f.d.a.r.;.E F M f f f f X < 3 0 _ >.4.t.t.t.t.t.t.4.4.4._ ",
"{ f.s.s.f.s.s.s.f.f.s.f.f.f.q.:.;.#.T H N j f f $ 3 0 ' ,.t.s.f.f.s.f.s.a.r.9.#.I N g f f f e . 1 3 ! ' ,.4.u.u.u.t.t.t.t.t.t.' ",
"} s.s.f.s.s.f.s.f.s.s.s.f.s.q.:.;.#.Y J N n g f ; 3 0 _ ,.u.s.f.f.s.d.a.a.0.-.T Z n f f f y o < 2 8 / { 2.u.u.u.u.t.u.t.t.t.t.' ",
"{ s.s.s.s.f.f.s.s.f.f.s.f.s.q.:.;.#.Y P S M m m > 3 0 ` ,.u.s.f.d.d.a.p.e.-.R A n g f f f , . < 2 0 ( >.4.u.u.u.u.u.u.u.u.t.t.' ",
"} s.s.s.s.s.s.s.s.s.f.s.s.s.e.:.;.#.T P H S S H b ) [ 1.8.i.a.d.a.a.p.0.=.T Z n f f f f t . < 2 7 ~ { ,.t.u.s.u.u.u.u.u.u.u.t.' ",
"{ s.f.s.s.f.s.s.s.f.s.s.f.s.q.:.;.#.Y P P J U E =.0.e.p.r.a.a.r.r.e.:.#.P M j f f f f d o < < 2 9 ( >.4.u.s.u.s.s.u.u.u.u.u.u.' ",
"{ s.s.s.s.s.s.s.s.f.s.f.s.f.q.:.;.@.U J J I Y Q $.:.0.0.e.e.0.:.-.+.P N j g f f f f d @ . < 2 8 ! ' 2.t.s.s.s.s.s.s.u.s.u.u.u.' ",
"} f.s.s.s.f.s.s.s.s.s.s.s.s.6.=.@.Y A N N Z A F P Y R R T U H A M m j g f f f f f y o . < 1 3 0 _ >.t.u.f.f.s.s.s.s.s.u.u.s.u.{ ",
"{ s.s.s.s.s.s.f.s.s.s.s.s.s.:.Y A m j g g g j j g j j j j g f g f f f f f f f f w X < < 1 3 9 / } 2.u.s.f.s.f.f.s.s.s.s.u.s.s.{ ",
"{ s.s.s.f.s.s.s.s.f.s.s.s.f.o.m j f f f f f f f f f f f f f f f f f f f f f q @ . X < 1 2 9 ~ ' ,.t.s.s.f.f.s.f.f.f.f.s.f.f.u.{ ",
"{ s.s.s.s.s.s.s.s.s.s.s.f.s.L f d f f d f f f f f f f f f f f f f f f d * @ . . < < 1 3 9 ~ ' ,.t.u.f.f.f.s.f.f.s.f.s.f.f.s.s.{ ",
"} s.s.s.s.s.s.s.s.s.s.s.s.s.| z l k i u u u q q q q q q q r e , , @ o . < < < < 1 2 7 9 ~ ' >.4.u.s.s.f.f.f.f.f.f.f.f.f.f.f.f.{ ",
"{ s.s.s.s.s.s.s.s.s.s.s.s.s.s.4.>.( 9 3 < < < < < < < < . < < . < < < 1 < 1 1 3 7 8 ! ( { ,.4.u.s.s.f.f.s.f.s.f.f.f.f.f.s.f.f.} ",
"{ s.s.s.s.s.s.s.s.s.s.s.s.s.s.t.>._ 0 7 3 1 1 1 1 1 1 2 1 1 2 2 1 2 2 2 3 7 7 9 ! / _ } 2.t.u.s.s.f.f.s.f.f.f.f.s.f.s.f.f.f.f.{ ",
"{ s.s.s.s.s.s.s.s.s.s.s.s.s.u.t.,.{ ~ 0 8 8 8 8 8 8 8 8 8 8 8 8 8 8 9 9 0 ! ~ ( ' } ,.4.t.u.f.s.f.s.f.s.f.s.f.f.f.f.f.f.f.s.f.{ ",
"{ s.s.s.s.s.s.s.s.s.s.s.s.s.s.u.4.>.' ( / ~ ~ ~ ~ ~ ~ ~ ~ ~ ~ / / / ( _ _ ' { >.,.4.t.u.s.s.f.f.s.f.s.f.f.f.s.f.s.s.f.s.f.f.f.} ",
"{ s.s.u.s.s.s.s.s.s.s.s.s.s.s.u.t.2.,.>.} } } } } } } } } } } } } >.} >.,.2.4.t.t.u.u.s.s.s.f.s.f.f.s.f.s.f.f.s.f.f.f.f.s.f.s.{ ",
"{ s.s.s.s.s.u.s.s.s.s.s.s.s.s.s.u.u.4.4.4.4.4.4.3.4.3.4.4.4.4.2.4.4.8.t.t.u.u.u.s.s.s.s.f.s.s.f.f.s.f.s.f.s.s.f.f.s.f.s.f.f.f.} ",
"{ s.s.u.s.s.s.s.u.s.s.s.s.s.s.u.s.u.u.u.u.u.u.u.u.u.u.u.u.u.u.u.u.u.s.s.u.s.s.s.s.f.s.s.f.s.f.s.s.f.f.s.f.s.f.f.s.f.s.f.f.s.f.{ ",
"{ s.s.s.s.s.u.s.s.s.s.s.s.s.s.s.s.s.f.s.s.s.s.s.s.s.s.s.f.s.f.s.s.f.s.s.s.f.s.f.s.f.f.s.f.s.s.s.f.s.s.f.s.f.s.s.f.s.f.s.s.f.s.} ",
"{ s.s.s.s.s.s.s.s.u.s.s.s.s.s.s.s.s.s.s.s.s.s.s.s.s.s.s.s.f.s.s.s.s.f.s.s.s.s.s.s.s.s.s.s.s.f.f.s.s.f.s.f.s.f.f.f.s.f.f.s.f.f.{ ",
"{ s.s.s.s.u.s.s.s.s.s.s.s.s.s.s.s.s.s.s.s.s.s.s.s.s.s.s.s.s.s.s.s.s.s.s.s.f.s.s.f.s.s.f.s.f.s.s.s.f.s.s.f.s.s.s.s.f.s.f.f.f.f.{ ",
"{ s.u.s.s.s.s.s.u.s.s.s.u.s.s.s.s.s.s.s.s.s.s.s.s.s.s.s.s.s.s.s.s.s.s.s.s.s.s.s.s.s.f.s.s.f.f.s.s.f.s.s.s.s.f.f.s.f.f.f.s.f.f.{ ",
"{ s.s.s.u.s.s.u.s.s.s.s.s.s.u.s.s.s.s.u.s.s.s.s.s.s.s.s.s.s.s.s.s.s.f.s.s.f.s.s.s.s.s.s.s.s.s.s.f.s.s.f.f.s.s.s.s.s.s.s.f.s.f.{ ",
"{ s.u.s.s.s.s.s.s.s.s.s.s.s.s.s.u.s.s.s.s.s.s.s.s.s.s.s.f.s.s.s.s.s.s.s.f.s.s.f.f.s.s.f.s.s.s.f.s.f.s.f.s.f.f.f.f.s.f.s.f.f.f.{ ",
"~ { { { { ' { { { ' ' { { { { { { { { { { { { { { { { { { { { { { { { { { { { { { { { { { { { { { { { { { { { { { { { { { { { ~ "
};
