/* XPM */
static const char *dev64[] = {
/* columns rows colors chars-per-pixel */
"64 56 213 2",
"   c #020202",
".  c #101010",
"X  c #1D1D1D",
"o  c #252525",
"O  c #343434",
"+  c gray26",
"@  c gray33",
"#  c gray46",
"$  c #7C7C7C",
"%  c #B43A38",
"&  c #BE3937",
"*  c #BA3938",
"=  c #B6403E",
"-  c #9F4E4D",
";  c #9F5252",
":  c #807D74",
">  c #A35050",
",  c #A65957",
"<  c #B64341",
"1  c #B84544",
"2  c #B94846",
"3  c #BA4B4A",
"4  c #BC504E",
"5  c #BD5352",
"6  c #A7605F",
"7  c #A66E6E",
"8  c #AC6363",
"9  c #A86867",
"0  c #A96C6C",
"q  c #AC7171",
"w  c #AB7F7E",
"e  c #B26464",
"r  c #B26B6B",
"t  c #BB6666",
"y  c #BE6A66",
"u  c #B37474",
"i  c #B67878",
"p  c #B97575",
"a  c #BC7A7A",
"s  c #C33837",
"d  c #C63C3A",
"f  c #CE3736",
"g  c #CA3836",
"h  c #C83A39",
"j  c #DC2E2E",
"k  c #D23635",
"l  c #D23D3C",
"z  c #DB3535",
"x  c #D83938",
"c  c #E0302F",
"v  c #E33434",
"b  c #EB3433",
"n  c #EB3937",
"m  c #EF3F3E",
"M  c #FE2D2D",
"N  c #F23232",
"B  c #F43A39",
"V  c #FD3333",
"C  c #FD3B3B",
"Z  c #C9403F",
"A  c #F2403F",
"S  c #C34342",
"D  c #C84342",
"F  c #C84947",
"G  c #C94C49",
"H  c #C25553",
"J  c #C05C5A",
"K  c #CC5756",
"L  c #CE5D5B",
"P  c #D14443",
"I  c #DB4341",
"U  c #D05353",
"Y  c #D15F5F",
"T  c #DB5B5B",
"R  c #CC605E",
"E  c #C36261",
"W  c #CC6362",
"Q  c #C27B7B",
"!  c #CA7271",
"~  c #CB7D7D",
"^  c #D36766",
"/  c #D46B6B",
"(  c #D96262",
")  c #D57473",
"_  c #D47A7A",
"`  c #DD7676",
"'  c #DC7A79",
"]  c #EE4746",
"[  c #EA4E4C",
"{  c #E35555",
"}  c #EA5252",
"|  c #F24C4C",
" . c #FC4343",
".. c #FB4B4B",
"X. c #F35454",
"o. c #F35D5D",
"O. c #FA5353",
"+. c #F85B5B",
"@. c #F3605F",
"#. c #ED6565",
"$. c #EB6A6A",
"%. c #E37474",
"&. c #E17979",
"*. c #EB7373",
"=. c #EC7C7C",
"-. c #F66565",
";. c #F66B6B",
":. c #F96161",
">. c #FB6B6B",
",. c #F57373",
"<. c #F47B7B",
"1. c #FC7474",
"2. c #FC7B7B",
"3. c #848484",
"4. c #8C8C8C",
"5. c gray58",
"6. c #9B9B9B",
"7. c #AD8686",
"8. c #AD8E8E",
"9. c #A6908A",
"0. c #A79292",
"q. c #AD9493",
"w. c #B29696",
"e. c #B49898",
"r. c #BF9190",
"t. c #BC9B97",
"y. c #A5A5A5",
"u. c gray68",
"i. c #B7ADAD",
"p. c #BAA3A3",
"a. c #BEA8A7",
"s. c #BEACAB",
"d. c #B4B0AF",
"f. c #B3B3B3",
"g. c #BBBBBB",
"h. c #C38383",
"j. c #C38F8C",
"k. c #CB8181",
"l. c #CD8B8B",
"z. c #C29391",
"x. c #C99895",
"c. c #CE9A9A",
"v. c #D38484",
"b. c #D18F8F",
"n. c #DB8584",
"m. c #DC8989",
"M. c #DB908E",
"N. c #D49191",
"B. c #DB9393",
"V. c #DE9898",
"C. c #C7A09D",
"Z. c #CBA19F",
"A. c #CFA4A1",
"S. c #D6A6A4",
"D. c #D8A3A2",
"F. c #DAA8A6",
"G. c #DEAAA8",
"H. c #D5BCBC",
"J. c #E38585",
"K. c #E38B8B",
"L. c #EB8483",
"P. c #EB8B8B",
"I. c #E59494",
"U. c #E39C9B",
"Y. c #ED9191",
"T. c #EB9B9A",
"R. c #F38383",
"E. c #F28B8B",
"W. c #FD8282",
"Q. c #FC8A8A",
"!. c #F19191",
"~. c #F29A9A",
"^. c #FD9292",
"/. c #FC9A9A",
"(. c #E1A0A0",
"). c #E4ABAA",
"_. c #EEA5A5",
"`. c #EDAAAA",
"'. c #E5B8B7",
"]. c #E2BDBC",
"[. c #E9B1B1",
"{. c #F1A2A1",
"}. c #F5A9A9",
"|. c #FCA3A3",
" X c #FCABAB",
".X c #F2BDBC",
"XX c #FDB3B3",
"oX c #FEBBBB",
"OX c #C4C4C4",
"+X c #CBCBCB",
"@X c #D7CFCE",
"#X c #DDC6C6",
"$X c #DACACA",
"%X c #D3D3D3",
"&X c #DCDCDC",
"*X c #E0C1C1",
"=X c #F2CBCB",
"-X c #FEC3C3",
";X c #FECBCB",
":X c #F3D7D6",
">X c #F3DEDE",
",X c #FED3D3",
"<X c #FEDBDB",
"1X c #E3E3E3",
"2X c #EDEDED",
"3X c #F2E5E5",
"4X c #F3EDED",
"5X c #FEE3E3",
"6X c #FDECEC",
"7X c #F4F4F4",
"8X c #FEF2F2",
"9X c #FDFDFD",
"0X c None",
/* pixels */
"0X0X0X0X0X0X0X0XE 2 1 = < 1 < 1 < < 1 1 1 2 2 2 2 3 3 5 3 J N.0X0X0X0X0X0X0X0X0X0X0X0X0X0X0X0X0X0X0X0X0X0X0X0X0X0X0X0X0X0X0X0X0X",
"0X0X0X0X0X0X0X5 = % % % % % % % % % % % % % % % % % % % % % = R 0X0X0X0X0X0X0X0X0X0X0X0X0X0X0X0X0X0X0X0X0X0X0X0X0X0X0X0X0X0X0X0X",
"0X0X0X0X0X0X! = % % % % % % % % % % % % % % % % % % % % % % % = ~ 0X0X0X0X0X0X0X0X0X0X0X0X0X0X0X0X0X0X0X0X0X0X0X0X0X0X0X0X0X0X0X",
"0X0X0X0X0X0X3 * * % % % % % % % * % % * % % % % % % % % % % % % 2 0X0X0X0X0X0X0X0X0X0X0X0X0X0X0X0X0X0X0X0X0X0X0X0X0X0X0X0X0X0X0X",
"0X0X0X0X0X0XS * & * * * s * * & * & * % * * * * % % % * * % % * * H 0X0X0X0X0X0X0X0X0X0X0X0X0X0X0X0X0X0X0X0X0X0X0X0X0X0X0X0X0X0X",
"0X0X0X0X0X0XS s s s s s s s s s s s s & & & & s s s & & s s & * * * W 0X0X0X0X0X0X0X0X0X0X0X0X0X0X0X0X0X0X0X0X0X0X0X0X0X0X0X0X0X",
"0X0X0X0X0X0XD g s g s g g s s s s s g s s s s s s s s s s s s s s s d F K R ^ ) m.V.>X9X0X0X0X0X0X0X0X0X0X0X0X0X0X0X0X0X0X0X0X0X",
"0X0X0X0X0X0Xl f f f f f g f g f f g g g g f g g g g g g g g g s g g g g g s g s s g h d d D D S D D D D F D F F G L 0X0X0X0X0X0X",
"0X0X0X0X0X9Xl k k k k k k k k k k f k k k f k k f f k f f f f f g g f f g f f g g f f g g g g g g g g g g g g g g g U 0X0X0X0X0X",
"0X0X0X0X0X.Xx z z k k k z k k k z k k k k k k k k k k k k k k k k k k x k k k k k f f k k k f k f k f f f k f g f f D 0X0X0X0X0X",
"0X0X0X0X0XP.z z z z z z z z z z z z z z > w.w.w.w.w.q.q.q.q.q.q.q.q.q.q.q.q.q.q.q.q.q.q.q.q.q.q.q.8.7.w w 0 9 , , - - @ + O .   ",
"0X0X0X0X0X=.v v v v v v z v v v v z z v 8 2X2X2X2X2X2X2X2X2X2X2X2X2X2X2X2X7X2X2X2X2X7X2X2X7X2X7X2X4X2X7X7X2X7X2X7X7X7X7X7X1X%X5.",
"0X0X0X0X0X#.n b b v b c b v v b v b v v 8 2X2X2X2X2X3X2X2X2X2X2X2X2X2X2X2X7X2X2X2X7X2X2X7X2X2X2X7X7X2X7X7X2X7X7X2X7X7X7X7X7X2Xf.",
"0X0X0X0X0Xo.b b b b b b b b b b b b b b 8 2X2X2X2X2X2X2X2X2X2X2X2X2X2X2X2X2X7X2X2X2X7X2X2X7X7X2X7X2X7X2X2X7X2X7X7X7X2X7X7X7X7Xf.",
"0X0X0X0X0XX.N N N N N N b b b b b b b b e 4X2X2X2X2X2X2X2X4X2X7X2X2X2X2X7X2X2X2X7X7X2X2X7X7X7X7X2X7X7X2X7X7X7X2X7X7X7X7X7X7X7Xf.",
"0X0X0X0X0X..N N j 0.p.p.p.p.p.A.a.s.A.a.i.g.OXg.g.g.g.g.OXg.g.g.g.g.g.g.f.g.g.g.g.f.g.g.g.f.f.g.g.g.g.+X1X2X7X7X7X7X7X7X7X7X7Xf.",
"0X0X0X0X0X..V V j &X7X7X7X7X7X7X7X7X7X7X7X7X7X9X7X7X7X7X7X9X7X7X7X9X9X7X9X7X7X7X7X9X7X9X7X9X7X9X9X9X7X2Xf.7X7X7X7X7X7X7X7X7X7Xf.",
"0X0X0X0X0X..V V j &X7X7X7X7X7X7X7X7X7X9X7X7X7X7X7X9X9X7X7X7X7X9X7X7X7X7X7X7X9X9X7X7X9X7X9X7X9X7X7X7X7X7Xf.7X7X7X7X7X7X7X7X7X7Xf.",
"0X0X0X0X0X..V V j &X7X7X7X7X7X7X9X7X9X7X7X7X7X9X7X7X9X7X9X9X7X7X9X7X7X9X9X7X9X7X9X9X7X9X7X7X7X7X7X2X2X2Xd.7X7X7X7X7X7X7X7X7X7Xf.",
"0X0X0X0X0X .V M v &X7X7X9X7X7X9X7X7X7X7X7X9X7X7X7X9X7X7X7X7X9X7X7X9X7X9X7X9X7X9X7X7X7X7X2X2X2X2X1X1X1X&Xd.7X7X7X7X7X7X7X7X7X7Xf.",
"0X0X0X0X0X .V V j &X9X7X9X7X7X9X7X7X7X7X9X7X7X9X7X9X7X9X9X7X9X9X9X9X7X9X7X7X4X7X2X2X2X1X1X1X&X&X&X&X&X%Xu.7X7X9X7X7X7X7X7X7X7Xf.",
"0X0X0XG n B V V c ].:X>X3X4X7X7X9X7X9X9X7X9X9X7X7X9X9X7X7X9X7X7X7X2X2X2X2X2X1X1X1X&X1X&X&X&X&X%X%X%X%X+Xu.7X7X7X7X7X9X7X9X7X7Xf.",
"0X0XX.^.-X,X<X<X<X,X;X;X-XoXoXXX XXX X X X}.|.}.}.}.|.}.}.}.}.`.`.).[.'.].*X#X$X@X%X%X%X%X+X+X+X+XOXOXOXu.7X7X7X7X7X7X7X7X7X9Xu.",
"0XA /.XXoXoXoXoXoXoXoXoX-X-X-X-X-X;X;X;X;X;X,X;X,X,X,X<X,X<X<X<X5X5X5X<X,X,X;X-X-XoXoXXXXX X}.}.{.{.~.T.I.}.}.}.}.}.}.=X7X9X7Xf.",
"I >.^.^.^.W.1.2.W.W.Q.^.^./.|.|.|.|.|. X X X X XXX XXXXXXXXXoXoXoXoXoX-XoX-X-X-X-X;X-X;X;X;X;X;X,X,X,X,X,X,X<X<X<X5X,XXX1.=X7Xf.",
"B >.>...M M M M M M M M M M M M V V C C  . . .....O.O.+.:.:.>.>.1.1.2.2.W.Q.^.^././.|.|.|. X X X X XXX XXXXXXXXXXXoXoXoXoXW.>Xf.",
"B  .V M M M M M M M M M M M M M M M M M M M M M M M M M M M M M M M M M M M M M M M M M V C C C  . .....O.O.+.+.:.2.^./././.R.f.",
"M M M M M M M M M M M M M M M M M M M M M M M M M M M M M M M M M M M M M M M M M M M M M M M M M M M M M M M M M M V O.1.1.+.f.",
"V M M M M M M M M M M M M M M M M M M M M M ..+...M M M M M M M M M M M M M M M M M M M M M M M M M M M M M M M M M M M C O.C z.",
"N M M M M M M M M M M M M M M M M M M M M M /.9XQ.M M M M M M M M M M M M M M M M M M M M M M M M M M M M M M M M M M M M M M j.",
"M M M M M M M M M M M M M M M M M M M M M M XX9X2.M M M M M M M M M M M M M M M M M M M M M M M M M M M M M M M M M M M M M M r.",
"N M M M M M M M M M M M M M M M M M M M M M ;X9X+.M M M M M M M M M M M M M M M M M M M M M M M M M M M M M M M M M M M M M M e.",
"N M M M M M M M M M M M M M M M M V  .C M M 5X9X..M M M M M M M M M M M M M M M M M M M M M M M M M M M M M M M M M M M M M B y.",
"B C V V V V V V V V V V V V V C  X8X9X9XoX .9X9XV M M M V 2.-X<X<X XO.M M M ../.2.M M M M M M O.:.C M M M M M M M M M M M M o.y.",
"B C C B C C C V V C C C V C ..6X9X<X XoX9X<X9X6XV V V ..,X9X9X<X6X9X9XW.V V ..9X8XV M V M V C 8X8XC V V M M M V M V M M M M =.y.",
"]  . .C  .C  . . .C C  .C C ;X9X X .C C 1.9X9X,XC C C <X9XoX .C C 2.8X9XO.C V 5X9X+.C C V C /.9X|.C V V C V V V V V V V V V (.6.",
"[ .. . . . . . . . . . . .;.9X5X . . . . .oX9X-X . .^.9X,X .C B  . . X9X/.C  . X9X^.C C C  .8X8X..C C C C C C B C C B C B C H.5.",
"{ ....| | ............| .. X9X|... ..... ./.9X X.. .<X9XW. ..... . .W.9X-X.. .W.9X-X . . ./.9X|. . . . .C  .C  .C  . .C  .| +X5.",
"T O.O.O.[ | O.O.O.O.O...O.,X9X2.O.......O./.9X/...O.9X9X8X6X6X5X5X<X5X9X,X....O.9X6X....O.8X8X+. . ....... ..... ... ... .#.+X4.",
"y X.+.O.} } +.O.X.O.+.O.O.6X9X;.O.+.X.O.O. X9XQ.O.,.9X9X;X,X,X<X<X5X6X6XoX..O.O.<X9X-.O./.9XXX....O.......| ..............n.OX4.",
": :.+.:.{ { +.+.o.+.+.+.+.6X9X1.+.+.+.+.+.,X9X<.+.<.9X8X+.O.+.+.+.+.+.O.O.+.O.+. X9X/.+.6X9X:.X.O.O.X.O.O.O.O.O.O.O.O.O.O.c.g.3.",
"0X#.-.-.T T :.:.:.-.-.-.:.,X9X/.:.:.:.:.,.9X9X;.:.,.9X9X;.+.+.o.o.+.{.^.>.+.o.+.Q.9XoX/.9XXX+.+.+.+.+.+.+.O.+.+.+.X.+.+.O.s.f.3.",
"0X;.-.-.T Y #.-.>.-.-.-.-.|.9X6X,.-.-.,.<X9X9X:.-.-.6X9XoX-.:.-.-./.9X8X;.-.:.-.-.9X>X5X9X;.:.:.+.:.+.:.@.+.:.@.+.+.+.+.#.f.f.$ ",
"0X*.,.,.( ( $.,.;.,.,.,.,.;.>X9X6X-X-X6X8X9X6X-.;.-./.9X9X;X~.Q.oX9X9X^.-.;.-.-.-.<X9X9XoX-.-.-.-.-.-.>.-.-.-.-.-.-.-.-.' u.u.$ ",
"0X=.,.1.^ W *.,.,.,.,.,.,.,.<.-X9X9X9X,X^.9X<X,.,.,.;.|.8X9X9X9X9X6X~.;.,.;.,.;.;.XX9X9X<.>.;.;.;.;.;.;.;.;.;.-.;.;.;.-.Q 6.6.# ",
"0X=.<.<./ E %.<.<.<.<.<.<.<.<.<.<.E.R.<.<.<.<.,.<.,.<.,.<.~. X}.~.<.,.,.,.,.,.1.,.R.}./.,.,.,.,.,.,.,.,.,.1.,.;.$.;.,.,.W   X o ",
"0XL.R.R./ t ` R.R.<.R.R.R.<.R.<.R.<.<.R.<.R.<.<.<.R.<.<.R.<.<.<.<.<.<.<.<.<.<.<.<.<.<.<.<.<.<.,.,.<.<.,.<.,.<.*.*.,.<.,.) 0X0X0X",
"0XJ.E.E.' t ! E.E.R.R.R.E.R.R.E.R.R.R.E.R.L.R.R.R.R.R.R.R.R.R.<.R.<.R.R.R.R.<.R.R.<.R.<.<.<.<.R.R.R.<.<.<.<.<.%.%.=.<.<.: 0X0X0X",
"0XK.!.E.P.r r J.E.E.E.E.!.E.E.E.E.E.E.E.E.E.E.E.E.E.E.E.E.R.E.E.R.E.E.E.E.R.E.E.E.R.R.E.R.R.E.R.R.R.R.R.R.R.<.&.` =.<.L.0X0X0X0X",
"0XM.~.!.!.~ 9 r v.m.Y.Y.!.!.!.!.!.!.!.!.!.E.!.E.E.E.!.E.!.!.E.!.E.E.E.!.E.E.E.E.E.E.E.E.E.E.E.E.E.E.E.E.E.E.E._ ` E.E.L.0X0X0X0X",
"0Xj.T.T.~.~.Q 0 9 9 0 0 0 0 u p p Q Q Q ~ k.v.v.n.n.K.K.m.P.K.I.Y.Y.!.!.!.!.!.!.!.!.!.!.!.!.!.!.!.!.E.!.!.K._ _ n.!.!.K.0X0X0X0X",
"0X0XU.{.T.{.{.B.h.i 7 q 0 7 7 0 0 q 0 7 7 q q q q u q 0 u u u i p i p p a Q Q k.k.k.k.v.v.m.m.m.m.K.m.v.Q ~ ~ v.Y.!.!.l.0X0X0X0X",
"0X0Xx._._._.}._._.}._._.}._.U.U.U.V.B.B.N.l.l.l.l.h.h.h.a h.a a i i i i u u i i a i a i a a a a a a a a Q k.M.~.~.T.T.0X0X0X0X0X",
"0X0X0XD.).`.`.`.`.`.`.`._.`.`.`.`.}.`.`.`.}.`.}.`.}.`.`._._._.}._._._._._.(.U.U.V.V.B.B.N.N.l.l.l.b.b.B.U.}.{.T.{.{.U.0X0X0X0X0X",
"0X0X0X0X0XA.S.F.G.G.).G.).).).).).).).).).).).).).`.).`.).`.`.).`.`.`.`.`.`.`.).`.`.`.`.}.`.`._.}.`.}._.}.}._.}._._.z.0X0X0X0X0X",
"0X0X0X0X0X0X0X0X0X0X0X0X0X0X0X0X0X0X0X0X0X0X0X0X0X0X0X: : 9.t.A.A.S.S.F.G.G.).).).).).).).).).).).).).).).).).).).D.0X0X0X0X0X0X"
};
