/* XPM */
static const char *dsw64[] = {
/* columns rows colors chars-per-pixel */
"64 56 213 2",
"   c #020202",
".  c #101010",
"X  c #1D1D1D",
"o  c #252525",
"O  c #343434",
"+  c gray26",
"@  c gray33",
"#  c gray46",
"$  c #7C7C7C",
"%  c #B43A38",
"&  c #BE3937",
"*  c #BA3938",
"=  c #B6403E",
"-  c #9F4E4D",
";  c #9F5252",
":  c #807D74",
">  c #A35050",
",  c #A65957",
"<  c #B64341",
"1  c #B84544",
"2  c #B94846",
"3  c #BA4B4A",
"4  c #BC504E",
"5  c #BD5352",
"6  c #A7605F",
"7  c #A66E6E",
"8  c #AC6363",
"9  c #A86867",
"0  c #A96C6C",
"q  c #AC7171",
"w  c #AB7F7E",
"e  c #B26464",
"r  c #B26B6B",
"t  c #BB6666",
"y  c #BE6A66",
"u  c #B37474",
"i  c #B67878",
"p  c #B97575",
"a  c #BC7A7A",
"s  c #C33837",
"d  c #C63C3A",
"f  c #CE3736",
"g  c #CA3836",
"h  c #C83A39",
"j  c #DC2E2E",
"k  c #D23635",
"l  c #D23D3C",
"z  c #DB3535",
"x  c #D83938",
"c  c #E0302F",
"v  c #E33434",
"b  c #EB3433",
"n  c #EB3937",
"m  c #EF3F3E",
"M  c #FE2D2D",
"N  c #F23232",
"B  c #F43A39",
"V  c #FD3232",
"C  c #FD3B3B",
"Z  c #C9403F",
"A  c #F2403F",
"S  c #C34342",
"D  c #C84342",
"F  c #C84947",
"G  c #C94C49",
"H  c #C25553",
"J  c #C05C5A",
"K  c #CC5756",
"L  c #CE5D5B",
"P  c #D14443",
"I  c #DB4341",
"U  c #D05353",
"Y  c #D15F5F",
"T  c #DB5B5B",
"R  c #CC605E",
"E  c #C36261",
"W  c #CC6362",
"Q  c #C27B7B",
"!  c #CA7271",
"~  c #CB7D7D",
"^  c #D36766",
"/  c #D46B6B",
"(  c #D96262",
")  c #D57473",
"_  c #D47A7A",
"`  c #DD7676",
"'  c #DC7A79",
"]  c #EE4746",
"[  c #EA4E4C",
"{  c #E35555",
"}  c #EA5252",
"|  c #F24C4C",
" . c #FC4343",
".. c #FB4B4B",
"X. c #F35454",
"o. c #F35D5D",
"O. c #FA5353",
"+. c #F95B5B",
"@. c #F3605F",
"#. c #ED6565",
"$. c #EB6A6A",
"%. c #E37474",
"&. c #E17979",
"*. c #EB7373",
"=. c #EC7C7C",
"-. c #F66565",
";. c #F66B6B",
":. c #F96262",
">. c #FC6B6B",
",. c #F57373",
"<. c #F47B7B",
"1. c #FD7474",
"2. c #FB7B7B",
"3. c #848484",
"4. c #8C8C8C",
"5. c gray58",
"6. c #9B9B9B",
"7. c #AD8686",
"8. c #AD8E8E",
"9. c #A6908A",
"0. c #A79292",
"q. c #AD9493",
"w. c #B29696",
"e. c #B49898",
"r. c #BF9190",
"t. c #BC9B97",
"y. c #A5A5A5",
"u. c gray68",
"i. c #B7ADAD",
"p. c #BAA3A3",
"a. c #BEA8A7",
"s. c #BEACAB",
"d. c #B4B0AF",
"f. c #B3B3B3",
"g. c #BBBBBB",
"h. c #C38383",
"j. c #C38F8C",
"k. c #CB8181",
"l. c #CD8B8B",
"z. c #C29391",
"x. c #C99895",
"c. c #CE9A9A",
"v. c #D38484",
"b. c #D18F8F",
"n. c #DB8584",
"m. c #DC8989",
"M. c #DB908E",
"N. c #D49191",
"B. c #DB9393",
"V. c #DE9898",
"C. c #C7A09D",
"Z. c #CBA19F",
"A. c #CFA4A1",
"S. c #D6A6A4",
"D. c #D8A3A2",
"F. c #DAA8A6",
"G. c #DEAAA8",
"H. c #D5BCBC",
"J. c #E38585",
"K. c #E38B8B",
"L. c #EB8483",
"P. c #EB8B8B",
"I. c #E59494",
"U. c #E39C9B",
"Y. c #ED9191",
"T. c #EB9B9A",
"R. c #F38383",
"E. c #F28B8B",
"W. c #FD8383",
"Q. c #FC8B8B",
"!. c #F19292",
"~. c #F19A9A",
"^. c #FD9292",
"/. c #FC9B9B",
"(. c #E1A0A0",
"). c #E4ABAA",
"_. c #EEA5A5",
"`. c #EDAAAA",
"'. c #E5B8B7",
"]. c #E2BDBC",
"[. c #E9B1B1",
"{. c #F1A2A1",
"}. c #F5A9A9",
"|. c #FCA4A4",
" X c #FCABAB",
".X c #F2BDBC",
"XX c #FDB4B4",
"oX c #FEBBBB",
"OX c #C4C4C4",
"+X c #CBCBCB",
"@X c #D7CFCE",
"#X c #DDC6C6",
"$X c #DACACA",
"%X c #D3D3D3",
"&X c #DCDCDC",
"*X c #E0C1C1",
"=X c #F2CBCB",
"-X c #FDC3C3",
";X c #FECBCB",
":X c #F3D7D6",
">X c #F3DEDE",
",X c #FED3D3",
"<X c #FEDBDB",
"1X c #E3E3E3",
"2X c #EDEDED",
"3X c #F2E5E5",
"4X c #F3EDED",
"5X c #FEE3E3",
"6X c #FDECEC",
"7X c #F4F4F4",
"8X c #FEF4F4",
"9X c #FEFDFD",
"0X c None",
/* pixels */
"0X0X0X0X0X0X0X0XE 2 2 < < < < < < < 1 1 1 2 2 3 3 3 3 3 4 5 N.0X0X0X0X0X0X0X0X0X0X0X0X0X0X0X0X0X0X0X0X0X0X0X0X0X0X0X0X0X0X0X0X0X",
"0X0X0X0X0X0X0X5 % % % % % % % % % % % % % % % % % % % % % % 2 R 0X0X0X0X0X0X0X0X0X0X0X0X0X0X0X0X0X0X0X0X0X0X0X0X0X0X0X0X0X0X0X0X",
"0X0X0X0X0X0X! % % % % % % % % % % % % % % % % % % % % % % % % % ~ 0X0X0X0X0X0X0X0X0X0X0X0X0X0X0X0X0X0X0X0X0X0X0X0X0X0X0X0X0X0X0X",
"0X0X0X0X0X0X3 * * % * % * % % % % * % * % % % % % % % % % % % % 3 0X0X0X0X0X0X0X0X0X0X0X0X0X0X0X0X0X0X0X0X0X0X0X0X0X0X0X0X0X0X0X",
"0X0X0X0X0X0XS * & * * * * * * * * * * * * * * * % * * * * * * * * H 0X0X0X0X0X0X0X0X0X0X0X0X0X0X0X0X0X0X0X0X0X0X0X0X0X0X0X0X0X0X",
"0X0X0X0X0X0XS s s s s s s s s s s & s & & & & & s * * s * * & * * * W 0X0X0X0X0X0X0X0X0X0X0X0X0X0X0X0X0X0X0X0X0X0X0X0X0X0X0X0X0X",
"0X0X0X0X0X0XD g h g s s g s s s s s g s g s s s s s s s s s s s s s d F K R ^ ) n.V.>X9X0X0X0X0X0X0X0X0X0X0X0X0X0X0X0X0X0X0X0X0X",
"0X0X0X0X0X0Xl f f f f f f g f f f g g g g f g g g g g g g g g g g h g h g s g s h h h d d D Z D D D D D F D F F G L 0X0X0X0X0X0X",
"0X0X0X0X0X9Xl k k k k k k k k f k k k k k k k k f k f f k f f f f f f f g g k h f g g f f g g g f g g g g g g h g h U 0X0X0X0X0X",
"0X0X0X0X0X.Xx z z k k k z k z k k k k k k k k k k k k k k k k k k k k k k k k k k k f k k l k f f f f f f f f f f f D 0X0X0X0X0X",
"0X0X0X0X0XP.z z z z z z z z z z z z z z - w.w.w.w.w.q.q.q.q.q.q.q.q.q.q.q.q.q.q.q.q.q.q.q.q.q.q.q.8.7.w q q 9 , , - - @ + O .   ",
"0X0X0X0X0X=.v v v v v v v v z v v z v v 8 2X2X2X2X2X2X2X2X2X2X2X2X2X2X2X2X2X2X2X2X2X7X2X2X2X7X2X2X7X7X2X7X2X7X2X7X7X7X7X7X1X%X5.",
"0X0X0X0X0X#.n b b v b v v v b v v v v v 9 2X2X2X2X2X2X2X2X2X2X2X2X2X2X2X2X2X2X7X2X7X2X2X7X2X7X2X7X2X7X7X7X2X7X7X2X7X7X7X7X7X2Xf.",
"0X0X0X0X0Xo.b b b b b b b b b b b b b b 8 2X2X2X2X2X2X2X2X2X2X2X2X2X2X7X7X2X2X2X2X2X7X2X7X2X2X7X2X7X7X2X2X7X2X7X7X7X2X7X7X7X7Xf.",
"0X0X0X0X0XX.N N N N b N N N N N b N N b e 2X2X2X2X2X2X2X2X2X2X7X2X2X7X2X2X7X2X7X7X7X2X2X2X7X2X2X7X2X2X7X7X7X7X2X7X7X7X7X7X7X7Xf.",
"0X0X0X0X0X..N N j 0.p.p.p.p.p.p.a.a.a.a.i.g.g.H.g.g.g.g.OXg.g.g.g.g.g.f.g.f.g.f.g.f.g.g.g.g.g.g.g.g.g.+X1X2X7X7X7X7X7X7X7X7X7Xf.",
"0X0X0X0X0X..V V j &X7X7X7X7X7X7X7X7X7X7X7X7X7X7X9X7X7X7X7X7X7X7X7X7X7X7X7X7X9X7X7X9X7X7X7X9X7X9X7X9X7X2Xf.7X7X7X7X7X7X7X7X7X7Xf.",
"0X0X0X0X0X..V V c &X7X7X7X7X9X7X7X7X7X7X9X7X7X7X7X7X7X9X7X9X9X7X9X7X9X9X9X9X7X7X7X7X9X9X9X7X9X7X9X7X7X7Xf.7X7X7X7X7X7X7X7X7X7Xf.",
"0X0X0X0X0X..V V j &X7X7X7X7X7X7X7X7X7X7X7X7X9X7X7X7X7X7X7X7X9X7X7X9X7X7X7X9X7X9X9X9X9X7X7X7X7X2X7X2X2X2Xf.7X7X7X7X7X7X7X7X7X7Xf.",
"0X0X0X0X0X .M V j 1X7X8X7X9X7X7X7X9X7X9X9X7X9X7X9X7X9X9X9X7X7X9X9X7X9X7X9X7X9X7X7X7X7X7X2X2X2X2X1X1X1X&Xf.7X7X7X7X7X7X7X8X7X7Xf.",
"0X0X0X0X0X .V V j &X7X7X7X8X7X7X7X7X9X7X7X7X9X7X7X7X9X7X9X7X9X9X7X9X7X7X7X7X7X7X2X2X2X1X1X1X&X&X&X&X&X%Xu.7X7X7X7X7X7X7X7X9X7Xf.",
"0X0X0XG n B V V c ].:X>X3X7X7X7X9X9X7X7X9X7X7X9X9X7X7X9X7X9X7X7X7X7X7X7X2X2X1X1X1X1X&X&X&X&X&X%X%X%X%X+Xu.7X7X7X9X7X7X7X7X7X7Xf.",
"0X0XX.^.-X,X5X<X<X,X;X;X-XoXoXXXXX X X}. X X X X X{. X}.}.}.}.`.`.[.[.'.].*X#X$X@X%X&X%X%X+X+X+X+XOXOXOXu.7X7X7X7X7X7X8X9X7X7Xf.",
"0XA /.XXXXoXoXoXoX-XoX-X-X-X-X-X-X;X;X;X;X;X;X,X,X,X,X,X<X<X<X<X5X<X5X<X,X,X;X-X-X.XXXXXXX X X}.{.{.~.T.I. X}.}.}.}.`.=X7X7X7Xf.",
"I >.^.^.^.W.1.2.W.W.Q.^.^./.|.|.|. X|. X X X X X X XXXXXXXXXoXoXoXoXoXoX-X-X-X-X-X;X-X;X;X;X;X;X;X,X,X,X,X,X<X<X5X<X,XXX1.=X7Xf.",
"B >.>...M M M M M M M M M M M M V V C C C  .....O.O.O.+.:.:.:.>.>.1.2.W.W.Q.Q.^././.|.|.|. X X X X XXX XXXXXXXXXXXoXoXoXoXW.>Xf.",
"B  .V M M M M M M M M M M M M M M M M M M M M M M M M M M M M M M M M M M M M M M M M V V C C C  . .....O.O.+.+.:.2.^./././.R.f.",
"V M M M M M M M M M M M M M M M M M M M M M M M M M M M M M M M M M M M M M M M M M M M M M M M M M M M M M M M M M V O.1.1.+.d.",
"M M M M M M M M M M M M M M M M M M M M M M  .:. .M M M M M M M M M M M M M M M M M M M M M M M M M M M M M M M M M M M C O.C z.",
"N M M M M M M M M M M M M M M M M M M M M M /.9X^.M M M M M M M M M M M M M M M M M M M M M M M M M M M M M M M M M M M M M M j.",
"M M M M M M M M M M M M M M M M M M M M M M XX9X2.M M M M M M M M M M M M M M M M M M M M M M M M M M M M M M M M M M M M M M r.",
"N M M M M M M M M M M M M M M M M M M M M M ;X9X+.M M M M M M M M M M M M M M M M M M M M M M M M M M M M M M M M M M M M M M e.",
"N M M M M M M M M M M M M M M M M V  .V M M 5X9X..M M M M M M M M M M M M M M M M M M M M M M M M M M M M M M M M M M M M M B y.",
"B V V V V V V M V V V V V V V  . X8X9X9X-X .8X9XV M M V 2.-X<X5X-X2.V M M W.^. .M M M M :.>.C M M M M  . .M M M M M M M M M o.y.",
"] C C C C C C C C C C V V C O.5X9X<X X-X8X5X9X6XV V C -X9X8X,X<X9X9X-XV V -X9X1.V V V  .9X9XW.V V V V 8X8XC M V M V M V V M =.6.",
"] C  .B  . . .C  .B  .C C C ;X9X X .C C 1.9X9X,XC C W.9X-XC C C :.8X9X+.C /.9X/.C V C /.9X9X/.V V V 2.9X XC V V V V V V V V (.6.",
"[  . ... . . ... . . . ...>.9X5X . . . . .oX9X-X . .oX9XQ. .C C B /.oX+.C 2.9XoXC  .B 5X6X9XoXC C C ,X9X+.C C C C C C C C C H.5.",
"{ ......| ................ X9X/....... .../.9X X.. . X9X8X/.+... . ..... .+.9X<X . .1.9X/.9X<X . .:.9X-XC  .B  . .C  .B  .| @X5.",
"T ....X.[ | O.O...........<X9X2.........../.9X/.....+.5X9X9X9X<X|.+.........8X8X....-X8X+.6X8X....oX9X2..... ..... ... . .$.OX4.",
"y +.+.+.} } X.+.+.+.+.+.+.5X9X;.+.X.O.+.O. X9XQ.+.O.O.+./.<X9X9X9X8X^.O.....<X9X-.+.9X;X..,X9X+.+.8X5X....................n.OX4.",
"$ o.+.o.{ { :.o.+.+.+.+.+.6X9X<.+.+.+.+.+.,X9X2.+.+.O.+.+.X.;./.5X9X9X:.O.+.XX9XQ.|.9XR.X.oX9X2.|.9X/...O.O.O.....X...O.O.c.g.3.",
"0X#.-.:.{ T :.:.-.-.-.-.:.,X9X/.:.:.:.+.,.8X9X,.:.E.-X/.:.+.o.o.-.8X9X2.o.+./.9X|.<X8X+.+.|.9X/.5X8X-.+.+.+.+.+.+.+.+.+.+.s.f.3.",
"0X;.;.;.T T #.;.;.;.;.;.;.|.9X6X,.;.-.*.<X9X8X;.-./.9X<X-.-.:.:.,.8X8X;.:.:.W.9X<X9XXX:.:.^.9X<X9XXX:.:.:.o.:.o.+.+.+.+.#.f.f.$ ",
"0X*.,.;.( ^ $.;.;.;.;.;.;.;.<X9X8XoX-X6X8X9X5X;.;.,.8X9X,X~.Q. X6X9XXX;.;.;.;.9X9X9X<.;.;.<.9X9X9X<.-.-.-.-.-.-.-.-.-.-.' u.u.$ ",
"0X*.,.,.^ W *.,.,.,.,.,.,.*.<.-X9X9X9X,X^.9X<X;.;.,.^.6X9X9X9X9X8XXX;.;.;.;.;.5X9X<X;.;.;.,.9X9X,X;.;.;.;.;.;.;.;.;.;.;.Q 6.6.# ",
"0X=.R.,./ E %.<.<.<.<.<.2.<.<.<.<.E.R.<.<.<.<.<.<.,.<.,./.}.}./.<.<.<.,.,.<.,.~. X!.,.;.,.,.XX-XE.,.;.,.,.;.,.;.$.,.;.;.W   X o ",
"0XL.R.R.) t ` R.R.<.R.R.R.<.R.<.R.<.<.R.<.R.<.<.=.R.<.<.<.<.<.<.<.<.<.<.<.<.<.<.<.<.<.<.<.<.<.<.<.<.2.,.2.,.,.*.*.,.<.,.) 0X0X0X",
"0XJ.E.E.&.r ! R.E.R.R.R.E.R.R.E.R.R.E.R.R.R.R.R.R.R.R.R.R.R.R.R.R.R.R.<.R.R.R.<.<.R.<.R.R.<.<.<.<.<.R.<.<.R.<.&.%.=.<.<.: 0X0X0X",
"0XK.!.E.P.r e J.E.E.!.E.E.E.E.E.E.E.E.E.E.E.E.E.E.E.E.E.E.E.E.E.E.E.E.R.E.R.R.E.E.R.R.E.E.R.R.R.R.R.R.R.R.R.R.&.` =.R.L.0X0X0X0X",
"0XM.T.!.!.~ 0 r k.J.P.!.!.!.!.!.!.!.!.Y.!.E.!.E.E.E.Y.E.E.Y.E.E.E.E.Y.!.E.Y.E.E.E.E.E.E.E.E.E.E.E.E.E.E.E.E.R._ ' E.E.L.0X0X0X0X",
"0Xj.T.~.~.~.k.9 0 0 0 0 0 q u p p Q Q Q ~ ~ v.v.v.n.J.m.K.K.K.Y.P.!.!.!.!.!.!.!.!.!.!.!.!.!.!.!.!.!.E.!.Y.J._ ~ n.Y.E.K.0X0X0X0X",
"0X0XU.{.{.T._.V.h.u 7 7 0 7 7 0 7 0 0 q q q q q u u q u u u u i p i p p Q Q Q h.k.k.k.v.v.n.m.m.K.m.m.v.~ ~ ~ v.!.!.!.l.0X0X0X0X",
"0X0Xx._._._.`.{.`.{._._._._.U.T.U.V.B.B.B.l.l.l.l.h.h.h.Q 7.a a i i i u q u i i i i i i a a a Q a a Q Q Q h.m.~.~.~.T.0X0X0X0X0X",
"0X0X0XD.).`.`.`.`.`.`.`.`.`.`.`.`.}.`.`.`.}.`.`.`._.`.`.{.|.`.`._.{._._._._.U.U.U.V.B.B.N.N.l.l.l.l.l.B.U.{._.{.T._.U.0X0X0X0X0X",
"0X0X0X0X0XA.S.F.G.G.).G.).).).).).).).).`.).).).).).).`.).}.`.).`.`.).`.`.`.`.`.`.`.`.`.`.`.`._.`.`.}.}.`.`.`._.`._.z.0X0X0X0X0X",
"0X0X0X0X0X0X0X0X0X0X0X0X0X0X0X0X0X0X0X0X0X0X0X0X0X0X0X: : 9.t.A.A.S.F.G.F.F.).).).).).).).).).`.).).).).`.).`.`.).D.0X0X0X0X0X0X"
};
