/* XPM */
static const char *f64[] = {
/* columns rows colors chars-per-pixel */
"64 64 115 2",
"   c gray21",
".  c gray23",
"X  c #1E1E7E",
"o  c #252555",
"O  c #2A2A5A",
"+  c #363642",
"@  c #36364E",
"#  c #3D3D49",
"$  c #33335A",
"%  c #272764",
"&  c #27276F",
"*  c #2B2B67",
"=  c #353565",
"-  c #30306C",
";  c #424242",
":  c #4B4B4B",
">  c #535353",
",  c #5B5B5B",
"<  c #636363",
"1  c #6A6A6A",
"2  c #727272",
"3  c #7D7D7D",
"4  c #0F0F9F",
"5  c #17178F",
"6  c #1B1B87",
"7  c #121296",
"8  c #10109F",
"9  c #0707AE",
"0  c #0808AF",
"q  c #0404B7",
"w  c #0000BF",
"e  c #1313A3",
"r  c #1E1EAE",
"t  c #1414BB",
"y  c #2D2D8D",
"u  c #353589",
"i  c #2525A9",
"p  c #2F2FA6",
"a  c #2525B5",
"s  c #2929B8",
"d  c #0000C2",
"f  c #0000CB",
"g  c #0000D3",
"h  c #0000DC",
"j  c #0000E2",
"k  c #0000ED",
"l  c #0000F4",
"z  c #0000FC",
"x  c #0A0AFF",
"c  c #1111FF",
"v  c #1B1BFF",
"b  c #3232C2",
"n  c #3838C9",
"m  c #3C3CD3",
"M  c #2D2DEA",
"N  c #2525FF",
"B  c #2D2DFF",
"V  c #3333FF",
"C  c #3939FF",
"Z  c #4343FF",
"A  c #4B4BFF",
"S  c #5454FF",
"D  c #5C5CFF",
"F  c #6363FF",
"G  c #6B6BFF",
"H  c #7474FF",
"J  c #7B7BFF",
"K  c #828282",
"L  c #8C8C8C",
"P  c #939393",
"I  c #9C9C9C",
"U  c #9A9AB4",
"Y  c #A4A4A4",
"T  c #ACACAC",
"R  c #A4A4B3",
"E  c #B3B3B3",
"W  c #BBBBBB",
"Q  c #8C8CC4",
"!  c #8585D7",
"~  c #9D9DCE",
"^  c #8585FF",
"/  c #8B8BFE",
"(  c #9494FF",
")  c #9B9BFF",
"_  c #A6A6C5",
"`  c #B6B6C5",
"'  c #BDBDC7",
"]  c #A3A3FF",
"[  c #ACACFF",
"{  c #B3B3FF",
"}  c #BBBBFF",
"|  c #C3C3C3",
" . c #C3C3CA",
".. c #CBCBCB",
"X. c #CCCCD2",
"o. c #D3D3D3",
"O. c #D4D4D8",
"+. c #DBDBDB",
"@. c #C4C4FF",
"#. c #CBCBFF",
"$. c #DBDBE4",
"%. c #DADAEB",
"&. c #D4D4FE",
"*. c #DFDFF7",
"=. c #DADAFE",
"-. c #E3E3E3",
";. c #E2E2EE",
":. c #EBEBEB",
">. c #E3E3F5",
",. c #E2E2FE",
"<. c #EBEBFC",
"1. c #F5F5F5",
"2. c #F2F2F9",
"3. c #F9F9F9",
"4. c None",
/* pixels */
"K I I I I I I I I I I P I P I P P P P P P P P L P P L L L L L L L L L K L L K L K L K K K K K K K 4.4.4.4.4.4.4.4.4.4.4.4.4.4.4.",
"Y ..| ..| | | | | W | W W W W W W E E E E E E T T T T T T Y T Y Y Y Y Y I Y I I I I I P I I P P T K 4.4.4.4.4.4.4.4.4.4.4.4.4.4.",
"Y ......| ..| | | | | W | W W W W W W E E E E E E T E T T T Y T Y Y Y Y I Y Y I I I I I I P P P W T K 4.4.4.4.4.4.4.4.4.4.4.4.4.",
"Y ............| | | | | | W | W W W W W W E E E E E E T E T T T T T T Y Y Y Y Y Y I Y I I I I I | | E K 4.4.4.4.4.4.4.4.4.4.4.4.",
"Y ..o.............| | | | | | W W W W W W W W W E E E E T T E T T T T T T Y T Y Y Y I I Y I I I ....| T K 4.4.4.4.4.4.4.4.4.4.4.",
"Y o.o...o...o.........| | | | | | | | W W W W W W W W E E E T E E T T T T Y T Y T Y Y Y Y I Y I ..o...| E K 4.4.4.4.4.4.4.4.4.4.",
"Y o.o.o.o.o...................| | | | | W W W W W W E E W E E E E T T T T T T Y Y Y Y Y Y Y Y I | -.+...W E 3 4.4.4.4.4.4.4.4.4.",
"Y +.+.o.o.o.o...o...........| ..| | | | | | W W W W W W W E E E E E E T E T T T T T T Y Y Y Y Y | :.-.o...| T K 4.4.4.4.4.4.4.4.",
"Y +.+.+.o.o.o.o.o.................| ..| | | | | | W W W W W W W E E E E E E T T T T T T T Y Y Y | 3.:.-.+...| T K 4.4.4.4.4.4.4.",
"T +.+.+.+.+.+.o.o.o.o.o.o.o...........| ..| | | | | | W W W W W W W E E E E E E T T T T T T T Y ..3.3.:.-.o...| E K 4.4.4.4.4.4.",
"T +.+.+.+.+.+.+.+.o.o.o.o.....o.o.........| | | | | | | | W W W W W W W E E E E E T E T T T T T o.1.3.3.:.-.+...| T K 4.4.4.4.4.",
"T -.-.+.+.+.+.+.+.o.+.o.+.o.o.o...o.............| | | | | | W ' W W W W W W E E E E E E T E T T +.1.1.3.1.:.-.o...| T K 4.4.4.4.",
"T -.-.-.-.+.-.+.+.+.+.+.o.o.o.o.o.o.......o.O.O.O.X.X.X.X.X.X.X... . .X. . . . . .'  .' ` _ Q R -.1.3.3.3.1.:.-.o...W E K 4.4.4.",
"E -.-.-.-.-.-.+.+.+.+.+.+.+.o.+.o.o.o.o.o.%.2.<.<.,.,.,.,.,.*.,.,.,.,.,.,.,.,.,.,.,.*.#.^ z g U -.1.1.1.3.3.3.:.-.+...| E K 4.4.",
"T :.:.-.-.-.-.-.-.+.-.+.+.+.+.+.o.+.o.o.o.%.<.<.,.=.=.=.=.=.=.=.=.=.=.=.=.=.=.&.=.=.#.( z g d Y :.1.1.3.3.3.3.1.:.-.o...| T K 4.",
"E :.:.:.-.:.-.-.-.-.+.-.+.+.+.+.+.+.O.+.o.>.,.,.#.} } } { { { [ [ [ [ [ [ [ [ [ [ ] J z f d a I -.+.+.o.....| | W | | W W W E K ",
"E :.:.:.:.:.:.-.-.-.-.-.-.+.+.+.+.+.+.+.+.=.&.@.) J G D Z v z l l l l k l l l k l k j d d w p 3 K P I T E E T T T T T T T T Y K ",
"E 1.:.:.:.:.:.:.-.:.:.-.-.-.-.-.+.-.+.+.+.&.#.{ J Z N l j g d d d d d d d d d w d d w w w w u < 2 3 P Y T E E E E E T T T T T L ",
"E :.1.:.:.:.:.:.:.:.-.-.-.-.-.-.-.-.+.+.%.&.#.[ G C z j d d w w d w w w d w w w d w w w w w = > , 2 P Y E E E E E E T T T T T L ",
"W 1.1.1.1.1.1.:.:.:.:.:.:.:.-.-.-.-.-.-.%.&.#.) F N k f d w w w w w w w w w w w w w w w w w + ; , 2 P Y E W W E E E E E E T E L ",
"W 1.1.1.1.1.:.1.1.:.:.:.:.:.:.-.-.-.-.-.=.&.@.( S c j d w w O o O o o o O O O o O o o o o o   . > 2 P T E W W W W E E E E E E L ",
"W 3.3.3.1.1.1.1.:.1.:.1.:.:.:.:.:.:.-.-.&.&.} / A z g w w 9   . . . . . . . . . . .   . .   . : < K I E W W W W W W W W E E E P ",
"W 1.1.3.3.3.1.1.1.1.:.1.1.:.:.:.:.:.-.:.&.&.{ ^ Z l f w w 7 . . ; ; : : : : : : : : : : : : > , 1 L Y E | | W W W W W W E E E P ",
"W 1.3.3.3.1.3.1.1.1.1.1.:.1.1.:.:.:.:.;.&.#.[ H C l f w w X . ; : , < 1 1 1 1 < 1 1 1 < 1 < 1 2 K Y E W | | | | | W W W W W W P ",
"W 3.3.3.3.3.3.3.3.3.1.1.1.1.1.:.1.:.1.>.&.#.] G C l g d d % . : , 2 K L P P L P L L L L L L L P I T W | ..| | | | W W | W W W P ",
"E 1.3.3.1.3.3.3.3.1.3.3.1.1.1.1.1.:.:.>.&.@.) F C z j g g $ ; , 1 P Y E E E E E E T E T E T T E W | | ....| ..| | | | | | W | P ",
"W 3.1.3.3.3.1.3.3.1.3.3.3.3.1.1.1.1.1.*.=.@./ D Z v l l l . : < K Y W ..X.............| ..| | | | ........| ......| | | | | W I ",
"W 1.3.3.3.3.3.3.3.3.3.3.3.3.3.3.1.1.1.=.#.} ^ S Z V B C F ) @.&.,.,.,.,.,.,.,.&.[ A k ! o.o.o.o.o.....o...........| ..| | | | P ",
"W 1.3.1.3.3.3.3.3.3.3.1.3.3.1.3.3.3.1.&.#.{ J A Z Z A F ^ { #.&.=.*.*.*.*.*.&.} A j d ~ ..o.o.o.o.o.o...o...............| | | I ",
"W 1.3.1.1.3.3.3.3.3.3.3.3.3.3.3.1.3.2.&.#.[ H A Z Z A F J ( [ { } } } } } } ] Z h d w | | | ..o.o.+.+.o.o.o.o...............| I ",
"W 1.3.3.3.3.1.1.1.3.1.3.3.1.3.3.3.3.,.&.#.] F Z C N c z z z z x x c c c c x l g w w t Y T E | ..o.+.+.o.o.o.o.o.o.............I ",
"E 1.1.3.1.3.3.3.3.3.3.3.3.3.3.3.3.3.,.&.@.) D C c l j g f d f d f d f d d d d d w w i 3 L I T ....o.+.+.o.+.o.o.o.o.o...o.....I ",
"W 1.3.3.3.1.1.3.3.1.3.3.3.3.3.3.3.3.*.=.@./ S N l g d w w w w w w w w w w w w w w w y < 2 L Y | +.+.+.+.+.+.+.o.o.o.o...o.....Y ",
"W 3.1.1.3.3.3.1.3.3.1.1.3.1.3.3.3.3.&.#.{ ^ Z z j d d w w w w w w w w d w w w w w w - : < 3 Y | o.+.+.-.+.+.+.+.o.+.o.o.o.o...Y ",
"E 1.3.3.1.3.3.3.1.3.3.3.1.3.3.1.3.2.&.#.{ H C l g w d 4 X X X X X X X X X X X X X X @ : < 3 T ..+.-.-.-.+.-.+.+.+.+.+.+.+.o.+.I ",
"W 1.1.1.3.1.1.3.1.3.1.3.1.3.3.1.1.<.&.#.[ G V k d w d - . ; ; ; ; ; ; ; ; ; ; ; ; ; ; > 1 L E ..+.-.-.-.-.+.-.+.+.+.+.o.+.o.+.Y ",
"W 3.1.3.1.1.3.3.3.3.3.1.3.1.3.3.3.,.&.#.) F v j d w w O . : : : > > > > > > > > : > > < 3 I | +.-.:.-.-.-.-.-.-.+.+.+.+.+.+.o.Y ",
"E 1.1.1.3.1.1.1.1.1.3.3.3.1.3.1.1.*.&.@.) S x g d d d ; : : > 1 2 2 2 2 2 2 2 2 2 2 2 K P T ..+.-.:.:.-.:.-.-.-.-.-.-.+.+.+.+.Y ",
"W 3.3.1.1.3.3.1.1.3.1.1.3.3.1.3.3.=.#.@./ A l g d w 0 ; : , 2 K P I I I I I I I I I I Y T ..+.-.:.:.:.:.:.-.:.-.-.-.-.-.-.+.+.Y ",
"E 1.1.3.1.3.1.1.3.1.1.3.1.1.3.3.1.=.#.{ J Z l f w w 7 ; : 1 L Y W | | | | | ..| | | ......+.-.:.:.1.:.:.:.:.-.:.:.-.-.-.-.-.+.T ",
"W 1.1.3.1.3.1.3.3.1.3.3.1.3.3.1.2.&.#.[ H V k f w w X : , 2 I | ..-.-.-.+.-.-.-.-.-.-.-.:.:.:.1.1.:.1.:.:.:.:.:.:.-.-.:.-.-.-.T ",
"E 1.1.3.1.1.1.1.1.1.1.1.1.1.1.3.<.&.#.[ G N j d w w * : < K T ..-.1.:.1.1.1.1.1.1.:.1.1.1.1.1.1.1.1.1.:.1.:.1.:.:.:.:.-.-.-.-.T ",
"W 1.1.1.3.1.1.3.1.3.1.3.3.1.1.1.,.&.#.) D v j d w w $ : 1 L E +.:.3.3.3.3.3.3.1.3.3.3.3.3.3.3.1.1.1.1.1.1.1.:.:.:.:.:.:.-.:.:.T ",
"E 1.1.1.1.1.1.1.1.3.1.1.1.3.3.1.*.#.@./ S z g d w w ; > 1 P | +.1.3.1.3.3.3.3.3.3.1.3.3.3.3.3.3.1.3.1.1.1.1.1.1.1.:.1.:.:.:.:.T ",
"W 1.1.3.1.1.1.3.3.1.1.3.1.1.3.1.*.#.} ^ Z z g w w 8 ; > 2 I | -.1.1.1.3.3.1.3.3.3.3.3.1.3.3.3.3.3.3.3.3.3.1.1.1.1.1.1.:.:.:.:.T ",
"E 1.1.1.1.1.1.1.1.1.1.1.1.3.1.1.&.#.[ H V k f d w 5 : > 3 I ..-.1.1.3.3.1.3.3.3.1.3.3.3.3.3.1.3.3.3.3.1.3.3.1.1.1.:.1.1.1.1.:.E ",
"E 1.1.1.1.1.1.1.1.1.1.1.1.3.1.2.#.{ J N l g d w w X : , 3 T ..:.1.3.3.1.3.3.3.1.3.3.3.3.3.3.3.3.3.1.3.3.3.1.3.3.1.1.1.1.1.1.1.T ",
"W 1.1.1.1.1.3.1.1.1.3.1.1.1.1.#.^ C k g f d w w w O : < L T o.:.1.1.1.3.3.1.1.3.1.3.1.3.3.1.3.3.3.3.3.3.3.3.3.1.3.3.1.1.1.1.1.E ",
"E 1.1.1.1.1.1.1.1.1.1.1.1.1.1./ k g d d w w w w w # : 1 L W +.:.3.1.3.1.3.1.3.3.1.3.3.1.1.3.3.3.3.3.1.3.3.3.3.3.1.3.1.3.3.1.1.W ",
"E 1.1.1.1.1.1.1.1.1.1.1.1.1.1.M f w d w w w w w q ; > 1 P | +.:.1.3.1.3.3.3.1.1.3.1.3.3.3.1.3.1.3.3.3.3.3.1.3.3.3.3.3.3.3.3.1.E ",
"E 1.1.1.1.1.1.1.1.1.1.1.1.1.1.m n b s i e 4 4 8 6 ; > 2 I ..-.1.1.3.1.3.1.3.3.3.3.1.1.3.3.1.3.3.3.3.3.3.3.3.3.1.3.1.3.3.3.3.3.W ",
"E 1.1.1.1.1.:.1.1.1.1.1.1.1.1.1.-. .I 2 , : . ; . : < 3 Y ..-.1.1.1.1.3.1.1.1.3.3.3.3.1.3.3.1.3.1.1.3.1.3.3.3.3.3.3.3.3.3.1.1.W ",
"E 1.1.1.1.1.1.1.1.1.1.1.1.1.1.:.+.| I 3 < > : : > , 1 L E o.-.1.3.1.1.3.1.3.1.1.1.3.3.1.3.3.1.3.3.3.3.1.3.3.3.3.3.1.3.3.3.3.3.W ",
"E 1.1.1.1.1.1.1.:.1.1.1.1.1.1.:.-...T L 2 1 1 1 1 2 K I W +.:.1.1.3.3.1.1.3.1.3.1.1.1.3.1.3.3.1.3.1.3.1.3.1.3.1.3.3.3.3.3.1.3.E ",
"E 1.1.1.:.1.1.1.1.1.1.1.1.1.1.1.-.o.W Y I L L L L P Y W ..-.1.1.1.3.1.1.3.1.1.3.3.1.1.3.1.3.3.1.1.1.3.3.1.1.3.3.1.3.1.3.3.3.3.W ",
"E 1.1.1.1.1.1.1.1.1.1.1.1.1.1.1.:.+.o.| | W W W W | | o.-.:.1.1.1.1.1.3.1.1.3.1.1.3.1.1.1.3.1.3.3.3.3.1.3.3.3.1.1.3.3.3.1.3.1.E ",
"E 1.1.1.:.1.1.1.1.1.1.1.1.1.1.1.:.:.-.+.+.+.+.+.+.+.-.-.:.1.1.1.1.1.1.1.3.3.1.1.1.1.3.1.1.3.3.1.3.1.1.3.3.1.1.3.3.1.3.1.3.3.1.W ",
"W :.1.1.1.1.1.1.1.1.1.:.1.1.1.1.1.:.1.:.:.:.:.:.:.:.:.:.1.1.1.1.3.1.1.1.1.1.1.3.3.1.1.3.3.1.1.1.1.1.3.3.3.3.3.1.3.3.3.1.1.3.1.W ",
"E 1.1.1.1.1.1.:.1.1.1.1.1.1.1.1.1.1.1.1.1.1.1.1.3.1.1.1.1.1.1.1.1.1.1.1.1.3.1.1.1.3.1.3.1.1.3.3.1.3.1.1.1.1.3.3.1.1.3.3.3.1.1.W ",
"W :.:.1.1.1.1.1.:.1.1.1.1.:.1.1.1.1.1.1.1.1.1.1.1.1.1.1.1.1.1.1.1.1.3.1.1.1.1.1.1.1.1.1.1.3.1.1.3.1.3.1.1.3.1.3.3.3.1.3.3.3.1.E ",
"E 1.:.1.1.1.1.1.1.1.1.:.1.:.1.1.:.1.1.1.1.1.1.1.1.1.1.1.1.1.1.1.1.1.1.1.1.3.1.1.1.1.1.3.1.3.1.1.1.1.3.1.1.3.1.1.1.1.3.1.1.3.1.W ",
"E 1.1.1.1.1.:.1.1.1.1.1.1.1.1.1.1.1.1.1.1.1.1.1.1.1.1.1.1.1.1.1.1.1.1.1.1.1.1.1.1.1.1.1.1.1.1.3.1.3.3.1.1.1.3.1.3.3.1.3.1.3.1.W ",
"E 1.:.1.1.:.1.:.:.1.1.1.1.1.1.1.1.1.1.1.1.1.1.1.1.1.1.1.1.1.1.1.1.1.1.1.1.1.1.1.1.1.1.1.1.1.1.1.1.1.1.3.1.1.1.1.1.3.1.1.1.1.1.W ",
"L E E E E E E E E E E E E E E T E E E E E T E E E E E E E E E W E E E E W E E W E E W E E W E E E W E E W E E W E E E E W E E L "
};
