/* XPM */
static const char *h64[] = {
/* columns rows colors chars-per-pixel */
"64 64 103 2",
"   c #3E3E3E",
".  c #5E3838",
"X  c #672727",
"o  c #663030",
"O  c #683333",
"+  c #424242",
"@  c #4A4A4A",
"#  c #574C4C",
"$  c #535353",
"%  c #5B5B5B",
"&  c #616161",
"*  c #6A6A6A",
"=  c #737272",
"-  c #7E7E7E",
";  c #8F0F0F",
":  c #970D0D",
">  c #921313",
",  c #971818",
"<  c #9E1F1F",
"1  c #902626",
"2  c #AA0000",
"3  c #B20000",
"4  c #BB0000",
"5  c #A02020",
"6  c #AA2A2A",
"7  c #AD3D3D",
"8  c #B33333",
"9  c #BB3939",
"0  c #8F4F4F",
"q  c #887373",
"w  c #BB4C4C",
"e  c #B27979",
"r  c #C40000",
"t  c #C50A0A",
"y  c #CB0000",
"u  c #D40000",
"i  c #DA0000",
"p  c #E10303",
"a  c #E20B0B",
"s  c #E01616",
"d  c #E41B1B",
"f  c #E52424",
"g  c #E62929",
"h  c #E73333",
"j  c #E83C3C",
"k  c #E94242",
"l  c #E94B4B",
"z  c #EB5353",
"x  c #EB5A5A",
"c  c #EC6363",
"v  c #ED6969",
"b  c #EE7272",
"n  c #F07E7E",
"m  c #838383",
"M  c #8C8C8C",
"N  c #9A8F8F",
"B  c #949494",
"V  c #9C9C9C",
"C  c #A3A3A3",
"Z  c #ABABAB",
"A  c #BAAEAE",
"S  c #B3B3B3",
"D  c #BBBBBB",
"F  c #C59D9D",
"G  c #C2BCBC",
"H  c #CEBBBB",
"J  c #E68989",
"K  c LightCoral",
"L  c #F18C8C",
"P  c #F29393",
"I  c #F39C9C",
"U  c #ECB8B8",
"Y  c #F4A5A5",
"T  c #F5ABAB",
"R  c #F6B4B4",
"E  c #F7BBBB",
"W  c #C3C3C3",
"Q  c #CBCBCB",
"!  c #D5C8C8",
"~  c #D4D4D4",
"^  c #DCD7D7",
"/  c #DBDBDB",
"(  c #E4CACA",
")  c #E9C6C6",
"_  c #E3D4D4",
"`  c #EDD3D3",
"'  c #F2C7C7",
"]  c #F8C2C2",
"[  c #F9CACA",
"{  c #F1D7D7",
"}  c #F2DCDC",
"|  c #FAD1D1",
" . c #FADADA",
".. c #E3E3E3",
"X. c #ECE1E1",
"o. c #EBEBEB",
"O. c #F5E5E5",
"+. c #F5E8E8",
"@. c #FBE3E3",
"#. c #FCEBEB",
"$. c #F5F5F5",
"%. c #F9F9F9",
"&. c None",
/* pixels */
"m V V V V V V V V V V V B B V B B B B B B B M B M M M B M M M M M M m M m m M m m m m m m m m - - &.&.&.&.&.&.&.&.&.&.&.&.&.&.&.",
"C Q W Q W W W W W D W D D D D D D S S S S S S Z S Z Z Z C Z Z C C C C C C C C V V V V V V B B B S - &.&.&.&.&.&.&.&.&.&.&.&.&.&.",
"C Q Q Q Q W Q W W W W D D D D D D S D D S S S S S Z Z Z Z Z C Z C C C C C C C V C V V V V B B B D Z m &.&.&.&.&.&.&.&.&.&.&.&.&.",
"C Q Q Q Q Q W W W W W W W W D D D D D D S D S S S S S S S Z Z Z Z Z Z C C C C C V C V V V V V V W W S m &.&.&.&.&.&.&.&.&.&.&.&.",
"C Q Q Q Q Q Q Q W W Q W W W D W D D D D D D S D S S S S Z S S Z Z Z Z Z C C C C C C C C C V V V W Q W S - &.&.&.&.&.&.&.&.&.&.&.",
"C ~ ~ ~ Q ~ Q Q Q Q Q W Q W W W W D W D D D D D D S D S S S Z S Z Z Z Z Z Z Z C C C C V C V C V Q ^ Q D S - &.&.&.&.&.&.&.&.&.&.",
"C ~ ~ ~ ~ ~ Q Q Q Q Q Q Q W Q W W W W W D D D D D D S S S S S S S Z Z Z Z Z Z Z C Z C C C C C V Q ..~ Q D S - &.&.&.&.&.&.&.&.&.",
"Z ~ ^ ~ ~ ~ ~ ~ Q ~ Q Q Q Q Q Q Q W W W W W W D D D D D S D S S S S S S Z Z Z Z Z Z Z C C C C C W o.../ Q W S - &.&.&.&.&.&.&.&.",
"Z / / / / ~ ~ ~ ~ ~ Q ~ Q Q Q Q W Q W W W W W W D W G D D D D D S S S S S S Z Z Z Z Z Z Z C C C W %.o./ / Q D S m &.&.&.&.&.&.&.",
"Z / / / / / ~ ~ ~ ~ ~ ~ ~ Q Q Q Q Q Q Q Q W W W W D W D D D D D D D S S S S S S Z Z Z Z Z Z Z C Q %.%.o./ / Q D S m &.&.&.&.&.&.",
"Z / / / / / / / ~ ~ ~ ~ ~ ~ ~ Q Q ~ Q Q W Q Q W Q W W W D D D D D D D D S S S S S Z S Z Z Z Z Z ~ %.%.%.o.../ Q W Z m &.&.&.&.&.",
"Z ../ / / / / / / ~ / ~ ~ ~ ~ ~ Q ~ #.#.#.@.} | Y k y W W W W D D D D D D S D S S S S S Z S Z Z ^ $.%.%.%.o...~ Q W Z m &.&.&.&.",
"Z ......../ ../ / / / / ~ ~ ~ ~ ~ ~ #.#.#.@. .E x y 2 G D G D W D D D D D D D D S S S S S S Z Z / %.%.%.%.$.o.../ Q D S m &.&.&.",
"S ............/ / / / / / ~ ~ / ~ ~  .@. .| E b y 3 2 S S S D W W W W D D D D D D D S S S S S S ..%.$.$.$.%.%.o./ / Q W S m &.&.",
"S o...o.........../ / / / / ^ / ^ ~ [ [ ] I v i 2 2 2 B V C S D W W W W W D W D D D D D S S S S o.$.$.%.%.%.%.%.o...^ Q W Z m &.",
"S o.o...o.............../ / / / / / E E Y b g y 2 2 2 = - B C D W Q W W W W W D D D D D D D D S / / / ~ Q Q Q D W D D D D D S m ",
"S o.o.o...o.o.........../ ../ / ../ E E Y b g y 2 2 2 % * - V S W W Q W W W W W W D W D D D D D D S S S S S S Z Z Z Z Z Z Z C m ",
"S o.$.o.o.o.o.o.o.....o......./ ../ E E Y b g y 2 2 2 @ % = V S W Q Q Q Q Q W W W W W D W D D D D D D S S S S S S Z Z Z Z Z Z M ",
"S $.o.o.o.o.o.o.o.o.............../ ] E Y b g y 2 2 2   $ * V S W ~ Q Q Q Q Q W W W W W W D D D D D D D S S S S S S S Z Z Z Z M ",
"D $.$.$.$.$.o.o.o.o.o.o.o...o.......E E Y b g y 2 2 2   $ = B S Q Q ~ Q Q Q Q Q Q Q W Q W W W D D D D D D D D D S S S S S S Z M ",
"S %.$.$.$.$.o.$.o.o.o.o.o...o.......E E Y b g y 3 2 2 + $ = V D Q ~ ~ Q ~ Q Q Q Q Q W Q W W W W W W D D D D D D S S S S S S S M ",
"D %.%.$.%.$.$.$.$.$.$.o.o.o.o.o.o.o.E E T b g u 3 2 2 + $ = V D ^ X.X.} ` ` ( ! Q Q Q Q Q W Q W W W W D D W D D D D D D S S S M ",
"S %.%.%.%.%.$.$.$.o.$.$.$.o.o.o.o.o.E E Y b h u r 4 r + $ = G +.#.#.#.@. .| ] I J H Q Q Q Q Q W W W W W W W D D D D D D S S S B ",
"D %.%.$.%.$.%.%.$.$.$.$.o.$.$.o.o.o.E E T b j p u i g @ = _ #.#.@.@.| | [ ] R P z s F W W Q Q Q Q Q Q W W W W W W D D D D D D B ",
"S $.%.%.%.%.%.%.%.$.$.$.$.$.$.o.o.o.E E T b k f d j n q ` #.@. .[ E T Y I I P n h u t A W Q Q Q Q Q Q W W W W W W D W D D D D V ",
"D %.%.%.$.%.%.$.%.%.%.%.$.$.$.$.$.$.E E Y b k j k x n Y T Y n z h g j l x c v x d y 4 7 S D Q Q Q Q Q Q Q Q Q W Q W W D W D D B ",
"S %.$.%.%.%.%.%.%.$.%.%.%.$.$.$.$.$.E E Y b k j h d p i y r 3 2 3 4 u a h k l k p y 3 2 N Z D Q Q ~ Q ~ Q Q Q W W W W W W W D V ",
"D $.%.%.%.$.%.%.%.%.%.%.%.%.%.%.$.%.E E Y b k g i r 3 2 2 2 2 2 2 2 4 i f j l k p r 3 2 0 B S D Q ~ Q ~ Q Q Q Q Q Q Q W W W D V ",
"D $.%.%.%.$.%.$.%.%.%.$.%.%.$.%.%.%.E E Y b j a y 3 2 2 2 2 2 2 2 2 3 y d k l k a r 3 2 1 - V S W ~ ~ ~ Q ~ Q Q Q Q Q Q Q W W V ",
"S %.$.%.$.%.%.%.%.$.%.%.%.%.%.%.%.%.E E Y b j i 3 2 2 2 ; O # $ @ O 3 u f z z k d y 2 2 , * m Z D ~ ~ ~ ~ ~ Q ~ Q Q Q Q Q Q W V ",
"D %.$.$.%.%.$.%.%.%.%.%.$.%.%.%.$.%.E E Y b h y 3 2 2 X   + @ @ @ @ . u k v c l f y 2 2 : % = C D Q ~ ~ ~ ~ ~ ~ ~ Q Q Q Q Q Q V ",
"S %.%.%.$.%.%.$.$.%.%.$.%.%.$.%.%.%.E E Y b g y 2 2 2     + @ @ $ $ % w b n v z g y 2 2 2 $ = B S Q ~ / / ~ ~ ~ ~ ~ ~ Q ~ Q Q V ",
"S %.%.$.%.%.$.%.%.$.%.$.%.%.%.%.%.%.E E Y b g y 2 2 2 + + @ $ * = = = e P P n x g y 3 2 2 $ * M S Q / / / / / ~ ~ ~ ~ ~ Q Q ~ V ",
"D %.$.%.$.$.%.$.%.%.$.%.$.$.%.%.%.%.] E Y b g y 2 2 2 + @ $ = m V C C F Y Y L x g y 2 2 2 @ & m Z W ~ / / / / / ~ / ~ ~ ~ ~ ~ C ",
"S %.$.%.%.$.%.%.$.%.$.%.%.$.%.$.%.$.E E Y b g y 2 2 2 + $ * m C D Q Q H R T P c g y 2 2 2 + & - Z W / / ../ / / / / / / ~ ~ ~ V ",
"D $.$.%.$.%.$.%.%.$.%.$.%.%.$.%.$.%.E E Y b g y 2 2 2 + % - C W ^ ...._ R R I c g y 2 2 2 @ & - Z Q / ../ ..../ / / / ~ / / ~ C ",
"S $.%.$.$.$.%.$.%.%.$.%.%.%.$.%.%.%.E E T b g y 2 2 2 @ & - Z Q o.$.$.O.E R I c g y 2 2 2 + & - Z W / ............/ / / / / ~ C ",
"D $.%.$.%.$.$.%.$.$.$.%.$.%.%.$.$.%.E E Y b f y 2 2 2 @ & m S ~ o.$.%.O.E E I v g y 2 2 2 @ % - Z Q ....o........./ ../ / / / C ",
"D $.$.%.%.$.$.%.%.$.$.%.%.$.%.$.%.$.E E Y b g y 2 2 2 @ & m S / o.%.%.O.E E I v g y 2 2 2 @ % - Z Q / o...o.............../ / Z ",
"S %.$.$.$.$.%.$.$.$.%.$.$.%.$.%.%.%.E E Y b g r 2 2 2 @ & m S ~ o.%.%.O.E E I v g y 2 2 2 + & - Z Q ..o.o.o.o...o........./ / Z ",
"S %.$.$.%.%.$.$.$.$.%.%.$.%.$.%.$.%.E E Y b g y 2 2 2 @ & m S ~ o.%.%.+.E E I v g y 2 2 2 @ & m Z ~ ..o.o.o.o.o...o...........Z ",
"S $.%.$.$.$.$.%.%.$.$.$.$.$.$.%.$.$.E E Y b g r 2 2 2 @ & m S / o.%.%.+.E R I v g y 2 2 2 @ & m S ~ o.$.$.o.o.o.o.o.o.o.o.....Z ",
"D $.$.$.$.$.$.%.%.$.$.$.%.%.$.$.%.%.E E Y b g y 2 2 2 @ & m S ~ o.%.%.O.E E I v g y 2 2 2 @ & m S ~ ..%.$.o.o.$.o.o.o.o.o.....S ",
"S %.$.$.$.$.$.$.$.$.%.%.$.$.%.$.$.$.E E Y b g y 2 2 2 @ & m S ~ o.$.%.O.E E I v g y 2 2 2 @ & m S ~ o.$.$.%.$.o.$.o.o.o.o.o.o.Z ",
"S $.%.$.%.$.$.$.$.$.$.$.%.$.$.%.%.$.E E Y b g y 2 2 2 @ & m S ~ o.%.$.+.E E I v g y 2 2 2 @ & m S ~ o.%.$.$.$.$.$.o.$.o.o.o.o.S ",
"D $.$.$.$.$.%.$.$.%.$.%.$.$.%.$.$.%.E R Y v d y 2 2 2 + & m S ~ o.%.%.@.E R I x d y 2 2 2 @ & m S ~ o.%.%.%.%.$.%.$.$.o.o.$.o.S ",
"S $.$.$.$.%.$.$.$.$.$.%.$.$.$.%.$.%.T Y n f u 4 2 2 2 @ & m S ~ o.%.%.O.T I c d u 4 2 2 2 @ & m S / o.%.%.$.$.%.%.$.$.$.$.o.o.S ",
"S $.$.$.$.$.$.$.$.$.$.$.$.$.$.$.$.$.b h u 4 3 2 2 2 2 @ & m S ~ o.%.$.} c f u 4 3 2 2 2 2 @ & m S / o.%.%.%.%.%.%.%.%.$.%.$.$.S ",
"D $.$.$.$.$.$.$.$.$.$.$.$.$.$.$.$.$.i 4 3 2 2 2 2 2 2 @ & m S ~ o.%.%.' u 4 2 2 2 2 2 2 2 @ & m S / o.%.%.%.%.%.%.%.%.%.%.$.$.S ",
"S $.$.$.$.$.$.$.$.$.$.$.$.%.$.$.$.$.4 2 2 2 2 2 2 2 2 @ & m S ~ o.$.$.U 3 2 2 2 2 2 2 2 2 @ & m S ~ o.%.$.%.%.$.$.%.$.%.%.%.%.S ",
"S $.$.$.$.o.$.$.$.$.$.$.$.$.%.$.$.$.9 8 6 1 , > ; ; ; + & m S ~ o.$.$.) 9 8 6 1 > > ; ; ; @ & m S ~ o.%.%.%.%.%.%.%.$.%.$.%.%.S ",
"S $.$.$.$.$.$.$.$.$.$.$.$.$.$.$.%.%...~ S m & # + + + @ & m S ~ o.%.$.$.o.Q Z - % @ + + + @ & m S ~ o.%.%.$.%.%.%.%.%.%.%.%.%.D ",
"S $.$.$.$.$.$.$.$.$.$.$.$.$.$.$.%.$.o./ D M * % @ $ @ % = M D / o.$.$.$...~ Z m * $ $ @ $ % * M D / o.%.%.%.$.%.%.$.%.%.%.$.%.S ",
"S $.$.$.$.$.$.$.$.$.$.$.$.$.$.$.$.$.o./ D C m = * * * = m V W / o.%.%.$.o.~ D B - = * * * = m C W / o.%.%.$.%.$.%.%.%.$.%.%.%.D ",
"S $.$.$.o.$.$.$.$.$.$.$.$.$.$.$.$.$.o...~ S C B M M M V C S ~ ..$.$.$.$.o...Q S C B B M M V C D ~ ..$.%.%.$.%.%.$.%.%.%.$.%.$.S ",
"S $.$.$.$.$.$.$.$.$.$.$.$.$.$.$.$.$.$.o./ Q Q D D D D D W Q / o.$.$.%.$.o.o./ Q W D D D D D W ~ / o.$.%.$.%.$.%.%.$.%.$.%.%.%.D ",
"S o.$.$.$.$.$.$.$.$.$.$.$.$.$.$.$.$.o.o.o.../ / ^ / / ^ / ..o.$.$.$.%.$.$.o.o.../ / / / / / / ..o.o.$.%.$.%.$.%.%.$.%.$.%.%.$.S ",
"S $.$.$.o.$.$.$.$.$.$.$.$.$.$.$.$.$.$.$.o.$.o.o.o.o.o.o.$.o.$.$.$.$.$.$.$.$.$.$.o.o.$.o.o.o.$.o.$.$.%.$.%.$.%.%.$.%.$.%.$.%.%.D ",
"S $.$.$.$.$.$.o.o.$.$.o.$.$.$.$.$.$.$.$.%.$.$.$.$.$.$.$.$.$.%.$.$.$.$.$.$.$.$.$.$.%.$.%.%.%.$.$.%.%.$.%.$.%.%.$.%.%.$.%.$.%.$.S ",
"S $.o.$.$.$.$.$.$.$.$.$.$.o.$.$.$.$.$.$.$.$.$.$.$.$.$.$.$.$.$.$.$.$.$.$.$.$.$.$.$.$.$.$.%.%.$.%.$.$.$.%.$.$.$.%.$.%.%.$.%.%.$.D ",
"S $.$.$.$.$.$.$.$.$.o.$.$.o.$.$.o.$.$.$.$.$.$.$.$.$.$.$.$.$.$.$.$.%.$.$.$.$.%.$.$.$.$.$.$.$.$.$.%.$.$.%.$.%.$.$.$.$.%.$.$.%.%.S ",
"S $.$.o.$.o.o.$.$.$.$.$.$.$.$.$.$.$.$.$.$.$.$.$.$.$.$.$.$.$.$.$.$.$.$.$.$.$.$.$.$.$.$.%.$.%.$.%.$.%.$.$.$.%.%.$.%.%.$.%.%.$.%.S ",
"S $.$.$.$.$.o.$.o.$.$.$.$.$.$.$.$.$.$.$.o.$.$.$.$.$.$.$.$.$.$.$.$.$.%.$.$.%.$.$.$.%.%.$.$.%.%.$.$.%.%.$.%.$.%.%.$.$.%.$.%.%.%.S ",
"M S S Z S S S S S S S S S S S Z S S S S S S S S S S S S S S S S S S S S S S S S S S S S S S S S S S S S S S S S S S S S S S S M "
};
