/* XPM */
static const char *proj64[] = {
/* columns rows colors chars-per-pixel */
"64 56 214 2",
"   c #020202",
".  c #101010",
"X  c #1D1D1D",
"o  c #252525",
"O  c #343434",
"+  c gray26",
"@  c gray33",
"#  c gray46",
"$  c #7C7C7C",
"%  c #B43A38",
"&  c #BE3937",
"*  c #BA3938",
"=  c #B6403E",
"-  c #9F4E4D",
";  c #9F5252",
":  c #807D74",
">  c #A35050",
",  c #A65957",
"<  c #B64341",
"1  c #B84544",
"2  c #B94846",
"3  c #BA4B4A",
"4  c #BC504E",
"5  c #BD5352",
"6  c #A7605F",
"7  c #A66E6E",
"8  c #AC6363",
"9  c #A86867",
"0  c #A96C6C",
"q  c #AC7171",
"w  c #AB7F7E",
"e  c #B26464",
"r  c #B26B6B",
"t  c #BB6666",
"y  c #BE6A66",
"u  c #B37474",
"i  c #B67878",
"p  c #B97575",
"a  c #BC7A7A",
"s  c #C33837",
"d  c #C63C3A",
"f  c #CE3736",
"g  c #CA3836",
"h  c #C83A39",
"j  c #DC2E2E",
"k  c #D23635",
"l  c #D23D3C",
"z  c #DB3535",
"x  c #D83938",
"c  c #E0302F",
"v  c #E33434",
"b  c #EB3433",
"n  c #EB3937",
"m  c #EF3F3E",
"M  c #FE2D2D",
"N  c #F23232",
"B  c #F43A39",
"V  c #FD3332",
"C  c #FD3B3B",
"Z  c #C9403F",
"A  c #F2403F",
"S  c #C34342",
"D  c #C84342",
"F  c #C84947",
"G  c #C94C49",
"H  c #C25553",
"J  c #C05C5A",
"K  c #CC5756",
"L  c #CE5D5B",
"P  c #D14443",
"I  c #DB4341",
"U  c #D05353",
"Y  c #D15F5F",
"T  c #DB5B5B",
"R  c #CC605E",
"E  c #C36261",
"W  c #CC6362",
"Q  c #C27B7B",
"!  c #CA7271",
"~  c #CB7D7D",
"^  c #D36766",
"/  c #D46B6B",
"(  c #D96262",
")  c #D57473",
"_  c #D47A7A",
"`  c #DD7676",
"'  c #DC7A79",
"]  c #EE4746",
"[  c #EA4E4C",
"{  c #E35555",
"}  c #EA5252",
"|  c #F24C4C",
" . c #FB4343",
".. c #FB4B4B",
"X. c #F35454",
"o. c #F35D5D",
"O. c #FA5353",
"+. c #F95B5B",
"@. c #F3605F",
"#. c #ED6565",
"$. c #EB6A6A",
"%. c #E37474",
"&. c #E17979",
"*. c #EB7373",
"=. c #EC7C7C",
"-. c #F66565",
";. c #F66B6B",
":. c #F96262",
">. c #FD6B6B",
",. c #F57373",
"<. c #F47B7B",
"1. c #FD7474",
"2. c #FD7B7B",
"3. c #848484",
"4. c #8C8C8C",
"5. c gray58",
"6. c #9B9B9B",
"7. c #AD8686",
"8. c #AD8E8E",
"9. c #A6908A",
"0. c #A79292",
"q. c #AD9493",
"w. c #B29696",
"e. c #B49898",
"r. c #BF9190",
"t. c #BC9B97",
"y. c #A5A5A5",
"u. c gray68",
"i. c #B7ADAD",
"p. c #BAA3A3",
"a. c #BEA8A7",
"s. c #BEACAB",
"d. c #B4B0AF",
"f. c #B3B3B3",
"g. c #BBBBBB",
"h. c #C38383",
"j. c #C38F8C",
"k. c #CB8181",
"l. c #CD8B8B",
"z. c #C29391",
"x. c #C99895",
"c. c #CE9A9A",
"v. c #D38484",
"b. c #D18F8F",
"n. c #DB8584",
"m. c #DC8989",
"M. c #DB908E",
"N. c #D49191",
"B. c #DB9393",
"V. c #DE9898",
"C. c #C7A09D",
"Z. c #CBA19F",
"A. c #CFA4A1",
"S. c #D6A6A4",
"D. c #D8A3A2",
"F. c #DAA8A6",
"G. c #DEAAA8",
"H. c #D5BCBC",
"J. c #E38585",
"K. c #E38B8B",
"L. c #EB8483",
"P. c #EB8B8B",
"I. c #E59494",
"U. c #E39C9B",
"Y. c #ED9191",
"T. c #EB9B9A",
"R. c #F38383",
"E. c #F28B8B",
"W. c #FC8282",
"Q. c #FD8C8C",
"!. c #F19292",
"~. c #F19B9B",
"^. c #FD9393",
"/. c #FD9B9B",
"(. c #E1A0A0",
"). c #E4ABAA",
"_. c #EEA5A5",
"`. c #EDAAAA",
"'. c #E5B8B7",
"]. c #E2BDBC",
"[. c #E9B1B1",
"{. c #F1A2A2",
"}. c #F5A9A9",
"|. c #FCA4A4",
" X c #FDABAB",
".X c #F6B3B3",
"XX c #F2BDBC",
"oX c #FDB4B4",
"OX c #FDBBBB",
"+X c #C4C4C4",
"@X c #CBCBCB",
"#X c #D7CFCE",
"$X c #DDC6C6",
"%X c #DACACA",
"&X c #D3D3D3",
"*X c #DCDCDC",
"=X c #E0C1C1",
"-X c #F2CBCB",
";X c #FEC3C3",
":X c #FDCCCC",
">X c #F3D7D6",
",X c #F3DEDE",
"<X c #FED3D3",
"1X c #FDDBDB",
"2X c #E3E3E3",
"3X c #EDEDED",
"4X c #F2E5E5",
"5X c #F3EDED",
"6X c #FDE2E2",
"7X c #FDECEC",
"8X c #F4F4F4",
"9X c #FEF2F2",
"0X c #FEFDFD",
"qX c None",
/* pixels */
"qXqXqXqXqXqXqXqXE 2 2 < < < < < < < 1 1 1 2 2 2 2 3 3 5 4 5 N.qXqXqXqXqXqXqXqXqXqXqXqXqXqXqXqXqXqXqXqXqXqXqXqXqXqXqXqXqXqXqXqXqX",
"qXqXqXqXqXqXqX5 % % % % % % % % % % % % % % % % % % % % % % < R qXqXqXqXqXqXqXqXqXqXqXqXqXqXqXqXqXqXqXqXqXqXqXqXqXqXqXqXqXqXqXqX",
"qXqXqXqXqXqX! % % % % % % % % % % % % % % % % % % % % % % % * = ~ qXqXqXqXqXqXqXqXqXqXqXqXqXqXqXqXqXqXqXqXqXqXqXqXqXqXqXqXqXqXqX",
"qXqXqXqXqXqX3 * * % * % * % % % % * % * % % % % % % % % % % % % 2 qXqXqXqXqXqXqXqXqXqXqXqXqXqXqXqXqXqXqXqXqXqXqXqXqXqXqXqXqXqXqX",
"qXqXqXqXqXqXS * & * * * * * * * * * * * * * * * * % & * * * % % * H qXqXqXqXqXqXqXqXqXqXqXqXqXqXqXqXqXqXqXqXqXqXqXqXqXqXqXqXqXqX",
"qXqXqXqXqXqXS s s s s s s s s s s & s & & & & & s & & * & & & & * * R qXqXqXqXqXqXqXqXqXqXqXqXqXqXqXqXqXqXqXqXqXqXqXqXqXqXqXqXqX",
"qXqXqXqXqXqXD g h g s s g s s s s s g s g s s s s s s s s s s s s s d F K R ^ ) n.V.,X0XqXqXqXqXqXqXqXqXqXqXqXqXqXqXqXqXqXqXqXqX",
"qXqXqXqXqXqXl f f f f f f g f f f g g g g f g g g g g g s g g g h h g h g s g s s h h Z d D Z D D D D D F D F F G L qXqXqXqXqXqX",
"qXqXqXqXqX0Xl k k k k k k k k f k k k k k k k k f k f f f f f f f f f f f f f h h f g f g g g g g g g s g g g g g h U qXqXqXqXqX",
"qXqXqXqXqXXXx z z k k k z k z k k k k k k k k k k k k k k k k f k k k k k k k k k k f k k l k f k f k f f f f k f f P qXqXqXqXqX",
"qXqXqXqXqXP.z z z z z z z z z z z z z z - w.w.w.e.w.q.q.q.q.q.q.q.q.q.q.q.q.w.q.q.w.q.q.q.q.q.w.q.8.7.w q q 9 6 , > - @ + O .   ",
"qXqXqXqXqX=.v v v v v v v v z v v z v v 8 3X3X3X3X3X3X3X3X3X3X3X3X3X3X3X3X3X3X3X3X3X3X3X3X3X8X3X8X3X3X8X3X8X8X3X3X8X8X3X3X2X&X5.",
"qXqXqXqXqX#.n b b v b v v v b v v v v v 6 3X3X3X3X3X3X3X3X3X3X3X3X3X3X3X3X8X3X8X8X3X3X3X8X3X8X3X3X8X8X3X3X8X3X8X3X8X3X8X8X8X3Xg.",
"qXqXqXqXqXo.b b b b b b b b b b b b b b e 3X3X3X3X3X3X3X3X3X3X3X3X3X3X3X3X3X3X3X3X3X8X3X8X3X3X8X8X3X3X8X8X3X8X8X8X8X8X8X8X8X8Xf.",
"qXqXqXqXqXX.N N N N b N N N N N b N b n e 3X3X3X3X3X3X3X3X3X3X8X3X3X3X3X3X3X3X3X8X3X3X3X8X3X3X3X8X3X8X8X8X8X8X8X8X8X3X8X8X8X8Xf.",
"qXqXqXqXqX..N N j 0.p.p.p.p.p.p.a.a.a.A.i.g.g.+Xg.g.g.g.+Xg.g.g.g.g.g.g.g.g.g.g.g.g.g.g.g.g.g.g.g.g.g.@X2X8X3X8X3X8X8X8X8X8X8Xf.",
"qXqXqXqXqX..V V j *X8X8X8X8X8X8X8X8X8X8X8X8X8X0X8X8X8X8X8X0X8X8X8X0X0X8X8X8X8X0X8X0X8X0X8X0X8X0X8X0X8X3Xf.8X8X3X8X8X8X8X8X8X8Xf.",
"qXqXqXqXqX..V V v *X8X8X8X8X8X8X8X8X8X0X8X8X8X8X8X0X0X8X8X8X8X0X8X8X8X8X0X8X0X8X8X8X0X8X0X8X0X8X0X8X8X8Xg.8X8X8X8X8X8X8X8X8X8Xf.",
"qXqXqXqXqX..V V j *X8X8X8X8X8X8X0X8X0X8X8X8X8X0X8X8X0X8X0X0X8X8X0X8X8X0X8X0X0X8X0X8X8X0X8X8X3X8X3X3X3X3Xf.8X8X8X8X8X8X8X8X8X8Xf.",
"qXqXqXqXqX .V M c *X0X8X8X8X0X8X8X8X8X8X8X0X8X8X8X0X8X8X8X8X0X8X8X0X0X8X0X8X8X0X0X8X8X8X3X3X3X3X3X2X2X*Xf.8X8X8X8X8X8X8X8X8X8Xf.",
"qXqXqXqXqX .V V j *X8X8X8X9X8X8X8X8X8X0X0X8X8X0X8X0X8X0X0X8X8X0X0X0X8X8X8X8X3X3X3X3X2X3X2X2X*X*X*X*X*X&Xu.8X8X8X8X8X8X8X0X8X8Xf.",
"qXqXqXG n B V V c ].>X,X4X8X8X8X0X0X8X8X8X0X0X8X8X0X0X8X8X0X8X8X8X3X8X3X3X3X3X2X2X2X*X*X*X*X*X&X&X&X#X@Xu.8X8X8X8X8X0X8X8X8X8Xf.",
"qXqXX.^.;X<X1X1X1X<X:X:X;XOXOXoX.X X|. X|.|.|.|.|.|.|.}. X}.}.`.`.[.[.'.].=X$X%X#X&X&X&X&X#X#X@X@X@X+X+Xu.8X8X8X8X8X8X8X8X8X0Xf.",
"qXA /.oXOXOXOXOXOXOXOX;X;X;X;X;X;X:X:X:X<X<X<X<X<X<X1X<X1X1X1X1X1X6X6X1X<X<X:X;X;XOXOXoX.X}.}.}.{.T.T.T.I.}.|.}..X}._.-X0X8X8Xf.",
"I >.^.^.^.2.2.2.W.W.Q.^.^./.|.|.|. X|. X X X X X XoXoXoXoXOXoXOXOXOXOXOX;X;X;X;X;X;X:X;X:X:X:X:X<X<X<X<X<X<X1X1X1X1X<XoX1.-X8Xf.",
"B >.>...M M M M M M M M M M M M V V V C C  .......O.O.+.+.:.>.>.1.1.2.W.W.Q.Q.^./.|.|.|.|. X X X X XoX XoXoXoXoXoXOXOXOXOXW.,Xf.",
"B  .V M M M M M M M M M M M M M M M M M M M M M M M M M M M M M M M M M M M M M M M M V V V C A A  .....O.O.+.+.:.2.^./././.R.f.",
"M M M M M M M M M M M M M M M M M M M M M M M M M M M M M M M M M M M M M M M M M M M M M M M M M M M M M M M M M M V O.1.1.+.f.",
"V M M M M M M M M M M M M M M M M M M M M M M M M M M M M M M M M M M M M M M M M M M M M M M M M M M M M M M M M M M M C O.C j.",
"N M M M M M M M M M M M M M M M M M M M M M M M M M M M M M M M M M M M M M M M M M M M M M M A ;X XM M M M M M M M M M M M M j.",
"M M M M M M M M M M M M M M M M M M M M M M M M M M M M M M M M M M M M M M M M M M M M M M M +.0X:XM M M M M M M M M M M M M r.",
"N M M M M M M M M M M M M M M M M M M M M M M M M M M M M M M M M M M M M M M M M M M M M M M O. XQ.M M M M M M M M M M M M M e.",
"N M N M M M M M M M M M M M M M M M M A V M M M M M M M M M M M M M M M M M M M M M M M M M M M M M M M M M M M M M M M M M B y.",
"B V V V V V V M V V V V V V /.9X1./.9X0X0X;XO.V V M V oXoXC oX6XOX..M M M >./. X/.:.M M M M M ..+.C M M M M M M M M M M M M o.y.",
"A C C V C C C C C C C V V C oX0X6X0XOX/.:X0X7XO.V V V 0X1X<X0X0X0XO.V :.6X0X0X0X0X0X;XC M V M ;X0X1.M M M M V M M M M M M M =.6.",
" .A  . .C  .C  .C C  .C C C :X0X7X>.C C C OX0XOXC C ..0X0X6X1.>.W.C :.0X0X X+...1.7X0XOXV C V 1X0X+.C V C V V V V V C V C V (.6.",
"[ .. . . . ... . . ... .A  .6X0X^. . .A  .+.0X9XA  .>.0X0X:.A C A C 1X0X^.C A C C +.0X0X+.C A 7X0X..C C C C C C C C C C C C H.5.",
"{ ..| ..| ..................0X9X........ ...7X0X+. .W.0X1X . ... .1.0X7X . ... . . .:X0XW. ...0X0XA  .A  .A  . .C  .C  .C | @X5.",
"T ..O.O.] | O...O...| O...:.0X<XO...........7X0X+.../.0XoXO.......|.0X X............OX0X/...:.0X6X ... ... ... . . ... . .#.@X4.",
"y +.+.+.} } +.+.X.+.O.+.+.,.0XOX+.O.O.+.O.+.0X0X+.+.oX0X/.O.| O.O.;X0X/...O.O.....O.;X0X^...W.0X:X....O.........O.| ......n.+X4.",
"$ @.+.@.{ { @.+.+.:.o.o.+.^.0X;X+.+.+.+.+.<.0X1X+.+.;X0X^.+.+.+.+.:X0X^.+.+.O.X.+.+.1X0X1.+.^.0XOXO.O.O.O.O.O.O.O.O.O.O.O.c.g.3.",
"qX-.:.;.{ T -.:.:.:.:.:.:.|.0X6X:.+.:.:.:.;X0X|.:.:.1X0X<.o.+.:.+.;X0X|.:.+.+.+.+.,.0X9Xo.+. X0X}.+.+.+.+.X.+.+.+.X.O.+.X.s.g.3.",
"qX$.;.;.T T $.;.;.:.;.;.;.XX0X0X/.-.-.;.|.0X7X;.:.-.7X0X,.:.:.:.-.|.0X6X:.:.:.:.:.<X0XOX:.:.;X0X/.:.:.:.+.:.+.:.+.:.:.o.#.f.u.$ ",
"qX*.;.;.( Y ;.;.,.;.;.,.;.:X0X9X0X:XXX<X0X9XE.;.;.,.0X0X;.;.;.;.;.,.7X0X<XR.;.R.<X0X6X,.-.-.1X0X!.-.-.-.-.-.-.:.:.-.:.-.` u.u.$ ",
"qX=.,.<.^ R *.,.,.,.,.,.,.6X0X~.<X0X0X0X<XR.,.,.,.R.0X7X,.,.,.,.,.;.E.9X0X0X0X0X0X1X<.;.;.,.7X0XR.;.;.;.;.;.;.;.;.;.;.;.Q 6.6.# ",
"qX=.<.<./ E &.<.<.<.<.<.<.7X0XR.<.R.E.<.<.,.<.,.,.<.<.R.,.,.,.,.<.,.,.<.|.:X:XXX!.,.,.,.,.,.0X0X,.,.,.,.,.,.;.,.$.,.;.,.W   X o ",
"qXL.R.<.) t ` R.R.<.R.R.R.0X0XR.<.R.<.R.<.R.<.<.<.<.<.<.<.<.<.<.<.<.<.<.<.<.<.<.<.<.<.<.<.E.0X7X<.<.1.<.,.<.,.*.*.,.<.,.) qXqXqX",
"qXJ.E.E.' t ! R.E.R.R.R.~.0X7XR.R.R.R.E.R.R.R.R.L.R.E.R.R.R.R.R.R.R.R.<.R.R.R.<.R.<.<.R.<.|.0X1X<.<.<.<.R.<.<.%.%.=.<.<.: qXqXqX",
"qXK.Y.E.P.r t J.E.E.E.E.`.0X6XE.E.E.E.E.E.E.E.E.E.E.R.E.E.R.E.R.R.E.R.E.R.E.R.E.E.R.R..X;X7X0X.XR.R.R.R.R.R.R.&.` =.R.=.qXqXqXqX",
"qXM.~.!.!.~ 0 0 ~ m.Y.!.~..X}.!.!.!.Y.!.!.E.!.Y.E.!.!.E.!.!.E.!.!.E.!.Y.E.E.E.!.E.E.E.7X0X0X1XE.E.E.E.E.E.E.L.' _ E.E.L.qXqXqXqX",
"qXj.T.~.~.~.Q 9 0 0 0 0 7 r u p p Q Q Q ~ ~ v.v.v.n.m.m.K.K.K.Y.Y.Y.!.!.!.Y.!.!.Y.Y.!.{.}.{.!.!.!.Y.Y.Y.E.K._ _ n.E.!.K.qXqXqXqX",
"qXqXU.~.T.{.{.B.k.u q 7 7 7 7 7 7 q 0 7 q q q r q u u u u u u i p p p Q a a Q k.~ v.k.v.v.m.m.m.K.m.m.n.~ ~ Q v.!.Y.!.b.qXqXqXqX",
"qXqXx._._._.`.}._.}._._.}._.U.U.V.V.V.B.N.b.b.l.l.h.h.h.h.a a a i i u i i u i i i i i a a a a a a a Q Q a k.B.~.~.~.T.qXqXqXqXqX",
"qXqXqXD.).`.`.`.`.`.`.`.`.`.`.`.`.}.`.`.`._.`._._.}._.`._.`._.)._._._._._.(.U.V.V.V.B.B.N.N.b.l.l.b.b.b.T.{.{.T.T._.U.qXqXqXqXqX",
"qXqXqXqXqXA.S.F.G.G.).G.).).).).).).).`.).).).).).).).`.`.`.`.`.[.`.`.`.`.`.`.`.`.`.`.`.`.`._.}.`.`.`.}.`.`.`.}.}._.z.qXqXqXqXqX",
"qXqXqXqXqXqXqXqXqXqXqXqXqXqXqXqXqXqXqXqXqXqXqXqXqXqXqX: : 9.t.A.S.S.F.F.G.G.G.).).).).).).).).).).`.).).`.).).`.).A.qXqXqXqXqXqX"
};
