/* XPM */
static const char *rc64[] = {
/* columns rows colors chars-per-pixel */
"64 64 199 2",
"   c gray21",
".  c #373737",
"X  c gray22",
"o  c #393939",
"O  c #3A3A3A",
"+  c gray23",
"@  c #3C3C3C",
"#  c gray24",
"$  c #3E3E3E",
"%  c #3F3F3F",
"&  c gray25",
"*  c #414141",
"=  c gray26",
"-  c #434343",
";  c #444444",
":  c gray27",
">  c #464646",
",  c gray28",
"<  c #484848",
"1  c #494949",
"2  c gray29",
"3  c #4B4B4B",
"4  c #4C4C4C",
"5  c gray30",
"6  c #4E4E4E",
"7  c gray31",
"8  c #505050",
"9  c #515151",
"0  c gray32",
"q  c #535353",
"w  c gray33",
"e  c #555555",
"r  c #565656",
"t  c gray34",
"y  c #585858",
"u  c gray35",
"i  c #5A5A5A",
"p  c #5B5B5B",
"a  c gray36",
"s  c #5D5D5D",
"d  c gray37",
"f  c #5F5F5F",
"g  c #606060",
"h  c gray38",
"j  c #626262",
"k  c gray39",
"l  c #646464",
"z  c #656565",
"x  c gray40",
"c  c #676767",
"v  c #686868",
"b  c DimGray",
"n  c #6A6A6A",
"m  c gray42",
"M  c #6C6C6C",
"N  c #6D6D6D",
"B  c gray43",
"V  c #6F6F6F",
"C  c gray44",
"Z  c #717171",
"A  c #727272",
"S  c gray45",
"D  c #747474",
"F  c gray46",
"G  c #767676",
"H  c #777777",
"J  c gray47",
"K  c #797979",
"L  c gray48",
"P  c #7B7B7B",
"I  c #7C7C7C",
"U  c gray49",
"Y  c #7E7E7E",
"T  c gray50",
"R  c #808080",
"E  c #818181",
"W  c gray51",
"Q  c #838383",
"!  c #848484",
"~  c gray52",
"^  c #868686",
"/  c gray53",
"(  c #888888",
")  c #898989",
"_  c gray54",
"`  c #8B8B8B",
"'  c gray55",
"]  c #8D8D8D",
"[  c #8E8E8E",
"{  c gray56",
"}  c #909090",
"|  c gray57",
" . c #929292",
".. c #939393",
"X. c gray58",
"o. c #959595",
"O. c gray59",
"+. c #979797",
"@. c #989898",
"#. c gray60",
"$. c #9A9A9A",
"%. c #9B9B9B",
"&. c gray61",
"*. c #9D9D9D",
"=. c gray62",
"-. c #9F9F9F",
";. c #A0A0A0",
":. c gray63",
">. c #A2A2A2",
",. c gray64",
"<. c #A4A4A4",
"1. c #A5A5A5",
"2. c gray65",
"3. c #A7A7A7",
"4. c gray66",
"5. c #A9A9A9",
"6. c #AAAAAA",
"7. c gray67",
"8. c #ACACAC",
"9. c gray68",
"0. c #AEAEAE",
"q. c #AFAFAF",
"w. c gray69",
"e. c #B1B1B1",
"r. c #B2B2B2",
"t. c gray70",
"y. c #B4B4B4",
"u. c gray71",
"i. c #B6B6B6",
"p. c #B7B7B7",
"a. c gray72",
"s. c #B9B9B9",
"d. c gray73",
"f. c #BBBBBB",
"g. c #BCBCBC",
"h. c gray74",
"j. c gray",
"k. c gray75",
"l. c #C0C0C0",
"z. c #C1C1C1",
"x. c gray76",
"c. c #C3C3C3",
"v. c gray77",
"b. c #C5C5C5",
"n. c #C6C6C6",
"m. c gray78",
"M. c #C8C8C8",
"N. c gray79",
"B. c #CACACA",
"V. c #CBCBCB",
"C. c gray80",
"Z. c #CDCDCD",
"A. c #CECECE",
"S. c gray81",
"D. c #D0D0D0",
"F. c gray82",
"G. c #D2D2D2",
"H. c LightGray",
"J. c gray83",
"K. c #D5D5D5",
"L. c gray84",
"P. c #D7D7D7",
"I. c #D8D8D8",
"U. c gray85",
"Y. c #DADADA",
"T. c gray86",
"R. c gainsboro",
"E. c #DDDDDD",
"W. c gray87",
"Q. c #DFDFDF",
"!. c gray88",
"~. c #E1E1E1",
"^. c #E2E2E2",
"/. c gray89",
"(. c #E4E4E4",
"). c gray90",
"_. c #E6E6E6",
"`. c #E7E7E7",
"'. c gray91",
"]. c #E9E9E9",
"[. c #EAEAEA",
"{. c gray92",
"}. c #ECECEC",
"|. c gray93",
" X c #EEEEEE",
".X c #EFEFEF",
"XX c gray94",
"oX c #F1F1F1",
"OX c gray95",
"+X c #F3F3F3",
"@X c #F4F4F4",
"#X c gray96",
"$X c #F6F6F6",
"%X c gray97",
"&X c #F8F8F8",
"*X c #F9F9F9",
"=X c gray98",
"-X c gray100",
";X c None",
/* pixels */
"^ -.-.-.-.%.%.%.%.%.%.O.O.O.O.O.O.O.} } O.} ] } } } } } ] ] ] ] ] ] _ _ _ _ ^ _ ^ ^ ^ ^ W ^ W W Y ;X;X;X;X;X;X;X;X;X;X;X;X;X;X;X",
"-.N.N.b.b.b.x.x.x.k.k.k.k.s.s.s.s.s.i.i.r.r.r.r.9.9.9.9.5.5.5.,.,.,.,.,.:.:.-.-.%.%.%.O.O.O.O.O.r.Y ;X;X;X;X;X;X;X;X;X;X;X;X;X;X",
",.V.N.N.N.N.b.b.x.x.x.x.k.k.k.s.s.s.s.i.i.i.r.r.r.9.9.9.5.9.5.5.5.,.,.,.,.:.-.-.-.-.-.%.%.%.O.O.k.r.Y ;X;X;X;X;X;X;X;X;X;X;X;X;X",
",.V.V.V.N.N.N.N.b.b.x.x.x.k.x.k.k.s.s.i.s.i.i.i.r.r.r.r.r.9.9.9.5.5.5.5.,.,.:.:.:.-.-.-.%.%.%.O.x.x.9.Y ;X;X;X;X;X;X;X;X;X;X;X;X",
",.F.F.V.V.V.V.N.N.N.b.b.x.x.x.x.k.k.k.s.s.s.s.i.i.i.r.r.r.r.9.9.9.5.5.5.5.5.,.,.,.,.:.:.-.-.-.%.b.V.x.r.W ;X;X;X;X;X;X;X;X;X;X;X",
",.H.H.F.F.F.F.V.N.V.N.N.b.b.x.x.x.x.k.k.k.k.s.s.s.i.i.i.r.r.r.9.r.r.9.9.9.5.5.5.,.,.,.,.:.-.-.-.b.U.V.x.r.Y ;X;X;X;X;X;X;X;X;X;X",
",.H.H.H.F.F.F.V.V.V.V.V.N.N.b.b.b.x.x.x.k.k.k.s.s.i.s.s.i.i.i.r.r.9.9.9.9.9.5.5.5.5.5.,.:.:.:.:.N.Q.U.V.x.9.W ;X;X;X;X;X;X;X;X;X",
"5.U.U.H.H.H.F.F.F.F.V.V.N.N.N.N.b.b.x.x.x.k.k.k.k.k.s.s.s.i.i.i.i.r.r.9.r.9.9.9.5.9.5.,.5.,.,.,.b.}.Q.U.N.x.r.Y ;X;X;X;X;X;X;X;X",
"5.T.U.U.U.H.H.F.F.F.F.F.V.V.V.V.N.N.N.b.x.x.x.x.k.k.k.s.s.s.s.s.i.i.r.r.r.9.r.9.9.9.5.5.5.,.5.,.x.*XOXQ.U.N.x.r.Y ;X;X;X;X;X;X;X",
"5.Q.T.T.U.U.U.U.H.H.F.F.F.V.F.V.V.N.N.N.N.b.b.b.x.x.x.k.k.k.s.s.s.s.i.i.i.r.r.r.9.9.9.9.9.5.5.5.V.*X*X}.Q.U.N.x.r.Y ;X;X;X;X;X;X",
"9.Q.Q.T.T.U.U.U.U.H.H.H.H.F.F.F.V.F.V.V.N.N.b.b.x.x.x.x.x.k.k.s.k.s.s.s.i.i.i.r.r.r.r.9.9.5.5.5.H.*X*X*X}./.U.V.x.r.Y ;X;X;X;X;X",
"9.Q.Q.Q.Q.T.T.T.U.U.U.U.H.H.F.F.F.F.V.V.V.N.N.N.N.b.b.x.x.x.x.k.k.k.s.s.s.s.i.i.i.i.r.r.r.r.9.9.U.#X*X*X*X}.Q.U.N.x.r.Y ;X;X;X;X",
"9./././.Q.Q.Q.Q.T.T.T.U.U.H.U.H.H.H.F.F.F.V.V.V.N.N.b.b.b.b.x.x.k.k.k.k.s.s.s.s.i.i.i.i.r.r.r.9.Q.#X*X*X*X*X}.Q.U.V.x.r.W ;X;X;X",
"r.`././././.Q.Q.Q.T.T.T.T.U.U.H.H.H.H.H.F.F.F.V.V.V.V.N.b.N.b.b.x.x.k.k.k.k.s.s.s.i.i.i.i.r.r.r.`.*X*X#X*X*X*X}.Q.U.N.b.9.W ;X;X",
"r.`.`.`.`././././.Q.Q.Q.T.T.T.U.U.H.U.H.F.F.F.V.F.V.V.V.N.N.N.N.b.b.b.x.k.k.k.k.k.s.s.s.i.i.i.r.}.#X#X#X#X*X*X*X}./.H.V.k.r.Y ;X",
"r.}.}.}.`.`.`./././.Q.Q.Q.Q.T.T.U.U.U.U.H.H.H.F.F.F.F.V.V.V.N.N.b.b.b.b.x.x.x.k.k.s.k.s.s.s.i.i.Q.Q.T.H.F.N.b.k.k.x.k.k.s.s.9.W ",
"r.}.}.`.}.`.`.`././././.Q.Q.Q.Q.T.Q.T.U.U.U.H.H.F.F.F.F.F.V.V.V.N.N.N.N.b.x.x.x.x.k.k.k.s.s.s.s.s.s.i.r.r.r.9.9.9.9.9.5.5.5.,._ ",
"i.OXOX}.}.}.}.}.`.`.`.`././.Q.Q.Q.Q.Q.T.U.U.U.U.U.H.H.H.F.F.F.V.V.V.N.V.N.N.b.b.x.x.x.x.x.k.k.k.s.s.s.i.i.i.i.r.r.r.9.9.9.9.5.] ",
"i.OXOXOX}.}.}.}.}.}.`./.`./././.Q.Q.Q.T.Q.T.U.U.U.U.U.H.H.H.F.F.F.V.V.V.N.N.N.N.N.V.H.U.H.H.H.V.b.k.s.s.i.i.i.i.r.r.r.9.9.9.9.] ",
"i.#X#XOXOXOXOXOX}.}.}.OXOXOX}.`./.U.F.F.Q.Q.T.T.Q./.T.s.D s.H.H.H.F.V.F.V.F.T.`.OXOX}.}.}.`.`.Q.T.H.x.r.i.s.s.i.i.i.r.r.r.r.9.] ",
"s.*X#X#X#X#XOXOXOX}.}.}.OX#X}.`.U.N.x.V.T.T./.OX#X`.b.a @ 9.F.F.F.F.F.F./.#XOXOX}.`.Q.T.U.H.U.U.U.V.9.C 7 W i.s.s.i.i.i.r.r.r.] ",
"i.*X*X*X#X#X#XOXOXOXOX`.}.}./.U.N.k.s.V.F.Q.OXOX}.U.^ @ X :.b.b.V.F.U.#XOXOX`.Q.b.,.K i < 9 m _ ,.5.D > X 9 9.r.i.i.i.i.i.i.i.} ",
"s.*X*X*X*X*X#X#X#XOX#XQ.T.T.V.s.5.,.r.b.U.`.`.Q.F.} - . . } 9.s.x.U.#XOX}.Q.x.Y - X . . . . X X - - @ X . 7 -.,.9.r.i.s.i.i.i.} ",
"s.*X*X*X*X*X*X*X#X*X#XT.H.V.9.] W _ %.9.s.s.:.K > X . . . K } :.x.}.OX`.U.:.> X . . . . . . X . . . X . . > W } :.9.i.k.s.k.s.} ",
"i.*X*X*X*X*X*X*X*X*X#XU.F.b.5.W C h 7 > - X X X . . . . . h D ] Q.OX`.H.:.> X . . . . X @ @ X X . . . . . - x K } ,.i.s.k.s.s.O.",
"s.*X*X*X*X*X*X*X*X*X*XU.F.b.,.Y i - @ X . . . . . .   . . 9 h ,.OX`.T.9.< @ . . . @ - @ - @ @ X . . . . . X 9 m W -.r.s.x.k.k.O.",
"i.*X*X*X*X*X*X*X*X*X*XU.F.b.,.D > X . . . . . . . .     X 7 i H.`.Q.b.Y @ . . . X @ @ X X @ - - @ - X X . . > a K %.9.k.x.x.x.O.",
"s.*X*X*X*X*X*X*X*X*X*XU.F.N.,.m - . . . . @ - < < > - X @ < C /./.H.5.< X   . . @ X @ @ > 7 9 t i t 9 < X X > i D %.r.k.b.b.x.O.",
"s.#X*X*X*X*X*X*X*X*X*XH.F.b.,.h @ X . . @ - > > > > > > > 7 O.T.U.b.] > X . . . X @ > 7 i x C D D D B x i 7 9 h K %.r.x.b.b.b.%.",
"s.*X*X#X*X#X*X*X*X*X*XU.F.N.,.i @ X . X @ - > < 9 t i a i h r.T.H.s.Y @ X . . X X - 7 a C _ %.-.:.-.O.^ D m x B W :.i.b.N.N.N.%.",
"s.*X#X*X*X*X*X*X*X*X*XU.F.b.,.i - . . . - < 9 a m C K K W ^ x.H.F.r.B - . . . X @ 7 h K O.5.i.k.k.k.i.5.-._ W ^ } 9.k.b.V.V.N.-.",
"i.*X*X*X*X#X*X#X*X#X*XU.V.N.,.i @ . . . > 9 h K _ -.,.9.9.9.N.H.N.5.m @ . . X @ > i C } 9.b.F.H.F.F.V.x.s.5.:.:.5.i.b.V.F.V.N.-.",
"i.*X#X*X#X*X#X*X#X*X#XU.F.N.:.i @ . . X < i D } 9.b.V.F.F.F.F.V.b.,.m @ X . . - 7 x ^ 5.b.H.Q.Q.Q.Q.T.H.F.b.k.s.k.b.V.F.F.F.F.-.",
"s.*X*X*X*X*X*X*X*X*X*XU.F.b.,.i @ . . X 7 h ^ 5.N.Q.`.}.}.}.V.b.x.,.B - X . . - t C O.i.F.Q.Q./.Q.Q.Q.Q.T.H.F.V.V.F.H.H.H.F.F.:.",
"i.*X#X*X*X*X#X*X*X*X#XU.V.N.:.i @ X . . 7 m _ s.U.}.#X*X*X*XN.k.s.,.K > X . . > a K :.b.U.`.`.`././.Q.Q.Q.Q.T.U.H.U.U.U.U.H.H.:.",
"s.#X*X#X*X#X*X*X*X#X*XU.F.b.:.i @ X . . 7 m } k.U.OX*X*X*X*XN.9.9.:.Y < - . . > a W 9.V.Q.`.`.`.`.`././.Q.Q.Q.Q.T.T.T.U.U.U.H.,.",
"s.#X*X#X#X*X#X*X*X*X#XU.F.b.,.i - . . X 7 m } s.T.OX*X*X*X*XN.%.-.%.^ a - @ X - h ^ 9.V./.}.}.`.`.`.`././././.Q.Q.Q.T.T.T.U.U.,.",
"i.*X#X*X*X#X*X#X#X*X*XU.F.b.,.i @ X . X 7 m ] k.T.OX*X*X*X*XT.W ^ ] W B 7 - @ - h ^ r.F./.OX}.}.}.}.`.`.H.,././././.Q.Q.T.T.T.5.",
"s.#X*X#X#X*X#X*X#X*X#XH.F.b.:.i @ . . X 9 m } s.T.OX*X*X*X*XOXB a B C C m i < < a W 5.V./.OXOX}.}.}.}.Q.} m /./.Q./.Q./.Q.Q.T.5.",
"s.*X#X*X*X#X*X#X*X#X*XU.F.b.:.i @ . . X 9 m } k.T.}.*X*X*X*X#X5.> > 7 a m C D D ] :.9.N.Q.OXOXOXOXOX}.k.> x Q.T.T.Q.Q././.Q.Q.5.",
"i.#X*X#X*X#X*X#X*X#X*XH.V.b.:.9 @ X . X 9 m ] k.T.OX*X*X#X*X#X/.9 - @ > < x Y } ,.k.V.U.Q.}.OX#XOX}.F.t X a F.V.F.U.Q././././.9.",
"s.#X#X#X#X*X#X*X#X*X#XF.k.5.C > X X . X 9 m } s.T.}.*X*X*X*X#X`.i.X X X @ - < D %.i.N.U././.`.`./.N.a X . t s.r.x.V.T./.`.`./.9.",
"i.#X#X#X#X*X#X*X*X#X#Xi.Y < @ X X . . X 7 m } k.T.OX*X*X*X*X#X}.T._ X X . . @ @ > t W -.r.s.r.%.m - . . . 9 %.%.5.x.H./.`.`.`.9.",
"s.#X#X*X#X#X#X#X#X#X*XD @ X X . . . . . 7 m } s.T.}.*X#X#X*X*XOX/.N.W X . . . . . X X X @ @ X . . . . . . < K ^ %.k.H.`.}.}.`.r.",
"s.#X#X#X#X#X#X*X*X#X#Xm . . . . . . . X 7 m ] s.T.OX*X*X#X*X*X#X}.U.s.] 7 . . . . . . . .   .   . .     X 7 h C } s.U.`.OX}.`.r.",
"i.#X*X#X*X#X#X#X#X#X#X_ a i < - @ X X X 7 m ] k.U.}.#X*X*X*X*X#XOX/.V.5._ h > X     . .     . . . . > < 9 7 i B ] s.U.}.OXOX}.r.",
"i.#X#X*X#X*X#X*X*X#X#XOXU.k.} B 9 > - > 9 m ] k.T.OX*X#X#X*X*X*X#X}.T.b.,.^ B a < - @ X X - @ > < 7 7 > > < i C %.k.T.}.OXOXOXr.",
"i.#X#X#X#X#X#X#X#X#X#X}.T.k.%.D a 9 9 9 a D %.x.T.OX#X*X#X*X#X*X#X#X}.U.b.5.] D x i 9 7 < < < > < < < < 7 t m W :.N.Q.OX#X#XOXi.",
"i.#X#X#X#X#X#X#X#X*X#XOXQ.N.5._ D m m m D ] 5.N.Q.OX#X*X*X#X*X#X#X*X#X`.T.N.r.%._ D B h a i t i i i i a x B W %.s.H.`.*X*X*X#Xi.",
"i.#X#X#X#X#X#X#X#X#X#XOX/.H.k.5.%.} ] } %.,.x.H.`.#X*X#X#X*X#X*X*X*X#XOX}.Q.F.x.9.-.} ^ Y K D C D D K W _ O.5.s.F./.}.*X*X*X*Xi.",
"i.#X#X#X#X#X#X#X#X#X#X#X}./.F.N.x.s.s.k.x.N.H./.}.#X#X*X*X#X*X#X#X*X*X#X#X}.`.T.F.b.k.r.5.,.-.-.-.-.,.9.i.k.N.U./.}.#X*X*X*X*Xi.",
"i.#X#X#X#X#X#X#X#X#X#X#XOX}.`.Q.T.U.U.T.T.Q.`.}.OX#X*X#X#X*X#X*X*X#X#X*X*X#X#X}.`.Q.T.H.V.V.N.b.b.b.N.F.U.T./.}.OX#X*X*X*X*X*Xs.",
"i.#X#X#X#X#X#X#X#X#X#X#X#XOXOX}.OX}.}.}.}.OXOX#X#X#X#X#X*X*X*X#X#X*X#X*X*X#X*X#X#XOX}.}.`./././.Q././.`.}.OXOX*X*X*X*X*X*X*X*Xi.",
"i.#XOX#X#X#X#X#X#X#X#X#X#X#X#X#X#X#X*X#X#X#X#X*X#X#X#X*X#X#X#X*X*X#X*X#X#X*X#X*X*X*X#X#X#X#X#X#X#X#X#X#X#X*X*X#X*X*X*X*X*X*X*Xi.",
"r.OX#X#X#X#X#X#X#X#X#X#X#X#X#X#X#X#X#X#X#X*X#X#X*X#X*X#X#X#X#X#X*X#X#X*X*X#X*X#X*X#X*X#X*X#X*X*X*X*X*X*X*X*X#X*X#X*X*X*X*X*X*Xs.",
"i.#X#XOX#XOX#XOX#X#X#X#X#X#X#X#X#X#X#X#X#X#X#X#X#X#X#X#X#X*X#X*X#X#X*X#X#X*X#X*X#X*X#X*X#X*X#X#X*X#X*X#X*X*X*X*X*X*X#X*X*X*X*Xi.",
"i.#X#X#X#XOXOX#X#X#X#X#X#X#X#X#X#X#X#X#X#X#X#X#X#X#X*X#X#X#X#X#X#X#X*X#X#X#X*X#X#X*X#X*X#X*X#X*X#X*X*X*X*X*X*X*X#X*X*X*X#X*X#Xs.",
"r.#XOXOX#X#X#X#X#X#XOX#X#X#X#X#X#X#X#X#X#X#X#X#X#X#X#X#X#X*X#X*X#X*X#X#X#X*X#X*X*X#X*X#X*X#X*X#X*X#X#X*X*X#X*X#X*X*X*X#X*X*X*Xi.",
"i.#X#X#XOX#X#XOXOXOX#X#X#X#X#X#X#X#X#X#X#X#X#X#X#X#X#X#X*X#X#X#X#X#X#X#X*X#X#X#X#X*X#X*X#X*X#X*X#X*X*X#X#X#X*X*X#X*X#X*X*X#X*Xi.",
"i.OXOX#XOX#X#XOX#X#X#XOXOXOX#X#X#X#X#X#X#X#X#X#X#X#X#X#X#X#X#X#X#X*X#X*X#X#X#X*X*X#X#X*X*X#X*X#X*X#X#X*X#X*X*X#X*X*X*X*X*X*X*Xi.",
"i.#XOXOX#X#XOX#X#XOXOX#X#X#X#XOX#X#XOX#X#X#X#X#X#X#X#X#X#X#X#X#X#X*X#X#X#X#X#X#X#X#X*X#X#X*X#X*X#X*X#X*X#X*X#X*X*X#X*X*X*X*X#Xs.",
"r.OXOX#XOXOXOX#X#X#X#X#X#XOX#X#XOX#X#X#X#X#X#X#X#X#X#X#X#X#X#X#X#X#X#X#X#X*X#X*X#X#X#X#X#X#X#X#X*X#X*X#X*X#X*X#X#X*X#X#X#X*X*Xi.",
"i.#XOX#XOX#XOXOXOXOX#XOX#X#XOX#X#X#X#XOX#XOXOX#X#X#X#X#X#X#X#X#X#X#X#X#X#X#X#X#X#X#X#X#X*X#X#X#X#X#X#X*X#X*X*X#X*X#X#X*X*X#X#Xs.",
"] r.r.r.r.i.r.i.r.r.i.r.r.r.i.r.r.i.r.i.r.i.i.r.i.i.i.i.i.r.i.i.i.i.i.i.i.i.i.i.i.i.i.i.i.i.i.i.i.i.i.i.r.i.i.i.i.i.r.i.i.i.i.] "
};
