/* XPM */
static char * wxchart32_xpm[] = {
"32 32 119 2",
"  	c None",
". 	c #F0F0F0",
"+ 	c #F8F8F8",
"@ 	c #E2E2E2",
"# 	c #FFFFFF",
"$ 	c #C9C9C9",
"% 	c #F7FEF7",
"& 	c #DAF9DA",
"* 	c #E8FCE8",
"= 	c #BBBBBB",
"- 	c #D2D2D2",
"; 	c #A9A9A9",
"> 	c #CCCCCC",
", 	c #D6D6D6",
"' 	c #B1B1B1",
") 	c #E6E6E6",
"! 	c #E0E0E0",
"~ 	c #E3E3E3",
"{ 	c #E8E8E8",
"] 	c #E4E4E4",
"^ 	c #28DB28",
"/ 	c #00EF00",
"( 	c #00E800",
"_ 	c #5FEC5F",
": 	c #E1E1E1",
"< 	c #E7E7E7",
"[ 	c #FBFBFB",
"} 	c #F6F6F6",
"| 	c #F4F4F4",
"1 	c #25F725",
"2 	c #00FF00",
"3 	c #00F100",
"4 	c #5FED5F",
"5 	c #F7C0C0",
"6 	c #F3A0A0",
"7 	c #F2A0A0",
"8 	c #24E917",
"9 	c #FBE2E2",
"0 	c #F30101",
"a 	c #F60000",
"b 	c #E80000",
"c 	c #22D100",
"d 	c #FAE0E0",
"e 	c #FB0000",
"f 	c #FF0000",
"g 	c #EB0000",
"h 	c #DDDDDD",
"i 	c #D3D3D3",
"j 	c #E5E5E5",
"k 	c #EAEAEA",
"l 	c #BDBDBD",
"m 	c #F2F2F2",
"n 	c #EFEFEF",
"o 	c #EED4D4",
"p 	c #F1F1F1",
"q 	c #FCFCED",
"r 	c #FBFBE4",
"s 	c #F3F3EF",
"t 	c #F3F3F3",
"u 	c #ADADAD",
"v 	c #EBEBB5",
"w 	c #EEEE09",
"x 	c #EEEE00",
"y 	c #E2E200",
"z 	c #EEEECB",
"A 	c #F7F7AD",
"B 	c #FFFF00",
"C 	c #E5E500",
"D 	c #F9F9D6",
"E 	c #C1C1C1",
"F 	c #F7F7F7",
"G 	c #F5F5F5",
"H 	c #F3D9D9",
"I 	c #F3F3A9",
"J 	c #F2F2CF",
"K 	c #D9D9D9",
"L 	c #C8C8C8",
"M 	c #AAAAAA",
"N 	c #DCDCDC",
"O 	c #B9B9B9",
"P 	c #EEEEEE",
"Q 	c #E9CFCF",
"R 	c #ECECEC",
"S 	c #EDEDA4",
"T 	c #E9E9C7",
"U 	c #2EAD67",
"V 	c #4747EA",
"W 	c #4444E9",
"X 	c #78789E",
"Y 	c #C7C7C7",
"Z 	c #E2C8C8",
"` 	c #005F8D",
" .	c #0000FF",
"..	c #0000F8",
"+.	c #49499C",
"@.	c #E2E2C0",
"#.	c #D0D0D0",
"$.	c #F50000",
"%.	c #F70000",
"&.	c #E70303",
"*.	c #22D407",
"=.	c #00F700",
"-.	c #00EC00",
";.	c #0B5F96",
">.	c #0000F7",
",.	c #0000F2",
"'.	c #54549B",
").	c #E5E50E",
"!.	c #FAFADE",
"~.	c #C9C8C8",
"{.	c #C8C5C5",
"].	c #C6C8C6",
"^.	c #C5C8C5",
"/.	c #C6C7C8",
"(.	c #C5C5C8",
"_.	c #C9C9C5",
":.	c #C8C8C6",
"<.	c #E9E9E9",
"[.	c #CDCDCD",
". + @ # # # # $ # # # # # # # % & & & * # # # # # # # # # # # # ",
"= - ; # > , # ' ) ! ! ~ { { ] ^ / / ( _ ~ ! ! ) { { : ! ! < { { ",
"[ } | # # # # $ # # # # # # # 1 2 2 3 4 # # # # # # # # # # # # ",
"# # # # # # # $ # # # 5 6 6 7 8 2 2 3 4 # # # # # # # # # # # # ",
"# # # # # # # $ # # 9 0 a a b c 2 2 3 4 # # # # # # # # # # # # ",
"# # # # # # # $ # # d e f f g c 2 2 3 4 # # # # # # # # # # # # ",
"# # # # # # # $ # # d e f f g c 2 2 3 4 # # # # # # # # # # # # ",
"h | i # j k # l m n o e f f g c 2 2 3 4 p n n m q r r r s t t t ",
", > u # j k # l m n o e f f g c 2 2 3 4 p n n v w x x y z t t t ",
"# # # # # # # $ # # d e f f g c 2 2 3 4 # # # A B B B C D # # # ",
"# # # # # # # $ # # d e f f g c 2 2 3 4 # # # A B B B C D # # # ",
"# # # # # # # $ # # d e f f g c 2 2 3 4 # # # A B B B C D # # # ",
"# # # # # # # $ # # d e f f g c 2 2 3 4 # # # A B B B C D # # # ",
"# # # # # # # $ # # d e f f g c 2 2 3 4 # # # A B B B C D # # # ",
"~ ) , # n m # E F G H e f f g c 2 2 3 4 } G G I B B B C J + + + ",
"K L M # N ~ # O P k Q e f f g c 2 2 3 4 R k k S B B B C T n n n ",
"# # # # # # # $ # # d e f f g c 2 2 3 4 # # # A B B B C D # # # ",
"# # # # # # # $ # # d e f f g c 2 2 3 4 # # # A B B B C D # # # ",
"# # # # # # # $ # # d e f f g c 2 2 3 4 # # # A B B B C D # # # ",
"# # # # # # # $ # # d e f f g c 2 2 3 4 # # # A B B B C D # # # ",
"# # # # # # # $ # # d e f f g c 2 2 3 U V W W X B B B C D # # # ",
", + Y # > , # ' ) ! Z e f f g c 2 2 3 `  . ...+.B B B C @.< { { ",
"#.< O # # # # $ # # d e f f g c 2 2 3 `  . ...+.B B B C D # # # ",
"# # # # # # # $ # # d e f f g c 2 2 3 `  . ...+.B B B C D # # # ",
"# # # # # # # $ # # d e f f g c 2 2 3 `  . ...+.B B B C D # # # ",
"# # # # # # # $ # # d e f f g c 2 2 3 `  . ...+.B B B C D # # # ",
"# # # # # # # $ # # d e f f g c 2 2 3 `  . ...+.B B B C D # # # ",
"# # # # # # # $ # # d e f f g c 2 2 3 `  . ...+.B B B C D # # # ",
"  # # # # # # $ # # d $.%.%.&.*.=.=.-.;.>.>.,.'.B B B ).!.# # # ",
"# # # # # # # , $ $ ~.{.{.{.{.].^.^.^./.(.(.(.Y _._._.:.$ $ $ $ ",
"# # # # # # # # # # ~ <.# # # # # # # # # # # # # # # # # # # [.",
"# # # # # # # # # # ! < # # # # # # # # # # # # # # # # # # # $ "};
