/* XPM */
static const char * wxchart16_xpm[] = {
"16 16 66 1",
" 	c None",
".	c #DDDDDD",
"+	c #E2E2E2",
"@	c #E8E8E8",
"#	c #DEDEDE",
"$	c #F1F1F1",
"%	c #F0F0F0",
"&	c #F3F3F3",
"*	c #C1EFC1",
"=	c #6DF46D",
"-	c #88F288",
";	c #FCFCFC",
">	c #FFFFFF",
",	c #E4E4E4",
"'	c #FDEFEF",
")	c #F9CFCF",
"!	c #8FE077",
"~	c #00FF00",
"{	c #30EF30",
"]	c #F97171",
"^	c #FA0000",
"/	c #856900",
"(	c #F4F4F4",
"_	c #E1E1E1",
":	c #F8F8F8",
"<	c #F86D6D",
"[	c #FF0000",
"}	c #866900",
"|	c #FDFDF4",
"1	c #FDFDF1",
"2	c #F9F9F8",
"3	c #F9F9F9",
"4	c #EBEBEB",
"5	c #F4F4D4",
"6	c #F6F602",
"7	c #EDED00",
"8	c #F6F6E5",
"9	c #FB7070",
"0	c #FBFBD6",
"a	c #FFFF00",
"b	c #F2F200",
"c	c #FCFCEB",
"d	c #DBDBDB",
"e	c #DFDFDF",
"f	c #F56A6A",
"g	c #F0F0CB",
"h	c #F0F0DF",
"i	c #0BBC3D",
"j	c #2323F4",
"k	c #4141C7",
"l	c #EDEDED",
"m	c #00A847",
"n	c #0000FF",
"o	c #2525CA",
"p	c #E7E7E7",
"q	c #E09B9B",
"r	c #E06363",
"s	c #A69966",
"t	c #63E063",
"u	c #66B789",
"v	c #6363E0",
"w	c #7878C7",
"x	c #E4E463",
"y	c #DDDD66",
"z	c #E3E3DC",
"A	c #E5E5E5",
".+@#$%&*=-%$&%$&",
";;>,>')!~{>>>>>>",
">>>,>]^/~{>>>>>>",
"((&_:<[}~{::|123",
"@4&_:<[}~{:56783",
">>>,>9[}~{>0abc>",
">>>,>9[}~{>0abc>",
"de@#$f[}~{%gabh&",
">>>,>9[}~{>0abc>",
">>>,>9[}~{>0abc>",
"&$@#$f[}~ijkabh&",
"ll>,>9[}~mnoabc>",
">>>,>9[}~mnoabc>",
">>>,>9[}~mnoabc>",
">>>p,qrstuvwxyz,",
">>>>>A>>>>>>>>>A"};
