/* XPM */
static const char *blocktool16_xpm[] = {
"16 16 4 1 0 0",
"  c #000000",
"! c #808080",
"# c #FFFFFF",
"$ c None",
"$$$$$$$$$$$$$$$$",
"$              $",
"$ ############ $",
"$ #          # $",
"$ # !!!!!!!! # $",
"$ # !!!!!!!! # $",
"$ # !!!!!!!! # $",
"$ #          # $",
"$ # !!!!!!!! # $",
"$ # !!!!!!!! # $",
"$ # !!!!!!!! # $",
"$ # !!!!!!!! # $",
"$ #          # $",
"$ ############ $",
"$              $",
"$$$$$$$$$$$$$$$$"
};
