/* XPM */
static const char * blockcur_xpm[] = {
"32 32 3 1",
" 	c None",
"!	c black",
"#	c white",
"!!!!!!!!!!!!!!!!!!!!!!          ",
"!####################!          ",
"!####################!          ",
"!##!!!!!!!!!!!!!!!!##!          ",
"!##!              !##!          ",
"!##!              !##!          ",
"!##!              !##!          ",
"!##!              !##!          ",
"!##!              !##!          ",
"!##!              !##!          ",
"!##!              !##!          ",
"!##!              !##!          ",
"!##!!!!!!!!!!!!!!!!##!          ",
"!##!              !##!          ",
"!##!              !##!          ",
"!##!              !##!          ",
"!##!              !##!          ",
"!##!              !##!          ",
"!##!              !##!          ",
"!##!              !##!          ",
"!##!!!!!!!!!!!!!!!!##!          ",
"!##!              !##!          ",
"!##!              !##!          ",
"!##!              !##!          ",
"!##!              !##!          ",
"!##!              !##!          ",
"!##!              !##!          ",
"!##!              !##!          ",
"!##!!!!!!!!!!!!!!!!##!          ",
"!####################!          ",
"!####################!          ",
"!!!!!!!!!!!!!!!!!!!!!!          "};
