/* XPM */
static const char * dnd_copy_cur_xpm[] = {
"32 32 3 1",
" 	c None",
"!	c black",
"#	c white",
"!!!!!!!!!!!!!!!!!!!!!!!!!!      ",
"!########################!      ",
"!########################!      ",
"!########################!      ",
"!########################!      ",
"!!!!!!!!!!!!!!!!!!!!!!!!!!      ",
"!########################!      ",
"!########################!      ",
"!########################!      ",
"!####!!!!!!!!!!!!!!!!!!!!!      ",
"!####!!#################!!      ",
"!####!#!###############!#!      ",
"!####!##!#############!##!      ",
"!####!###!###########!###!      ",
"!####!!!!!!!!!!!!!!!!!!!!!      ",
"!####!#########!#########!      ",
"!####!#########!#########!      ",
"!####!#########!#########!      ",
"!####!!!!!!!!!!!!!!!!!!!!!      ",
"!########################!      ",
"!########################!      ",
"!########################!      ",
"!!!!!!!!!!!!!!!!!!!!!!!!!!      ",
"!######################!!!!!!!!!",
"!######################!#######!",
"!######################!###!###!",
"!!!!!!!!!!!!!!!!!!!!!!!!###!###!",
"                       !#!!!!!#!",
"                       !###!###!",
"                       !###!###!",
"                       !#######!",
"                       !!!!!!!!!"};
