/* XPM */
static const char * dnd_none_cur_xpm[] = {
"32 32 3 1",
" 	c None",
"!	c black",
"#	c white",
"!!!!!!!!!!!!!!!!!!!!!!!!!!  !!  ",
"!!!######################! !!!  ",
"!!!!#####################!!!!   ",
"!#!!!####################!!!    ",
"!##!!!##################!!!     ",
"!!!!!!!!!!!!!!!!!!!!!!!!!!      ",
"!####!!!##############!!!!      ",
"!#####!!!############!!!#!      ",
"!######!!!##########!!!##!      ",
"!####!!!!!!!!!!!!!!!!!!!!!      ",
"!####!!##!!!######!!!###!!      ",
"!####!#!##!!!####!!!###!#!      ",
"!####!##!##!!!##!!!###!##!      ",
"!####!###!##!!!!!!###!###!      ",
"!####!!!!!!!!!!!!!!!!!!!!!      ",
"!####!#######!!!!########!      ",
"!####!######!!!!!!#######!      ",
"!####!#####!!!#!!!!######!      ",
"!####!!!!!!!!!!!!!!!!!!!!!      ",
"!########!!!######!!!####!      ",
"!#######!!!########!!!###!      ",
"!######!!!##########!!!##!      ",
"!!!!!!!!!!!!!!!!!!!!!!!!!!      ",
"!####!!!##############!!!!      ",
"!###!!!################!!!      ",
"!##!!!##################!!!     ",
"!!!!!!!!!!!!!!!!!!!!!!!!!!!!    ",
" !!!                      !!!   ",
"!!!                        !!!  ",
"!!                          !!  ",
"                                ",
"                                "};
