/* XPM */
static const char *iftool22_xpm[] = {
"22 22 4 1 0 0",
"  c #000000",
"! c #808080",
"# c #FFFFFF",
"$ c None",
"                     $",
"  #################  $",
" # ############### # $",
" ## ############# ## $",
" ### ########### ### $",
" #### ######### #### $",
" ##### ####### ##### $",
" ###### ##### ###### $",
" ####### ### ####### $",
" ######## # ######## $",
" ######### ######### $",
"                     $",
" !!!!!!!!! !!!!!!!!! $",
" !!!!!!!!! !!!!!!!!! $",
" !!!!!!!!! !!!!!!!!! $",
" !!!!!!!!! !!!!!!!!! $",
" !!!!!!!!! !!!!!!!!! $",
" !!!!!!!!! !!!!!!!!! $",
" !!!!!!!!! !!!!!!!!! $",
" !!!!!!!!! !!!!!!!!! $",
" !!!!!!!!! !!!!!!!!! $",
"                     $"
};
