/* XPM */
static const char *returntool22_xpm[] = {
"22 22 3 1 0 0",
"  c #000000",
"! c #FFFFFF",
"# c None",
"######################",
"######################",
"######################",
"######################",
"                      ",
" !!!!! !!!!!!!! !!!!! ",
" !!!! !!!!!!!!!! !!!! ",
" !!! !!!!!!!!!!!! !!! ",
" !! !!!!!!!!!!!!!! !! ",
" ! !!!!!!!!!!!!!!!! ! ",
"  !!!!!!!!!!!!!!!!!!  ",
"  !!!!!!!!!!!!!!!!!!  ",
" ! !!!!!!!!!!!!!!!! ! ",
" !! !!!!!!!!!!!!!! !! ",
" !!! !!!!!!!!!!!! !!! ",
" !!!! !!!!!!!!!! !!!! ",
" !!!!! !!!!!!!! !!!!! ",
"                      ",
"######################",
"######################",
"######################",
"######################"
};
