/* XPM */
static const char * wxGridBagSizer32_xpm[] = {
"32 32 2 1",
" 	c None",
".	c #FF0000",
"................................",
".                        .     .",
".                        .     .",
".                        .     .",
".                        .     .",
".                        .     .",
".                        .     .",
".                        .     .",
".                        .     .",
".                        .     .",
".                        .     .",
".                        .     .",
".                        .     .",
".                        .     .",
".                        .     .",
".                        .     .",
".                        .     .",
"................................",
".                .       .     .",
".                .       .     .",
".                .       .     .",
".                .       .     .",
".                .       .     .",
".                .       .     .",
".                .       .     .",
"..................       .......",
".                .       .     .",
".                .       .     .",
".                .       .     .",
".                .       .     .",
".                .       .     .",
"................................"};
