/* XPM */
/* C::B begin */
static const char * chart_zot_xpm[] = {
/* C::B end */
"20 18 8 1",
" 	c None",
".	c #C0C0C0",
"+	c #0000BF",
"@	c #000000",
"#	c #0707BF",
"$	c #00FF00",
"%	c #E8BBBB",
"&	c #A22E2E",
"..+.................",
".+++...@........@...",
"+.+.#..@@......@@...",
"..+....@$@....@$@...",
"..+..@$$$$@..@$$$$@.",
"..+..@@@$@....@$@@@.",
"..+....@@.%%...@@...",
"..+....@.&&%....@...",
"..+...%%.&&%........",
"..+..&&%.&&%........",
"..+..&&%.&&%....%%..",
"..+..&&%.&&%...&&%..",
"..+..&&%.&&%...&&%..",
"..+..&&%.&&%...&&%..",
"..+..&&%.&&%...&&%..",
"..+..&&%.&&%...&&%..",
"..+..&&..&&....&&...",
"...................."};
