/* XPM */
/* C::B begin */
static const char * chart_zin_xpm[] = {
/* C::B end */
"20 18 11 1",
" 	c None",
".	c #C0C0C0",
"+	c #0000BF",
"@	c #000000",
"#	c #5B5BBF",
"$	c #00FF00",
"%	c #E8BBBB",
"&	c #A22E2E",
"*	c #110000",
"=	c #BFBFBF",
"-	c #BEBEBF",
"..+.................",
".+++....@......@....",
"+.+.#..@@......@@...",
"..+...@$@......@$@..",
"..+..@$$$$@..@$$$$@.",
"..+...@$@@@..@@@$@..",
"..+....@@..%%..@@...",
"..+...%%@.&&%..*....",
"..+..&&%..&&%.......",
"..+..&&%..&&%.......",
"..+..&&%..&&%.......",
"..+.=&&%.=&&%...%%..",
"..+==&&%..&&%..&&%-.",
"..+=.&&%..&&%..&&%=.",
"..+..&&%..&&%..&&%..",
"..+..&&%..&&%..&&%..",
"..+..&&...&&...&&...",
"...................."};
