/* XPM */
static const char *flatnote16[]={
/* GenericFrm_WxStaticBitmap2 */
"16 16 111 2",
"      c None",
" 0    c #D7D7DA",
" 1    c #D7D7DB",
" 2    c #E2E1E5",
" 3    c #DFDEE2",
" 4    c #D8D7DC",
" 5    c #D9D8DC",
" 6    c #DAD9DD",
" 7    c #E4E4E7",
" 8    c #D7D6D9",
" 9    c #D0CFD2",
" a    c #D2D1D4",
" b    c #D0D0D2",
" c    c #D8D8DA",
" d    c #CAC9CD",
" e    c #C1C1C5",
" f    c #C3C3C6",
" g    c #C2C1C5",
" h    c #DAD9DB",
" i    c #FFFFFF",
" j    c #D6D6D8",
" k    c #D2D1D5",
" l    c #EAE9EC",
" m    c #E7E6E9",
" n    c #E7E6EA",
" o    c #E5E4E8",
" p    c #D4D4D7",
" q    c #FAF9FA",
" r    c #F8F7F9",
" s    c #F7F6F7",
" t    c #FBFAFB",
" u    c #D5D4D7",
" v    c #D3D2D6",
" w    c #F2F1F5",
" x    c #EEEDF0",
" y    c #E6E5E8",
" z    c #E6E6E9",
" A    c #D5D4D8",
" B    c #D8D7DA",
" C    c #F4F4F5",
" D    c #A3A3A4",
" E    c #EDECEE",
" F    c #F4F3F5",
" G    c #F3F2F4",
" H    c #F6F5F7",
" I    c #D3D1D4",
" J    c #DCDCDF",
" K    c #ADADAF",
" L    c #B5B4B6",
" M    c #F0EFF2",
" N    c #E9E8EB",
" O    c #D6D5D9",
" P    c #DADADD",
" Q    c #E1E1E2",
" R    c #3E3E3E",
" S    c #D1D0D2",
" T    c #F5F4F7",
" U    c #EFEEF1",
" V    c #F2F1F4",
" W    c #D0CFD3",
" X    c #DDDCE0",
" Y    c #9D9D9F",
" Z    c #EDECEF",
" &    c #ECEBEE",
"0     c #EBEAED",
"00    c #DBDBDE",
"01    c #CCCBCE",
"02    c #323232",
"03    c #BAB9BB",
"04    c #CFCED2",
"05    c #8E8D8F",
"06    c #929294",
"07    c #E6E5E9",
"08    c #E1E1E4",
"09    c #E1E0E4",
"0a    c #E0DFE3",
"0b    c #D4D3D7",
"0c    c #E0E0E3",
"0d    c #A2A1A4",
"0e    c #3D3C3E",
"0f    c #909092",
"0g    c #F4F3F7",
"0h    c #E9E8EC",
"0i    c #CDCDD0",
"0j    c #A4A3A6",
"0k    c #9F9EA1",
"0l    c #D9D8DB",
"0m    c #C3C2C5",
"0n    c #B8B7BB",
"0o    c #BDBDC0",
"0p    c #E8E7EB",
"0q    c #E3E2E6",
"0r    c #CACACE",
"0s    c #D8D7DB",
"0t    c #ACACAF",
"0u    c #D1D1D5",
"0v    c #E6E6EA",
"0w    c #C9C9CD",
"0x    c #EBEAEE",
"0y    c #E1E1E5",
"0z    c #C8C8CC",
"0A    c #D7D6DA",
"0B    c #CDCCCF",
"0C    c #DCDBDF",
"0D    c #C0C0C4",
"0E    c #C3C2C6",
"0F    c #C2C2C6",
"0G    c #C7C6CA",
"0H    c #E4E3E6",
"0I    c #E4E3E7",
"0J    c #E4E2E6",
"   0 0 1 1 0 0 2 3 4 5 5 5 5 6 7",
" 8 9 a a a a b c d e f f f f g 6",
" h i i i i i i j k l m m m n o p",
" c q i r s s t u v w x y z z y A",
" B C D E F G H I J K L M l l N O",
" P Q R S T U V W X Y Y x Z &0  8",
"00010203 T0  x04 505060708090a0b",
"0c0d0e0f0g n0h0i A0j0k0a090a 30b",
"0l0m0n0o0p0q o0r0s0j0t n0a0a 30b",
"0u0v n o 30a 20w k0x0p0a09090a A",
"0u0y0a0a0a0a 20z d 50A0A0A0A O0B",
"0C090a0a0a0a 20A0D0E0E0E0E0E0F0G",
"0H0a0a0a0a0a0a090I0q0J0J0J0J0J07",
"  0a0a0a0a0a0a0a0a0a0a0a0a0a0a  ",
"  0a0a0a0a0a0a0a0a0a0a0a0a0a0a  ",
"  0a0a0a0a0a0a0a0a0a0a0a0a0a0a  "};

