/* XPM */
static const char *flatnote32[]={
/* GenericFrm_WxStaticBitmap2 */
"32 32 162 2",
"      c None",
" 0    c #E0DFE3",
" 1    c #E7E6E9",
" 2    c #BBBBBF",
" 3    c #98999D",
" 4    c #9D9DA1",
" 5    c #97979B",
" 6    c #C8C8CA",
" 7    c #EBEAED",
" 8    c #DAD9DD",
" 9    c #A0A0A4",
" a    c #9C9CA0",
" b    c #9F9FA3",
" c    c #D9D8DC",
" d    c #E4E3E7",
" e    c #D7D6DA",
" f    c #D5D4D7",
" g    c #FFFFFF",
" h    c #FEFDFE",
" i    c #C4C4C8",
" j    c #E1E0E4",
" k    c #DBDADE",
" l    c #C2C2C6",
" m    c #E5E4E8",
" n    c #C5C4C8",
" o    c #E8E7E9",
" p    c #FFFEFF",
" q    c #FCFBFC",
" r    c #FDFCFD",
" s    c #F4F3F5",
" t    c #BCBCBF",
" u    c #C7C6CA",
" v    c #E6E5E8",
" w    c #E3E2E5",
" x    c #C6C6C9",
" y    c #D9D8DB",
" z    c #C5C4C9",
" A    c #E7E6E8",
" B    c #FAF9FA",
" C    c #FBFAFB",
" D    c #F2F2F3",
" E    c #BCBBBF",
" F    c #E7E6EA",
" G    c #E8E7EB",
" H    c #E6E5E7",
" I    c #FBFAFA",
" J    c #F8F7F8",
" K    c #F9F8F9",
" L    c #F1F0F1",
" M    c #E9E8EB",
" N    c #EAE9EC",
" O    c #C8C7CB",
" P    c #D8D8DB",
" Q    c #C5C5C9",
" R    c #E4E4E6",
" S    c #F8F7F9",
" T    c #F6F5F7",
" U    c #F7F6F8",
" V    c #EFEEF0",
" W    c #EAEAED",
" X    c #E7E7EA",
" Y    c #EBEBEE",
" Z    c #C8C8CC",
" &    c #D8D7DB",
"0     c #F5F4F6",
"00    c #EDECEE",
"01    c #C7C7CB",
"02    c #ECEBEE",
"03    c #EDECEF",
"04    c #C9C9CC",
"05    c #D8D7DA",
"06    c #E2E1E4",
"07    c #4E4D4E",
"08    c #202020",
"09    c #F2F1F3",
"0a    c #F3F2F4",
"0b    c #EBEAEC",
"0c    c #F4F4F6",
"0d    c #CECED0",
"0e    c #000000",
"0f    c #252525",
"0g    c #EDEDEF",
"0h    c #EBEBED",
"0i    c #EAEAEC",
"0j    c #EEEEF0",
"0k    c #CACACD",
"0l    c #C6C5C9",
"0m    c #E1E0E3",
"0n    c #4D4D4D",
"0o    c #F0EFF1",
"0p    c #F1F0F2",
"0q    c #E9E8EA",
"0r    c #BBBBBE",
"0s    c #F6F5F8",
"0t    c #BFBFC1",
"0u    c #9B9B9D",
"0v    c #C3C2C4",
"0w    c #9B9A9C",
"0x    c #F8F7FA",
"0y    c #F0EFF2",
"0z    c #CBCBCE",
"0A    c #C4C3C5",
"0B    c #363637",
"0C    c #434243",
"0D    c #9A999B",
"0E    c #FAF9FC",
"0F    c #EEEDF0",
"0G    c #EFEEF1",
"0H    c #BBBABE",
"0I    c #F7F7F9",
"0J    c #C0C0C2",
"0K    c #9C9C9D",
"0L    c #C3C3C5",
"0M    c #F9F9FB",
"0N    c #F1F1F3",
"0O    c #CCCCCF",
"0P    c #DFDEE2",
"0Q    c #F5F4F7",
"0R    c #C2C1C4",
"0S    c #363636",
"0T    c #424243",
"0U    c #99989A",
"0V    c #E5E4E7",
"0W    c #EAE9ED",
"0X    c #232324",
"0Y    c #E3E2E6",
"0Z    c #C6C5CA",
"0&    c #DEDDE0",
"1     c #F3F2F5",
"10    c #C0BFC2",
"11    c #353536",
"12    c #424142",
"13    c #979799",
"14    c #B6B5B8",
"15    c #939395",
"16    c #B9B8BB",
"17    c #939295",
"18    c #ECEBEF",
"19    c #C6C6CA",
"1a    c #DDDCDF",
"1b    c #5B5A5C",
"1c    c #323233",
"1d    c #E8E7EA",
"1e    c #DCDBDF",
"1f    c #F7F6FB",
"1g    c #4B4A4C",
"1h    c #8E8D90",
"1i    c #BEBDC0",
"1j    c #2C2C2D",
"1k    c #EDECF0",
"1l    c #E6E5E9",
"1m    c #BABABE",
"1n    c #F5F4F8",
"1o    c #4A4A4B",
"1p    c #8D8C8E",
"1q    c #EBEAEE",
"1r    c #DDDDE1",
"1s    c #D8D8DC",
"1t    c #C4C3C7",
"1u    c #C0BFC3",
"1v    c #98989C",
"1w    c #A3A3A7",
"   0 0 0 0 0 0 0 0 0 0 0 0 0 0 0 0 0 0 0 0 0 0 0 0 0 0 0 0 0 0  ",
"   0 0 0 0 0 0 0 0 0 0 0 0 0 0 0 0 0 0 0 0 0 0 0 0 0 0 0 0 0 0  ",
" 1 2 3 4 4 4 4 4 4 4 4 4 4 5 6 7 8 9 a 4 4 4 4 4 4 4 4 4 a b c d",
" e f g h h h h h h h h h h g f e i c   j j j j j j j j j   k l m",
" n o p q q q q q q q q q q r s t u v w w w w w w w w w w w 1 x y",
" z A r B B B B B B B B B B C D E u F d d d d d d d d d d d G u y",
" z H I J J J J J J J J J J K L E u M v v v v v v v v v v v N O P",
" Q R S T T T T T T T T T T U V E u W X X X X X X X X X X X Y Z &",
" Q w T s s s s s s s s s s0 00 20102 M M M M M M M M M M M030405",
" Q06 s g0708 S0909090909090a0b 2010c0d0e0f0g0h0i0i0i0i0i0i0j0k05",
"0l0m09 g0n08 T0o0o0o0o0o0o0p0q0r O0s0t0u0v0w0x0202020202020y0z05",
"0l 00x0A0B0C0D0E0F0F0F0F0F0G 10H O0I0J0K0L0K0M0g0g0g0g0g0g0N0O05",
"0l0P0Q0R0S0T0U0x0202020202030V0H u0W n0e0X0Y j 0 0 0 0 0 0 d n y",
"0Z0&1 101112130s N N N N N 7 w0H u0W1415161718 0 0 0 0 0 0 d n y",
"191a0E1b0e0e1c0y1d1d1d1d1d M0m0H u0W1415161718 0 0 0 0 0 0 d n y",
"191e1f1g1h1i1j1k1l1l1l1l1l F0P1m u0W1415161718 0 0 0 0 0 0 d n y",
"19 k1n1o1p E1j1q d d d d d m1r1m u0W n0e0X0Y j 0 0 0 0 0 0 d n y",
" u 80Y                    0Y1e1m u0Y 0 0 0 0 0 0 0 0 0 0 0 d n y",
" u1s j 0 0 0 0 0 0 0 0 0 0 j 81m u0Y 0 0 0 0 0 0 0 0 0 0 0 d n y",
" u1s j 0 0 0 0 0 0 0 0 0 0 j 81m u0Y 0 0 0 0 0 0 0 0 0 0 0 d n y",
" u1s j 0 0 0 0 0 0 0 0 0 0 j 81m u0Y 0 0 0 0 0 0 0 0 0 0 0 d n y",
" u1s j 0 0 0 0 0 0 0 0 0 0 j 81m u0Y 0 0 0 0 0 0 0 0 0 0 0 d n y",
"1t m 0 0 0 0 0 0 0 0 0 0 0 0 m1u1v 4 4 4 4 4 4 4 4 4 4 4 4 4 41w",
"   0 0 0 0 0 0 0 0 0 0 0 0 0 0 0 0 0 0 0 0 0 0 0 0 0 0 0 0 0 0  ",
"   0 0 0 0 0 0 0 0 0 0 0 0 0 0 0 0 0 0 0 0 0 0 0 0 0 0 0 0 0 0  ",
"   0 0 0 0 0 0 0 0 0 0 0 0 0 0 0 0 0 0 0 0 0 0 0 0 0 0 0 0 0 0  ",
"   0 0 0 0 0 0 0 0 0 0 0 0 0 0 0 0 0 0 0 0 0 0 0 0 0 0 0 0 0 0  ",
"   0 0 0 0 0 0 0 0 0 0 0 0 0 0 0 0 0 0 0 0 0 0 0 0 0 0 0 0 0 0  ",
"   0 0 0 0 0 0 0 0 0 0 0 0 0 0 0 0 0 0 0 0 0 0 0 0 0 0 0 0 0 0  ",
"   0 0 0 0 0 0 0 0 0 0 0 0 0 0 0 0 0 0 0 0 0 0 0 0 0 0 0 0 0 0  ",
"   0 0 0 0 0 0 0 0 0 0 0 0 0 0 0 0 0 0 0 0 0 0 0 0 0 0 0 0 0 0  ",
"   0 0 0 0 0 0 0 0 0 0 0 0 0 0 0 0 0 0 0 0 0 0 0 0 0 0 0 0 0 0  "};

