/* XPM */
static const char * wxcustombutton32_xpm[] = {
"32 32 6 1",
" 	c None",
".	c #000000",
"+	c #FFFFFF",
"@	c #404040",
"#	c #D4D0C8",
"$	c #808080",
"                     ......     ",
"                   ..........   ",
"                  ............  ",
"                 .............. ",
"                 .............. ",
"                ................",
"                ................",
"                ................",
"                ................",
"                ................",
"                 .............. ",
"                 .............. ",
"                  ............  ",
"                   ..........   ",
"+++++++++++++++++@  ........    ",
"################$@  ........    ",
"################$@ ..........   ",
"#....###.###.###$@ ..........   ",
".####.##.##.####$@............  ",
".####.##.#.#####$@............  ",
".####.##..######$@............. ",
".####.##..######$@............. ",
".####.##.#.#####$@..............",
".####.##.##.####$@..............",
".####.##.###.###$@..............",
"#....###.####.##$@..............",
"################$@..............",
"################$@..............",
"$$$$$$$$$$$$$$$$$@..............",
"@@@@@@@@@@@@@@@@@@..............",
"              ..................",
"              .................."};
