/* XPM */
static char * wxcustombutton16_xpm[] = {
"16 16 6 1",
" 	c None",
".	c #000000",
"+	c #FFFFFF",
"@	c #404040",
"#	c #D4D0C8",
"$	c #5F5C5C",
"           ..   ",
"         ...... ",
"        ........",
"        ........",
"        ........",
"+++++++++++@....",
"##########$@... ",
"#..##.##.#$@..  ",
".##.#.#.##$@..  ",
".##.#..###$@... ",
".##.#.#.##$@....",
".##.#.##.#$@....",
"#..##.##.#$@....",
"##########$@....",
"$$$$$$$$$$$@....",
"@@@@@@@@@@@@    "};
