/* XPM */
static const char * wxImagePanel32_xpm[] = {
/* width height num_colors chars_per_pixel */
"32 32 22 1",
/* colors */
"  c None",
"! c #ffffff",
"# c #fffbf0",
"$ c #e0c080",
"% c #d4d0c8",
"& c #c0dcc0",
"' c #c0a080",
"( c #c08080",
") c #a0a080",
"* c #a08080",
"+ c #a08040",
", c #a06040",
"- c #808080",
". c #806080",
"/ c #806040",
"0 c #804040",
"1 c #606080",
"2 c #606040",
"3 c #604040",
"4 c #602000",
"5 c #404040",
"6 c #402000",
/* pixels */
"                                ",
"                                ",
"                                ",
"                                ",
"                                ",
"    !!!!!!!!!!!!!!!!!!!!!!!!5   ",
"    !%%%%%%%%%%%%%%%%%%%%%%-5   ",
"    !%%%%%%%%%%%%%%%%%%%%%%-5   ",
"    !%%%%%%%%%%%%%%%%%%%%%%-5   ",
"    !######################-5   ",
"    !#*0300030030333333333%-5   ",
"    !#/,****++++++,,,,,,,0%-5   ",
"    !#/+'#!!&'**((***++++/%-5   ",
"    !#/*%!!!!'(''(((****(,%-5   ",
"    !#/*%&&&&''''''**11*'+%-5   ",
"    !#/)%%%%%'''''$.-../'*%-5   ",
"    !#2*%%%%%%%%'%)2-..*%*%-5   ",
"    !#3/-/////////332332/3%-5   ",
"    !#33333333464435555666%-5   ",
"    !#33/////////////33/-.%-5   ",
"    !#3/*,///,//,//,//////%-5   ",
"    !#*/22222222222//22222%-5   ",
"    !%%%%%%%%%%%%%%%%%%%%%%-5   ",
"    !%%%%%%%%%%%%%%%%%%%%%%-5   ",
"    !%%%%%%%%%%%%%%%%%%%%%%-5   ",
"    !%%%%%%%%%%%%%%%%%%%%%%-5   ",
"    !-----------------------5   ",
"    5555555555555555555555555   ",
"                                ",
"                                ",
"                                ",
"                                "
};
