/* XPM */
static const char * wxImagePanel16_xpm[] = {
/* width height num_colors chars_per_pixel */
"16 16 57 1",
/* colors */
"  c None",
"! c #ffffff",
"# c #fffdf8",
"$ c #f4f2ee",
"% c #eae8e4",
"& c #eae6dc",
"' c #e5dbce",
"( c #d4d0c8",
") c #d0c7b0",
"* c #cfd3c6",
"+ c #cad6c4",
", c #c5bba2",
"- c #c0a080",
". c #c08880",
"/ c #b5b3ae",
"0 c #b09080",
"1 c #b09070",
"2 c #b08880",
"3 c #b08080",
"4 c #aaa8a4",
"5 c #aaa094",
"6 c #aa9884",
"7 c #a58c72",
"8 c #a08070",
"9 c #a08060",
": c #a07050",
"; c #957c72",
"< c #907860",
"= c #907050",
"> c #906060",
"? c #906050",
"@ c #886060",
"A c #886040",
"B c #808080",
"C c #807080",
"D c #806870",
"E c #806850",
"F c #806050",
"G c #806040",
"H c #805040",
"I c #786060",
"J c #786050",
"K c #786040",
"L c #784840",
"M c #706060",
"N c #706050",
"O c #706040",
"P c #705040",
"Q c #704020",
"R c #685040",
"S c #684020",
"T c #606060",
"U c #604840",
"V c #604040",
"W c #584840",
"X c #584030",
"Y c #404040",
/* pixels */
"                ",
"                ",
"  !!!!!!!!!!!!Y ",
"  %((((((((((4Y ",
"  $&&&&&&&&&&/Y ",
"  #?@>AAAHHHL4Y ",
"  #='!)2.389:4Y ",
"  #<*+,--0CD14Y ",
"  #J56667NMI;4Y ",
"  #VPPPSQRWXU4Y ",
"  #FEOKOKGKOO4Y ",
"  %((((((((((4Y ",
"  %((((((((((4Y ",
"  BTTTTTTTTTTTY ",
"                ",
"                "
};
