/* XPM */
static const char *LedNumber16_xpm[] = {
/* columns rows colors chars-per-pixel */
"16 16 21 1",
"@ c Black",
"2 c #002600",
"o c #001A00",
", c #004000",
"+ c #006600",
". c #6A6A6A",
"# c #008000",
"O c #00CC00",
"- c #000800",
"$ c #000200",
"> c #001000",
"; c #003300",
"< c #005900",
"X c #1B1B1B",
"* c #000400",
"= c #004D00",
": c #009900",
"  c #6F6F6F",
"1 c #003800",
"% c #000C00",
"& c #000600",
/* pixels */
" ...............",
"XoOO+@#OO@$%%&@@",
"X*@@=*@@@==@@=@@",
"X-@@#-@@@##@@#@@",
"X-@@#-@@@##@@#@@",
"X-@@#-@@@##@@#@@",
"X&;;#&o;;++;;#@@",
"Xo::=@+::@o::=@@",
"X-@@##@@@--@@#@@",
"X-@@##@@@--@@#@@",
"X-@@##@@@--@@#@@",
"X-@@##@@@--@@#@@",
"X>::#,<::**--1@@",
"X%;;o%2;;@@$$$@@",
"X@@@@@@@@@@@@@@@",
"X@@@@@@@@@@@@@@@"
};
