/* XPM */
static const char *LedNumber32_xpm[] = {
/* columns rows colors chars-per-pixel */
"32 32 17 1",
"O c Black",
"o c #353535",
"; c #001A00",
"# c #006600",
". c #545454",
"> c #00CC00",
"X c #3F3F3F",
"= c #003300",
"- c #004D00",
"+ c #009900",
"$ c #00FF00",
"& c #000F00",
": c #000C00",
"  c #959595",
"@ c #000900",
"% c #000600",
"* c #000300",
/* pixels */
"                                ",
".XXXXXXXXXXXXXXXXXXXXXXXXXXXXXXX",
"oOOO+++++OOOO+++++OOOO@@@@@OOOOO",
"oOO#$$$$$OOO#$$$$$OOO%&&&&&OOOOO",
"oO*OOOOOO=O*OOOOOO=O=OOOOOO=OOOO",
"oO&OOOOOO$O&OOOOOO$O$OOOOOO$OOOO",
"oO&OOOOOO$O&OOOOOO$O$OOOOOO$OOOO",
"oO&OOOOOO$O&OOOOOO$O$OOOOOO$OOOO",
"oO&OOOOOO$O&OOOOOO$O$OOOOOO$OOOO",
"oO&OOOOOO$O&OOOOOO$O$OOOOOO$OOOO",
"oO&OOOOOO$O&OOOOOO$O$OOOOOO$OOOO",
"oO&OOOOOO$O&OOOOOO$O$OOOOOO$OOOO",
"oO&OOOOOO$O&OOOOOO$O$OOOOOO$OOOO",
"oO@O#####+O@O#####+O+O#####+OOOO",
"oOO-$$$$$OOO-$$$$$OOO-$$$$$OOOOO",
"oOO;=====OOO;=====OOO;=====OOOOO",
"oO&OOOOOO$O$OOOOOO&O&OOOOOO$OOOO",
"oO&OOOOOO$O$OOOOOO&O&OOOOOO$OOOO",
"oO&OOOOOO$O$OOOOOO&O&OOOOOO$OOOO",
"oO&OOOOOO$O$OOOOOO&O&OOOOOO$OOOO",
"oO&OOOOOO$O$OOOOOO&O&OOOOOO$OOOO",
"oO&OOOOOO$O$OOOOOO&O&OOOOOO$OOOO",
"oO&OOOOOO$O$OOOOOO&O&OOOOOO$OOOO",
"oO&OOOOOO$O$OOOOOO&O&OOOOOO$OOOO",
"oO:O=====>O>O=====:O:O*****>OOOO",
"oOO=$$$$$O=O=$$$$$O*O*&&&&&O*OOO",
"oOO=#####O=O=#####O*O*%%%%%O*OOO",
"oOOOOOOOOOOOOOOOOOOOOOOOOOOOOOOO",
"oOOOOOOOOOOOOOOOOOOOOOOOOOOOOOOO",
"oOOOOOOOOOOOOOOOOOOOOOOOOOOOOOOO",
"oOOOOOOOOOOOOOOOOOOOOOOOOOOOOOOO",
"oOOOOOOOOOOOOOOOOOOOOOOOOOOOOOOO"
};
