/* XPM */
static const char *wxLcdWindow16_xpm[] = {
/* columns rows colors chars-per-pixel */
"16 16 67 1",
"  c Black",
"r c #002600",
"6 c #002300",
"& c #006F00",
"7 c #004600",
"= c #006C00",
"q c #009200",
"x c #008F00",
"* c #001A00",
"; c #00B500",
"d c #004000",
"s c #001700",
"O c #003D00",
"S c #003A00",
"b c #00FB00",
". c #001100",
"> c #000E00",
"u c #008000",
"N c #000B00",
"D c #005700",
"X c #000800",
"2 c #002E00",
"$ c #002B00",
"f c #007700",
"# c #000200",
", c #004800",
"e c #001C00",
"z c #001900",
"n c #003F00",
"J c #001600",
"w c #00AE00",
"- c #00AB00",
"4 c #003600",
"A c #003300",
"j c #005900",
"M c #003000",
"G c #00CB00",
"Z c #000400",
"V c #000100",
"k c #009C00",
": c #002700",
"8 c #00E500",
"i c #009600",
"0 c #004700",
"< c #009300",
"+ c #004400",
"1 c #001B00",
"% c #004100",
"g c #001800",
"y c #003E00",
"3 c #00B000",
"a c #001200",
"@ c #003800",
"F c #008400",
"c c #000F00",
"v c #005B00",
"t c #003200",
"5 c #00CD00",
"o c #000900",
"9 c #002F00",
"H c #000600",
"B c #002C00",
"C c #005200",
"m c #000300",
"p c #009E00",
"l c #002900",
"h c #004F00",
/* pixels */
"                ",
"                ",
"..X oO++@#      ",
"$%& *=--;:   >  ",
" ,< 12  3$  456 ",
" ,< 12  3$  789 ",
" 0q 12  w$   e  ",
"rty euiipa      ",
"sdf ghjjkl      ",
" ,< 12  3$  zxc ",
" ,< 12  3$  vbn ",
"m,q#1MNN3BV XCZ ",
"ASD1zFGGwlN     ",
"HH# ZgzzJ       ",
"                ",
"                "
};
