/* XPM */
static const char *wxLcdWindow32_xpm[] = {
/* columns rows colors chars-per-pixel */
"32 30 120 2",
"   c Black",
"8  c #002600",
"[  c #00C100",
"H  c #004C00",
"U  c #00E700",
"3  c #009800",
"b  c #009500",
"+  c #002000",
"_  c #00E100",
"a  c #001D00",
"s  c #006900",
"{  c #008F00",
",. c #001A00",
"5  c #001700",
"Q  c #00B200",
"I  c #003D00",
"v  c #00FE00",
"+. c #008900",
"=. c #001400",
"L  c #003A00",
"l  c #00FB00",
"S  c #001100",
"-. c #003700",
"z  c #00F800",
"%  c #008300",
"j  c #000E00",
"0  c #003400",
")  c #005A00",
">. c #00A600",
"3. c #003100",
"%. c #00F200",
"T  c #000800",
"G  c #002E00",
"o  c #000500",
"P  c #002B00",
"9  c #000200",
"M  c #00C300",
"6  c #007100",
"f  c #002200",
" . c #006E00",
"h  c #009400",
"4  c #004500",
">  c #001C00",
"D  c #004200",
"-  c #003F00",
"6. c #00DA00",
"V  c #008B00",
"1. c #001600",
"!  c #00B100",
";  c #003C00",
"5. c #00D700",
"J  c #006200",
"C  c #00FD00",
";. c #008800",
"/  c #001300",
"g  c #00AE00",
"W  c #003900",
"2  c #00FA00",
":  c #008500",
"9. c #001000",
"7. c #00D100",
"d  c #00F700",
"K  c #00A800",
"<. c #003300",
"`  c #00CE00",
"A  c #00F400",
"r  c #007F00",
"y  c #005600",
"x  c #000700",
"B  c #002D00",
"<  c #005300",
"X  c #000400",
"}  c #009F00",
"(  c #005000",
".  c #000100",
"#. c #002700",
"#  c #002400",
"R  c #009600",
"u  c #002100",
":. c #00BC00",
"n  c #004700",
"t  c #00E200",
"o. c #009300",
".. c #001E00",
"w  c #004400",
"i  c #009000",
"@  c #001B00",
"X. c #00B600",
"N  c #004100",
"1  c #00DC00",
"$  c #006700",
"Y  c #008D00",
"q  c #003E00",
"Z  c #006400",
"p  c #00FF00",
"$. c #001500",
"k  c #00B000",
"m  c #00D600",
"@. c #00FC00",
"F  c #00AD00",
"'  c #003800",
"8. c #008400",
"O. c #000F00",
"&. c #00D000",
"e  c #005B00",
"|  c #00F600",
"&  c #008100",
"2. c #000C00",
"*. c #003200",
"*  c #005800",
"7  c #00F300",
"~  c #007E00",
"=  c #000900",
",  c #002F00",
"]  c #000600",
"c  c #00C700",
"4. c #007800",
"O  c #000300",
"E  c #002900",
"^  c #004F00",
/* pixels */
"                                                                ",
"                                                                ",
"                                                                ",
"                                                                ",
". . . . .         . X o o o o o o O                             ",
"+ + + + @ X       # $ % % % % % & * =                           ",
"- - - ; : >     . , < 1 2 2 2 2 1 3 4                           ",
"5 5 5 6 7 8     9 0 q w e e e e r t y               u 5         ",
"      i p 8     9 0 - a         s d y             f g h j       ",
"      i p 8     9 0 - a         s d y           o k l z r       ",
"      i p 8     9 0 - a         s d y           x c v v b       ",
"      i p 8     9 0 - a         s d y           . n m M 8       ",
"      i p 8     9 0 - a         s d y               N B         ",
"      V C 8     9 0 - >         Z A y                           ",
"S S S D F @     9 G 0 H w w w w J K q                           ",
"L L L L P X     . I 3 U U U U U t Y T                           ",
"B B B D R +     9 E W Q ! ! ! ! i ~ ^                           ",
"      i p 8     9 0 ; /         s d y                           ",
"      i p 8     9 0 - a         s d y             x ( q O       ",
"      i p 8     9 0 - a         s d y           9 ) _ ` '       ",
"      i p 8     9 0 - a         s d y           ] [ v C {       ",
"      i p 8     9 0 - a         s d y           X } 2 |  .      ",
"      i p 8     9 0 - a         s d y             ..X.o.O.      ",
"o o o +.@.#.o 9 9 0 - 8 $.$.$.$. .%.y O O                       ",
", , , ( &.*., =.9 , -.;.:.:.:.:.>.:.y ,.@ .                     ",
"-.-.-.<.4 1.@ 2.. 3.4.5.6.6.6.6.7.8.# O.O..                     ",
"2.2.2.2.x         9., *.*.*.*.*.*.#                             ",
"                                                                ",
"                                                                ",
"                                                                "
};
