/* XPM */
static const char * wxled32[] = {
/* width height num_colors chars_per_pixel */
"32 32 236 3",
/* colors */
"    c None",
"!   c #ffffff",
"#   c #fefefe",
"$   c #feefef",
"%   c #fdfdfd",
"&   c #fcfcfc",
"'   c #fcdbdb",
"(   c #fcd9d9",
")   c #fbfbfb",
"*   c #fbd2d2",
"+   c #fafafa",
",   c #fac9c9",
"-   c #fac7c7",
".   c #fac6c6",
"/   c #f9f9f9",
"0   c #f9c4c4",
"1   c #f9c1c1",
"2   c #f8f8f8",
"3   c #f8f7f7",
"4   c #f8f6f6",
"5   c #f8f5f5",
"6   c #f8f3f3",
"7   c #f8f2f2",
"8   c #f8f1f1",
"9   c #f8bebe",
":   c #f8adad",
";   c #f7f7f7",
"<   c #f7f6f6",
"=   c #f7e6e6",
">   c #f7e5e5",
"?   c #f7a5a5",
"@   c #f6f6f6",
"A   c #f6f0f0",
"B   c #f6e0e0",
"C   c #f6dddd",
"D   c #f6dbdb",
"E   c #f6d9d9",
"F   c #f6a5a5",
"G   c #f69e9e",
"H   c #f69b9b",
"I   c #f69898",
"J   c #f5f5f5",
"K   c #f5d8d8",
"L   c #f5cece",
"M   c #f59595",
"N   c #f59292",
"O   c #f4f4f4",
"P   c #f4f3f3",
"Q   c #f4b7b7",
"R   c #f4b5b5",
"S   c #f48f8f",
"T   c #f48d8d",
"U   c #f3f3f3",
"V   c #f3b5b5",
"W   c #f3b2b2",
"X   c #f3acac",
"Y   c #f3a0a0",
"Z   c #f37575",
"[   c #f2e1e1",
"]   c #f2dbdb",
"^   c #f29898",
"_   c #f29393",
"`   c #f1f1f1",
"a   c #f18e8e",
"b   c #f18b8b",
"c   c #f17676",
"d   c #f0f0f0",
"e   c #f08585",
"f   c #f07d7d",
"g   c #f07b7b",
"h   c #f07575",
"i   c #f05858",
"j   c #f05757",
"k   c #f05656",
"l   c #efefef",
"m   c #ef7474",
"n   c #ef6d6d",
"o   c #ef5050",
"p   c #ee8b8b",
"q   c #ee6161",
"r   c #ee5555",
"s   c #ee4646",
"t   c #ee4242",
"u   c #ed5b5b",
"v   c #ececec",
"w   c #ecafaf",
"x   c #ec3d3d",
"y   c #ec3a3a",
"z   c #ec3333",
"{   c #ebebeb",
"|   c #ebe5e5",
"}   c #eb6d6d",
"~   c #eb3939",
" !  c #eb3333",
"!!  c #eb3030",
"#!  c #eb2d2d",
"$!  c #eb2828",
"%!  c #eb2525",
"&!  c #eb2323",
"'!  c #eb2121",
"(!  c #eae5e5",
")!  c #ea2727",
"*!  c #ea1e1e",
"+!  c #e9e9e9",
",!  c #e92f2f",
"-!  c #e91212",
".!  c #e91010",
"/!  c #e90f0f",
"0!  c #e90e0e",
"1!  c #e90d0d",
"2!  c #e90a0a",
"3!  c #e90909",
"4!  c #e90707",
"5!  c #e81212",
"6!  c #e80d0d",
"7!  c #e80707",
"8!  c #e80606",
"9!  c #e80505",
":!  c #e80404",
";!  c #e80303",
"<!  c #e80202",
"=!  c #e80101",
">!  c #e80000",
"?!  c #e7e7e7",
"@!  c #e7a8a8",
"A!  c #e77777",
"B!  c #e76c6c",
"C!  c #e73838",
"D!  c #e70404",
"E!  c #e70303",
"F!  c #e6e6e6",
"G!  c #e67171",
"H!  c #e65151",
"I!  c #e61414",
"J!  c #e60f0f",
"K!  c #e60b0b",
"L!  c #e5e5e5",
"M!  c #e57676",
"N!  c #e50e0e",
"O!  c #e50c0c",
"P!  c #e34747",
"Q!  c #e33434",
"R!  c #e31717",
"S!  c #e25656",
"T!  c #e23e3e",
"U!  c #e21f1f",
"V!  c #e15151",
"W!  c #e13131",
"X!  c #e0e0e0",
"Y!  c #e04747",
"Z!  c #e02e2e",
"[!  c #e02d2d",
"]!  c #e02828",
"^!  c #e02727",
"_!  c #dfdfdf",
"`!  c #df3a3a",
"a!  c #dec8c8",
"b!  c #de6363",
"c!  c #de3030",
"d!  c #de2f2f",
"e!  c #dddcdc",
"f!  c #dcdcdc",
"g!  c #dcc6c6",
"h!  c #dbdbdb",
"i!  c #db6d6d",
"j!  c #d9d9d9",
"k!  c #d96b6b",
"l!  c #d86969",
"m!  c #d84b4b",
"n!  c #d79999",
"o!  c #d77272",
"p!  c #d75656",
"q!  c #d6d6d6",
"r!  c #d65b5b",
"s!  c #d65454",
"t!  c #d57171",
"u!  c #d56969",
"v!  c #d4d4d4",
"w!  c #d46060",
"x!  c #d3d3d3",
"y!  c #d2d2d2",
"z!  c #d29595",
"{!  c #d26e6e",
"|!  c #d26d6d",
"}!  c #d26c6c",
"~!  c #d1d1d1",
" #  c #d17272",
"!#  c #d16e6e",
"##  c #d07575",
"$#  c #d07474",
"%#  c #d07373",
"&#  c #d07272",
"'#  c #cfcfcf",
"(#  c #cfcbcb",
")#  c #cfc9c9",
"*#  c #cd8e8e",
"+#  c #cccccc",
",#  c #cc8585",
"-#  c #cbcbcb",
".#  c #cb9595",
"/#  c #cb8f8f",
"0#  c #cb8d8d",
"1#  c #cb8c8c",
"2#  c #cb8a8a",
"3#  c #cacaca",
"4#  c #c9c9c9",
"5#  c #c8c8c8",
"6#  c #c8b6b6",
"7#  c #c8b2b2",
"8#  c #c7c7c7",
"9#  c #c7a1a1",
":#  c #c7a0a0",
";#  c #c6c6c6",
"<#  c #c6a9a9",
"=#  c #c5c5c5",
">#  c #c5c4c4",
"?#  c #c5aaaa",
"@#  c #c5a9a9",
"A#  c #c5a8a8",
"B#  c #c4c4c4",
"C#  c #c4aeae",
"D#  c #c4abab",
"E#  c #c3c3c3",
"F#  c #c3b2b2",
"G#  c #c3b1b1",
"H#  c #c2c2c2",
"I#  c #c2bcbc",
"J#  c #c1c1c1",
"K#  c #c1c0c0",
"L#  c #c1bebe",
"M#  c #c1bdbd",
"N#  c #c1bbbb",
"O#  c #c1baba",
"P#  c #c0c0c0",
"Q#  c #c0bfbf",
"R#  c #c0bebe",
/* pixels */
"#  !  !  !  !  )  f! 5# E# J# P# P# P# P# P# P# P# P# P# P# P# P# P# P# P# B# F! !  !  !  !  !  ",
"#  !  !  !  %  +! 5# H# J# P# P# P# P# P# P# P# P# P# P# P# P# P# P# P# P# E# X! )  !  !  !  !  ",
"   !  !  ;  q! ;# J# P# P# P# P# P# P# P# P# P# P# P# P# P# P# P# P# P# P# H# +# L! &  !  !  !  ",
"         3# J# P# P# P# P# P# P# P# P# Q# Q# Q# Q# Q# Q# P# P# P# P# P# P# J# =# y! O  !  !  !  ",
"!  )  q! B# J# P# P# P# P# P# P# Q# O# F# D# @# @# D# F# O# Q# P# P# P# P# H# 4# h! U  )  !  !  ",
"&  U  x! B# J# P# P# P# P# Q# R# N# ?# 1# ## {! {! %# 2# @# N# R# Q# P# J# ;# v! +! @  /  )  #  ",
"l  h! -# E# J# P# P# Q# N# G# A# 9# *# k! V! P! T! `! p! ,# :# A# G# I# ># '# X! d  ;  2  +  %  ",
"j! 4# B# J# P# P# Q# M# C# /#  # u! i! A! f  c  r  ,! [! m! w! !# 0# 7# (# e! {  O  2  2  +  &  ",
"4# E# J# P# P# P# N# C# .# o! S! H! }  Y  9  :  Z  z  I! R! U! d! r! z! g! |  P  ;  2  2  +  &  ",
"8# H# P# P# P# Q# G# /# o! M! e  S  F  -  .  M  k  '! 7! <! D! N! Z! b! @! [  <  2  2  2  /  &  ",
"B# H# P# P# P# R# A#  # S! e  0  '  (  ,  H  j  '! 2! <! >! >! E! J! C! p  K  5  2  2  2  /  +  ",
"J# J# P# P# Q# N# 9# u! H! S  '  $  *  I  i  %! 3! =! >! >! >! >! 9! )! g  L  8  3  2  2  2  2  ",
"P# P# P# P# O# ?# *# i! }  F  (  *  G  i  '! 3! <! >! >! >! >! >! ;! *! q  X  D  8  2  2  2  2  ",
"P# P# P# Q# F# 1# l! G! ^  1  -  I  i  %! 3! =! >! >! >! >! >! >! =! /!  ! n  W  =  3  2  2  2  ",
"P# P# P# Q# D# $# Y! u  T  ?  N  i  '! 3! <! >! >! >! >! >! >! >! >! ;! .! x  _  C  4  2  2  2  ",
"P# P# P# Q# @# |! W! #! s  o  t  &! 3! =! >! >! >! >! >! >! >! >! >! >! 8! !! b  D  4  2  2  2  ",
"P# P# P# Q# @# }! ]! 6! 0! .! 1! 4! <! >! >! >! >! >! >! >! >! >! >! >! 8! !! b  D  4  2  2  2  ",
"P# P# P# Q# D# &# c! O! E! =! >! >! >! >! >! >! >! >! >! >! >! >! >! ;! .! x  _  C  4  2  2  2  ",
"P# P# P# Q# F# 2# s! ^! K! =! >! >! >! >! >! >! >! >! >! >! >! >! =! /!  ! n  W  =  3  2  2  2  ",
"P# P# P# P# O# @# ,# m! R! <! >! >! >! >! >! >! >! >! >! >! >! >! ;! *! q  X  D  8  2  2  2  2  ",
"P# P# P# P# Q# N# :# w! U! D! >! >! >! >! >! >! >! >! >! >! >! >! 9! $! g  L  8  3  2  2  2  2  ",
"P# P# P# P# P# L# <# t! Q! 5! :! >! >! >! >! >! >! >! >! >! >! :! -! x  a  E  5  2  2  2  2  2  ",
"H# J# P# P# J# K# 6# n! B! ~  -! 9! ;! =! >! >! >! >! =! ;! 9! -! y  h  R  >  4  2  2  2  2  /  ",
"=# J# H# B# 8# 4# )# a! w  m  x  $! *! /! ;! >! >! ;! /! *! $! x  h  Q  B  7  3  2  2  2  2  2  ",
"5# E# 8# ~! j! f! X! (! ]  V  a  g  q   ! .! 8! 8! .!  ! q  g  a  R  B  6  3  2  2  2  2  2  2  ",
"'# 5# q! L! v  l  `  P  A  >  E  L  X  n  x  !! !! x  n  X  L  E  >  7  3  2  2  2  2  2  2  2  ",
"?! _! l  J  @  ;  ;  2  3  4  5  8  D  W  _  b  b  _  W  D  8  5  4  3  2  2  2  2  2  2  /     ",
"      /  2  2  2  2  2  2  2  2  3  8  =  C  D  D  C  =  8  3  2  2  2  2  2  2  2  2  2        ",
"      %  /  2  2  2  2  2  2  2  2  2  3  4  4  4  4  3  2  2  2  2  2  2  2  2  2  )  #  !  !  ",
"         %  2  2  2  2  2  2  2  2  2  2  2  2  2  2  2  2  2  2  2  2  2  2  2  )  !  !  !  !  ",
"               2  2  2  2  2  2  2  2  2  2  2  2  2  2  2  2  2  2  2  2  2  )  !  !  !  !  !  ",
"                  2  2  2  2  2  2  2  2  2  2  2  2  2  2  2  2  2  2  2  /  #  !  !  !  !  !  "
};
