/* XPM */
static const char *wxLedPanel32_xpm[] = {
/* columns rows colors chars-per-pixel */
"32 32 23 1",
"o c #046904",
"; c #04B204",
"- c #19FE19",
"> c #04FE04",
"# c #043404",
"3 c #52FE52",
"% c #6ED36E",
"+ c #040204",
", c #04E904",
"1 c #6FD46F",
"X c #044204",
"< c #356335",
"4 c #04B104",
". c #048204",
"$ c #043304",
"& c #366436",
"O c #046D04",
"2 c #44C044",
"= c #0B880B",
": c #7CF67C",
"  c #044C04",
"* c #84FE84",
"@ c #046C04",
/* pixels */
" .X.X. oo .X.X. oo .X.X. oo .X.X",
"O+.+.+@#$O+.+.+@#$O+.+.+@#$O+.+.",
"O+.+.+%&$O+.+.+%&$O+*+.+@#$O+*+.",
" .X.X=-;o .X.X=-;o :>.X. oo :>.X",
" .X.X.,;o .X.X.,;o .>.X. oo .>.X",
"O+.+.+@#$O+.+.+@#$O+.+.+@#$O+.+.",
"O+.+.+%&$O+.+.+%&$O+*+.+@#$O+*+.",
" .X.X=-;o .X.X=-;o :>.X. oo :>.X",
" .X.X.,;o .X.X.,;o .>.X. oo .>.X",
"O+.+.+@#$O+.+.+@#$O+.+.+@#$O+.+.",
"O+.+.+%&$O+.+.+%&$O+.+*+@#<1+.+.",
" .X.X=-;o .X.X=-;o .X2>. o3,.X.X",
" .X.X.,;o .X.X.,;o .X.>. o4,.X.X",
"O+.+.+@#$O+.+.+@#$O+.+.+@#$O+.+.",
"O+.+.+%&$O+*+.+%&$O+.+.+%&$O+.+.",
" .X.X=-;o :>.X=-;o .X.X=-;o .X.X",
" .X.X.,;o .>.X.,;o .X.X.,;o .X.X",
"O+.+.+@#$O+.+.+@#$O+.+.+@#$O+.+.",
"O+.+.+%&$O+*+.+%&$O+.+*+@#<1+.+.",
" .X.X=-;o :>.X=-;o .X2>. o3,.X.X",
" .X.X.,;o .>.X.,;o .X.>. o4,.X.X",
"O+.+.+@#$O+.+.+@#$O+.+.+@#$O+.+.",
"O+.+.+%&<1+.+*+%&$O+*+.+@#$O+*+.",
" .X.X=-;3,.X2>=-;o :>.X. oo :>.X",
" .X.X.,;4,.X.>.,;o .>.X. oo .>.X",
"O+.+.+@#$O+.+.+@#$O+.+.+@#$O+.+.",
"O+.+.+%&$O+.+.+%&$O+*+.+@#$O+*+.",
" .X.X=-;o .X.X=-;o :>.X. oo :>.X",
" .X.X.,;o .X.X.,;o .>.X. oo .>.X",
"O+.+.+@#$O+.+.+@#$O+.+.+@#$O+.+.",
"O+.+.+@#$O+.+.+@#$O+.+.+@#$O+.+.",
" .X.X. oo .X.X. oo .X.X. oo .X.X"
};
