/* XPM */
static const char *wxLedPanel16_xpm[] = {
/* columns rows colors chars-per-pixel */
"16 16 167 2",
"<  c #1F7D1F",
"T  c #085D08",
"8  c #0B8D0B",
"M. c #055005",
"f. c #18A218",
"I  c #085A08",
"c. c #0C740C",
",. c #0F7E0F",
"n. c #0C710C",
"s  c #1E8A1E",
"v. c #096409",
"d. c #147F14",
"L  c #0B5E0B",
"e  c #0A740A",
"o  c #065706",
"E  c #0B5B0B",
"~  c #0A710A",
"2. c #0F750F",
"=. c #136913",
"Y. c #076407",
"J. c #2AAF2A",
"k. c #095E09",
"9. c #0C680C",
"M  c #0B7E0B",
"R. c #045704",
"^  c #116C11",
"l  c #065106",
"H. c #095B09",
"k  c #167016",
".  c #045404",
".. c #075E07",
"H  c #127912",
"O. c #0C620C",
"   c #045104",
"b. c #0E820E",
"K. c #075B07",
"b  c #0F920F",
"0  c #097B09",
"&  c #044E04",
"y. c #116311",
"C  c #075807",
"I. c #066E06",
"]  c #177717",
">. c #0B720B",
"`  c #168D16",
"i. c #086508",
"m  c #0C7F0C",
"$. c #0E790E",
"@  c #055805",
"8. c #126D12",
"U  c #086208",
"L. c #077807",
"X. c #085F08",
"'  c #0D630D",
"u. c #055205",
"a. c #1C981C",
"7  c #066206",
"5. c #085C08",
"G  c #137713",
"%. c #0A560A",
"j  c #1A751A",
"w  c #0C760C",
"l. c #24A624",
"f  c #054F05",
"4. c #1A9B1A",
"{  c #117A11",
"|  c #0B630B",
"x. c #128712",
"*  c #0B600B",
"m. c #0E6A0E",
"D. c #128412",
"g  c #167816",
"Q  c #0D7D0D",
"#  c #065606",
"V  c #096009",
"S  c #045904",
"N. c #065306",
"v  c #076307",
"P  c #1F931F",
"D  c #095D09",
"B  c #0D770D",
"A. c #045604",
"/  c #0C8D0C",
":  c #065006",
"7. c #136513",
"6. c #158515",
"q. c #0D740D",
")  c #045304",
"F  c #1A891A",
"x  c #299829",
"4  c #095709",
"S. c #138813",
"T. c #097D09",
"p  c #045004",
"}  c #107B10",
"r. c #075A07",
"[  c #0D6E0D",
"5  c #31A331",
"w. c #0F680F",
";  c #044D04",
"<. c #0E7E0E",
"9  c #055D05",
"6  c #075707",
"r  c #055A05",
"2  c #075407",
"e. c #086408",
"h  c #157915",
"a  c #0A5E0A",
"#. c #0E780E",
"n  c #055705",
"F. c #1D871D",
"&. c #0D650D",
"$  c #055405",
"y  c #109510",
":. c #187D18",
"1  c #1A771A",
"C. c #1A9D1A",
"g. c #0F820F",
"!  c #096B09",
"3. c #0B650B",
"-  c #085808",
"z. c #065B06",
"d  c #085508",
"q  c #087B08",
"1. c #117311",
"t  c #065806",
"h. c #198119",
"s. c #0F760F",
"c  c #065506",
"R  c #0B590B",
"Y  c #139013",
"t. c #0B7F0B",
">  c #197E19",
"K  c #116D11",
"Z. c #076207",
"G. c #178117",
"X  c #045504",
"o. c #138A13",
"O  c #045204",
"Z  c #116711",
"p. c #1CA81C",
"V. c #0A660A",
"3  c #044F04",
"%  c #075907",
" . c #138413",
"*. c #097909",
"=  c #229322",
"N  c #0B730B",
"i  c #044C04",
"W  c #0E7D0E",
"(  c #055C05",
"z  c #075607",
"P. c #066C06",
"U. c #086608",
"-. c #149114",
"A  c #0D900D",
"u  c #055905",
"j. c #137E13",
"0. c #157815",
"@. c #0B6D0B",
";. c #0D670D",
"+  c #055605",
"J  c #126B12",
"_  c #086008",
"+. c #157515",
"B. c #168516",
",  c #187F18",
/* pixels */
"  . X o O   O + @ # $   O X % . ",
"& O * = - ; : > , < 1 2 3 4 5 6 ",
". X 7 8 9 . + 0 q w e r X t y u ",
"i p a s d i f g h j k l & z x c ",
". X v b 9 . n m M N B V C Z A S ",
";   D F z i f G H p J K L P I   ",
"O X U Y T R E W Q . ! ~ ^ / ( X ",
"3 ) _ ` ' ] [ { } O p |  ...) ) ",
"3 ) X.o.O.+.@.#.$.O %.&.*.=.c ) ",
"O X U -.;.:.>.,.<.. 1.2.3.4...X ",
";   5.6.7.8.9.0.q.%.w.e.r.t.y.u.",
". X i.p.a.s.d.f.g.h.j.( X k.l.z.",
"i p r.x.c...v.b.n.m.;.M.& N.B.$ ",
". X V.C.Z.A.u S.D.F.G.z.X H.J.K.",
"& O r L.. ; 3 P.I.U.Y.  3 $ T.X ",
"  . . X O   O X R.. )   O X A.. "
};
