/* XPM */
static const char * wxled16[] = {
/* width height num_colors chars_per_pixel */
"16 16 45 1",
/* colors */
"  c None",
"! c #ffffff",
"# c #fefefe",
"$ c #fdfdfd",
"% c #fcfcfc",
"& c #fcdcdc",
"' c #fcdada",
"( c #fafafa",
") c #f8f8f8",
"* c #f7e7e7",
"+ c #f7e6e6",
", c #f5cccc",
"- c #f59595",
". c #f4f4f4",
"/ c #f4bebe",
"0 c #f48787",
"1 c #f0f0f0",
"2 c #f07c7c",
"3 c #f05858",
"4 c #f05757",
"5 c #f05555",
"6 c #efefef",
"7 c #ef7070",
"8 c #ef4b4b",
"9 c #eeeeee",
": c #eedede",
"; c #ed3c3c",
"< c #ebebeb",
"= c #eb2020",
"> c #eb1c1c",
"? c #e9e9e9",
"@ c #e80000",
"A c #e6e6e6",
"B c #d9d9d9",
"C c #d86f6f",
"D c #d67676",
"E c #d65656",
"F c #d46060",
"G c #ccbcbc",
"H c #cacaca",
"I c #c99393",
"J c #c79e9e",
"K c #c3b3b3",
"L c #c3b2b2",
"M c #c0c0c0",
/* pixels */
"#!!#(MMMMMMM6!!!",
"  MMMMMMMMMM?$!!",
"!)MMMMLJJLMMMB#!",
"#<MMKIC;>EIKH1$!",
".MMKD8-&5@@F:))!",
"AMMI8!'4@@@@/))%",
"MMLC-'3@@@@@7+))",
"MMJ=04@@@@@@@,))",
"MMJ@@@@@@@@@@,))",
"MMLE@@@@@@@@7+))",
"MMMI@@@@@@@@/))%",
"(MMG2@@@@@@2*))#",
"#1<9*/7@@7/*))$$",
"!#))))+,,+))))#!",
"!!))))))))))))  ",
"!! ))))))))))!!!"
};
