/* XPM */
static const char *wxStateLed32_xpm[] = {
/* columns rows colors chars-per-pixel */
"32 32 5 1",
"  c green",
". c #C0C0C0",
"X c gray94",
"o c #F8F8F8",
"O c gray100",
/* pixels */
"XXXXXXXXXXXX........XXXXXXXXXXXX",
"XXXXXXXXXXXX........XXXXXXXXXXXX",
"XXXXXXXX................XXXXXXXX",
"XXXXXXXX................XXXXXXXX",
"XXXXXXX..................XXXXXXX",
"XXXXXXX..................XXXXXXX",
"XXXXX........      ......ooXXXXX",
"XXXXX........      ......ooXXXXX",
"XXX.......   OOOO     ..oooooXXX",
"XXX.....  OOOOO         oooooXXX",
"XXX.....  OOOOO         oooooXXX",
"XX......  OOO           ooooooXX",
"XX......  OOO           ooooooXX",
"XX..... OOOO             oooooXX",
"XX..... OOOO             oooooXX",
"XX.....                  oooooXX",
"XX.....                  oooooXX",
"XX.....                  oooooXX",
"XX.....                  oooooXX",
"XX......                ooooooXX",
"XX......                ooooooXX",
"XXX.....                oooooXXX",
"XXX.....                oooooXXX",
"XXX.....oo            oooooooXXX",
"XXXXXoooooooo      ooooooooXXXXX",
"XXXXXoooooooo      ooooooooXXXXX",
"XXXXXXXooooooooooooooooooXXXXXXX",
"XXXXXXXooooooooooooooooooXXXXXXX",
"XXXXXXXXooooooooooooooooXXXXXXXX",
"XXXXXXXXooooooooooooooooXXXXXXXX",
"XXXXXXXXXXXXooooooooXXXXXXXXXXXX",
"XXXXXXXXXXXXooooooooXXXXXXXXXXXX"
};
