/* XPM */
static const char *axis32_xpm[] = {
"32 32 5 1 0 0",
"  c #000000",
"! c #0000FF",
"# c #00FFFF",
"$ c #FFFFFF",
"% c None",
"$$$$$$$$$$$$$$$$$$$$$$$$$$$$$$$$",
"$$$$$$$$$$$$$$$$$$$$$$$$$$$$$$$$",
"$$!!!!!!######################$$",
"$$!!!!!!######################$$",
"$$$$!!$$$$##$$$$##$$$$##$$$$##$$",
"$$$$!!$$$$##$$$$##$$$$##$$$$##$$",
"$$$$!!$$$$##$$$$##$$$$##$$$$##$$",
"$$$$!!$$$$##$$$$##$$$$##$$$$##$$",
"$$!!!!!!######################$$",
"$$!!!!!!######################$$",
"$$$$!!$$$$##$$$$##$$$$##$$$$##$$",
"$$$$!!$$$$##$$$$##$$$$##$$$$##$$",
"$$$$!!$$$$##$$$$##$$$$##$$$$##$$",
"$$$$!!$$$$##$$$$##$$$$##$$$$##$$",
"$$!!!!!!######################$$",
"$$!!!!!!######################$$",
"$$$$!!$$$$##$$$$##$$$$##$$$$##$$",
"$$$$!!$$$$##$$$$##$$$$##$$$$##$$",
"$$$$!!$$$$##$$$$##$$$$##$$$$##$$",
"$$$$!!$$$$##$$$$##$$$$##$$$$##$$",
"$$!!!!!!######################$$",
"$$!!!!!!######################$$",
"$$$$!!$$$$##$$$$##$$$$##$$$$##$$",
"$$$$!!$$$$##$$$$##$$$$##$$$$##$$",
"$$$$!!$$$$!!$$$$!!$$$$!!$$$$!!$$",
"$$$$!!$$$$!!$$$$!!$$$$!!$$$$!!$$",
"$$!!!!!!!!!!!!!!!!!!!!!!!!!!!!$$",
"$$!!!!!!!!!!!!!!!!!!!!!!!!!!!!$$",
"$$$$!!$$$$!!$$$$!!$$$$!!$$$$!!$$",
"$$$$!!$$$$!!$$$$!!$$$$!!$$$$!!$$",
"$$$$$$$$$$$$$$$$$$$$$$$$$$$$$$$$",
"$$$$$$$$$$$$$$$$$$$$$$$$$$$$$$$$"
};
