/* XPM */
static const char *axis16_xpm[] = {
"16 16 5 1 0 0",
"  c #000000",
"! c #0000FF",
"# c #00FFFF",
"$ c #FFFFFF",
"% c None",
"$$$$$$$$$$$$$$$$",
"$!!!###########$",
"$$!$$#$$#$$#$$#$",
"$$!$$#$$#$$#$$#$",
"$!!!###########$",
"$$!$$#$$#$$#$$#$",
"$$!$$#$$#$$#$$#$",
"$!!!###########$",
"$$!$$#$$#$$#$$#$",
"$$!$$#$$#$$#$$#$",
"$!!!###########$",
"$$!$$#$$#$$#$$#$",
"$$!$$!$$!$$!$$!$",
"$!!!!!!!!!!!!!!$",
"$$!$$!$$!$$!$$!$",
"$$$$$$$$$$$$$$$$"
};
