/* XPM */
static const char *vector32_xpm[] = {
"32 32 6 1 0 0",
"  c #000000",
"! c #FF0000",
"# c #0000FF",
"$ c #00FFFF",
"% c #FFFFFF",
"& c None",
"%%%%%%%%%%%%%%%%%%%%%%%%%%%%%%%%",
"%%%%%%%%%%%%%%%%%%%%%%%%%%%%%%%%",
"%%######$$$$$$$$$$$$$$$$$$$$$$%%",
"%%######$$$$$$$$$$$$$$$$$$$$$$%%",
"%%%%##%%%%$$%%%%$$%%%%$$%%%%$$%%",
"%%%%##%%%%$$%%%%$$%%%%$$%%%%$$%%",
"%%%%##%%%%$$%%%%$$%%%%$$%%%%$$%%",
"%%%%##%%%%$$%%%%$$%%%%$$%%%%$$%%",
"%%######$$$$$$$$$$$$$$$$$$$$!!%%",
"%%######$$$$$$$$$$$$$$$$$$$$!!%%",
"%%%%##%%%%$$%%%%$$%%%%$$%%!!!!%%",
"%%%%##%%%%$$%%%%$$%%%%$$%%!!!!%%",
"%%%%##%%%%$$!!!!!!!!!!!!!!!!$$%%",
"%%%%##%%%%$$!!!!!!!!!!!!!!!!$$%%",
"%%######$$!!!!!!!!!!!!!!!!$$$$%%",
"%%######$$!!!!!!!!!!!!!!!!$$$$%%",
"%%%%##%%!!!!%%%%$$%%%%$$%%%%$$%%",
"%%%%##%%!!!!%%%%$$%%%%$$%%%%$$%%",
"%%%%##!!!!$$%%%%$$%%%%$$%%%%$$%%",
"%%%%##!!!!$$%%%%$$%%%%$$%%%%$$%%",
"%%##!!!!$$$$$$$$$$$$$$$$$$$$$$%%",
"%%##!!!!$$$$$$$$$$$$$$$$$$$$$$%%",
"%%%%!!%%%%$$%%%%$$%%%%$$%%%%$$%%",
"%%%%!!%%%%$$%%%%$$%%%%$$%%%%$$%%",
"%%%%##%%%%##%%%%##%%%%##%%%%##%%",
"%%%%##%%%%##%%%%##%%%%##%%%%##%%",
"%%############################%%",
"%%############################%%",
"%%%%##%%%%##%%%%##%%%%##%%%%##%%",
"%%%%##%%%%##%%%%##%%%%##%%%%##%%",
"%%%%%%%%%%%%%%%%%%%%%%%%%%%%%%%%",
"%%%%%%%%%%%%%%%%%%%%%%%%%%%%%%%%"
};
