/* XPM */
static const char * angmet32_xpm[] = {
/* width height num_colors chars_per_pixel */
"32 32 7 1",
/* colors */
"  c None",
"! c #ffffff",
"# c #ff0000",
"$ c #e08e34",
"% c #008000",
"& c #0000ff",
"' c #000000",
/* pixels */
"             ''''''             ",
"          '''%%%%%%'''          ",
"        ''%%%%%%%%%%%%''        ",
"      ''%%%%%%%%%%%%%%%%''      ",
"     '#%%%%%%%%$%%%%%%%%%&'     ",
"     '##%%%%%%%$%%%%%%%%&&'     ",
"    '####%%%%%%$%%%%%%%&&&&'    ",
"   '######%%%%%$%%%%%%&&&&&&'   ",
"  '#######%%%%%$%%%%%%&&&&&&&'  ",
"  '########%%%%$%%%%%&&&&&&&&'  ",
" '##########%%%$%%%%&&&&&&&&&&' ",
" '###########%%$%%%&&&&&&&&&&&' ",
" '###########%%$$%%&&&&&&&&&&&' ",
" '###########$$!!$$&&&&&&&&&&&' ",
"'############$!!!!$&&&&&&&&&&&&'",
"'###########$!!!!!!$&&&&&&&&&&&'",
"'###########$!!!!!!$&&&&&&&&&&&'",
"'###########'$!!!!$''&&&&&&&&&&'",
"'########''' $$!!$$  '''&&&&&&&'",
" '####'''      $$       '''&&&' ",
" '#'''                     '''' ",
"  '                           ' ",
"                                ",
"                                ",
"                                ",
"                                ",
"                                ",
"                                ",
"                                ",
"                                ",
"                                ",
"                                "
};
