/* XPM */
static const char * angmet16_xpm[] = {
/* width height num_colors chars_per_pixel */
"16 16 27 1",
/* colors */
"  c None",
"! c #ffffff",
"# c #ff0000",
"$ c #f0875a",
"% c #eab478",
"& c #e08e34",
"' c #bf2000",
"( c #bf0000",
") c #b8440d",
"* c #b0a75a",
"+ c #b0879a",
", c #b0875a",
"- c #800000",
". c #70871a",
"/ c #550000",
"0 c #406000",
"1 c #38448d",
"2 c #008000",
"3 c #006040",
"4 c #004000",
"5 c #002b00",
"6 c #0020bf",
"7 c #0000ff",
"8 c #0000bf",
"9 c #000080",
": c #000055",
"; c #000000",
/* pixels */
"     ;5445;     ",
"   ;42222224;   ",
"  ;'222.22226;  ",
" ;(#'22.222678; ",
" -###02.2237779 ",
";#####0.2377777;",
";#####)**177777;",
"-#####$!!+777779",
"-#####,!!,877779",
"/##-/;&%%&;;987:",
";/;          ;;;",
"                ",
"                ",
"                ",
"                ",
"                "
};
