/* XPM */
static const char * angreg32_xpm[] = {
/* width height num_colors chars_per_pixel */
"32 32 38 1",
/* colors */
"  c None",
"! c #d5d5d5",
"# c #bcbcbc",
"$ c #bbbbbb",
"% c #b5d1f6",
"& c #a9b1bb",
"' c #a0a0a0",
"( c #8e96a0",
") c #8cb9f7",
"* c #7d8ca1",
"+ c #6f9ddb",
", c #6b82a1",
"- c #65a2f4",
". c #658abe",
"/ c #627186",
"0 c #5a78a1",
"1 c #5457e9",
"2 c #5296f3",
"3 c #517fbd",
"4 c #516786",
"5 c #4985d8",
"6 c #486ea2",
"7 c #4075bd",
"8 c #3764be",
"9 c #3764a2",
": c #2e53a3",
"; c #2443a5",
"< c #24436c",
"= c #1b32a6",
"> c #1b3251",
"? c #1221a7",
"@ c #122136",
"A c #0911c5",
"B c #0911a9",
"C c #0000ff",
"D c #0000e3",
"E c #0000c6",
"F c #0000aa",
/* pixels */
"           $(,0999,,'!          ",
"         (6522222222270$        ",
"       $6222222222222225,!      ",
"      (5222229:===9722222.#     ",
"     ,22225=FCCCCCCDB;222)5&    ",
"    ,2222;ECCCCCCCCCCCB8-225&   ",
"   &5225?CCCCCCCCCCCCCCD=2223!  ",
"  !7225ACCCCCCCCCCCCCCCCC=2220  ",
"  0222=CCCCCCCCCCCCCCCCCCC:222( ",
" $+22:CCCCCCCCCCCCCCCCCCCCE5226 ",
" ,-)5ACCCCCCCCCCCCCCCCCCCCC=222'",
" 922:CCCCCCCCCCCCCCCCCCCCCCE522,",
"$522?CCCCCCCCCCCCCCCCCCCCCCC:226",
"'222FCCCCCCCCCCCCCCCCCCCCCCC=229",
"*227DCCCCCCCCCCCCCCCCCCCCCCCB225",
",229CCCCCCCCCCCCCCCCCCCCCCCCF222",
",229CCCCCCCCCCCCCCCCCCCCCCCCF222",
"*227DCCCCCCCCCCCCCCCCCCCCCCCB225",
"'222FCCCCCCCCCCCCCCCCCCCCCCC=229",
"$522?CCCCCCCCCCCCCCCCCCCCCCC:226",
" 922:CCCC11CCCCCCCCCCCCCCCCE522,",
" ,225ACC1%%1CCCCCCCCCCCCCCC=222'",
" $522:CC1%%1CCCCCCCCCCCCCCE5226 ",
"  0222=CC11CCCCCCCCCCCCCCC:722( ",
"  !7225ACCCCCCCCCCCCCCCCC=29@4  ",
"   &52<5?CCCCCCCCCCCCCCD=2226$  ",
"    ,>922;ECCCCCCCCCCCB82225&   ",
"     /22225=FCCCCCCDB;22225&    ",
"      (5222229:===97222223$     ",
"       $6222222222222225,!      ",
"         (6522222222270$        ",
"           $(,0999,,'!          "
};
