/* XPM */
static const char * angreg16_xpm[] = {
/* width height num_colors chars_per_pixel */
"16 16 56 1",
/* colors */
"  c None",
"! c #bcbcbc",
"# c #bbbbbb",
"$ c #a9b1bb",
"% c #95a9c4",
"& c #8e96a0",
"' c #8b9aae",
"( c #869dbc",
") c #82a0c9",
"* c #7e9eca",
"+ c #799bca",
", c #7599ca",
"- c #6f8fbc",
". c #6c94ca",
"/ c #6b82a1",
"0 c #6791ca",
"1 c #65a2f4",
"2 c #6394d8",
"3 c #638fca",
"4 c #6389bc",
"5 c #5f8cca",
"6 c #5b90d9",
"7 c #5a6c86",
"8 c #5760f2",
"9 c #5296f3",
": c #528ad8",
"; c #5173a2",
"< c #5092ec",
"= c #508cdf",
"> c #4d82ca",
"? c #4d627d",
"@ c #4b8adf",
"A c #4985df",
"B c #4980cb",
"C c #4781e0",
"D c #4781d1",
"E c #457dcb",
"F c #3b6cda",
"G c #3b6ccc",
"H c #3968d3",
"I c #3764cd",
"J c #325ccd",
"K c #3058b8",
"L c #2e53c0",
"M c #2b4fce",
"N c #223fd0",
"O c #203ad0",
"P c #192ed1",
"Q c #0b15d3",
"R c #070de9",
"S c #070ddb",
"T c #0508e9",
"U c #0508d4",
"V c #0000ff",
"W c #0000f8",
"X c #0000ea",
/* pixels */
"    &-0>E5)'    ",
"   (=9@GID9<*!  ",
"  49CPXVVWQH12$ ",
" %<FTVVVVVVWN9, ",
"#6ARVVVVVVVVVJ9/",
";1OVVVVVVVVVVS<.",
"*9UVVVVVVVVVVVGB",
"3DWVVVVVVVVVVVM<",
"3DWVVVVVVVVVVVM<",
"*9UVVVVVVVVVVVGB",
";9OV88VVVVVVVS<.",
"#:AR88VVVVVVVL9/",
" %<KTVVVVVVWN@7 ",
"  ?@CPXVVWQH92$ ",
"   (=9@GID9<+#  ",
"    &-0>E5)'    "
};
