/* XPM */
static const char *bmpchk32_xpm[] = {
/* columns rows colors chars-per-pixel */
"32 32 256 2",
"   c #000000",
".  c #1F1613",
"X  c #26150F",
"o  c #351E15",
"O  c #391E16",
"+  c #27210E",
"@  c #342018",
"#  c #3C241A",
"$  c #382B1E",
"%  c #363418",
"&  c #3F3628",
"*  c #432818",
"=  c #4A291A",
"-  c #413817",
";  c #4A3E1D",
":  c #51301E",
">  c #443422",
",  c #5B3B2C",
"<  c #523327",
"1  c #4D3B3B",
"2  c #4A363F",
"3  c #503632",
"4  c #653E2A",
"5  c #4D431A",
"6  c #5C481F",
"7  c #53431E",
"8  c #4B4023",
"9  c #4A412C",
"0  c #594626",
"q  c #594535",
"w  c #5D4B34",
"e  c #5F4C3B",
"r  c #644C2D",
"t  c #665029",
"y  c #6D5B2B",
"u  c #745E2D",
"i  c #71532F",
"p  c #634A3B",
"a  c #784F3C",
"s  c #635737",
"d  c #6A5631",
"f  c #675E38",
"g  c #6C5B3C",
"h  c #685737",
"j  c #745C32",
"k  c #7C553E",
"l  c #755638",
"z  c #78622B",
"x  c #7A6332",
"c  c #776A31",
"v  c #7E6B35",
"b  c #7C6438",
"n  c #4F3E46",
"m  c #404040",
"M  c #524246",
"N  c #584745",
"B  c #554556",
"V  c #5A4554",
"C  c #5A4B5D",
"Z  c #5D575D",
"A  c #625943",
"S  c #6B5C43",
"D  c #615048",
"F  c #7A5543",
"G  c #6C5951",
"H  c #64595C",
"J  c #705B52",
"K  c #735C59",
"L  c #6D6344",
"P  c #776747",
"I  c #786248",
"U  c #79665A",
"Y  c #5B5376",
"T  c #65596A",
"R  c #635F7D",
"E  c #786569",
"W  c #64607A",
"Q  c #7A6D78",
"!  c #826729",
"~  c #927329",
"^  c #896036",
"/  c #896E30",
"(  c #82643A",
")  c #826B3B",
"_  c #8B6D3A",
"`  c #836935",
"'  c #85703B",
"]  c #927232",
"[  c #937D3F",
"{  c #815B45",
"}  c #806C42",
"|  c #80684B",
" . c #8B6C4D",
".. c #8A6644",
"X. c #906747",
"o. c #926F44",
"O. c #966B49",
"+. c #897444",
"@. c #947746",
"#. c #90754B",
"$. c #9B764B",
"%. c #836B53",
"&. c #846C5E",
"*. c #8A6F5E",
"=. c #896D53",
"-. c #996D58",
";. c #8A7558",
":. c #957C5B",
">. c #947350",
",. c #A87E47",
"<. c #AA7E48",
"1. c #AA7A55",
"2. c #806860",
"3. c #836967",
"4. c #8E7563",
"5. c #9B7760",
"6. c #977763",
"7. c #88777D",
"8. c #997976",
"9. c #A07863",
"0. c #A37D6B",
"q. c #AB7D65",
"w. c #7F827D",
"e. c #A4833F",
"r. c #9B8141",
"t. c #968243",
"y. c #A38344",
"u. c #A78A48",
"i. c #A98A4E",
"p. c #A58246",
"a. c #B88F4A",
"s. c #B9944F",
"d. c #AC8E50",
"f. c #AD815E",
"g. c #B0805C",
"h. c #B89652",
"j. c #BC9954",
"k. c #B49155",
"l. c #9F8160",
"z. c #868277",
"x. c #978979",
"c. c #9B887A",
"v. c #A2836B",
"b. c #A98769",
"n. c #AF8D68",
"m. c #A68D6C",
"M. c #BD8769",
"N. c #B68B6F",
"B. c #A5986F",
"V. c #BE966F",
"C. c #B79762",
"Z. c #BC8D7C",
"A. c #BC9374",
"S. c #B9957B",
"D. c #BBA17E",
"F. c #C2964B",
"G. c #C39953",
"H. c #C4975F",
"J. c #C5995C",
"K. c #CEA65F",
"L. c #C5A15E",
"P. c #D4A255",
"I. c #D0A45F",
"U. c #D8A458",
"Y. c #C29D61",
"T. c #C79B68",
"R. c #D49D6B",
"E. c #D79D68",
"W. c #C3917C",
"Q. c #CA957D",
"!. c #C49C7D",
"~. c #CB997F",
"^. c #CCA363",
"/. c #CBA468",
"(. c #DCAD60",
"). c #DFB366",
"_. c #E4AF60",
"`. c #615D83",
"'. c #717789",
"]. c #7C7A8A",
"[. c #6F719F",
"{. c #707198",
"}. c #737793",
"|. c #656EA4",
" X c #6D70A7",
".X c #6775AE",
"XX c #7076A8",
"oX c #6876B9",
"OX c #6678BF",
"+X c #6876B4",
"@X c #7279B7",
"#X c #6678C0",
"$X c #6A7BC4",
"%X c #6D7EC9",
"&X c #727DC0",
"*X c #85798F",
"=X c #837486",
"-X c #6E80CA",
";X c #7F8AC0",
":X c #7081CD",
">X c #7B87CC",
",X c #7385D2",
"<X c #7688D5",
"1X c #7A8AD4",
"2X c #768ADA",
"3X c #7A8BDA",
"4X c #7D91DC",
"5X c #7A92D7",
"6X c #7C90E0",
"7X c #808080",
"8X c #8B849B",
"9X c #A8919B",
"0X c #BEAC8B",
"qX c #BBA689",
"wX c #9A96A2",
"eX c #9E98B7",
"rX c #97A6BB",
"tX c #CD9681",
"yX c #CD9B84",
"uX c #C19581",
"iX c #D29C85",
"pX c #D59D8A",
"aX c #DA9E8B",
"sX c #CDA385",
"dX c #D5A18B",
"fX c #DBA18D",
"gX c #DAA291",
"hX c #DAAF94",
"jX c #E1A38D",
"kX c #E1A590",
"lX c #8092DE",
"zX c #8398DC",
"xX c #889DDF",
"cX c #8191D6",
"vX c #919FD1",
"bX c #9FA6CE",
"nX c #ADB1CE",
"mX c #AAB2D0",
"MX c #B3BCD5",
"NX c #8195E3",
"BX c #8599E3",
"VX c #8599E8",
"CX c #8A9DE6",
"ZX c #88A0EC",
"AX c #92A8F2",
"SX c #99AEF0",
"DX c #BBC1DA",
"FX c #BFC6EB",
"GX c #BDCCEB",
"HX c #BBCAE6",
"JX c #B9D0EA",
"KX c #AEC5F0",
"LX c #ADC8F1",
"PX c #D4D0C8",
"IX c #FFFFFF",
"UX c None",
/* pixels */
"UXUXUXUXUXUXUXUXUXUXUXUXUXUXUXUXUXUXUXUXUXUXUXUXUXUXUXUXUXUXUXUX",
"UXUXUXUXUXUXUXUXUXUXUXUXUXUXUXUXUXUXUXUXUXUXUXUXUXUXUXUXUXUXUXUX",
"UXUXUXUXUXUXUXUXUXUXUXUXUXUXUXUXUXUXUXUXUXUXUXUXUXUXUXUXUXUXUXUX",
"UXUXUXUXUXUXUXUXUXUXUXUXUXUXUXUXUXUXUXUXUXUXUXUXUXUXUXUXUXUXUXUX",
"-XM *.4.G .X-X-X%X%X%X%X%X%X%X%X%X$X%X$X$X$X$X$X$X#X#X$X#XOXOXOX",
",XoX|.|.+X,X,X:X,X,X:X:X:X:X%X%X-X:X%X%X%X%X%X%X%X%X$X$X%X$X$X$X",
"2X2X2X2X2X2X:X<X<X<X<X<X<X<X<X,X>X:X,X:X:X:X,X%X-X:X-X-X-X-X-X-X",
"6X6X6X6X3X3X@X@X&X3X<X3X3X3X3X3X2X3X3X<X1X<X<X,X,X<X,X,X,X:X,X,X",
"6X6X6XZX3X X`.Y B R `.>X6XNXNXlXlX3X6X6X3X4X3X3X3X3X1X3X<X1X<X<X",
"AXZXZXZX@XB C n V C [.1XVXVXVXVXVXcXcX5XBXlXlXlX4X3XlXlX4X5X5X5X",
"SXAXAX+Xn n T `.B W 7.7X].w.].w.7.w.7X7Xw.].IXxXCXxXzXBXzX4XxXlX",
"FXFXbXn 3 1 Z }.W [.7Xm m m 9 m m m m m 9 PXIX8X*X=XQ E 8.9XeXbX",
"GXGXDX].H e T z.8XwX7Xm IXIXIXIXIXIXIXIXIXPXIXk F F F F -.M.q.0.",
"KXKXKX}.n H Q DXmXnX7Xm IXIXIXIXIXIXIX  IXPXIXl #.M.1.f.1.1.O.l ",
"JXrXGX'.Z N wXDXDXHXw.9 IXIXIXIXIXIX    IXPXIX- ; = 4 : = = = # ",
"w.& x.c.q $ e U x.z.Q m IX  IXIXIX      IXPXIX5 > X F o @ < , . ",
"w q g S 3 $ > r s 8 w.m IX    IX      IXIXPXIX+ > # F O # a , . ",
"f s z #.P l r l #.#.w.m IX          IXIXIXPXIX/ } ) $.p K X.^ o ",
"% 5 6 u c ,._ o.k.p.=Xm IXIX      IXIXIXIXPXIXO...X...n.&.K 2.9.",
"z ] ) ] x b x _ ] U w.m IXIXIX  IXIXIXIXIXPXIX3.4.{ i <. .D J 0.",
"~ r.t.c v ( j d *.3.7Xm IXIXIXIXIXIXIXIXIXPXIXJ 4.I t h ;.;.S.hX",
"+.u.t.v ` ( ( P 2.J 7XPXPXPXPXPXPXPXPXPXPXPXIXA J 9.N.iXfXdXdXgX",
"i.G.] b ) v ' | U %.IXIXIXIXIXIXIXIXIXIXIXIXIX:.S.fXkXkXgXgXgXgX",
"^.j.y 0 @.@.^.f.b.Y.(.).h.e.P A ;.L f :.v.W.~.Q.iXpXaXgXgXgXpXgX",
"j.s.$.o./.^._./.V.G.F.P.u.' B.sXsXm.S.sXiXjXjXaXaXiXtXtXW.W.Z.Z.",
"j.J.E.E.^.I.P.U.^.@./ e.C.0XqXV.S.sXpXjXjXjXjXjXaXaXaXaXaXaXaXpX",
"L.H.R.^.J.y.a.p.i.j 7 y :.!.sX!.sXjXjXkXjXjXjXjXjXjXaXfXaXgXpXgX",
"h./.R.R.C.` u u +.C.V.A.S.!.fXjXkXkXkXkXfXjXfXfXaXaXaXaXaXaXpXpX",
"UXUXUXUXUXUXUXUXUXUXUXUXUXUXUXUXUXUXUXUXUXUXUXUXUXUXUXUXUXUXUXUX",
"UXUXUXUXUXUXUXUXUXUXUXUXUXUXUXUXUXUXUXUXUXUXUXUXUXUXUXUXUXUXUXUX",
"UXUXUXUXUXUXUXUXUXUXUXUXUXUXUXUXUXUXUXUXUXUXUXUXUXUXUXUXUXUXUXUX",
"UXUXUXUXUXUXUXUXUXUXUXUXUXUXUXUXUXUXUXUXUXUXUXUXUXUXUXUXUXUXUXUX"
};
