/* XPM */
static const char *bmpchk16_xpm[] = {
/* columns rows colors chars-per-pixel */
"21 16 62 1",
"  c #000000",
". c #503C3F",
"X c #5F482F",
"o c #5A4B32",
"O c #665423",
"+ c #605336",
"@ c #695B3C",
"# c #755E31",
"$ c #7B622E",
"% c #74603D",
"& c #404040",
"* c #5A4E4F",
"= c #766440",
"- c #584C65",
"; c #655F76",
": c #635E79",
"> c #826838",
", c #866A38",
"< c #896A3B",
"1 c #88763B",
"2 c #917438",
"3 c #957C3D",
"4 c #8F714B",
"5 c #987C4B",
"6 c #80675F",
"7 c #9B7E5C",
"8 c #897062",
"9 c #B08B44",
"0 c #AA8B50",
"q c #B58857",
"w c #BD9855",
"e c #B89559",
"r c #AE8A6C",
"t c #C39C5D",
"y c #D7A65E",
"u c #D59E6B",
"i c #CDA464",
"p c #797182",
"a c #666FA8",
"s c #6B72A1",
"d c #6D70A5",
"f c #7379B1",
"g c #7B80A9",
"h c #6F81CB",
"j c #7687D2",
"k c #798CDC",
"l c #798DDD",
"z c #808080",
"x c #838C93",
"c c #999596",
"v c #979FBB",
"b c #A5A5AB",
"n c #A0A0B6",
"m c #8893CB",
"M c #859BEA",
"N c #859CEA",
"B c #ABB9EE",
"V c #B7C9EF",
"C c #D4D0C8",
"Z c #CACBE3",
"A c #FFFFFF",
"X c None",
/* pixels */
"XXXXXXXXXXXXXXXXXXXXX",
"XXXXXXXXXXXXXXXXXXXXX",
"XXapshhhzzzzzzzzzzzzA",
"XXllkhjlz&&&&&&&&&&CA",
"XXNMd--fz&AAAAAAAAACA",
"XXBg.;:mz&AAAAAAA ACA",
"XXVv*snZz&AAAAAA  ACA",
"XXxc*rbcz&A AAA   ACA",
"XX+=oX%@z&A  A   AACA",
"XXO$,<5rz&A     AAACA",
"XX31>%68z&AA   AAAACA",
"XXw#<07iz&AAA AAAAACA",
"XXwqiye9z&AAAAAAAAACA",
"XXtu0254zCCCCCCCCCCCA",
"XXXXXXXXAAAAAAAAAAAAA",
"XXXXXXXXXXXXXXXXXXXXX"
};
