/* XPM */
static char * bmpchk16_xpm[] = {
"16 16 39 1",
" 	c None",
".	c #666FA8",
"+	c #797182",
"@	c #6B72A1",
"#	c #808080",
"$	c #FFFFFF",
"%	c #798DDD",
"&	c #798CDC",
"*	c #404040",
"=	c #D4D0C8",
"-	c #859CEA",
";	c #859BEA",
">	c #6D70A5",
",	c #ABB9EE",
"'	c #7B80A9",
")	c #503C3F",
"!	c #000000",
"~	c #B7C9EF",
"{	c #979FBB",
"]	c #5A4E4F",
"^	c #838C93",
"/	c #999596",
"(	c #605336",
"_	c #766440",
":	c #5A4B32",
"<	c #665423",
"[	c #7B622E",
"}	c #866A38",
"|	c #957C3D",
"1	c #88763B",
"2	c #826838",
"3	c #BD9855",
"4	c #755E31",
"5	c #896A3B",
"6	c #B58857",
"7	c #CDA464",
"8	c #C39C5D",
"9	c #D59E6B",
"0	c #AA8B50",
"                ",
"                ",
".+@############$",
"%%&#**********=$",
"-;>#*$$$$$$$$$=$",
",')#*$$$$$$$!$=$",
"~{]#*$$$$$$!!$=$",
"^/]#*$!$$$!!!$=$",
"(_:#*$!!$!!!$$=$",
"<[}#*$!!!!!$$$=$",
"|12#*$$!!!$$$$=$",
"345#*$$$!$$$$$=$",
"367#*$$$$$$$$$=$",
"890#===========$",
"   $$$$$$$$$$$$$",
"                "};
