/* XPM */
static const char *bmpswi32_xpm[] = {
/* columns rows colors chars-per-pixel */
"32 32 256 2",
"   c #000000",
".  c #372F1B",
"X  c #000F37",
"o  c #191823",
"O  c #3F3628",
"+  c #433323",
"@  c #4C393C",
"#  c #503632",
"$  c #57451E",
"%  c #4D431A",
"&  c #5C4936",
"*  c #514329",
"=  c #6D5B2B",
"-  c #745E2D",
";  c #695935",
":  c #755A33",
">  c #644C2D",
",  c #7A6332",
"<  c #7B6934",
"1  c #78622B",
"2  c #150D5B",
"3  c #040376",
"4  c #1B2965",
"5  c #393775",
"6  c #333367",
"7  c #4F3E46",
"8  c #39436D",
"9  c #3C4975",
"0  c #434042",
"q  c #554446",
"w  c #584757",
"e  c #5D575D",
"r  c #4D435D",
"t  c #675B43",
"y  c #665958",
"u  c #634547",
"i  c #7A6744",
"p  c #7D695E",
"a  c #424E7A",
"s  c #5A5979",
"d  c #595966",
"f  c #71596C",
"g  c #5C617F",
"h  c #6D676F",
"j  c #82643A",
"k  c #8B6D3A",
"l  c #846B36",
"z  c #85703B",
"x  c #937635",
"c  c #8A6D29",
"v  c #856D41",
"b  c #926F44",
"n  c #897444",
"m  c #977747",
"M  c #8A6E58",
"N  c #977E5D",
"B  c #A87E47",
"V  c #8B7670",
"C  c #A37D6B",
"Z  c #7F827D",
"A  c #A4833F",
"S  c #998142",
"D  c #A68648",
"F  c #AC8E50",
"G  c #B89652",
"H  c #BC9954",
"J  c #B8914C",
"K  c #9F8160",
"L  c #978979",
"P  c #A4856C",
"I  c #B99765",
"U  c #BC8D7C",
"Y  c #BB9377",
"T  c #A5986F",
"R  c #BBA17E",
"E  c #C49859",
"W  c #C2964B",
"Q  c #C9A35E",
"!  c #D4A358",
"~  c #C59C64",
"^  c #D49D6B",
"/  c #D79D68",
"(  c #C6967D",
")  c #CCA363",
"_  c #CBA468",
"`  c #DDB063",
"'  c #E4AF60",
"]  c #0A0B8C",
"[  c #04058A",
"{  c #061791",
"}  c #171A96",
"|  c #10128A",
" . c #0D348D",
".. c #022495",
"X. c #152697",
"o. c #0B3492",
"O. c #0B3699",
"+. c #16339C",
"@. c #19359C",
"#. c #21349F",
"$. c #29238B",
"%. c #2833A4",
"&. c #0F4FB3",
"*. c #1857B8",
"=. c #0C4BB2",
"-. c #2645A3",
";. c #3247A6",
":. c #3151A8",
">. c #3E4FB2",
",. c #2756B0",
"<. c #1D60BF",
"1. c #3F64AF",
"2. c #2362BD",
"3. c #59458C",
"4. c #534B91",
"5. c #615D82",
"6. c #6F548E",
"7. c #767889",
"8. c #737793",
"9. c #4153AC",
"0. c #465AB7",
"q. c #4E50AE",
"w. c #586ABA",
"e. c #5A7ABA",
"r. c #5976B9",
"t. c #656EA4",
"y. c #6A72AA",
"u. c #6879BB",
"i. c #7279B7",
"p. c #6A70B1",
"a. c #1761C5",
"s. c #2263C1",
"d. c #246BCA",
"f. c #286AC6",
"g. c #2C72CE",
"h. c #2670CE",
"j. c #2B75D3",
"k. c #2F7BD9",
"l. c #3379D4",
"z. c #357ED9",
"x. c #3477D0",
"c. c #3072CC",
"v. c #546BC5",
"b. c #407FD3",
"n. c #5076C9",
"m. c #6678C1",
"M. c #6A7BC4",
"N. c #6C7ECA",
"B. c #6478CD",
"V. c #727DC0",
"C. c #967988",
"Z. c #8E6D8C",
"A. c #3581DC",
"S. c #3A84DD",
"D. c #3F8BE3",
"F. c #3687E1",
"G. c #3A90EC",
"H. c #4F80CA",
"J. c #5588D1",
"K. c #5A92DA",
"L. c #5788CF",
"P. c #6D80CA",
"I. c #7081CD",
"U. c #7284D1",
"Y. c #7689D5",
"T. c #768ADA",
"R. c #7A8BDA",
"E. c #788BD6",
"W. c #7C90DB",
"Q. c #7A92D7",
"!. c #6291D5",
"~. c #4290E7",
"^. c #4695EB",
"/. c #4897EC",
"(. c #579AE7",
"). c #4A9CF1",
"_. c #449CF6",
"`. c #418FE7",
"'. c #7C90E1",
"]. c #639FE5",
"[. c #4FA2F5",
"{. c #4EA8FF",
"}. c #47A4FD",
"|. c #53A9FD",
" X c #54A8FA",
".X c #7DB9F6",
"XX c #66ACF4",
"oX c #8F898A",
"OX c #A7828B",
"+X c #BDAA8B",
"@X c #9B98AE",
"#X c #97A6BB",
"$X c #C89688",
"%X c #D59E8B",
"&X c #DA9E8B",
"*X c #D5A18D",
"=X c #DBA18C",
"-X c #DAA291",
";X c #DAAF94",
":X c #CDA585",
">X c #E1A18C",
",X c #8B92CB",
"<X c #839BCB",
"1X c #8398DB",
"2X c #8091DF",
"3X c #969ED2",
"4X c #868CCA",
"5X c #88A3D3",
"6X c #9CA3D4",
"7X c #9FADD4",
"8X c #ACBAD9",
"9X c #B0B6DA",
"0X c #ACAFDA",
"qX c #8195E4",
"wX c #859AEB",
"eX c #88A0EC",
"rX c #94AAF1",
"tX c #90BDEF",
"yX c #B7BAE0",
"uX c #B2C0DB",
"iX c #BCC2DA",
"pX c #82C1FD",
"aX c #9DCCFB",
"sX c #BDCCEB",
"dX c #BBC7E9",
"fX c #AEC6F0",
"gX c #B6DAFD",
"hX c #ADC8E9",
"jX c #C4CADD",
"kX c #C5CBE2",
"lX c #C4C9E1",
"zX c #CBD1E3",
"xX c #D1D6E6",
"cX c #D8DEED",
"vX c #D7D9E8",
"bX c #C0DEFD",
"nX c #D9DFF0",
"mX c #E0DFE6",
"MX c #DDE1EB",
"NX c #D9E6F7",
"BX c #C8E2FB",
"VX c #E8E6EB",
"CX c #ECE9EC",
"ZX c #E4E2E7",
"AX c #F3EDEC",
"SX c #F6F0EE",
"DX c #ECEDF0",
"FX c #EDEFF8",
"GX c #F0EFF2",
"HX c #EEF0F3",
"JX c #E5F0FB",
"KX c #F4F2F3",
"LX c #F8F4F2",
"PX c #FEFEFD",
"IX c #F9F8F3",
"UX c None",
/* pixels */
"UXUXUXUXUXUXUXUXUXUXUXUXUXUXUXUXUXUXUXUXUXUXUXUXUXUXUXUXUXUXUXUX",
"UXUXUXUXUXUXUXUXUXUXUXUXUXUXUXUXUXUXUXUXUXUXUXUXUXUXUXUXUXUXUXUX",
"UXUXUXUXUXUXUXUXUXUXUXUXUXUXUXUXUXUXUXUXUXUXUXUXUXUXUXUXUXUXUXUX",
"UXUXUXUXUXUXUXUXUXUXUXUXUXUXUXUXUX..{ UXUXUXUXUXUXUXUXUXUXUXUXUX",
"N.q M V y y.P.P.P.N.I.P.N.N.N.N.w.+.0.{ :.M.M.M.M.m.M.m.M.m.m.u.",
"U.u.t.t.p.U.I.U.I.I.a r I.I.N.N.v.+.NX8X#.X.w.N.M.N.M.N.M.M.N.M.",
"T.T.T.T.T.T.I.E.E.E.    a U.U.Y.v.@.MXPXVXw.{ >.N.I.P.P.P.P.N.P.",
"'.'.'.'.W.W.i.i.P.R.      R.R.R.v.@.MXPXPXPX6XX.%.N.U.Y.P.U.U.U.",
"'.wX'.wXR.y.5.s 7 5.o     qX'.qXB.+.cXPXJXPXPXxX%.X.B.T.Y.E.E.E.",
"eXeXeXeXi.w w 7 r 5 4 X X v.v.v.>.X.cXPXpXaXPXPXFXp.] v.R.W.R.Q.",
"rXrXrXy.q 7 d 5. .-.>.:.:.:.:.:.-.9.MXPX.X}.pXJXPXPX4X[ 0.qX1X1X",
"sXkX6X@ # @ d 8.o.8XIXDXDXDXDXHXKXFXIXKX.X}.{.XXNXPXPX6X] 6.@X5X",
"sXkXdX7.y q p V O.uXHXZXVXDXCXDXFXKXGXKX.X_. X{.|.bXPXPX3X] f C ",
"fXfXfX8.0 y h 8XO.8XSX7XH.H.J.K.K.(.].].(.).).|.|.{.gXPXPX,X| u ",
"sX#XsX7.e q @XiXO.8XSX5X&.a.a.h.j.l.A.F.`.^.).[.|.|.{.gXPXPXq.2 ",
"7.O L P & O & p o.uXSX5Xa.a.f.g.j.l.z.D.`.^./.).[.|.|.|.NXPX0X3 ",
"& & t t # . + & 4 8XAXQ.&.<.2.2.f.x.l.z.S.S.^./.).[. X{.BXPX9X3 ",
"; ; : n i : > : o.8XAX<X=.*.<.<.s.d.j.j.A.S.`.~./.)._.aXPXPXw.2 ",
". % $ - , B b b o.8XAX#X=.&.<.2.f.f.c.x.l.A.S.F.`.G.pXIXPX9X[ f ",
"c x k x , , - k o.8XZXjXiXjXjXiXkXzXzXzXK.j.A.A.S.tXSXIXlX} 6 C ",
"c S S < < l : ; o.uXAXVXSXSXSXSXLXLXAXVX!.f.j.A.tXKXPXkX} 5 OX>X",
"n D S < l l j i o.1.e.e.e.e.e.e.w.u.MXVXL.a.H.hXLXPX9X} 3.&X=X=X",
"F H z < < < z M d 9 g g g g 9 4 4 X.zXVXH.L.xXIXIX,X| 6.-X;X-X=X",
"Q H - $ m m ) K P H ` ` H D < t h +.zXmXuXMXIXCXp.| Z.=X-X-X-X-X",
"H J m b _ _ ' _ I E W ! F l T :XoX@.zXMXZXLXzX%.$.C.$X$X( ( U U ",
"H E ^ ^ ) ! ! ! Q S c D I +XR R C.o.zXCXCX,XX.3.$X>X&X-X>X&X&X%X",
"Q E ^ ^ E D J D F ; $ = N ( :X( OXo.MXxX9.} C.>X>X>X&X&X&X&X%X&X",
"G _ ^ ^ E l - = k I Y Y Y ( ;X=XOX@.u.X.4.$X=X=X>X>X&X&X&X&X%X%X",
"UXUXUXUXUXUXUXUXUXUXUXUXUXUXUXUXUX..{ UXUXUXUXUXUXUXUXUXUXUXUXUX",
"UXUXUXUXUXUXUXUXUXUXUXUXUXUXUXUXUXUXUXUXUXUXUXUXUXUXUXUXUXUXUXUX",
"UXUXUXUXUXUXUXUXUXUXUXUXUXUXUXUXUXUXUXUXUXUXUXUXUXUXUXUXUXUXUXUX",
"UXUXUXUXUXUXUXUXUXUXUXUXUXUXUXUXUXUXUXUXUXUXUXUXUXUXUXUXUXUXUXUX"
};
