/* XPM */
static const char * bmpswi16_xpm[] = {
"16 16 183 2",
"  	c None",
". 	c #666FA8",
"+ 	c #797182",
"@ 	c #6B72A1",
"# 	c #7082CD",
"$ 	c #6F81CB",
"% 	c #6E81CA",
"& 	c #3449A6",
"* 	c #152B98",
"= 	c #6D7FC7",
"- 	c #6C7DC7",
"; 	c #6B7CC6",
"> 	c #6A7CC5",
", 	c #6A7BC4",
"' 	c #697BC3",
") 	c #687AC2",
"! 	c #798EDF",
"~ 	c #798DDD",
"{ 	c #798CDC",
"] 	c #727FC5",
"^ 	c #7687D2",
"/ 	c #7889D8",
"( 	c #7889D9",
"_ 	c #5063B7",
": 	c #BEC8E4",
"< 	c #5461B4",
"[ 	c #2C36A1",
"} 	c #5D6EBC",
"| 	c #6A7CC4",
"1 	c #7283CF",
"2 	c #7083CE",
"3 	c #7083CD",
"4 	c #859CEA",
"5 	c #859BEA",
"6 	c #6D70A5",
"7 	c #584C65",
"8 	c #5D4C62",
"9 	c #7379B1",
"0 	c #8395E4",
"a 	c #4B5DB4",
"b 	c #F8FAFC",
"c 	c #FFFDFD",
"d 	c #9EA4D4",
"e 	c #232D9E",
"f 	c #505EB9",
"g 	c #7B8FDA",
"h 	c #7A8ED8",
"i 	c #798ED6",
"j 	c #ABB9EE",
"k 	c #797DA5",
"l 	c #405198",
"m 	c #4453A3",
"n 	c #4253A7",
"o 	c #4F62B7",
"p 	c #424FAC",
"q 	c #3D48A7",
"r 	c #ECF0F6",
"s 	c #A5D4FF",
"t 	c #E5F7FF",
"u 	c #DEDCEC",
"v 	c #4648AA",
"w 	c #8182AA",
"x 	c #928FB3",
"y 	c #8D9AD0",
"z 	c #B7C9EF",
"A 	c #9096B2",
"B 	c #355BAC",
"C 	c #B7C3DC",
"D 	c #BFC5DE",
"E 	c #BAC0DC",
"F 	c #D0CFE2",
"G 	c #FFF9F6",
"H 	c #67B0F9",
"I 	c #4FA9FF",
"J 	c #CAE7FF",
"K 	c #FDFAF9",
"L 	c #6A6BB9",
"M 	c #000085",
"N 	c #966D55",
"O 	c #838C93",
"P 	c #99979F",
"Q 	c #5371B5",
"R 	c #FCF9F4",
"S 	c #A4BDE1",
"T 	c #93B5E3",
"U 	c #9EC1EA",
"V 	c #A0C5EE",
"W 	c #95BDEC",
"X 	c #59A2EF",
"Y 	c #449FF9",
"Z 	c #4BA7FE",
"` 	c #A4D7FF",
" .	c #40281D",
"..	c #605336",
"+.	c #796849",
"@.	c #4F6EB2",
"#.	c #E1E1E9",
"$.	c #3069C1",
"%.	c #0F59C0",
"&.	c #1F6ACB",
"*.	c #2774D5",
"=.	c #2F80DE",
"-.	c #408FE7",
";.	c #4B9AEF",
">.	c #4EA2F7",
",.	c #3737A2",
"'.	c #665423",
").	c #7B622E",
"!.	c #6170A4",
"~.	c #DDDFE6",
"{.	c #265DB6",
"].	c #054AB4",
"^.	c #165DC1",
"/.	c #2572D3",
"(.	c #3884DE",
"_.	c #4798EE",
":.	c #3E99F5",
"<.	c #94CDFF",
"[.	c #3F3EA6",
"}.	c #957C3D",
"|.	c #88763B",
"1.	c #636F9E",
"2.	c #EFEAEA",
"3.	c #7993C8",
"4.	c #6489C7",
"5.	c #7097D0",
"6.	c #739CD5",
"7.	c #6D9AD8",
"8.	c #4183D7",
"9.	c #317FDC",
"0.	c #3084E2",
"a.	c #8ABCF1",
"b.	c #8182C6",
"c.	c #1A1388",
"d.	c #BE9855",
"e.	c #755E31",
"f.	c #615F92",
"g.	c #C8CEDF",
"h.	c #CBCFDE",
"i.	c #D9D9E4",
"j.	c #F1EBEB",
"k.	c #457FD0",
"l.	c #1E6DCF",
"m.	c #FFFFFA",
"n.	c #180F88",
"o.	c #D9A190",
"p.	c #BD9855",
"q.	c #B48857",
"r.	c #696A81",
"s.	c #686282",
"t.	c #6D6277",
"u.	c #635975",
"v.	c #393C7E",
"w.	c #4350A6",
"x.	c #6B94D1",
"y.	c #C4D5E9",
"z.	c #F1EEEF",
"A.	c #5B5EB2",
"B.	c #020288",
"C.	c #CF9885",
"D.	c #CA9684",
"E.	c #C39C5D",
"F.	c #D59E6B",
"G.	c #AA8B50",
"H.	c #917438",
"I.	c #987C4B",
"J.	c #8F714B",
"K.	c #B99378",
"L.	c #4753A3",
"M.	c #E5E6EA",
"N.	c #FAF6F1",
"O.	c #BABDDA",
"P.	c #3A399B",
"Q.	c #7D5D84",
"R.	c #DAA08C",
"S.	c #D99F8C",
"T.	c #D69F8C",
"U.	c #4758A7",
"V.	c #CBD0E0",
"W.	c #6B73BA",
"X.	c #4C3F8D",
"Y.	c #B2838B",
"Z.	c #0E319B",
"                                ",
"                                ",
". + @ # # $ % & * = - ; > , ' ) ",
"! ~ { ] ^ / ( _ : < [ } | 1 2 3 ",
"4 5 6 7 8 9 0 a b c d e f g h i ",
"j k l m n o p q r s t u v w x y ",
"z A B C D D E F G H I J K L M N ",
"O P Q R S T U V W X Y Z ` c L  .",
"..+.@.#.$.%.&.*.=.-.;.>.Z ` b ,.",
"'.).!.~.{.].^.&./.(.-._.:.<.c [.",
"}.|.1.2.3.4.5.6.7.8.9.0.a.c b.c.",
"d.e.f.g.h.h.g.i.j.k.l.U m.b.n.o.",
"p.q.r.s.t.u.v.w.~.x.y.z.A.B.C.D.",
"E.F.G.H.I.J.K.L.M.N.O.P.Q.R.S.T.",
"              U.V.W.X.Y.        ",
"              Z.[               "};
