/* XPM */
static const char *bmpswi16_xpm[] = {
/* columns rows colors chars-per-pixel */
"21 16 212 2",
"   c #503C3F",
".  c #5F482F",
"X  c #5A4B32",
"o  c #53473F",
"O  c #665423",
"+  c #605336",
"@  c #755E31",
"#  c #775F39",
"$  c #7B622E",
"%  c #74603D",
"&  c #5A4E4F",
"*  c #766440",
"=  c #5D4C62",
"-  c #584C65",
";  c #655F76",
":  c #635E79",
">  c #826838",
",  c #866A38",
"<  c #896A3B",
"1  c #8B6F3E",
"2  c #88763B",
"3  c #917438",
"4  c #957C3D",
"5  c #8F714B",
"6  c #9A7B48",
"7  c #987C4B",
"8  c #80675F",
"9  c #9B7E5C",
"0  c #9F8154",
"q  c #B08B44",
"w  c #AA8B50",
"e  c #A68D5D",
"r  c #B58857",
"t  c #BD9855",
"y  c #BE9855",
"u  c #B89559",
"i  c #BA9475",
"p  c #B79F7D",
"a  c #BD9D7D",
"s  c #C39C5D",
"d  c #D7A65E",
"f  c #D59E6B",
"g  c #CDA464",
"h  c #000085",
"j  c #020387",
"k  c #000189",
"l  c #020288",
"z  c #152B98",
"x  c #0E319B",
"c  c #13359C",
"v  c #273180",
"b  c #273D81",
"n  c #232D9E",
"m  c #21369F",
"M  c #3A399B",
"N  c #2C36A1",
"B  c #2E3BA3",
"V  c #3737A3",
"C  c #3F3EA6",
"Z  c #4C3F8D",
"A  c #274081",
"S  c #394E87",
"D  c #054AB4",
"F  c #3D48A7",
"G  c #3C55A4",
"H  c #3F52AD",
"J  c #355BAC",
"K  c #324EB0",
"L  c #265DB6",
"P  c #3550B1",
"I  c #3551B1",
"U  c #3B60AE",
"Y  c #795A84",
"T  c #536084",
"R  c #797182",
"E  c #4648AA",
"W  c #4753A3",
"Q  c #4350A6",
"!  c #4758A7",
"~  c #4157AE",
"^  c #5B5EB2",
"/  c #505EB9",
"(  c #4F6DB2",
")  c #4F6EB3",
"_  c #5461B4",
"`  c #596BBC",
"'  c #5D6EBC",
"]  c #5270B4",
"[  c #5371B5",
"{  c #666FA8",
"}  c #6B72A1",
"|  c #6D70A5",
" . c #6A6BB9",
".. c #6B73BA",
"X. c #7070BD",
"o. c #0F59C0",
"O. c #165DC1",
"+. c #1D67C9",
"@. c #1F6ACB",
"#. c #1E6DCF",
"$. c #3069C1",
"%. c #2572D3",
"&. c #2774D5",
"*. c #317FDC",
"=. c #457FD0",
"-. c #687AC2",
";. c #6577CA",
":. c #6E7FC8",
">. c #6E7FCA",
",. c #727FC5",
"<. c #7B80A9",
"1. c #2F80DE",
"2. c #3884DE",
"3. c #3084E2",
"4. c #3E99F5",
"5. c #4183D7",
"6. c #6489C7",
"7. c #6E81CA",
"8. c #6F81CB",
"9. c #7082CD",
"0. c #7993C8",
"q. c #7687D2",
"w. c #7788D5",
"e. c #7888D7",
"r. c #7889D8",
"t. c #7889D9",
"y. c #798CDC",
"u. c #798DDD",
"i. c #798EDF",
"p. c #6B94D1",
"a. c #6D9AD8",
"s. c #7097D0",
"d. c #739CD5",
"f. c #408FE7",
"g. c #4390E5",
"h. c #4798EE",
"j. c #4B9AEF",
"k. c #449FF9",
"l. c #59A2EF",
"z. c #4EA2F7",
"x. c #47A5FE",
"c. c #4BA7FE",
"v. c #4FA9FF",
"b. c #67B0F9",
"n. c #8B8486",
"m. c #88808C",
"M. c #838C93",
"N. c #999596",
"B. c #B58C85",
"V. c #B2838B",
"C. c #BB8B8F",
"Z. c #979FBB",
"A. c #A5A5AB",
"S. c #A0A0B6",
"D. c #D69F8C",
"F. c #D4A488",
"G. c #DDA38C",
"H. c #8082C5",
"J. c #8182C6",
"K. c #9EA4D4",
"L. c #BABDDA",
"P. c #859BEA",
"I. c #859CEA",
"U. c #93B5E3",
"Y. c #95BDEC",
"T. c #8ABCF1",
"R. c #A4BDE1",
"E. c #ABB9EE",
"W. c #B7C3DC",
"Q. c #BAC0DC",
"!. c #BFC6DD",
"~. c #BFC5DE",
"^. c #9FC1E9",
"/. c #9EC1EA",
"(. c #94CDFF",
"). c #A0C5EE",
"_. c #BEC8E4",
"`. c #B7C9EF",
"'. c #A5D4FF",
"]. c #A4D7FF",
"[. c #A8D8FF",
"{. c #C8CDDF",
"}. c #C8CEDF",
"|. c #CBCFDE",
" X c #D0CFE2",
".X c #CBD0E0",
"XX c #C4D5E9",
"oX c #D0D5E4",
"OX c #D9D9E4",
"+X c #DDDFE6",
"@X c #DADCE8",
"#X c #DEDCEC",
"$X c #CAE7FF",
"%X c #E1E1E9",
"&X c #E5E6EA",
"*X c #EFEAEA",
"=X c #F1EBEB",
"-X c #F1EEEF",
";X c #ECF0F6",
":X c #E5F7FF",
">X c #FAF6F1",
",X c #FCF9F4",
"<X c #FFF9F6",
"1X c #F8F7FA",
"2X c #FDFAF9",
"3X c #FFFFFA",
"4X c #F8FAFC",
"5X c #FFFDFD",
"6X c #FDFDFE",
"7X c #FFFFFE",
"8X c #FFFFFF",
"9X c None",
/* pixels */
"9X9X9X9X9X9X9X9X9X9X9X9X9X9X9X9X9X9X9X9X9X",
"9X9X9X9X9X9X9X9X9X9X9X9Xx z 9X9X9X9X9X9X9X",
"9X9X{ R } 9.9.9.9.8.:.` ~ _._ N ' -.9X9X9X",
"9X9Xu.u.t.,.q.t.e.e.w.;.H 4X5XK.n / 9X9X9X",
"9X9XI.P.| - = G K P P B F ;X'.:X#XE 9X9X9X",
"9X9XE.<.  ; : J W.~.~.Q. X<Xb.v.$X2X .h 9X",
"9X9X`.Z.& } Z.[ ,XR.U./.).Y.l.k.c.].5X .9X",
"9X9XM.N.& e A.) %X$.o.@.&.1.f.j.z.c.].4XV ",
"9X9X+ % . O % [ +XL D O.@.%.2.f.h.4.(.5XC ",
"9X9XO $ > , 0 [ *X0.6.s.d.a.5.*.3.T.5XJ.l ",
"9X9X3 2 $ % ; ! }.|.|.}.OX=X=.#./.3XJ.l 9X",
"9X9Xt @ 5 w 0 T S A b v Q +Xp.XX-X^ l 9X9X",
"9X9Xt r g d u q e p a B.W &X>XL.M Y 9X9X9X",
"9X9Xs f w 3 7 5 i F.G.C.! .X..Z V.F.9X9X9X",
"9X9X9X9X9X9X9X9X9X9X9X9Xx N 9X9X9X9X9X9X9X",
"9X9X9X9X9X9X9X9X9X9X9X9X9X9X9X9X9X9X9X9X9X"
};
