/* XPM */
static const char * lcd16_xpm[] = {
/* width height num_colors chars_per_pixel */
"16 16 30 1",
/* colors */
"  c #f8f8f8",
"! c #ececec",
"# c #e0e0e0",
"$ c #c6c6c6",
"% c #393939",
"& c #363636",
"' c #090909",
"( c #050505",
") c #00f400",
"* c #00f200",
"+ c #00ba00",
", c #00b500",
"- c #008000",
". c #007f00",
"/ c #005200",
"0 c #004000",
"1 c #003d00",
"2 c #002f00",
"3 c #002e00",
"4 c #002000",
"5 c #001f00",
"6 c #001400",
"7 c #001000",
"8 c #000a00",
"9 c #000500",
": c #000400",
"; c #000300",
"< c #000200",
"= c #000100",
"> c #000000",
/* pixels */
"$$$$$$$$$$$$$$$#",
"&&&&&&&&&&&&&&%!",
">=====>>;999;>(!",
"=41114=;.*)*.;(!",
"=1;=;1=9*898*9(!",
"=1=>=1=9)9>9)9(!",
"=1=>=1=9)9>9)9(!",
"=3<=<3=9,:=:,9(!",
"=45554=;/555/;(!",
"=1=>=1=9*9>9*9(!",
"=1=>=1=9)9>9)9(!",
"=1=>=1=9)9>9)9(!",
"=24442=9+---+6(!",
">74447>>0.-.0=(!",
"(((((((((((((('!",
"!!!!!!!!!!!!!!! "
};
