/* XPM */
static const char * lcd32_xpm[] = {
/* width height num_colors chars_per_pixel */
"32 32 8 1",
/* colors */
"  c #ffffff",
"! c #f0f0f0",
"# c #e3e3e3",
"$ c #a0a0a0",
"% c #696969",
"& c #00ff00",
"' c #004000",
"( c #000000",
/* pixels */
"!!!!!!!!!!!!!!!!!!!!!!!!!!!!!!!!",
"$$$$$$$$$$$$$$$$$$$$$$$$$$$$$$$ ",
"%%%%%%%%%%%%%%%%%%%%%%%%%%%%%%# ",
"((((((((((((((((((((((((((((((# ",
"((((((((((((((((((((((((((((((# ",
"((((((((((((((((((((((((((((((# ",
"(((''''''''((((((&&&&&&&&(((((# ",
"(('(''''''('((((&(&&&&&&(&((((# ",
"((''((((((''((((&&((((((&&((((# ",
"((''((((((''((((&&((((((&&((((# ",
"((''((((((''((((&&((((((&&((((# ",
"((''((((((''((((&&((((((&&((((# ",
"((''((((((''((((&&((((((&&((((# ",
"((''((((((''((((&&((((((&&((((# ",
"((''((((((''((((&&((((((&&((((# ",
"(('(((((((('((((&((((((((&((((# ",
"(((''''''''((((((''''''''(((((# ",
"(('(((((((('((((&((((((((&((((# ",
"((''((((((''((((&&((((((&&((((# ",
"((''((((((''((((&&((((((&&((((# ",
"((''((((((''((((&&((((((&&((((# ",
"((''((((((''((((&&((((((&&((((# ",
"((''((((((''((((&&((((((&&((((# ",
"((''((((((''((((&&((((((&&((((# ",
"((''((((((''((((&&((((((&&((((# ",
"(('(''''''('((((&(&&&&&&(&('((# ",
"(((''''''''((((((&&&&&&&&(((((# ",
"((((((((((((((((((((((((((((((# ",
"((((((((((((((((((((((((((((((# ",
"((((((((((((((((((((((((((((((# ",
"############################### ",
"                                "
};
