/* XPM */
static const char * linmet32_xpm[] = {
/* width height num_colors chars_per_pixel */
"32 32 25 1",
/* colors */
"  c None",
"! c #ffffff",
"# c #fff6f6",
"$ c #ffbdbd",
"% c #ff4141",
"& c #ff0000",
"' c #fbf9fa",
"( c #f4000b",
") c #f1fff8",
"* c #eaffed",
"+ c #d9e8f0",
", c #bcff9a",
"- c #9898ac",
". c #7dff8a",
"/ c #74008b",
"0 c #0500fa",
"1 c #008679",
"2 c #0069ab",
"3 c #0048bc",
"4 c #0025da",
"5 c #000dcc",
"6 c #0005d3",
"7 c #0000ff",
"8 c #000073",
"9 c #000056",
/* pixels */
"           &&&&&&&&&            ",
"           &!!!!!!!&            ",
"           &!!-+'!!&            ",
"           &!!!!!!!&            ",
"           &!!!!!!!&            ",
"           &!!!!!!!&            ",
"           &!!!!!!!&            ",
"           &!!!!!!!&            ",
"           &!!!!!!!&            ",
"           &!!!!!!!&            ",
"           &!!!!!!!&            ",
"           &!!!!!!!&            ",
"           &!!!!)*!&            ",
"           &!!!!.,!&            ",
"           &!!!!!!!&            ",
"           &!!$#%!!&            ",
"           &77/0(77&            ",
"           &7777777&            ",
"           &7777777&            ",
"           &7777777&            ",
"           &7777777&            ",
"           &7777777&            ",
"           &7777777&            ",
"           &7777261&            ",
"           &7777777&            ",
"           &7777777&            ",
"           &7777777&            ",
"           &7777354&            ",
"           &7777777&            ",
"           &7778777&            ",
"           &7779777&            ",
"           &&&&&&&&&            "
};
