/* XPM */
static const char * linmet16_xpm[] = {
/* width height num_colors chars_per_pixel */
"16 16 31 1",
/* colors */
"  c None",
"! c #ffffff",
"# c #fffcfc",
"$ c #ffc3c3",
"% c #ff0000",
"& c #fefffe",
"' c #fefdfe",
"( c #fefbfc",
") c #fec3c2",
"* c #fbe7eb",
"+ c #fbbfc3",
", c #faf7fc",
"- c #facecf",
". c #dfe2e8",
"/ c #caffc7",
"0 c #4206c3",
"1 c #3e3293",
"2 c #3e0fb6",
"3 c #3e04c1",
"4 c #3e03c3",
"5 c #3e02c3",
"6 c #3d03c5",
"7 c #2404e0",
"8 c #0905fb",
"9 c #0300fc",
": c #001be0",
"; c #0014e4",
"< c #0001fe",
"= c #0001fc",
"> c #0000ff",
"? c #0000dd",
/* pixels */
"     %%%%%%     ",
"     %(.'$%     ",
"     %#!!$%     ",
"     %#!!$%     ",
"     %#!!$%     ",
"     %#!!$%     ",
"     %#&/)%     ",
"     %,*-+%     ",
"     %8760%     ",
"     %9>>5%     ",
"     %9>>5%     ",
"     %9<:1%     ",
"     %9><3%     ",
"     %9<;2%     ",
"     %9?=4%     ",
"     %%%%%%     "
};
