/* XPM */
static const char * linreg32_xpm[] = {
/* width height num_colors chars_per_pixel */
"32 32 17 1",
/* colors */
"  c None",
"! c #ffffff",
"# c #ff0000",
"$ c #cbf1f7",
"% c #a1a1ad",
"& c #9898ac",
"' c #91aac2",
"( c #7dff7d",
") c #6a85a0",
"* c #68657b",
"+ c #58565f",
", c #00ff00",
"- c #00f700",
". c #00b100",
"/ c #008300",
"0 c #007c00",
"1 c #005400",
/* pixels */
"           #########            ",
"           #!!!!!!!#            ",
"           #!!&$%!!#            ",
"           #!!!!!!!#            ",
"           #!!!!!!!#            ",
"           #!!!!!!!#            ",
"           #!!!!'*!#            ",
"           #!!!!)+!#            ",
"           #!!!!!!!#            ",
"           #!!!!!!!#            ",
"           #!!!!!!!#            ",
"           #!!!!!!!#            ",
"           #!!!!!!!#            ",
"           #!!!!!!!#            ",
"           #!!!!!!!#            ",
"           #!!!!!!!#            ",
"           #!!!!!!!#            ",
"           #(((((((#            ",
"           #,,,,,,,#            ",
"           #,,,,,,,#            ",
"           #,,,,,,,#            ",
"           #,,,,,,,#            ",
"           #,,,,/-.#            ",
"           #,,,,,,,#            ",
"           #,,,,,,,#            ",
"           #,,,,,,,#            ",
"           #,,,,,,,#            ",
"           #,,,,,,,#            ",
"           #,,,,,,,#            ",
"           #,,,0,,,#            ",
"           #,,,1,,,#            ",
"           #########            "
};
