/* XPM */
static const char * linreg16_xpm[] = {
/* width height num_colors chars_per_pixel */
"16 16 26 1",
/* colors */
"  c None",
"! c #ffffff",
"# c #fffcfc",
"$ c #ffc3c3",
"% c #ff0000",
"& c #fefbfc",
"' c #fcfdfd",
"( c #fcfcfc",
") c #fcc0c0",
"* c #e9e9ec",
"+ c #dae3e9",
", c #ccc390",
"- c #bcfcba",
". c #bbffbb",
"/ c #7b8598",
"0 c #40c304",
"1 c #3ec302",
"2 c #3ec202",
"3 c #3ea802",
"4 c #05fc03",
"5 c #03ff03",
"6 c #03fc00",
"7 c #00ff00",
"8 c #00fe00",
"9 c #00e000",
": c #00df00",
/* pixels */
"     %%%%%%     ",
"     %&+*$%     ",
"     %#!'$%     ",
"     %#'/)%     ",
"     %#!($%     ",
"     %#!!$%     ",
"     %#!!$%     ",
"     %#!!$%     ",
"     %-..,%     ",
"     %4550%     ",
"     %6782%     ",
"     %6893%     ",
"     %6771%     ",
"     %6771%     ",
"     %6:81%     ",
"     %%%%%%     "
};
